<svg xmlns="http://www.w3.org/2000/svg" width="21" height="21" viewBox="0 0 21 21">
    <path fill="#444" fill-rule="nonzero" stroke="#444" stroke-width=".3" d="M15.888 20c-2.109 0-5.732-1.386-9.625-5.273-2.136-2.148-3.785-4.54-4.677-6.796-.811-2.229-.784-4.023.108-4.892l.19-.19a7.89 7.89 0 0 1 .459-.517C3.019 1.652 3.749 1 4.776 1c.892 0 1.73.49 2.569 1.522 2.163 2.691 1.351 3.86.027 5.22l-.136.135c0 .163.19.979 2.542 3.343 2.217 2.23 3.082 2.474 3.325 2.501l.163-.163c.649-.652 1.297-1.305 2.352-1.305.811 0 1.811.462 2.866 1.332.946.816 1.406 1.577 1.514 2.392v.027c.054 1.305-.973 2.23-1.676 2.854a4.167 4.167 0 0 1-.352.327c-.46.543-1.135.815-2.082.815zM4.803 2.006c-.622 0-1.162.489-1.703 1.033a6.202 6.202 0 0 0-.406.462l-.027.027-.216.217c-.568.571-.514 2.066.108 3.806.838 2.12 2.406 4.403 4.434 6.442 3.65 3.67 7.084 4.974 8.895 4.974.838 0 1.136-.272 1.271-.49.054-.054.081-.108.162-.135.081-.054.162-.136.27-.245l.028-.027c.73-.652 1.379-1.305 1.352-2.039-.082-.516-.46-1.087-1.163-1.712-1.136-.924-1.866-1.087-2.19-1.087-.595 0-1 .38-1.622 1.005l-.19.19a.936.936 0 0 1-.675.273c-.568 0-1.596-.3-4.083-2.8S5.722 7.877 6.479 7.143l.19-.19c1.054-1.06 1.649-1.658-.081-3.833-.65-.734-1.217-1.114-1.785-1.114z"/>
</svg>
