<svg xmlns="http://www.w3.org/2000/svg" width="31" height="30" viewBox="0 0 31 30">
    <g fill="none" fill-rule="nonzero" transform="translate(1)">
        <path fill="#DBD3FF" d="M27.792 27.946v.241H1.208v-.241c0-2.78 1.813-5.317 4.471-6.284l2.78-.966c1.691 1.691 3.866 2.658 6.041 2.658 2.175 0 4.35-.966 6.042-2.658l2.779.966c2.658.846 4.47 3.384 4.47 6.284zM13.292 14.5c0 .363.241.604.604.604.362 0 .604-.241.604-.604s-.242-.604-.604-.604c-.363 0-.604.241-.604.604zm.725-1.813c.362 0 .604-.362.483-.724 0 0 0-.605.967-1.209.966-.604 1.45-1.45 1.45-2.9S15.95 5.437 14.5 5.437c-1.45 0-2.417.967-2.417 2.417 0 .363.242.604.604.604.363 0 .605-.241.605-.604 0-1.087.845-1.208 1.208-1.208s1.208.12 1.208 1.208c0 .967-.241 1.45-.966 1.933-1.33.846-1.571 1.934-1.45 2.417 0 .242.241.483.725.483-.121 0-.121 0 0 0zM7.854 9.063c.242 0 .363 0 .484-.242.12-.121.241-.242.12-.363v-.12-.363c0-3.383 2.659-6.042 6.042-6.042s6.042 2.659 6.042 6.042v.483c0 .242 0 .363.12.484.121.12.363.241.484.241.241 0 .604.604.604 1.692 0 1.208-.483 1.813-.604 1.813a.368.368 0 0 0-.483 0c-.121.12-.363.241-.363.362-.846 3.383-3.142 5.68-5.68 5.68-2.537 0-4.832-2.297-5.678-5.68 0-.12-.242-.363-.363-.363h-.242c-.12 0-.241 0-.362.121-.242-.12-.725-.725-.725-1.933 0-1.088.362-1.692.604-1.813z"/>
        <path fill="#6124E2" stroke="#6124E2" stroke-width=".4" d="M16.917 7.854c0 1.45-.484 2.296-1.45 2.9-.967.604-.967 1.209-.967 1.209 0 .362-.242.604-.483.725h-.121c-.242 0-.604-.242-.604-.484-.121-.483.12-1.57 1.45-2.417.725-.483.966-.966.966-1.933 0-1.087-.845-1.208-1.208-1.208s-1.208.12-1.208 1.208c0 .363-.242.604-.604.604-.363 0-.605-.241-.605-.604 0-1.45.967-2.417 2.417-2.417 1.45 0 2.417.967 2.417 2.417z"/>
        <circle cx="13.896" cy="14.5" r="1" fill="#6124E2" stroke="#6124E2" stroke-width=".4"/>
        <path fill="#6124E2" stroke="#6124E2" stroke-width=".6" d="M14.5 19.938c-3.02 0-5.68-2.417-6.767-6.042-.966-.121-1.691-1.33-1.691-3.021 0-1.33.483-2.417 1.208-2.9v-.12c0-3.988 3.262-7.25 7.25-7.25s7.25 3.262 7.25 7.25v.12c.725.483 1.208 1.57 1.208 2.9 0 1.692-.725 2.9-1.691 3.02-1.209 3.626-3.746 6.043-6.767 6.043zM8.458 8.457c0 .242 0 .363-.12.484-.121.12-.363.12-.484.12-.242.121-.604.726-.604 1.813 0 1.208.483 1.813.604 1.813.121-.121.242-.121.363-.121h.241c.121.12.363.241.363.362.846 3.383 3.142 5.68 5.679 5.68 2.538 0 4.833-2.297 5.68-5.68 0-.12.24-.362.362-.362.12-.121.362 0 .483 0 .242.12.725-.484.725-1.692 0-1.088-.363-1.692-.604-1.813-.121 0-.363 0-.483-.241-.121-.121-.242-.242-.121-.363v-.12-.363c0-3.383-2.659-6.042-6.042-6.042S8.458 4.592 8.458 7.975v.483z"/>
        <path fill="#6124E2" stroke="#6124E2" stroke-width=".6" d="M5.317 20.454l3.141-1.087c.242-.121.484 0 .604.12 1.571 1.692 3.505 2.538 5.438 2.538 1.933 0 3.988-.967 5.438-2.537.12-.121.362-.242.604-.121l3.141 1.087c1.571.604 2.9 1.571 3.867 2.9.967 1.33 1.45 2.9 1.45 4.592v.846c0 .362-.242.604-.604.604H.604c-.362 0-.604-.242-.604-.604v-.846c0-3.384 2.175-6.404 5.317-7.492zm9.183 2.9c-2.175 0-4.35-.966-6.042-2.658l-2.779.966c-2.658.846-4.47 3.384-4.47 6.284v.241h26.583v-.241c0-2.78-1.813-5.317-4.471-6.284l-2.78-.966c-1.691 1.691-3.866 2.658-6.041 2.658z"/>
    </g>
</svg>
