<svg xmlns="http://www.w3.org/2000/svg" width="40" height="28" viewBox="0 0 40 28">
    <g fill="none" fill-rule="nonzero">
        <path fill="#DBD3FF" d="M31.672 12.852c3.344 0 6.098 2.755 6.098 6.099 0 3.344-2.754 6.098-6.098 6.098s-6.098-2.754-6.098-6.098c.065-3.41 2.754-6.099 6.098-6.099zM30.885 4.459c.131.328 1.967 3.607 3.541 6.623-.852-.328-1.77-.459-2.688-.459a8.305 8.305 0 0 0-6.492 3.147l-.656-7.934c0-1.77 1.508-3.279 3.279-3.279 1.311 0 2.492.722 3.016 1.902zM22.689 10.164l.327 4.393a5.557 5.557 0 0 0-2.95-.852 5.557 5.557 0 0 0-2.951.852l.328-4.393c0-1.312 1.18-2.426 2.557-2.426 1.508 0 2.623 1.114 2.689 2.426zM8.459 12.852c3.344 0 6.098 2.755 6.098 6.099 0 3.344-2.754 6.098-6.098 6.098s-6.098-2.754-6.098-6.098c.065-3.41 2.754-6.099 6.098-6.099zM15.607 5.836l-.328 3.803v.328l-.328 3.803a8.305 8.305 0 0 0-6.492-3.147c-.984 0-1.902.197-2.754.459 1.64-2.95 3.41-6.23 3.54-6.623.525-1.18 1.706-1.902 3.017-1.902 1.836 0 3.345 1.443 3.345 3.28z"/>
        <path fill="#6124E2" d="M38.82 14.623c.787 1.246 1.18 2.688 1.18 4.262 0 4.59-3.738 8.328-8.328 8.328-4.459 0-8.131-3.54-8.262-8a3.247 3.247 0 0 0-3.279-3.279 3.247 3.247 0 0 0-3.279 3.28c-.13 4.458-3.803 8-8.327 8-4.59 0-8.328-3.739-8.328-8.329 0-1.574.459-3.016 1.18-4.262l-.066-.066C3.607 10.361 7.082 4 7.28 3.541A5.564 5.564 0 0 1 12.328.328c3.016 0 5.508 2.492 5.508 5.508v.196a5.072 5.072 0 0 1 2.23-.524c.852 0 1.573.197 2.295.59v-.196c0-3.017 2.491-5.509 5.508-5.509a5.564 5.564 0 0 1 5.049 3.214c.197.459 3.672 6.82 5.967 11.016h-.065zm-1.05 4.262c0-3.344-2.754-6.098-6.098-6.098s-6.098 2.754-6.098 6.098c0 3.345 2.754 6.099 6.098 6.099a6.087 6.087 0 0 0 6.098-6.099zm-3.344-7.803c-1.64-2.95-3.41-6.23-3.54-6.623-.525-1.18-1.706-1.902-3.017-1.902a3.247 3.247 0 0 0-3.279 3.28l.656 7.933a8.305 8.305 0 0 1 6.492-3.147c.918 0 1.836.131 2.688.459zm-11.41 3.475l-.327-4.393c0-1.312-1.18-2.426-2.558-2.426-1.442 0-2.557 1.114-2.557 2.426l-.328 4.393a5.557 5.557 0 0 1 2.95-.852c.984 0 1.968.262 2.82.852zM15.28 9.64l.328-3.803c0-1.77-1.509-3.279-3.28-3.279A3.365 3.365 0 0 0 9.312 4.46c-.13.328-1.967 3.607-3.54 6.623.852-.328 1.77-.459 2.754-.459a8.305 8.305 0 0 1 6.491 3.147l.328-3.803c-.065-.13-.065-.262-.065-.328zm-.722 9.246c0-3.344-2.754-6.098-6.098-6.098s-6.098 2.754-6.098 6.098c0 3.345 2.754 6.099 6.098 6.099a6.087 6.087 0 0 0 6.098-6.099z"/>
    </g>
</svg>
