<svg xmlns="http://www.w3.org/2000/svg" width="24" height="32" viewBox="0 0 24 32">
    <g fill="#000" fill-rule="nonzero" stroke="#000" stroke-width=".8">
        <path d="M19.944 13.366H4.056V9.254C4.056 4.626 7.545 1 12 1c2.146 0 4.17.866 5.699 2.44 1.512 1.573 2.245 3.403 2.245 5.598v4.328zM5.278 12.129h13.444V9.038c0-1.882-.603-3.387-1.897-4.734C15.53 2.97 13.815 2.237 12 2.237c-3.77 0-6.722 3.082-6.722 7.017v2.875z"/>
        <path d="M23 30.677H1V12.13h22v18.548zM2.222 29.441h19.556V13.366H2.222V29.44z"/>
        <path d="M12 22.64c-1.348 0-2.444-1.11-2.444-2.473 0-1.364 1.096-2.473 2.444-2.473 1.348 0 2.444 1.109 2.444 2.473 0 1.364-1.096 2.473-2.444 2.473zm0-3.71c-.674 0-1.222.555-1.222 1.237 0 .681.548 1.236 1.222 1.236.674 0 1.222-.555 1.222-1.236 0-.682-.548-1.237-1.222-1.237z"/>
        <path d="M11.389 22.022h1.222v2.473h-1.222z"/>
    </g>
</svg>
