<svg xmlns="http://www.w3.org/2000/svg" width="76" height="46" viewBox="0 0 76 46">
    <g fill="none" fill-rule="nonzero">
        <path fill="#361876" d="M75.392 22.116c.152.532-.076 1.064-.608 1.292L62.32 29.792c.076 1.748-.456 3.192-1.444 4.104-1.064.988-2.508 1.216-3.572 1.216-.228 1.216-.76 2.28-1.596 3.04-1.14 1.064-2.584 1.368-3.572 1.444a5.125 5.125 0 0 1-1.9 2.888c-1.216.836-2.736.988-3.724.912-.456 1.064-1.216 1.596-1.824 1.9a3.623 3.623 0 0 1-1.52.304c-1.672 0-3.268-.912-3.496-1.064l-.076-.076-2.508-1.748c-.076.532-.304 1.216-.836 1.748-.38.38-1.064.836-2.204.836-.152 0-.38 0-.532-.076-1.824-.228-3.116-1.292-3.8-2.052-.456.152-.988.304-1.596.304-1.216 0-2.812-.608-3.952-3.116a4.6 4.6 0 0 1-1.14.152c-1.216 0-3.268-.532-4.104-3.8-1.064-.456-3.04-1.444-3.8-3.268-.456-1.064-.456-2.204.076-3.344L.836 19.76a1.115 1.115 0 0 1-.304-1.52L11.932.912c.152-.304.456-.456.76-.532.304-.076.608 0 .912.228.076 0 3.344 2.508 7.524 4.636C25.916 2.888 33.06 1.9 34.352 1.748 34.96 1.52 37.164.76 39.368.76c.456 0 .912.076 1.368.076 2.66.456 10.944 5.016 13.148 6.232L66.88 1.976c.304-.076.608-.076.912.076.304.152.456.38.532.684l7.068 19.38zm-2.356-.228L66.5 4.56 54.112 9.424c-.152 0-.228.076-.38.076s-.304-.076-.456-.152c-4.18-2.356-11.02-5.928-12.844-6.232-.152-.076-.304-.076-.532-.076h-.532c-2.128 0-4.256.912-4.256.912h-.076s-.076.076-.304.152c-.684.38-2.28 1.52-5.168 4.56-2.128 2.204-1.824 3.344-1.748 3.572.38.38.76.608 1.292.684.152 0 .38.076.532.076 2.356 0 5.548-2.28 6.536-3.192.152-.152.38-.228.608-.304l4.104-.456h.152c.152 0 .228 0 .38.076.38.152.608.456.76.836 1.14 5.928 8.056 8.588 9.5 9.044.152.076.228.076.228.076s.076.076.152.076c.152.076.228.152.304.228l8.512 8.512.076.076 12.084-6.08zm-13.072 8.588v-.228c0-.076-.076-.076-.152-.152l-8.892-8.892-.076-.076c-1.292-.456-6.992-2.66-9.728-7.448a10.204 10.204 0 0 1-.912-2.28h-.076v-.076l-2.736.304c-1.064.836-4.56 3.572-7.752 3.572-1.292 0-2.432-.38-3.268-1.216l-.304-.304c-.228-.304-1.824-2.66 1.9-6.536.836-.988 1.672-1.748 2.356-2.432-1.9.38-4.104.912-6.08 1.672-.38.152-.684.304-1.064.456-.152.076-.38.152-.532.228-.38.152-.684.304-.988.532-.304.152-.76.152-1.064 0-3.192-1.596-5.928-3.42-7.372-4.408L3.116 18.544l13.3 9.576c.912-1.216 2.052-1.9 3.268-1.9 1.14 0 2.128.608 3.192 1.596l.076.076c.76-.532 1.824-1.064 2.964-1.064.532 0 1.216.152 1.824.608l.228.228c.456.456.836 1.064 1.14 1.976h.076v.076c.228-.076.532-.076.836-.076.76 0 1.824.228 2.888 1.216l.228.228c.38.456.76.912 1.064 1.596h.076v.076l.684.228h.076c.988.532 2.052 1.672 2.584 3.572l.076.228-.304 3.192.076.076 3.572 2.508c.532.304 2.052.988 2.964.608.152-.076.608-.228.836-1.292V41.8h-.076l-6.156-5.852a1.175 1.175 0 0 1-.076-1.596c.38-.456 1.14-.456 1.596-.076l.228.228 6.764 6.536.076.076H47.424c.532 0 1.14-.152 1.596-.532.532-.38.912-.988 1.064-1.824l-7.98-7.6c-.304-.38-.456-.988-.152-1.444.076-.076.076-.152.152-.152.38-.304.988-.456 1.444-.152.076.076.152.076.152.152l8.132 7.828c.608-.076 1.596-.228 2.356-.836.38-.38.608-.836.76-1.368.076-.228.152-.532.152-.836V34.2l-8.36-7.6c-.228-.152-.38-.456-.38-.76 0-.228.076-.456.304-.684.456-.456 1.14-.532 1.596-.076l8.664 7.904c.684.076 1.748-.076 2.356-.608.456-.38.684-1.064.684-1.9zM34.96 41.8l.38-4.788c-.152-.608-.456-1.064-.684-1.368-.076-.076-.076-.152-.152-.152-.456-.456-.912-.532-1.064-.532h-.076-.076-.152c-.38 0-.76.228-1.14.684-.912 1.14-1.368 3.496-.988 5.624.152.228.608.836 1.368 1.216.228.152.456.228.76.38.076 0 .152.076.228.076.076 0 .152.076.304.076.076 0 .152 0 .152.076h.608c.152 0 .228-.076.228-.152.076-.076.152-.228.228-.304 0-.076.076-.152.076-.228v-.076-.532zm-4.56-7.828c.38-.38.836-.76 1.292-.988-.304-.456-.608-.836-1.064-.912-.228-.152-.456-.152-.684-.152-.456 0-.76.152-.988.228 0 0 0 .076-.076.076-.988 1.14-3.04 3.876-3.04 6.08 0 .152 0 .38.076.532.456 1.14 1.064 2.432 2.128 2.432.228 0 .456-.076.684-.152v-.076h.076c-.38-2.736.228-5.472 1.596-7.068zm-3.8-2.66c.152-.228.304-.38.456-.532-.076-.684-.38-1.292-.76-1.596-.152-.076-.304-.152-.456-.152-.76 0-1.824.76-2.356 1.216l-.76.76c-.152.228-.38.532-.608.836-.456.76-.912 1.672-1.064 2.66-.076.38-.076.76 0 1.14.228 1.292.608 1.9.988 2.204.38.304.76.304.988.304.228 0 .456 0 .608-.076v-.152c.228-2.584 1.9-5.244 2.964-6.612zm-5.472-1.976l-.228-.228c-.456-.456-.912-.684-1.292-.76-.684 0-1.596.912-2.28 2.432 0 .076-.076.228-.076.304-.152.532-.152.988 0 1.444.076.228.228.38.38.532.304.38.76.684 1.216.988.304-1.9 1.444-3.648 2.28-4.712z"/>
        <path fill="#000" d="M66.5 4.56l6.536 17.328-12.084 6.08-.076-.076 12.084-6.08z"/>
        <path fill="#C881FF" d="M66.5 4.56l6.46 17.252-12.084 6.08-8.512-8.512c-.076-.152-.228-.152-.304-.228 0 0-.076-.076-.152-.076 0 0-.076 0-.228-.076-1.368-.456-8.284-3.116-9.5-9.044-.076-.38-.38-.684-.76-.836-.152-.076-.228-.076-.38-.076h-.152l-4.104.456c-.228 0-.456.152-.608.304-1.064.836-4.18 3.192-6.536 3.192-.152 0-.38 0-.532-.076-.532-.076-.912-.304-1.292-.684-.076-.228-.38-1.368 1.748-3.572 2.888-3.04 4.484-4.18 5.168-4.56.228-.152.304-.152.304-.152h.076s2.128-.912 4.256-.912h.532c.152 0 .304 0 .456.076 1.9.304 8.74 3.876 12.844 6.232.152.076.38.152.532.152.152 0 .304 0 .456-.076L66.5 4.56z"/>
        <path fill="#000" d="M66.5 4.56L54.188 9.424c-.152 0-.304.076-.456.076.152 0 .228 0 .38-.076L66.5 4.56zM59.964 30.248v.228c-.076-.076-.152-.076-.152-.152l-8.892-9.12 8.892 8.892c.076.076.152.076.152.152z"/>
        <path fill="#9359FF" d="M59.812 30.324c0 .076.076.076.152.152-.076.76-.228 1.368-.684 1.672-.684.608-1.748.684-2.356.608l-8.664-7.828c-.456-.456-1.216-.38-1.596.076-.228.228-.304.532-.304.836 0 .304.076.684.38.912l8.36 7.6c0 .304-.076.608-.152.912-.152.532-.38.912-.76 1.216-.684.608-1.748.76-2.356.76L43.7 29.564c-.076-.076-.152-.076-.152-.152-.456-.304-.988-.228-1.444.152l-.152.152c-.304.456-.228.988.152 1.444l7.904 7.6c-.152.836-.532 1.444-1.064 1.824-.456.304-1.064.532-1.52.532h-.152s0-.076-.076-.076l-6.84-6.536-.228-.228-.076-.076c-.456-.456-1.14-.38-1.596.076-.456.456-.38 1.216.076 1.596l.076.076 6.156 5.852v.076c-.228.988-.684 1.216-.836 1.292-.912.38-2.432-.304-2.964-.608l-3.496-2.432.304-3.192-.076-.228c-.532-2.052-1.596-3.192-2.66-3.648h-.076c-.228-.152-.532-.228-.76-.304-.304-.684-.684-1.216-1.14-1.596l-.228-.228c-1.064-1.064-2.204-1.292-2.964-1.292-.304 0-.608 0-.76.076-.304-.912-.684-1.52-1.14-1.976l-.228-.228c-.684-.532-1.368-.684-1.9-.684-1.14 0-2.204.608-2.964 1.064-1.064-1.14-2.128-1.672-3.268-1.672-1.216 0-2.28.684-3.268 1.9L3.116 18.544 13.224 3.116a52.788 52.788 0 0 0 7.372 4.408c.304.152.76.152 1.064 0 .304-.152.608-.304.988-.532.152-.076.304-.152.532-.228.38-.152.684-.304 1.064-.456 1.976-.76 4.256-1.216 6.08-1.672-.684.608-1.52 1.444-2.432 2.356-3.724 3.876-2.128 6.232-1.9 6.536l.076.076c.076.076.152.228.304.304a4.844 4.844 0 0 0 3.344 1.292c3.192 0 6.764-2.736 7.752-3.572l2.66-.304c.228.836.608 1.596.988 2.28 2.66 4.94 8.436 7.068 9.804 7.524l8.892 9.196z"/>
        <path fill="#000" d="M55.1 34.2v.152l-8.36-7.6c-.228-.304-.38-.608-.38-.912 0 .304.152.608.38.76l8.36 7.6zM52.06 19.152c.152.076.304.152.304.228-.076-.152-.228-.152-.304-.228zM50.844 21.128l.076.076c-1.368-.456-7.144-2.66-9.804-7.524 2.736 4.788 8.436 6.992 9.728 7.448zM47.272 41.116h-.076l-.076-.076-6.764-6.536 6.84 6.536c.076 0 .076.076.076.076zM43.548 29.412c-.456-.304-.988-.152-1.444.152a1.15 1.15 0 0 1 1.444-.152zM41.952 29.716c-.304.456-.152.988.152 1.444a1.15 1.15 0 0 1-.152-1.444zM40.128 11.324v.076l-2.66.304c-.988.836-4.56 3.572-7.752 3.572a4.844 4.844 0 0 1-3.344-1.292c.912.836 2.052 1.216 3.268 1.216 3.192 0 6.688-2.736 7.752-3.572l2.736-.304zM37.696 36.708l.076.228-.304 3.192-.076-.076.304-3.192-.076-.228c-.532-1.976-1.596-3.04-2.584-3.572 1.064.456 2.128 1.596 2.66 3.648z"/>
        <path fill="#C881FF" d="M35.34 37.012l-.38 4.788v.38c0 .076 0 .152-.076.228 0 .152-.076.228-.228.304-.076 0-.076.076-.228.152h-.152-.38c-.076 0-.152 0-.228-.076-.076 0-.152 0-.304-.076-.076 0-.152-.076-.228-.076-.304-.076-.532-.228-.76-.38-.684-.456-1.14-.988-1.292-1.216-.38-2.052 0-4.408.988-5.624.304-.38.684-.608 1.064-.684H33.364c.228 0 .608.152 1.064.532l.152.152c.304.532.532.988.76 1.596z"/>
        <path fill="#000" d="M34.352 42.94c.152-.076.228-.152.228-.152 0 .076 0 .076-.228.152zM34.276 32.68c-.076 0-.076 0 0 0-.38-.684-.76-1.216-1.14-1.596.38.38.76.912 1.14 1.596zM33.896 42.94s-.076 0 0 0c-.152 0-.228 0-.228-.076.076.076.152.076.228.076zM36.176 9.804c-.988.912-4.18 3.192-6.536 3.192 2.356 0 5.472-2.356 6.536-3.192zM33.136 42.788c.076 0 .152.076.228.076-.076-.076-.152-.076-.228-.076zM33.212 34.884c-.38.076-.684.304-1.064.684-.988 1.216-1.368 3.572-.988 5.624.152.228.608.836 1.292 1.216-.76-.456-1.216-.988-1.368-1.216-.38-2.128.076-4.484.988-5.624.38-.456.684-.684 1.14-.684z"/>
        <path fill="#C881FF" d="M31.692 32.984c-.456.228-.912.608-1.292.988 0 0-.076 0-.076.076-1.368 1.596-1.9 4.256-1.596 6.916-.228.076-.38.152-.608.152-.532 0-.988-.304-1.292-.76-.38-.456-.608-1.064-.836-1.672-.38-2.128 1.824-5.32 2.888-6.536.152-.076.532-.228.988-.228.304 0 .532 0 .76.152.38.152.76.456 1.064.912z"/>
        <path fill="#000" d="M31.692 32.984c-.304-.456-.684-.76-1.064-.912.456.076.76.456 1.064.912zM29.184 29.64c-.076 0-.076 0 0 0-.304-.912-.76-1.52-1.14-1.976.38.38.836 1.064 1.14 1.976zM28.88 32.148c-1.064 1.216-3.268 4.408-2.888 6.536.152.608.456 1.14.836 1.672.38.456.76.76 1.292.76.228 0 .38-.076.608-.152v.076c-.228.076-.456.152-.684.152-1.064 0-1.672-1.292-2.128-2.432 0-.152-.076-.38-.076-.532 0-2.204 2.052-4.94 3.04-6.08zM27.816 12.236c.38.38.76.608 1.292.684-.532-.076-.988-.304-1.292-.684zM27.968 27.664l-.228-.228c.152.076.228.152.228.228z"/>
        <path fill="#C881FF" d="M27.056 30.78c-.152.152-.228.304-.456.532-1.064 1.368-2.888 4.028-2.888 6.612v.152c-.152.076-.38.076-.608.076-.152 0-.608 0-.988-.304s-.76-.912-.988-2.204a2.878 2.878 0 0 1 0-1.14c.152-.912.608-1.9 1.064-2.66.152-.304.38-.608.608-.836l.76-.76c.532-.456 1.596-1.216 2.356-1.216.152 0 .304.076.456.152.304.304.532.912.684 1.596z"/>
        <path fill="#000" d="M26.6 31.312c-1.064 1.368-2.812 4.028-2.888 6.612.076-2.584 1.824-5.244 2.888-6.612zM23.18 6.84c-.152.076-.38.152-.532.228a.69.69 0 0 1 .532-.228z"/>
        <path fill="#C881FF" d="M20.9 29.108l.228.228c-.836 1.064-1.976 2.812-2.28 4.712-.38-.228-.836-.608-1.216-.988-.152-.228-.304-.38-.38-.608-.152-.456-.152-.836 0-1.368 0-.076.076-.152.076-.228.684-1.52 1.596-2.432 2.28-2.432.38 0 .836.228 1.292.684z"/>
        <path fill="#000" d="M19.608 28.348c.38.076.836.304 1.292.76-.456-.456-.912-.684-1.292-.684-.684 0-1.596.912-2.28 2.432 0 .076-.076.152-.076.228 0-.076.076-.228.076-.304.684-1.52 1.596-2.432 2.28-2.432zM17.632 33.06c.304.38.76.684 1.216.988-.456-.228-.912-.532-1.216-.988zM13.224 3.116c1.444.988 4.18 2.812 7.372 4.408a52.788 52.788 0 0 1-7.372-4.408z"/>
    </g>
</svg>
