<svg xmlns="http://www.w3.org/2000/svg" width="28" height="34" viewBox="0 0 28 34">
    <g fill="none" fill-rule="nonzero">
        <path fill="#DBD3FF" d="M13.813 27.59a1.98 1.98 0 0 1 1.983 1.983c0 .531-.213 1.027-.567 1.417-.354.354-.85.566-1.416.566a1.98 1.98 0 0 1-1.984-1.983 1.98 1.98 0 0 1 1.983-1.983zM21.533 14.698v4.958c0 .602-2.691 2.125-7.72 2.125-5.03 0-7.721-1.487-7.721-2.125v-4.958c1.912.992 4.816 1.523 7.72 1.523 2.905 0 5.809-.496 7.721-1.523zM21.533 7.296v4.675c0 .602-2.691 2.125-7.72 2.125-5.03 0-7.721-1.488-7.721-2.125V7.296c1.912.991 4.816 1.523 7.72 1.523 2.905 0 5.809-.496 7.721-1.523z"/>
        <ellipse cx="13.813" cy="4.569" fill="#DBD3FF" rx="7.721" ry="2.125"/>
        <path fill="#6124E2" d="M26.527 28.475c.602 0 1.063.46 1.063 1.063 0 .602-.46 1.062-1.063 1.062H17.78a4.001 4.001 0 0 1-2.94 2.94c-2.195.566-4.391-.78-4.958-2.94H1.098c-.602 0-1.063-.46-1.063-1.063 0-.602.46-1.062 1.063-1.062H9.88a4.175 4.175 0 0 1 2.869-2.869v-1.735c-4.533-.213-8.783-1.63-8.783-4.215V4.57c0-2.798 4.958-4.25 9.845-4.25 4.888 0 9.846 1.452 9.846 4.25v15.087c0 2.586-4.25 4.002-8.783 4.215v1.77a4.175 4.175 0 0 1 2.869 2.87l8.783-.036zm-4.994-8.819v-4.958c-1.912 1.027-4.816 1.523-7.72 1.523-2.905 0-5.809-.531-7.721-1.523v4.958c0 .638 2.691 2.125 7.72 2.125 5.03 0 7.721-1.523 7.721-2.125zm0-7.685V7.296c-1.912 1.027-4.816 1.523-7.72 1.523-2.905 0-5.809-.532-7.721-1.523v4.675c0 .637 2.691 2.125 7.72 2.125 5.03 0 7.721-1.523 7.721-2.125zm-7.72-5.277c5.029 0 7.72-1.488 7.72-2.125 0-.638-2.727-2.125-7.72-2.125-4.994 0-7.721 1.487-7.721 2.125 0 .637 2.691 2.125 7.72 2.125zm1.983 22.879a1.98 1.98 0 0 0-1.983-1.983 1.98 1.98 0 0 0-1.984 1.983 1.98 1.98 0 0 0 1.983 1.983c.532 0 1.028-.212 1.417-.566.354-.39.567-.886.567-1.417z"/>
    </g>
</svg>
