<svg xmlns="http://www.w3.org/2000/svg" width="33" height="31" viewBox="0 0 33 31">
    <g fill="none" fill-rule="evenodd">
        <path fill="#DBD3FF" fill-rule="nonzero" stroke="#6124E2" stroke-width="2" d="M22.8 24.71l-6.637-6.655c.944-2.792.266-5.851-1.829-7.96-1.445-1.456-3.363-2.228-5.398-2.228h-.03a7.562 7.562 0 0 0-5.398 2.257c-2.98 3-2.95 7.872.029 10.872 1.446 1.456 3.363 2.228 5.399 2.228h.03c.855 0 1.71-.148 2.507-.416l1.003 1.01c.236.238.56.357.885.357h1.15v.98c0 .386.148.743.413 1.01a1.4 1.4 0 0 0 1.003.416h.974v1.158c0 .327.147.654.383.892l.797.802c.236.237.53.356.826.356h3.186c.56 0 1.032-.475 1.032-1.04v-3.208a1.002 1.002 0 0 0-.324-.832z"/>
        <path fill="#6124E2" fill-rule="nonzero" stroke="#6124E2" stroke-width=".8" d="M8.616 12.862c-.62 0-1.21.237-1.652.683a2.396 2.396 0 0 0 0 3.357 2.312 2.312 0 0 0 1.652.683c.62 0 1.21-.238 1.652-.683.442-.446.678-1.04.678-1.664 0-.624-.236-1.218-.678-1.663a2.18 2.18 0 0 0-1.652-.713z"/>
        <path fill="#F8F8F9" d="M9.235 15.832a.846.846 0 0 1-.62.268.846.846 0 0 1-.619-.268.866.866 0 0 1 0-1.247.846.846 0 0 1 .62-.268c.236 0 .442.09.62.268.353.356.353.92 0 1.247z"/>
        <path fill="#6124E2" fill-rule="nonzero" stroke="#6124E2" stroke-width=".8" d="M31.1 7.179h-.06c-.147-.03-.294-.06-.471-.09V5.397c0-2.317-1.859-4.188-4.16-4.188h-.118c-2.3 0-4.16 1.871-4.16 4.188V7.09c-.147.03-.294.059-.471.089h-.06a1.52 1.52 0 0 0-1.209 1.485v5.258c0 .713.502 1.366 1.21 1.485l.472.09c1.416.266 2.861.415 4.277.415s2.862-.149 4.278-.416l.472-.089a1.52 1.52 0 0 0 1.21-1.485V8.664c0-.743-.502-1.366-1.21-1.485z"/>
        <path fill="#F8F8F9" d="M23.607 5.367c0-1.486 1.21-2.704 2.684-2.704h.118c1.475 0 2.685 1.218 2.685 2.704v1.485a24.21 24.21 0 0 0-5.487 0V5.367z"/>
        <path fill="#DBD3FF" d="M30.834 13.922c0 .03 0 .03 0 0l-.501.119a21.44 21.44 0 0 1-8.024 0l-.472-.09s-.03 0-.03-.03V8.665s0-.03.03-.03h.059a24.212 24.212 0 0 1 4.395-.416c1.475 0 2.95.149 4.396.416h.059s.03 0 .03.03v5.258h.058z"/>
        <path fill="#6124E2" fill-rule="nonzero" stroke="#6124E2" stroke-width=".4" d="M26.94 11.248a.922.922 0 0 0 .295-.802.943.943 0 0 0-.796-.772.902.902 0 0 0-.708.238.863.863 0 0 0-.295.683.97.97 0 0 0 .295.683l-.413 1.188c-.06.149.03.268.147.327.295.119.59.178.885.178.295 0 .59-.06.885-.178.148-.06.207-.208.148-.327l-.443-1.218z"/>
    </g>
</svg>
