<svg xmlns="http://www.w3.org/2000/svg" xmlns:xlink="http://www.w3.org/1999/xlink" width="40" height="27" viewBox="0 0 40 27">
    <defs>
        <rect id="a" width="10" height="8" rx="2"/>
        <rect id="b" width="10" height="8" y="19" rx="2"/>
        <rect id="c" width="10" height="8" x="14" y="10" rx="2"/>
        <rect id="d" width="10" height="8" x="28" rx="2"/>
        <rect id="e" width="10" height="8" x="28" y="19" rx="2"/>
    </defs>
    <g fill="none" fill-rule="evenodd">
        <g transform="translate(1)">
            <use fill="#DBD3FF" xlink:href="#a"/>
            <rect width="8" height="6" x="1" y="1" stroke="#6124E2" stroke-width="2" rx="2"/>
        </g>
        <g transform="translate(1)">
            <use fill="#DBD3FF" xlink:href="#b"/>
            <rect width="8" height="6" x="1" y="20" stroke="#6124E2" stroke-width="2" rx="2"/>
        </g>
        <g transform="translate(1)">
            <use fill="#DBD3FF" xlink:href="#c"/>
            <rect width="8" height="6" x="15" y="11" stroke="#6124E2" stroke-width="2" rx="2"/>
        </g>
        <g transform="translate(1)">
            <use fill="#DBD3FF" xlink:href="#d"/>
            <rect width="8" height="6" x="29" y="1" stroke="#6124E2" stroke-width="2" rx="2"/>
        </g>
        <g transform="translate(1)">
            <use fill="#DBD3FF" xlink:href="#e"/>
            <rect width="8" height="6" x="29" y="20" stroke="#6124E2" stroke-width="2" rx="2"/>
        </g>
        <path stroke="#6124E2" stroke-linecap="square" stroke-width="2" d="M15.5 4.5h9M1.5 13.5h9M29.5 13.5h9M15.5 23.5h9"/>
    </g>
</svg>
