<svg width="50" height="50" viewBox="0 0 50 50" fill="none" xmlns="http://www.w3.org/2000/svg">
<circle cx="25" cy="25" r="25" fill="#F0F0F7"/>
<path d="M16.6632 22.8808L15.7563 22.1927C15.5015 21.9824 15.1092 22.0314 14.8974 22.3105C14.6872 22.5653 14.7362 22.9576 15.0152 23.1693L16.7593 24.4927C16.8063 24.5199 16.8533 24.5471 16.9003 24.5743L16.9245 24.5758C16.9715 24.603 17.02 24.6059 17.0685 24.6089C17.117 24.6119 17.1655 24.6148 17.2154 24.5936C17.2397 24.595 17.2397 24.595 17.2397 24.595C17.2896 24.5738 17.3396 24.5525 17.3896 24.5312L19.2819 23.4303C19.459 23.3195 19.5678 23.1315 19.5797 22.9375C19.5871 22.8163 19.5703 22.6936 19.5035 22.5922C19.3258 22.3137 18.9681 22.1945 18.6654 22.3706L17.857 22.8565C18.7186 19.1132 22.1692 16.4043 26.0965 16.6445C26.4359 16.6653 26.7189 16.4149 26.7396 16.0755C26.7604 15.7361 26.51 15.4532 26.1706 15.4324C21.5161 15.1477 17.4723 18.4044 16.6632 22.8808Z" fill="#4E4E56" stroke="#4E4E56" stroke-width="0.7"/>
<path d="M18.5636 28.0341C18.4118 27.7329 18.0541 27.6138 17.7527 27.7658C17.4514 27.9177 17.3321 28.2754 17.4839 28.5767C18.5666 30.7596 20.4379 32.3822 22.7508 33.1558C24.7059 33.8102 26.7755 33.7903 28.6913 33.1041L28.5486 34.239C28.5035 34.5769 28.7523 34.8841 29.066 34.9275C29.4039 34.9724 29.7112 34.7235 29.7548 34.4098L30.0342 32.2369C30.0357 32.2127 30.0357 32.2127 30.0372 32.1884C30.0402 32.1399 30.0431 32.0914 30.0234 32.0172C30.0248 31.993 30.0021 31.9673 30.0021 31.9673C30.0036 31.943 29.9808 31.9173 29.9823 31.8931L29.9596 31.8674C29.9368 31.8416 29.9155 31.7917 29.8928 31.766L29.87 31.7402C29.823 31.713 29.8003 31.6873 29.7533 31.6601L27.8492 30.5708C27.5672 30.4076 27.1961 30.5067 27.0328 30.7887C26.8695 31.0708 26.9684 31.4418 27.2503 31.605L28.0735 32.0688C24.378 33.2063 20.3174 31.5719 18.5636 28.0341Z" fill="#4E4E56" stroke="#4E4E56" stroke-width="0.7"/>
<path d="M30.0734 16.8637C30.0476 16.8864 29.9992 16.8835 29.9734 16.9062C29.9734 16.9062 29.9492 16.9047 29.9477 16.929C29.922 16.9517 29.8963 16.9745 29.8705 16.9973C29.8705 16.9973 29.8705 16.9973 29.8448 17.02C29.7934 17.0655 29.7404 17.1353 29.7117 17.2065C29.7103 17.2308 29.683 17.2778 29.6816 17.302C29.6801 17.3263 29.6771 17.3748 29.6741 17.4232L29.6862 19.6139C29.6896 19.9548 29.9657 20.215 30.3066 20.2116C30.6475 20.2081 30.9077 19.932 30.9042 19.5911L30.8893 18.6412C33.7243 21.2236 34.3361 25.5436 32.1634 28.8417C31.9759 29.1222 32.0506 29.4918 32.3312 29.6793C32.6117 29.8667 32.9813 29.792 33.1687 29.5115C34.0547 28.1544 34.5618 26.6281 34.6581 25.0523C34.7071 24.2523 34.6575 23.4706 34.4883 22.6573C34.1221 20.6882 33.0637 18.8959 31.5136 17.5844L32.5629 17.1376C32.787 17.054 32.9216 16.8432 32.9349 16.625C32.9409 16.5281 32.9225 16.4296 32.8785 16.3539C32.7508 16.0541 32.3946 15.9107 32.0948 16.0383L30.0734 16.8637Z" fill="#4E4E56" stroke="#4E4E56" stroke-width="0.7"/>
</svg>
