<svg width="50" height="50" viewBox="0 0 50 50" fill="none" xmlns="http://www.w3.org/2000/svg">
<circle cx="25" cy="25" r="25" fill="#F0F0F7"/>
<path d="M27.2979 26.6507C29.3194 25.6418 30.7143 23.5584 30.7143 21.1496C30.7143 17.7586 27.9553 15 24.5647 15C21.1741 15 18.4151 17.759 18.4151 21.1496C18.4151 23.5581 19.81 25.6418 21.8315 26.6507C15.422 28.1619 15.0038 34.8764 15 34.9527L15.952 35C15.9678 34.6861 16.4454 27.2995 24.5644 27.2995C32.6833 27.2995 33.1609 34.6858 33.1771 35L34.1291 34.9527C34.1253 34.8764 33.7071 28.1619 27.2979 26.6507ZM19.368 21.1496C19.368 18.2842 21.699 15.9532 24.5644 15.9532C27.4298 15.9532 29.7607 18.2842 29.7607 21.1496C29.7607 24.015 27.4298 26.3463 24.5644 26.3463C21.699 26.3463 19.368 24.015 19.368 21.1496Z" fill="#4E4E56" stroke="#4E4E56"/>
</svg>
