<svg width="50" height="50" viewBox="0 0 50 50" fill="none" xmlns="http://www.w3.org/2000/svg">
<circle cx="25" cy="25" r="25" fill="#F0F0F7"/>
<path d="M27.931 23.1335C28.3805 21.617 28.3117 19.994 27.7355 18.521C27.1592 17.048 26.1084 15.8092 24.7492 15.0003C23.3899 14.1915 21.7998 13.8588 20.2304 14.0549C18.6609 14.251 17.2015 14.9647 16.0831 16.0831C14.9647 17.2015 14.251 18.6609 14.0549 20.2304C13.8588 21.7998 14.1915 23.3899 15.0003 24.7492C15.8092 26.1084 17.048 27.1592 18.521 27.7355C19.994 28.3117 21.617 28.3805 23.1335 27.931L25.8491 30.6336C25.9068 30.6957 25.9769 30.745 26.0548 30.7784C26.1328 30.8119 26.2168 30.8286 26.3016 30.8275H28.2413V32.7672C28.2413 32.9387 28.3094 33.1031 28.4307 33.2244C28.5519 33.3457 28.7164 33.4138 28.8879 33.4138H30.8275V35.3534C30.8275 35.5249 30.8957 35.6894 31.0169 35.8106C31.1382 35.9319 31.3026 36 31.4741 36H35.3534C35.5249 36 35.6894 35.9319 35.8106 35.8106C35.9319 35.6894 36 35.5249 36 35.3534V31.4741C36.001 31.3893 35.9843 31.3052 35.9509 31.2273C35.9175 31.1493 35.8682 31.0792 35.806 31.0215L27.931 23.1335ZM34.7069 34.7069H32.1207V32.7672C32.1207 32.5957 32.0525 32.4313 31.9313 32.31C31.81 32.1888 31.6456 32.1207 31.4741 32.1207H29.5344V30.181C29.5344 30.0095 29.4663 29.8451 29.3451 29.7238C29.2238 29.6025 29.0593 29.5344 28.8879 29.5344H26.5732L23.7671 26.7413C23.6812 26.6546 23.5724 26.594 23.4534 26.5665C23.3344 26.539 23.21 26.5458 23.0947 26.5861C21.8502 27.0366 20.4892 27.0492 19.2365 26.6221C17.9837 26.1949 16.914 25.3535 16.2039 24.2365C15.4938 23.1196 15.1856 21.7939 15.3303 20.4783C15.475 19.1627 16.0639 17.9357 16.9998 16.9998C17.9357 16.0639 19.1627 15.475 20.4783 15.3303C21.7939 15.1856 23.1196 15.4938 24.2365 16.2039C25.3535 16.914 26.1949 17.9837 26.6221 19.2365C27.0492 20.4892 27.0366 21.8502 26.5861 23.0947C26.5425 23.2096 26.534 23.3348 26.5617 23.4545C26.5893 23.5742 26.6518 23.683 26.7413 23.7671L34.7069 31.7457V34.7069Z" fill="#4E4E56" stroke="#4E4E56" stroke-width="0.5"/>
<path d="M18.4654 18.4653C18.284 18.6445 18.14 18.8579 18.0417 19.0932C17.9434 19.3285 17.8928 19.581 17.8928 19.836C17.8928 20.091 17.9434 20.3435 18.0417 20.5788C18.14 20.8141 18.284 21.0275 18.4654 21.2067C18.8291 21.5699 19.3221 21.774 19.8361 21.774C20.3501 21.774 20.8431 21.5699 21.2068 21.2067C21.3882 21.0275 21.5323 20.8141 21.6306 20.5788C21.7289 20.3435 21.7795 20.091 21.7795 19.836C21.7795 19.581 21.7289 19.3285 21.6306 19.0932C21.5323 18.8579 21.3882 18.6445 21.2068 18.4653C20.8415 18.1052 20.3491 17.9033 19.8361 17.9033C19.3231 17.9033 18.8308 18.1052 18.4654 18.4653ZM20.2887 20.2886C20.1687 20.4086 20.0059 20.4761 19.8361 20.4761C19.6664 20.4761 19.5036 20.4086 19.3835 20.2886C19.2635 20.1686 19.1961 20.0058 19.1961 19.836C19.1961 19.6662 19.2635 19.5034 19.3835 19.3834C19.4416 19.3216 19.5117 19.2723 19.5895 19.2386C19.6674 19.2049 19.7513 19.1875 19.8361 19.1875C19.921 19.1875 20.0049 19.2049 20.0827 19.2386C20.1606 19.2723 20.2307 19.3216 20.2887 19.3834C20.3506 19.4415 20.3999 19.5116 20.4336 19.5894C20.4673 19.6673 20.4847 19.7512 20.4847 19.836C20.4847 19.9208 20.4673 20.0047 20.4336 20.0826C20.3999 20.1604 20.3506 20.2305 20.2887 20.2886Z" fill="#4E4E56" stroke="#4E4E56" stroke-width="0.5"/>
</svg>
