<svg width="64" height="64" viewBox="0 0 64 64" fill="none" xmlns="http://www.w3.org/2000/svg">
<circle cx="32" cy="32" r="32" fill="#E9E9F7"/>
<path d="M26.7976 38.0817H21.5976C19.9427 38.0817 18.3555 37.4243 17.1853 36.2541C16.0151 35.0838 15.3576 33.4967 15.3576 31.8417C15.3576 30.1868 16.0151 28.5996 17.1853 27.4294C18.3555 26.2591 19.9427 25.6017 21.5976 25.6017H29.9176C31.5726 25.6017 33.1597 26.2591 34.33 27.4294C35.5002 28.5996 36.1576 30.1868 36.1576 31.8417H34.0776C34.0776 30.7384 33.6393 29.6803 32.8592 28.9002C32.079 28.12 31.0209 27.6817 29.9176 27.6817H21.5976C20.4943 27.6817 19.4362 28.12 18.6561 28.9002C17.8759 29.6803 17.4376 30.7384 17.4376 31.8417C17.4376 32.945 17.8759 34.0031 18.6561 34.7833C19.4362 35.5634 20.4943 36.0017 21.5976 36.0017H26.7976V38.0817Z" fill="#7860FF" stroke="#7860FF" stroke-width="0.6"/>
<path d="M42.3996 38.0792H34.0796C32.4247 38.0792 30.8375 37.4218 29.6673 36.2515C28.4971 35.0813 27.8396 33.4941 27.8396 31.8392H29.9196C29.9196 32.9425 30.3579 34.0006 31.1381 34.7807C31.9182 35.5609 32.9763 35.9992 34.0796 35.9992H42.3996C43.5029 35.9992 44.561 35.5609 45.3412 34.7807C46.1213 34.0006 46.5596 32.9425 46.5596 31.8392C46.5596 30.7359 46.1213 29.6778 45.3412 28.8976C44.561 28.1175 43.5029 27.6792 42.3996 27.6792H37.1996V25.5992H42.3996C44.0546 25.5992 45.6417 26.2566 46.812 27.4268C47.9822 28.5971 48.6396 30.1842 48.6396 31.8392C48.6396 33.4941 47.9822 35.0813 46.812 36.2515C45.6417 37.4218 44.0546 38.0792 42.3996 38.0792Z" fill="#7860FF" stroke="#7860FF" stroke-width="0.6"/>
<circle cx="32" cy="32" r="32" fill="#EAEAEF"/>
<path d="M18.9091 28.0964L18.9091 28.7677C17.3024 28.7677 16 30.3957 16 32.404C16 34.4124 17.3024 36.0404 18.9091 36.0404L18.9298 36.0403C19.3146 43.2908 25.0065 49.1313 32 49.1313C38.9935 49.1313 44.6854 43.2908 45.0702 36.0403C45.0771 36.0404 45.084 36.0404 45.0909 36.0404C46.6976 36.0404 48 34.4124 48 32.404C48 30.3957 46.6976 28.7677 45.0909 28.7677V28.0964C45.0909 20.3985 39.2436 14.2222 32 14.2222C24.7564 14.2222 18.9091 20.3985 18.9091 28.0964Z" fill="#505060"/>
<path d="M30.1491 34.5099H32.8898V34.264C32.9043 32.8539 33.4105 32.1958 34.5531 31.5088C35.9053 30.7062 36.7876 29.6431 36.7876 27.9438C36.7876 25.4128 34.7483 23.9376 31.8775 23.9376C29.2525 23.9376 27.112 25.3115 27.0469 28.2041H29.9973C30.0407 27.0254 30.9157 26.3962 31.863 26.3962C32.8392 26.3962 33.6275 27.0471 33.6275 28.0522C33.6275 28.9995 32.9405 29.6287 32.051 30.1927C30.8361 30.9593 30.1564 31.733 30.1491 34.264V34.5099ZM31.5737 39.138C32.4994 39.138 33.302 38.3642 33.3093 37.4024C33.302 36.4551 32.4994 35.6814 31.5737 35.6814C30.6192 35.6814 29.831 36.4551 29.8382 37.4024C29.831 38.3642 30.6192 39.138 31.5737 39.138Z" fill="white"/>
</svg>
