<svg width="64" height="64" viewBox="0 0 64 64" fill="none" xmlns="http://www.w3.org/2000/svg">
<circle cx="32" cy="32" r="32" fill="#F0F0F7"/>
<path d="M18.9091 28.0964L18.9091 28.7677C17.3024 28.7677 16 30.3957 16 32.404C16 34.4124 17.3024 36.0404 18.9091 36.0404L18.9298 36.0403C19.3146 43.2908 25.0065 49.1313 32 49.1313C38.9935 49.1313 44.6854 43.2908 45.0702 36.0403C45.0771 36.0404 45.084 36.0404 45.0909 36.0404C46.6976 36.0404 48 34.4124 48 32.404C48 30.3957 46.6976 28.7677 45.0909 28.7677V28.0964C45.0909 20.3985 39.2436 14.2222 32 14.2222C24.7564 14.2222 18.9091 20.3985 18.9091 28.0964Z" fill="#505060"/>
<path d="M30.1491 34.5099H32.8898V34.264C32.9043 32.8539 33.4105 32.1958 34.5531 31.5088C35.9053 30.7062 36.7876 29.6431 36.7876 27.9438C36.7876 25.4128 34.7483 23.9376 31.8775 23.9376C29.2525 23.9376 27.112 25.3115 27.0469 28.2041H29.9973C30.0407 27.0254 30.9157 26.3962 31.863 26.3962C32.8392 26.3962 33.6275 27.0471 33.6275 28.0522C33.6275 28.9995 32.9405 29.6287 32.051 30.1927C30.8361 30.9593 30.1564 31.733 30.1491 34.264V34.5099ZM31.5737 39.138C32.4994 39.138 33.302 38.3642 33.3093 37.4024C33.302 36.4551 32.4994 35.6814 31.5737 35.6814C30.6192 35.6814 29.831 36.4551 29.8382 37.4024C29.831 38.3642 30.6192 39.138 31.5737 39.138Z" fill="white"/>
</svg>
