<svg width="64" height="64" viewBox="0 0 64 64" fill="none" xmlns="http://www.w3.org/2000/svg">
<circle cx="32" cy="32" r="32" fill="#F0F0F7"/>
<path d="M39.6086 19.2008C39.4214 19.2185 39.2476 19.3055 39.1213 19.4448C38.995 19.5842 38.9255 19.7657 38.9263 19.9537V25.2242H31.3971C31.1974 25.2242 31.0059 25.3035 30.8647 25.4447C30.7235 25.5859 30.6442 25.7774 30.6442 25.9771V31.624H23.115C22.9153 31.624 22.7238 31.7033 22.5826 31.8445C22.4415 31.9857 22.3621 32.1772 22.3621 32.3769V36.8944H14.8329C14.6333 36.8944 14.4418 36.9737 14.3006 37.1149C14.1594 37.2561 14.08 37.4476 14.08 37.6473V44.0471C14.08 44.2468 14.1594 44.4383 14.3006 44.5795C14.4418 44.7206 14.6333 44.8 14.8329 44.8H47.9613C48.161 44.8 48.3524 44.7206 48.4936 44.5795C48.6348 44.4383 48.7142 44.2468 48.7142 44.0471V19.9537C48.7142 19.7541 48.6348 19.5626 48.4936 19.4214C48.3524 19.2802 48.161 19.2008 47.9613 19.2008H39.6792C39.6557 19.1997 39.6321 19.1997 39.6086 19.2008ZM40.4321 20.7067H47.2084V43.2942H40.4321V20.7067ZM32.15 26.73H38.9263V43.2942H32.15V26.73ZM23.8679 33.1298H30.6442V43.2942H23.8679V33.1298ZM15.5859 38.4002H22.3621V43.2942H15.5859V38.4002Z" fill="#4E4E56" stroke="#4E4E56" stroke-width="0.5"/>
</svg>
