<svg width="64" height="64" viewBox="0 0 64 64" fill="none" xmlns="http://www.w3.org/2000/svg">
<circle cx="32" cy="32" r="32" fill="#E9E9F7"/>
<path d="M26.7976 38.0817H21.5976C19.9427 38.0817 18.3555 37.4243 17.1853 36.2541C16.0151 35.0838 15.3576 33.4967 15.3576 31.8417C15.3576 30.1868 16.0151 28.5996 17.1853 27.4294C18.3555 26.2591 19.9427 25.6017 21.5976 25.6017H29.9176C31.5726 25.6017 33.1597 26.2591 34.33 27.4294C35.5002 28.5996 36.1576 30.1868 36.1576 31.8417H34.0776C34.0776 30.7384 33.6393 29.6803 32.8592 28.9002C32.079 28.12 31.0209 27.6817 29.9176 27.6817H21.5976C20.4943 27.6817 19.4362 28.12 18.6561 28.9002C17.8759 29.6803 17.4376 30.7384 17.4376 31.8417C17.4376 32.945 17.8759 34.0031 18.6561 34.7833C19.4362 35.5634 20.4943 36.0017 21.5976 36.0017H26.7976V38.0817Z" fill="#7860FF" stroke="#7860FF" stroke-width="0.6"/>
<path d="M42.3996 38.0792H34.0796C32.4247 38.0792 30.8375 37.4218 29.6673 36.2515C28.4971 35.0813 27.8396 33.4941 27.8396 31.8392H29.9196C29.9196 32.9425 30.3579 34.0006 31.1381 34.7807C31.9182 35.5609 32.9763 35.9992 34.0796 35.9992H42.3996C43.5029 35.9992 44.561 35.5609 45.3412 34.7807C46.1213 34.0006 46.5596 32.9425 46.5596 31.8392C46.5596 30.7359 46.1213 29.6778 45.3412 28.8976C44.561 28.1175 43.5029 27.6792 42.3996 27.6792H37.1996V25.5992H42.3996C44.0546 25.5992 45.6417 26.2566 46.812 27.4268C47.9822 28.5971 48.6396 30.1842 48.6396 31.8392C48.6396 33.4941 47.9822 35.0813 46.812 36.2515C45.6417 37.4218 44.0546 38.0792 42.3996 38.0792Z" fill="#7860FF" stroke="#7860FF" stroke-width="0.6"/>
<circle cx="32" cy="32" r="32" fill="#EAEAEF"/>
<path d="M44.1298 21.3333L42.7826 22.6658C38.0801 27.3785 33.0465 32.7785 28.3482 37.5443L21.6418 32.0222L20.1909 30.8082L17.7778 33.7395L19.2434 34.9387L27.2971 41.5711L28.6147 42.6667L29.8435 41.4527C34.9355 36.3497 40.4626 30.3707 45.477 25.3454L46.8095 23.9982L44.1298 21.3333Z" fill="#505060"/>
</svg>
