<svg width="64" height="64" viewBox="0 0 64 64" fill="none" xmlns="http://www.w3.org/2000/svg">
<circle cx="32" cy="32" r="32" fill="#F0F0F7"/>
<path d="M42.8768 24.0816V44.7608C42.7567 45.0585 42.5777 45.3289 42.3504 45.5556C42.1232 45.7823 41.8524 45.9607 41.5543 46.08H23.0792C22.7818 45.9603 22.5116 45.7818 22.2849 45.5551C22.0582 45.3284 21.8797 45.0582 21.76 44.7608V24.0816C22.1879 23.0833 22.9431 22.6684 24.0289 22.7527C24.5831 22.7981 25.1439 22.7527 25.7597 22.7527V20.5487H28.7255C29.2116 19.9004 29.5552 19.2522 30.0673 18.7854C30.4855 18.3965 31.1143 18.2052 31.6556 17.92H32.9747C34.3134 18.3543 35.3311 19.129 35.7331 20.5746H38.9127V22.7592C39.5156 22.7592 40.0634 22.7948 40.6047 22.7592C41.6937 22.6684 42.4489 23.0671 42.8768 24.0816ZM41.0779 44.2973V24.5646H38.8933V26.6843H25.6916V24.5516H23.5492V44.2973H41.0779ZM34.0768 22.3087C34.0768 22.0105 34.0768 21.7933 34.0768 21.5729C34.0768 20.4644 33.3216 19.6735 32.3006 19.6832C31.2796 19.693 30.5697 20.4741 30.5568 21.5502C30.5568 21.7965 30.5568 22.0461 30.5568 22.3508H27.5068V24.9276H37.1171V22.3087H34.0768Z" fill="#4E4E56" stroke="#4E4E56" stroke-width="0.3"/>
<path d="M38.2644 31.2643L30.6345 39.8374L26.463 36.1877L27.6104 34.8621L30.4854 37.3578L36.9355 30.1039L38.2644 31.2643Z" fill="#4E4E56" stroke="#4E4E56" stroke-width="0.3"/>
<path d="M33.1919 21.4465C33.1905 21.6211 33.1372 21.7912 33.0387 21.9353C32.9402 22.0794 32.801 22.1909 32.6389 22.2556C32.4768 22.3202 32.2991 22.3351 32.1285 22.2983C31.9578 22.2615 31.802 22.1748 31.6809 22.0491C31.5599 21.9234 31.479 21.7645 31.4486 21.5926C31.4182 21.4207 31.4397 21.2437 31.5103 21.0841C31.581 20.9245 31.6976 20.7896 31.8453 20.6965C31.9929 20.6035 32.165 20.5565 32.3394 20.5617C32.5685 20.5701 32.7853 20.667 32.9443 20.832C33.1033 20.9971 33.192 21.2174 33.1919 21.4465Z" fill="#4E4E56" stroke="#4E4E56" stroke-width="0.3"/>
</svg>
