<svg width="64" height="64" viewBox="0 0 64 64" fill="none" xmlns="http://www.w3.org/2000/svg">
<circle cx="32" cy="32" r="32" fill="#EAEAEF"/>
<path fill-rule="evenodd" clip-rule="evenodd" d="M44.655 29.584C44.4836 24.7827 39.8538 21.5247 35.3098 22.8108C31.0229 16.3805 20.9918 19.0384 20.6488 26.8404C12.5896 29.0695 14.1329 41.2441 22.6208 41.2441H42.6831C49.4563 41.2441 50.9138 31.6416 44.655 29.584Z" fill="#505060"/>
<path d="M42.8675 29.7234L42.8658 29.7233C40.0266 29.621 37.6754 31.8973 37.6754 34.7338V35.9236H37.6726C36.8133 35.9236 36.12 36.6169 36.12 37.4762V44.7209C36.12 45.5801 36.8133 46.2734 37.6726 46.2734H47.6596C48.5188 46.2734 49.2121 45.5801 49.2121 44.7209V37.4811C49.2492 36.5783 48.5129 35.9031 47.68 35.9031H47.6772V34.8157C47.6772 32.1402 45.6049 29.8267 42.8675 29.7234ZM40.9237 34.7338C40.9237 33.7246 41.7593 32.9184 42.7768 32.9696C43.7142 33.0219 44.4698 33.8274 44.4698 34.8157V35.9236H40.9033V35.7338H40.9237V34.7338Z" fill="#505060" stroke="#EAEAEF" stroke-width="2"/>
<path d="M47.68 36.9031H46.8819C46.7796 36.9031 46.6772 36.8213 46.6772 36.6985V34.8157C46.6772 32.6464 44.9991 30.8045 42.8298 30.7227C40.5582 30.6408 38.6754 32.4622 38.6754 34.7338V36.719C38.6754 36.8213 38.5935 36.9236 38.4707 36.9236H37.6726C37.3656 36.9236 37.12 37.1692 37.12 37.4762V44.7209C37.12 45.0278 37.3656 45.2734 37.6726 45.2734H47.6596C47.9666 45.2734 48.2121 45.0278 48.2121 44.7209V37.4557C48.2326 37.1487 47.987 36.9031 47.68 36.9031ZM39.9237 34.7338C39.9237 33.158 41.2335 31.8892 42.8298 31.971C44.3237 32.0529 45.4698 33.3217 45.4698 34.8157V36.719C45.4698 36.8213 45.3879 36.9236 45.2651 36.9236H40.1079C40.0056 36.9236 39.9033 36.8417 39.9033 36.719V34.7338H39.9237Z" fill="#505060" stroke="#505060" stroke-width="0.6"/>
</svg>
