<svg width="64" height="64" viewBox="0 0 64 64" fill="none" xmlns="http://www.w3.org/2000/svg">
<circle cx="32" cy="32" r="32" fill="#F0F0F7"/>
<path d="M21.3285 29.288L20.1677 28.4072C19.8415 28.1381 19.3393 28.2008 19.0683 28.558C18.7992 28.8841 18.8619 29.3863 19.2191 29.6573L21.4515 31.3512C21.5116 31.386 21.5718 31.4208 21.632 31.4556L21.663 31.4575C21.7232 31.4924 21.7852 31.4962 21.8473 31.5C21.9093 31.5038 21.9714 31.5076 22.0354 31.4803C22.0664 31.4822 22.0664 31.4822 22.0664 31.4822C22.1303 31.455 22.1943 31.4277 22.2583 31.4005L24.6804 29.9913C24.9071 29.8495 25.0464 29.6088 25.0616 29.3606C25.0711 29.2054 25.0496 29.0484 24.9641 28.9186C24.7367 28.5621 24.2788 28.4095 23.8913 28.6349L22.8566 29.2569C23.9594 24.4655 28.3762 20.9981 33.4031 21.3056C33.8375 21.3321 34.1998 21.0117 34.2263 20.5773C34.2529 20.1428 33.9324 19.7806 33.498 19.7541C27.5402 19.3897 22.3642 23.5581 21.3285 29.288Z" fill="#4E4E56" stroke="#4E4E56"/>
<path d="M23.7618 35.8838C23.5674 35.4982 23.1096 35.3458 22.7239 35.5403C22.3382 35.7348 22.1855 36.1927 22.3798 36.5783C23.7656 39.3724 26.161 41.4493 29.1214 42.4395C31.624 43.2771 34.2731 43.2516 36.7253 42.3732L36.5427 43.8259C36.485 44.2584 36.8035 44.6516 37.2049 44.7072C37.6375 44.7647 38.0308 44.446 38.0866 44.0445L38.4442 41.2632C38.4461 41.2322 38.4461 41.2322 38.448 41.2011C38.4518 41.1391 38.4557 41.077 38.4303 40.982C38.4322 40.951 38.4031 40.9181 38.4031 40.9181C38.405 40.8871 38.3759 40.8541 38.3778 40.8231L38.3487 40.7902C38.3196 40.7573 38.2923 40.6933 38.2632 40.6604L38.2341 40.6275C38.1739 40.5927 38.1448 40.5598 38.0846 40.5249L35.6474 39.1306C35.2864 38.9218 34.8114 39.0486 34.6024 39.4096C34.3934 39.7706 34.5199 40.2455 34.8809 40.4544L35.9346 41.048C31.2043 42.504 26.0067 40.4121 23.7618 35.8838Z" fill="#4E4E56" stroke="#4E4E56"/>
<path d="M38.4937 21.5858C38.4608 21.6149 38.3987 21.6111 38.3658 21.6402C38.3658 21.6402 38.3347 21.6383 38.3328 21.6694C38.2999 21.6985 38.267 21.7276 38.2341 21.7568C38.2341 21.7568 38.2341 21.7568 38.2011 21.7859C38.1353 21.8442 38.0675 21.9335 38.0308 22.0247C38.0289 22.0557 37.9941 22.1158 37.9922 22.1469C37.9903 22.1779 37.9865 22.24 37.9827 22.302L37.9981 25.1061C38.0025 25.5425 38.3559 25.8755 38.7922 25.8711C39.2285 25.8666 39.5616 25.5132 39.5572 25.0769L39.5381 23.861C43.1669 27.1665 43.95 32.6961 41.1689 36.9176C40.9289 37.2767 41.0246 37.7497 41.3837 37.9897C41.7427 38.2297 42.2158 38.1341 42.4558 37.775C43.5898 36.0379 44.2388 34.0842 44.3622 32.0672C44.4248 31.0432 44.3614 30.0427 44.1448 29.0016C43.676 26.4812 42.3213 24.187 40.3372 22.5083L41.6803 21.9364C41.9672 21.8294 42.1394 21.5596 42.1565 21.2803C42.1641 21.1562 42.1406 21.0302 42.0843 20.9333C41.9209 20.5495 41.4649 20.3659 41.0811 20.5293L38.4937 21.5858Z" fill="#4E4E56" stroke="#4E4E56"/>
</svg>
