<svg width="64" height="64" viewBox="0 0 64 64" fill="none" xmlns="http://www.w3.org/2000/svg">
<circle cx="32" cy="32" r="32" fill="#F0F0F7"/>
<path d="M43.7353 22.152C43.192 20.018 39.1693 17.92 32.141 17.92C25.1178 17.92 21.0954 20.0152 20.5478 22.1477C20.5057 22.2298 20.48 22.3216 20.48 22.4203V41.8038C20.48 41.9895 20.5654 42.1533 20.6968 42.2645C21.6272 44.2467 25.5712 46.08 32.141 46.08C38.7126 46.08 42.6568 44.2458 43.586 42.2627C43.7163 42.1518 43.8008 41.9886 43.8008 41.8038V41.3622C43.8008 41.3586 43.8014 41.3553 43.8014 41.3516C43.8014 41.3495 43.8008 41.3477 43.8008 41.3456V35.0435C43.8008 35.0399 43.8014 35.0365 43.8014 35.0329C43.8014 35.0308 43.8008 35.029 43.8008 35.0269V28.8514C43.8008 28.8478 43.8014 28.8444 43.8014 28.8408C43.8014 28.8387 43.8008 28.8369 43.8008 28.8347V22.6593C43.8008 22.6556 43.8014 22.6523 43.8014 22.6487C43.8014 22.645 43.8008 22.6414 43.8008 22.6378V22.4203C43.8008 22.3234 43.7759 22.2331 43.7353 22.152ZM42.5893 35.0402C42.5766 36.7017 38.2895 38.5498 32.141 38.5498C25.9834 38.5498 21.6921 36.6963 21.6921 35.0326C21.6921 35.0305 21.6914 35.0287 21.6914 35.0266V30.9787C23.4187 32.431 26.965 33.5692 32.141 33.5692C37.3161 33.5692 40.8614 32.4313 42.5893 30.9796V35.0402ZM42.5893 28.8481C42.5766 30.5096 38.2895 32.3577 32.141 32.3577C25.9834 32.3577 21.6921 30.5041 21.6921 28.8405C21.6921 28.8384 21.6914 28.8365 21.6914 28.8344V24.7866C23.4187 26.2389 26.965 27.377 32.141 27.377C37.3161 27.377 40.8614 26.2395 42.5893 24.7875V28.8481ZM32.141 19.1315C38.2895 19.1315 42.5766 20.9796 42.5893 22.6411V22.6559C42.5766 24.3175 38.2895 26.1656 32.141 26.1656C25.9834 26.1656 21.6921 24.312 21.6921 22.6487C21.6921 20.9853 25.9834 19.1315 32.141 19.1315ZM32.141 44.8685C25.9834 44.8685 21.6921 43.015 21.6921 41.3516C21.6921 41.3495 21.6914 41.3477 21.6914 41.3456V37.1712C23.4187 38.6234 26.965 39.7616 32.141 39.7616C37.3161 39.7616 40.8614 38.6237 42.5893 37.1721V41.3589C42.5766 43.0207 38.2895 44.8685 32.141 44.8685Z" fill="#4E4E56" stroke="#4E4E56" stroke-width="0.8"/>
</svg>
