<svg width="64" height="64" viewBox="0 0 64 64" fill="none" xmlns="http://www.w3.org/2000/svg">
<circle cx="32" cy="32" r="32" fill="#F0F0F7"/>
<path d="M42.0901 23.1238C42.0901 23.1296 42.0901 23.135 42.0898 23.1407C42.061 24.928 37.4505 26.3739 31.7674 26.3739C26.0844 26.3739 21.4739 24.928 21.4451 23.1407C21.4448 23.135 21.4448 23.1296 21.4448 23.1238C21.4448 21.3288 26.0663 19.8737 31.7674 19.8737C37.4685 19.8737 42.0901 21.3288 42.0901 23.1238Z" fill="#505060" stroke="#F0F0F7" stroke-width="0.4"/>
<path d="M42.124 40.6237C42.124 40.6294 42.124 40.6348 42.1237 40.6406C42.0949 42.4278 37.4844 43.8737 31.8013 43.8737C26.1182 43.8737 21.5077 42.4278 21.479 40.6406C21.4787 40.6348 21.4787 40.6294 21.4787 40.6236L21.472 36.0448C21.472 36.0505 21.472 36.056 21.4723 36.0617C21.501 37.8489 26.1115 39.2948 31.7946 39.2948C37.4777 39.2948 42.0882 37.8489 42.117 36.0617C42.1172 36.056 42.1172 36.0505 42.1172 36.0448L42.124 40.6237Z" fill="#505060" stroke="#F0F0F7" stroke-width="0.4"/>
<path d="M42.1 34.8173C42.1 34.8231 42.1 34.8285 42.0997 34.8342C42.071 36.6214 37.4605 38.0673 31.7773 38.0673C26.0943 38.0673 21.4838 36.6214 21.455 34.8342C21.4547 34.8285 21.4547 34.8231 21.4547 34.8173L21.448 30.2384C21.448 30.2442 21.448 30.2496 21.4483 30.2554C21.477 32.0425 26.0875 33.4885 31.7706 33.4885C37.4537 33.4885 42.0642 32.0425 42.093 30.2554C42.0933 30.2496 42.0933 30.2442 42.0933 30.2384L42.1 34.8173Z" fill="#505060" stroke="#F0F0F7" stroke-width="0.4"/>
<path d="M42.1032 28.9572C42.1032 28.963 42.1032 28.9684 42.1029 28.9742C42.0742 30.7613 37.4637 32.2073 31.7806 32.2073C26.0975 32.2073 21.487 30.7613 21.4582 28.9742C21.458 28.9684 21.458 28.963 21.458 28.9572L21.4512 24.3784C21.4512 24.3841 21.4512 24.3895 21.4515 24.3953C21.4802 26.1825 26.0908 27.6284 31.7738 27.6284C37.4569 27.6284 42.0674 26.1825 42.0962 24.3953C42.0965 24.3895 42.0965 24.3841 42.0965 24.3784L42.1032 28.9572Z" fill="#505060" stroke="#F0F0F7" stroke-width="0.4"/>
<circle cx="41" cy="41" r="10" fill="#F0F0F7"/>
<path d="M37.4011 38.6411L35.8657 39.3851C36.1948 38.2674 36.8935 37.2884 37.8522 36.6018C38.8108 35.9152 39.9751 35.5599 41.1622 35.5917C42.3494 35.6234 43.4921 36.0404 44.4111 36.7773C45.33 37.5141 45.9732 38.5289 46.2395 39.6625C46.244 39.6994 46.2564 39.7349 46.2758 39.7668C46.2952 39.7987 46.3212 39.8262 46.3522 39.8476C46.3832 39.869 46.4184 39.8838 46.4556 39.891C46.4928 39.8982 46.5311 39.8977 46.568 39.8895C46.605 39.8812 46.6398 39.8655 46.6701 39.8433C46.7005 39.8211 46.7258 39.7929 46.7443 39.7605C46.7628 39.7281 46.7742 39.6923 46.7777 39.6553C46.7811 39.6183 46.7766 39.5811 46.7645 39.5459C46.4718 38.3021 45.7671 37.1881 44.7604 36.3776C43.7536 35.5671 42.5013 35.1057 41.1988 35.0654C39.8963 35.025 38.6167 35.408 37.5597 36.1545C36.5027 36.9011 35.7275 37.9692 35.3552 39.1925L34.6155 37.7275C34.5783 37.6768 34.524 37.6405 34.4622 37.6251C34.4003 37.6098 34.3349 37.6163 34.2775 37.6436C34.2201 37.6708 34.1744 37.7171 34.1484 37.7741C34.1225 37.8312 34.1179 37.8954 34.1356 37.9555L35.173 40.016C35.2048 40.0785 35.2605 40.1263 35.3281 40.1488C35.3957 40.1713 35.4696 40.1668 35.5338 40.1361L37.641 39.1165C37.6729 39.1011 37.7013 39.0796 37.7247 39.0534C37.7481 39.0272 37.7661 38.9968 37.7775 38.9638C37.7888 38.9308 37.7935 38.8959 37.7911 38.8612C37.7888 38.8265 37.7794 38.7925 37.7637 38.7613C37.7479 38.7301 37.7261 38.7022 37.6993 38.6793C37.6726 38.6564 37.6415 38.6388 37.6078 38.6276C37.5741 38.6165 37.5385 38.6119 37.5031 38.6143C37.4676 38.6166 37.4329 38.6257 37.4011 38.6411ZM47.847 43.5856C47.8788 43.6486 47.8837 43.7214 47.8607 43.788C47.8377 43.8547 47.7886 43.9096 47.7243 43.9407C47.6599 43.9719 47.5856 43.9768 47.5176 43.9542C47.4496 43.9317 47.3935 43.8836 47.3617 43.8206L46.6743 42.4617C46.3085 43.6902 45.537 44.7652 44.4806 45.5182C43.4242 46.2711 42.1426 46.6596 40.8366 46.6226C39.5307 46.5856 38.2741 46.1253 37.2639 45.3138C36.2537 44.5023 35.5468 43.3855 35.2541 42.1383C35.2441 42.1037 35.2413 42.0674 35.246 42.0317C35.2507 41.9961 35.2627 41.9617 35.2814 41.9307C35.3001 41.8997 35.325 41.8728 35.3547 41.8516C35.3843 41.8303 35.4181 41.8152 35.4539 41.8072C35.4897 41.7991 35.5268 41.7983 35.5629 41.8048C35.599 41.8112 35.6335 41.8248 35.6641 41.8447C35.6947 41.8646 35.7208 41.8904 35.7409 41.9205C35.761 41.9506 35.7746 41.9844 35.781 42.0199C36.0507 43.1701 36.7082 44.1978 37.6475 44.9371C38.5867 45.6763 39.7528 46.0841 40.9577 46.0945C42.1625 46.1049 43.3358 45.7174 44.2882 44.9945C45.2406 44.2715 45.9166 43.2554 46.207 42.11L44.5833 42.8999C44.5515 42.9217 44.5153 42.9365 44.4772 42.9434C44.439 42.9503 44.3998 42.9491 44.3622 42.9399C44.3246 42.9306 44.2894 42.9136 44.2591 42.8898C44.2288 42.8661 44.2041 42.8363 44.1866 42.8024C44.1691 42.7685 44.1592 42.7313 44.1577 42.6933C44.1561 42.6554 44.1629 42.6175 44.1776 42.5823C44.1923 42.5472 44.2146 42.5155 44.2429 42.4895C44.2711 42.4635 44.3048 42.4438 44.3415 42.4316L46.447 41.4032C46.5111 41.3725 46.585 41.368 46.6526 41.3905C46.7202 41.413 46.776 41.4607 46.8078 41.5233L47.847 43.5856Z" fill="#505060" stroke="#505060"/>
</svg>
