<svg width="64" height="64" viewBox="0 0 64 64" fill="none" xmlns="http://www.w3.org/2000/svg">
<circle cx="32" cy="32" r="32" fill="#F0F0F7"/>
<path d="M22.3944 41.0875H30.6172C32.4306 41.0875 33.9113 42.5241 33.9901 44.3173H35.0917V46.08H33.116H19.8961H17.9203V44.3173H19.022C19.1013 42.5241 20.582 41.0875 22.3944 41.0875ZM32.2279 44.3173C32.1522 43.4961 31.4586 42.8502 30.6172 42.8502H22.3944C21.554 42.8502 20.8604 43.4961 20.7847 44.3173H32.2279Z" fill="#4E4E56" stroke="#4E4E56" stroke-width="0.4"/>
<path d="M29.7948 36.5767L30.7296 37.5109L29.4833 38.7572L22.4399 31.7149L22.0044 31.2794C22.0044 31.2794 22.0044 31.2794 22.0044 31.2783L20.4471 29.721L21.6934 28.4747L22.6281 29.4094L31.9365 20.101L31.0018 19.1663L32.2481 17.92L33.8054 19.4774C33.8054 19.4774 33.8054 19.4774 33.8064 19.4774L39.7269 25.3978C39.7279 25.3988 39.729 25.4009 39.731 25.403L41.2843 26.9562L40.038 28.2025L39.1032 27.2678L36.325 30.0455L44.6053 36.8318L44.6701 36.8903C46.1181 38.3393 46.1181 40.6966 44.6712 42.1446C43.9692 42.8471 43.036 43.2343 42.0438 43.2343C41.0515 43.2343 40.1178 42.8476 39.4164 42.1446L32.5721 33.7989L29.7948 36.5767ZM33.1828 21.3478L23.8744 30.6562L24.328 31.1109L28.5485 35.3304L37.8569 26.0215L33.1828 21.3478ZM40.6912 40.9263C41.4325 41.6391 42.6959 41.6283 43.4249 40.8978C44.1761 40.1466 44.1854 38.9283 43.4513 38.1651L35.0725 31.298L33.8241 32.5464L40.6912 40.9263Z" fill="#4E4E56" stroke="#4E4E56" stroke-width="0.4"/>
</svg>
