<svg width="64" height="64" viewBox="0 0 64 64" fill="none" xmlns="http://www.w3.org/2000/svg">
<circle cx="32" cy="32" r="32" fill="#F0F0F7"/>
<path d="M42.9136 29.1113V28.2947C42.9136 22.9621 37.8715 17.9199 32.5389 17.9199C27.2063 17.9199 22.1641 22.9621 22.1641 28.2947V29.1113C20.4745 29.4552 19.1999 30.9506 19.1999 32.741V35.7052C19.1999 37.749 20.8628 39.4105 22.9052 39.4105C24.9475 39.4105 26.6104 37.749 26.6104 35.7052V32.741C26.6104 30.9506 25.3358 29.4552 23.6462 29.1113V28.2947C23.6462 23.8069 28.0511 19.402 32.5389 19.402C37.0267 19.402 41.4315 23.8069 41.4315 28.2947V29.1113C39.7419 29.4552 38.4673 30.9506 38.4673 32.741V35.7052C38.4673 37.4956 39.7419 38.991 41.4315 39.3349V40.9711L36.1463 41.558C35.7728 39.907 34.2996 38.6694 32.5389 38.6694C30.4965 38.6694 28.8336 40.3309 28.8336 42.3747C28.8336 44.4185 30.4965 46.0799 32.5389 46.0799C34.353 46.0799 35.8588 44.7683 36.176 43.0461L42.2541 42.3702C42.6305 42.3287 42.9136 42.0116 42.9136 41.6336V39.3349C44.6032 38.991 45.8778 37.4956 45.8778 35.7052V32.741C45.8778 30.9506 44.6032 29.4552 42.9136 29.1113ZM25.1283 32.741V35.7052C25.1283 36.9309 24.1309 37.9284 22.9052 37.9284C21.6795 37.9284 20.682 36.9309 20.682 35.7052V32.741C20.682 31.5153 21.6795 30.5178 22.9052 30.5178C24.1309 30.5178 25.1283 31.5153 25.1283 32.741ZM32.5389 44.5978C31.3132 44.5978 30.3157 43.6004 30.3157 42.3747C30.3157 41.149 31.3132 40.1515 32.5389 40.1515C33.7646 40.1515 34.762 41.149 34.762 42.3747C34.762 43.6004 33.7646 44.5978 32.5389 44.5978ZM44.3957 35.7052C44.3957 36.9309 43.3983 37.9284 42.1726 37.9284C40.9469 37.9284 39.9494 36.9309 39.9494 35.7052V32.741C39.9494 31.5153 40.9469 30.5178 42.1726 30.5178C43.3983 30.5178 44.3957 31.5153 44.3957 32.741V35.7052Z" fill="#4E4E56" stroke="#4E4E56"/>
</svg>
