<svg width="64" height="64" viewBox="0 0 64 64" fill="none" xmlns="http://www.w3.org/2000/svg">
<circle cx="32" cy="32" r="32" fill="#EAEAEF"/>
<path d="M22.7934 23.2687C26.2471 23.2687 29.2385 25.2398 30.7101 28.1172H47.8439L51.8843 31.5768L46.2277 36.198L43.8035 33.7737L41.3793 36.198L38.955 33.7737L36.5308 36.198H30.7101C29.2385 39.0753 26.2471 41.0465 22.7934 41.0465C17.8842 41.0465 13.9045 37.0667 13.9045 32.1576C13.9045 27.2484 17.8842 23.2687 22.7934 23.2687ZM19.9651 29.7333C18.6262 29.7333 17.5409 30.8187 17.5409 32.1576C17.5409 33.4964 18.6262 34.5818 19.9651 34.5818C21.304 34.5818 22.3894 33.4964 22.3894 32.1576C22.3894 30.8187 21.304 29.7333 19.9651 29.7333Z" fill="#505060"/>
</svg>
