<svg width="64" height="64" viewBox="0 0 64 64" fill="none" xmlns="http://www.w3.org/2000/svg">
<circle cx="32" cy="32" r="32" fill="#EAEAEF"/>
<path d="M26.7993 38.0805H21.5996C19.9448 38.0805 18.3577 37.4231 17.1875 36.2529C16.0174 35.0828 15.36 33.4957 15.36 31.8409C15.36 30.186 16.0174 28.5989 17.1875 27.4288C18.3577 26.2586 19.9448 25.6013 21.5996 25.6013H29.9191C31.5739 25.6013 33.161 26.2586 34.3311 27.4288C35.5013 28.5989 36.1587 30.186 36.1587 31.8409H34.0788C34.0788 30.7376 33.6405 29.6796 32.8604 28.8995C32.0803 28.1194 31.0223 27.6811 29.9191 27.6811H21.5996C20.4964 27.6811 19.4383 28.1194 18.6582 28.8995C17.8781 29.6796 17.4399 30.7376 17.4399 31.8409C17.4399 32.9441 17.8781 34.0021 18.6582 34.7822C19.4383 35.5623 20.4964 36.0006 21.5996 36.0006H26.7993V38.0805Z" fill="#505060" stroke="#505060" stroke-width="0.5"/>
<path d="M42.4009 38.0792H34.0814C32.4266 38.0792 30.8395 37.4218 29.6694 36.2517C28.4992 35.0815 27.8418 33.4944 27.8418 31.8396H29.9217C29.9217 32.9428 30.36 34.0009 31.1401 34.781C31.9202 35.5611 32.9782 35.9993 34.0814 35.9993H42.4009C43.5041 35.9993 44.5622 35.5611 45.3423 34.781C46.1224 34.0009 46.5606 32.9428 46.5606 31.8396C46.5606 30.7364 46.1224 29.6783 45.3423 28.8982C44.5622 28.1181 43.5041 27.6799 42.4009 27.6799H37.2012V25.6H42.4009C44.0557 25.6 45.6428 26.2574 46.813 27.4275C47.9831 28.5977 48.6405 30.1848 48.6405 31.8396C48.6405 33.4944 47.9831 35.0815 46.813 36.2517C45.6428 37.4218 44.0557 38.0792 42.4009 38.0792Z" fill="#505060" stroke="#505060" stroke-width="0.5"/>
</svg>
