<svg width="64" height="64" viewBox="0 0 64 64" fill="none" xmlns="http://www.w3.org/2000/svg">
<circle cx="32" cy="32" r="32" fill="#F0F0F7"/>
<path d="M41.6411 29.6684H40.1062C39.9095 29.6684 39.7127 29.511 39.7127 29.2749V25.6541C39.7127 21.4824 36.4855 17.9403 32.3137 17.7829C27.9452 17.6255 24.3244 21.1282 24.3244 25.4967V29.3142C24.3244 29.511 24.167 29.7078 23.9309 29.7078H22.396C21.8056 29.7078 21.3333 30.1801 21.3333 30.7704V44.7025C21.3333 45.2928 21.8056 45.7651 22.396 45.7651H41.6018C42.1921 45.7651 42.6644 45.2928 42.6644 44.7025V30.7311C42.7037 30.1407 42.2315 29.6684 41.6411 29.6684ZM26.7251 25.4967C26.7251 22.4663 29.2439 20.0262 32.3137 20.1836C35.1867 20.341 37.3907 22.7811 37.3907 25.6541V29.3142C37.3907 29.511 37.2332 29.7078 36.9971 29.7078H27.0793C26.8826 29.7078 26.6858 29.5504 26.6858 29.3142V25.4967H26.7251Z" fill="#505060"/>
</svg>
