<svg width="64" height="64" viewBox="0 0 64 64" fill="none" xmlns="http://www.w3.org/2000/svg">
<circle cx="32" cy="32" r="32" fill="#F0F0F7"/>
<path d="M32.3704 32.88H42.4544L40.3233 35.012C40.1153 35.22 40.0114 35.48 40.0114 35.74C40.0114 36 40.1153 36.26 40.3233 36.468C40.7391 36.884 41.3629 36.884 41.7787 36.468L45.6772 32.568C45.7292 32.516 45.7811 32.464 45.8331 32.412L45.8851 32.36C45.8851 32.308 45.9371 32.308 45.9371 32.256C45.9371 32.204 45.9371 32.204 45.9891 32.152C45.9891 32.1 45.9891 32.1 46.041 32.048C46.093 31.892 46.093 31.788 46.041 31.632C46.041 31.58 46.041 31.58 45.9891 31.528C45.9891 31.476 45.9891 31.476 45.9371 31.424C45.9371 31.372 45.8851 31.372 45.8851 31.32C45.8851 31.32 45.8851 31.268 45.8331 31.268C45.7811 31.216 45.7292 31.164 45.6772 31.112L41.7787 27.212C41.3629 26.796 40.7391 26.796 40.3233 27.212C40.1153 27.42 40.0114 27.68 40.0114 27.94C40.0114 28.2 40.1153 28.46 40.3233 28.668L42.4544 30.8H32.4224L28.316 26.692C27.6402 26.016 26.7046 25.6 25.717 25.6H18.9596C18.3878 25.6 17.92 26.068 17.92 26.64C17.92 27.212 18.3878 27.68 18.9596 27.68H25.665C26.0808 27.68 26.4967 27.836 26.8085 28.148L30.4991 31.84L26.8085 35.532C26.4967 35.844 26.0808 36 25.665 36H18.9596C18.3878 36 17.92 36.468 17.92 37.04C17.92 37.612 18.3878 38.08 18.9596 38.08H25.665C26.6526 38.08 27.5882 37.716 28.264 36.988L32.3704 32.88Z" fill="#4E4E56" stroke="#4E4E56" stroke-width="0.2"/>
</svg>
