<svg width="64" height="64" viewBox="0 0 64 64" fill="none" xmlns="http://www.w3.org/2000/svg">
<circle cx="32" cy="32" r="32" fill="#EAEAEF"/>
<path d="M31.8499 21.0066C31.7843 21.015 31.7202 21.0342 31.6608 21.0633L18.3478 27.7198C18.1456 27.8187 18.0085 28.0383 18.0085 28.2635C18.0085 28.4886 18.1456 28.7082 18.3478 28.8071L31.6608 35.4636C31.8299 35.5496 32.0401 35.5496 32.2092 35.4636L45.5222 28.8071C45.7244 28.7082 45.8615 28.4886 45.8615 28.2635C45.8615 28.0383 45.7244 27.8187 45.5222 27.7198L32.2092 21.0633C32.0989 21.0084 31.9717 20.9883 31.8499 21.0066ZM18.6031 31.8895C18.3304 31.8898 18.0719 32.0977 18.013 32.364C17.9541 32.6302 18.1008 32.9277 18.3478 33.0431L31.6608 39.6996C31.8299 39.7855 32.0401 39.7855 32.2092 39.6996L45.5222 33.0431C45.8068 32.8995 45.9353 32.5099 45.7917 32.2252C45.6481 31.9405 45.2584 31.8121 44.9738 31.9557L31.935 38.4798L18.8962 31.9557C18.8061 31.9096 18.7043 31.8866 18.6031 31.8895ZM18.6031 36.1255C18.3304 36.1258 18.0719 36.3337 18.013 36.5999C17.9541 36.8661 18.1008 37.1637 18.3478 37.279L31.6608 43.9355C31.8299 44.0215 32.0401 44.0215 32.2092 43.9355L45.5222 37.279C45.8068 37.1355 45.9353 36.7458 45.7917 36.4612C45.6481 36.1765 45.2584 36.0481 44.9738 36.1917L31.935 42.7158L18.8962 36.1917C18.8061 36.1456 18.7043 36.1226 18.6031 36.1255Z" fill="#505060" stroke="#505060" stroke-width="0.4"/>
</svg>
