<svg width="50" height="50" viewBox="0 0 50 50" fill="none" xmlns="http://www.w3.org/2000/svg">
<circle cx="25" cy="25" r="25" fill="#E9E9F7"/>
<path fill-rule="evenodd" clip-rule="evenodd" d="M28.4324 27.1806L35 33.7483L33.7483 35L27.1806 28.4324C25.8996 29.4434 24.282 30.0468 22.5234 30.0468C18.3683 30.0468 15 26.6784 15 22.5234C15 18.3683 18.3683 15 22.5234 15C26.6784 15 30.0468 18.3683 30.0468 22.5234C30.0468 24.282 29.4434 25.8996 28.4324 27.1806ZM22.5234 28.2766C25.7008 28.2766 28.2766 25.7008 28.2766 22.5234C28.2766 19.346 25.7008 16.7702 22.5234 16.7702C19.346 16.7702 16.7702 19.346 16.7702 22.5234C16.7702 25.7008 19.346 28.2766 22.5234 28.2766Z" fill="#7860FF" stroke="#7860FF" stroke-width="0.3"/>
</svg>
