<svg width="50" height="50" viewBox="0 0 50 50" fill="none" xmlns="http://www.w3.org/2000/svg">
<circle cx="25" cy="25" r="25" fill="#E9E9F7"/>
<path d="M20.9375 29.75H16.875C15.5821 29.75 14.3421 29.2364 13.4279 28.3221C12.5136 27.4079 12 26.1679 12 24.875C12 23.5821 12.5136 22.3421 13.4279 21.4279C14.3421 20.5136 15.5821 20 16.875 20H23.375C24.6679 20 25.9079 20.5136 26.8221 21.4279C27.7364 22.3421 28.25 23.5821 28.25 24.875H26.625C26.625 24.013 26.2826 23.1864 25.6731 22.5769C25.0636 21.9674 24.237 21.625 23.375 21.625H16.875C16.013 21.625 15.1864 21.9674 14.5769 22.5769C13.9674 23.1864 13.625 24.013 13.625 24.875C13.625 25.737 13.9674 26.5636 14.5769 27.1731C15.1864 27.7826 16.013 28.125 16.875 28.125H20.9375V29.75Z" fill="#7860FF" stroke="#7860FF" stroke-width="0.3"/>
<path d="M33.125 29.75H26.625C25.3321 29.75 24.0921 29.2364 23.1779 28.3221C22.2636 27.4079 21.75 26.1679 21.75 24.875H23.375C23.375 25.737 23.7174 26.5636 24.3269 27.1731C24.9364 27.7826 25.763 28.125 26.625 28.125H33.125C33.987 28.125 34.8136 27.7826 35.4231 27.1731C36.0326 26.5636 36.375 25.737 36.375 24.875C36.375 24.013 36.0326 23.1864 35.4231 22.5769C34.8136 21.9674 33.987 21.625 33.125 21.625H29.0625V20H33.125C34.4179 20 35.6579 20.5136 36.5721 21.4279C37.4864 22.3421 38 23.5821 38 24.875C38 26.1679 37.4864 27.4079 36.5721 28.3221C35.6579 29.2364 34.4179 29.75 33.125 29.75Z" fill="#7860FF" stroke="#7860FF" stroke-width="0.3"/>
</svg>
