<svg width="50" height="50" viewBox="0 0 50 50" fill="none" xmlns="http://www.w3.org/2000/svg">
<circle cx="25" cy="25" r="25" fill="#E9E9F7"/>
<path d="M25.2893 25.6875H33.1675L31.5025 27.3531C31.3401 27.5156 31.2589 27.7188 31.2589 27.9219C31.2589 28.125 31.3401 28.3281 31.5025 28.4906C31.8274 28.8156 32.3147 28.8156 32.6396 28.4906L35.6853 25.4438C35.7259 25.4031 35.7665 25.3625 35.8071 25.3219L35.8477 25.2812C35.8477 25.2406 35.8883 25.2406 35.8883 25.2C35.8883 25.1594 35.8883 25.1594 35.9289 25.1187C35.9289 25.0781 35.9289 25.0781 35.9695 25.0375C36.0102 24.9156 36.0102 24.8344 35.9695 24.7125C35.9695 24.6719 35.9695 24.6719 35.9289 24.6313C35.9289 24.5906 35.9289 24.5906 35.8883 24.55C35.8883 24.5094 35.8477 24.5094 35.8477 24.4688C35.8477 24.4688 35.8477 24.4281 35.8071 24.4281C35.7665 24.3875 35.7259 24.3469 35.6853 24.3062L32.6396 21.2594C32.3147 20.9344 31.8274 20.9344 31.5025 21.2594C31.3401 21.4219 31.2589 21.625 31.2589 21.8281C31.2589 22.0312 31.3401 22.2344 31.5025 22.3969L33.1675 24.0625H25.3299L22.1218 20.8531C21.5939 20.325 20.8629 20 20.0914 20H14.8122C14.3655 20 14 20.3656 14 20.8125C14 21.2594 14.3655 21.625 14.8122 21.625H20.0508C20.3756 21.625 20.7005 21.7469 20.9442 21.9906L23.8274 24.875L20.9442 27.7594C20.7005 28.0031 20.3756 28.125 20.0508 28.125H14.8122C14.3655 28.125 14 28.4906 14 28.9375C14 29.3844 14.3655 29.75 14.8122 29.75H20.0508C20.8223 29.75 21.5533 29.4656 22.0812 28.8969L25.2893 25.6875Z" fill="#674FEF" stroke="#674FEF" stroke-width="0.2"/>
<path d="M25.2893 25.6875H33.1675L31.5025 27.3531C31.3401 27.5156 31.2589 27.7188 31.2589 27.9219C31.2589 28.125 31.3401 28.3281 31.5025 28.4906C31.8274 28.8156 32.3147 28.8156 32.6396 28.4906L35.6853 25.4438C35.7259 25.4031 35.7665 25.3625 35.8071 25.3219L35.8477 25.2812C35.8477 25.2406 35.8883 25.2406 35.8883 25.2C35.8883 25.1594 35.8883 25.1594 35.9289 25.1187C35.9289 25.0781 35.9289 25.0781 35.9695 25.0375C36.0102 24.9156 36.0102 24.8344 35.9695 24.7125C35.9695 24.6719 35.9695 24.6719 35.9289 24.6313C35.9289 24.5906 35.9289 24.5906 35.8883 24.55C35.8883 24.5094 35.8477 24.5094 35.8477 24.4688C35.8477 24.4688 35.8477 24.4281 35.8071 24.4281C35.7665 24.3875 35.7259 24.3469 35.6853 24.3062L32.6396 21.2594C32.3147 20.9344 31.8274 20.9344 31.5025 21.2594C31.3401 21.4219 31.2589 21.625 31.2589 21.8281C31.2589 22.0312 31.3401 22.2344 31.5025 22.3969L33.1675 24.0625H25.3299L22.1218 20.8531C21.5939 20.325 20.8629 20 20.0914 20H14.8122C14.3655 20 14 20.3656 14 20.8125C14 21.2594 14.3655 21.625 14.8122 21.625H20.0508C20.3756 21.625 20.7005 21.7469 20.9442 21.9906L23.8274 24.875L20.9442 27.7594C20.7005 28.0031 20.3756 28.125 20.0508 28.125H14.8122C14.3655 28.125 14 28.4906 14 28.9375C14 29.3844 14.3655 29.75 14.8122 29.75H20.0508C20.8223 29.75 21.5533 29.4656 22.0812 28.8969L25.2893 25.6875Z" fill="#7860FF" stroke="#7860FF" stroke-width="0.2"/>
</svg>
