<svg width="50" height="50" viewBox="0 0 50 50" fill="none" xmlns="http://www.w3.org/2000/svg">
<circle cx="25" cy="25" r="25" fill="#E9E9F7"/>
<path d="M16.6632 22.882L15.7563 22.1939C15.5015 21.9837 15.1092 22.0327 14.8974 22.3117C14.6872 22.5665 14.7362 22.9588 15.0152 23.1706L16.7593 24.4939C16.8063 24.5211 16.8533 24.5483 16.9003 24.5755L16.9245 24.577C16.9715 24.6042 17.02 24.6072 17.0685 24.6101C17.117 24.6131 17.1655 24.6161 17.2154 24.5948C17.2397 24.5963 17.2397 24.5963 17.2397 24.5963C17.2896 24.575 17.3396 24.5537 17.3896 24.5324L19.2819 23.4315C19.459 23.3207 19.5678 23.1327 19.5797 22.9387C19.5871 22.8175 19.5703 22.6948 19.5035 22.5934C19.3258 22.3149 18.9681 22.1957 18.6654 22.3718L17.857 22.8577C18.7186 19.1145 22.1692 16.4055 26.0965 16.6457C26.4359 16.6665 26.7189 16.4162 26.7396 16.0768C26.7604 15.7374 26.51 15.4544 26.1706 15.4336C21.5161 15.149 17.4723 18.4056 16.6632 22.882Z" fill="#7860FF" stroke="#7860FF" stroke-width="0.9"/>
<path d="M18.5635 28.0349C18.4117 27.7336 18.054 27.6145 17.7527 27.7665C17.4513 27.9185 17.332 28.2762 17.4839 28.5774C18.5665 30.7603 20.4379 32.383 22.7507 33.1565C24.7059 33.811 26.7754 33.7911 28.6912 33.1048L28.5485 34.2397C28.5034 34.5777 28.7523 34.8848 29.0659 34.9283C29.4038 34.9732 29.7111 34.7242 29.7547 34.4106L30.0341 32.2377C30.0356 32.2134 30.0356 32.2134 30.0371 32.1892C30.0401 32.1407 30.0431 32.0922 30.0233 32.018C30.0248 31.9938 30.002 31.968 30.002 31.968C30.0035 31.9438 29.9808 31.9181 29.9822 31.8938L29.9595 31.8681C29.9367 31.8424 29.9155 31.7924 29.8927 31.7667L29.87 31.741C29.823 31.7138 29.8002 31.6881 29.7532 31.6609L27.8491 30.5716C27.5671 30.4084 27.196 30.5074 27.0327 30.7895C26.8694 31.0715 26.9683 31.4425 27.2503 31.6057L28.0734 32.0695C24.3779 33.207 20.3173 31.5726 18.5635 28.0349Z" fill="#7860FF" stroke="#7860FF" stroke-width="0.9"/>
<path d="M30.0734 16.8646C30.0476 16.8874 29.9992 16.8844 29.9734 16.9072C29.9734 16.9072 29.9492 16.9057 29.9477 16.93C29.922 16.9527 29.8963 16.9755 29.8705 16.9982C29.8705 16.9982 29.8705 16.9982 29.8448 17.021C29.7934 17.0665 29.7404 17.1363 29.7117 17.2075C29.7103 17.2318 29.683 17.2788 29.6816 17.303C29.6801 17.3272 29.6771 17.3757 29.6741 17.4242L29.6862 19.6149C29.6896 19.9558 29.9657 20.216 30.3066 20.2125C30.6475 20.209 30.9077 19.933 30.9042 19.5921L30.8893 18.6422C33.7243 21.2246 34.3361 25.5446 32.1634 28.8426C31.9759 29.1232 32.0506 29.4927 32.3312 29.6802C32.6117 29.8677 32.9813 29.793 33.1687 29.5125C34.0547 28.1553 34.5618 26.629 34.6581 25.0533C34.7071 24.2533 34.6575 23.4716 34.4883 22.6583C34.1221 20.6892 33.0637 18.8968 31.5136 17.5854L32.5629 17.1386C32.787 17.0549 32.9216 16.8442 32.9349 16.626C32.9409 16.529 32.9225 16.4306 32.8785 16.3549C32.7509 16.0551 32.3946 15.9116 32.0948 16.0393L30.0734 16.8646Z" fill="#7860FF" stroke="#7860FF" stroke-width="0.9"/>
</svg>
