<svg width="64" height="64" viewBox="0 0 64 64" fill="none" xmlns="http://www.w3.org/2000/svg">
<circle cx="32" cy="32" r="32" fill="#F0F0F7"/>
<path d="M29.0958 37.3882H33.5976V36.9838C33.6214 34.6646 34.4529 33.5823 36.3296 32.4524C38.5509 31.1323 40 29.3839 40 26.589C40 22.4263 36.6503 20 31.9347 20C27.6229 20 24.1069 22.2598 24 27.0171H28.8463C28.9176 25.0785 30.3549 24.0438 31.9109 24.0438C33.5145 24.0438 34.8092 25.1142 34.8092 26.7674C34.8092 28.3254 33.6808 29.3601 32.2197 30.2878C30.2242 31.5485 29.1076 32.8211 29.0958 36.9838V37.3882ZM31.4358 45C32.9562 45 34.2747 43.7274 34.2866 42.1456C34.2747 40.5875 32.9562 39.3149 31.4358 39.3149C29.8679 39.3149 28.5731 40.5875 28.585 42.1456C28.5731 43.7274 29.8679 45 31.4358 45Z" fill="#56565A"/>
</svg>
