<svg width="64" height="64" viewBox="0 0 64 64" fill="none" xmlns="http://www.w3.org/2000/svg">
<circle cx="32" cy="32" r="32" fill="#F0F0F7"/>
<path d="M46.08 44.2652L37.5694 35.7547C39.1026 33.8148 39.9474 31.4368 39.9474 28.9337C39.9474 25.9925 38.7897 23.2391 36.7246 21.1428C34.6283 19.0777 31.8749 17.92 28.9337 17.92C25.9925 17.92 23.2391 19.0777 21.1428 21.1428C19.0777 23.2078 17.92 25.9925 17.92 28.9337C17.92 31.8748 19.0777 34.6283 21.1428 36.7246C23.2078 38.7897 25.9925 39.9474 28.9337 39.9474C31.4368 39.9474 33.8148 39.1026 35.7547 37.5694L44.2653 46.08L46.08 44.2652ZM22.9575 34.9099C19.6722 31.6245 19.6722 26.2428 22.9575 22.9575C24.5533 21.3618 26.6809 20.4857 28.9337 20.4857C31.1865 20.4857 33.3141 21.3618 34.9099 22.9575C38.1952 26.2428 38.1952 31.6245 34.9099 34.9099C33.3141 36.5056 31.1865 37.3817 28.9337 37.3817C26.6809 37.3817 24.5533 36.5056 22.9575 34.9099Z" fill="#505060" stroke="#505060" stroke-width="0.5"/>
</svg>
