<svg width="64" height="64" viewBox="0 0 64 64" fill="none" xmlns="http://www.w3.org/2000/svg">
<circle cx="32" cy="32" r="32" fill="#F0F0F7"/>
<path d="M46.914 40.4867H17.086C16.4923 40.4867 16 39.9944 16 39.4007V24.1971C16 23.6034 16.4923 23.1111 17.086 23.1111H46.914C47.5077 23.1111 48 23.6034 48 24.1971V39.4007C48 39.9944 47.5077 40.4867 46.914 40.4867ZM18.1719 38.3147H45.8281V25.2831H18.1719V38.3147Z" fill="#505060" stroke="#505060"/>
<path d="M37.0665 34.1157C36.8927 34.1157 36.7334 34.0578 36.5886 33.9419L32.9398 30.7564C32.6357 30.4958 32.6067 30.0324 32.8674 29.7283C33.128 29.4243 33.5914 29.3953 33.8954 29.6559L37.0665 32.4216L40.1506 29.6559C40.4547 29.3953 40.9036 29.4098 41.1787 29.7139C41.4393 30.0179 41.4248 30.4668 41.1208 30.7419L37.5588 33.9274C37.414 34.0578 37.2402 34.1157 37.0665 34.1157Z" fill="#505060" stroke="#505060" stroke-width="2"/>
</svg>
