<svg width="64" height="64" viewBox="0 0 64 64" fill="none" xmlns="http://www.w3.org/2000/svg">
<circle cx="32" cy="32" r="32" fill="#F2F2F7"/>
<path d="M23.6243 26.2806L20.0512 28.0482C20.817 25.3926 22.4431 23.0666 24.6741 21.4352C26.9051 19.8039 29.6148 18.9597 32.3775 19.0351C35.1403 19.1105 37.7998 20.1014 39.9385 21.852C42.0772 23.6027 43.5739 26.014 44.1937 28.7074C44.2042 28.795 44.233 28.8794 44.2782 28.9551C44.3234 29.0309 44.384 29.0963 44.4561 29.1471C44.5282 29.198 44.6101 29.2331 44.6966 29.2502C44.7832 29.2674 44.8723 29.2661 44.9583 29.2466C45.0443 29.2271 45.1253 29.1898 45.196 29.137C45.2666 29.0842 45.3254 29.0171 45.3685 28.9402C45.4116 28.8632 45.4381 28.7781 45.4462 28.6902C45.4543 28.6024 45.4438 28.5139 45.4155 28.4303C44.7344 25.475 43.0944 22.8281 40.7514 20.9024C38.4083 18.9768 35.4939 17.8805 32.4626 17.7846C29.4313 17.6888 26.4535 18.5987 23.9935 20.3725C21.5334 22.1462 19.7295 24.6842 18.863 27.5906L17.1415 24.1099C17.0549 23.9893 16.9286 23.9031 16.7846 23.8666C16.6407 23.8301 16.4886 23.8456 16.355 23.9104C16.2214 23.9752 16.115 24.085 16.0546 24.2207C15.9941 24.3563 15.9835 24.5088 16.0246 24.6515L18.4389 29.5472C18.5129 29.6959 18.6427 29.8094 18.8 29.8628C18.9573 29.9163 19.1293 29.9055 19.2786 29.8327L24.1827 27.41C24.2569 27.3734 24.3231 27.3225 24.3776 27.2602C24.4321 27.198 24.4737 27.1256 24.5003 27.0472C24.5268 26.9688 24.5376 26.886 24.5321 26.8035C24.5266 26.7209 24.5049 26.6403 24.4682 26.5661C24.4316 26.4919 24.3806 26.4257 24.3184 26.3713C24.2561 26.3168 24.1838 26.2751 24.1054 26.2486C24.027 26.2221 23.9442 26.2112 23.8616 26.2167C23.7791 26.2222 23.6984 26.2439 23.6243 26.2806ZM47.9347 38.0286C48.0088 38.1783 48.0203 38.3514 47.9668 38.5097C47.9132 38.6679 47.799 38.7984 47.6492 38.8725C47.4995 38.9465 47.3264 38.9581 47.1681 38.9045C47.0099 38.851 46.8793 38.7368 46.8053 38.587L45.2056 35.3582C44.3544 38.2772 42.5588 40.8313 40.1003 42.6204C37.6417 44.4095 34.6591 45.3324 31.6198 45.2445C28.5805 45.1567 25.6562 44.063 23.3051 42.1349C20.954 40.2067 19.309 37.5531 18.6278 34.5898C18.6044 34.5076 18.5979 34.4215 18.6088 34.3367C18.6197 34.2519 18.6477 34.1702 18.6912 34.0966C18.7347 34.023 18.7927 33.9591 18.8617 33.9086C18.9307 33.8582 19.0093 33.8223 19.0926 33.8032C19.1759 33.784 19.2623 33.7821 19.3464 33.7974C19.4305 33.8127 19.5106 33.845 19.5818 33.8923C19.653 33.9396 19.7139 34.0009 19.7606 34.0724C19.8074 34.144 19.8391 34.2243 19.8539 34.3085C20.4816 37.0415 22.0119 39.4832 24.1977 41.2397C26.3836 42.9962 29.0975 43.965 31.9015 43.9898C34.7055 44.0145 37.4361 43.0938 39.6526 41.3761C41.8691 39.6585 43.4422 37.2441 44.1181 34.5226L40.3393 36.3995C40.2653 36.4512 40.1811 36.4865 40.0924 36.5029C40.0036 36.5193 39.9123 36.5164 39.8248 36.4944C39.7372 36.4724 39.6554 36.4319 39.5849 36.3755C39.5144 36.3192 39.4568 36.2483 39.416 36.1677C39.3753 36.0872 39.3524 35.9988 39.3488 35.9086C39.3452 35.8184 39.361 35.7285 39.3952 35.6449C39.4294 35.5614 39.4812 35.4862 39.547 35.4244C39.6128 35.3626 39.6911 35.3157 39.7767 35.2868L44.6766 32.8432C44.8259 32.7704 44.9979 32.7596 45.1552 32.813C45.3125 32.8665 45.4423 32.98 45.5163 33.1287L47.9347 38.0286Z" fill="#505060" stroke="#505060" stroke-width="2"/>
</svg>
