<svg width="64" height="64" viewBox="0 0 64 64" fill="none" xmlns="http://www.w3.org/2000/svg">
<circle cx="32" cy="32" r="32" fill="#F0F0F7"/>
<path d="M28.0693 33.9016C30.3688 32.7394 31.9556 30.3393 31.9556 27.5643C31.9556 23.658 28.8171 20.48 24.9602 20.48C21.1032 20.48 17.9648 23.6583 17.9648 27.5643C17.9648 30.3389 19.5515 32.7394 21.851 33.9016C14.56 35.6425 14.0843 43.3776 14.08 43.4655L15.1629 43.52C15.1809 43.1583 15.7242 34.649 24.9598 34.649C34.1954 34.649 34.7387 43.158 34.7571 43.52L35.84 43.4655C35.8356 43.3776 35.36 35.6425 28.0693 33.9016ZM19.0488 27.5643C19.0488 24.2634 21.7003 21.5781 24.9598 21.5781C28.2193 21.5781 30.8709 24.2634 30.8709 27.5643C30.8709 30.8653 28.2193 33.5509 24.9598 33.5509C21.7003 33.5509 19.0488 30.8653 19.0488 27.5643Z" fill="#4E4E56" stroke="#4E4E56"/>
<path d="M43.9777 36.039C45.7362 35.1351 46.9496 33.2683 46.9496 31.11C46.9496 28.0717 44.5496 25.6 41.6002 25.6C38.6507 25.6 36.2507 28.072 36.2507 31.11C36.2507 33.268 37.4641 35.1351 39.2226 36.039C36.7953 36.6285 35.3558 38.1016 34.5038 39.5828L34.8084 40.7546C35.6546 38.8335 37.5159 36.6204 41.5999 36.6204C48.6624 36.6204 49.0778 43.2384 49.0919 43.52L49.92 43.4776C49.9167 43.4093 49.553 37.393 43.9777 36.039ZM37.0797 31.11C37.0797 28.5426 39.1073 26.4541 41.5999 26.4541C44.0924 26.4541 46.1201 28.5426 46.1201 31.11C46.1201 33.6774 44.0924 35.7663 41.5999 35.7663C39.1073 35.7663 37.0797 33.6774 37.0797 31.11Z" fill="#4E4E56" stroke="#4E4E56"/>
</svg>
