<svg width="64" height="64" viewBox="0 0 64 64" fill="none" xmlns="http://www.w3.org/2000/svg">
<circle cx="32" cy="32" r="32" fill="#F0F0F7"/>
<path d="M34.9413 34.1129C37.5288 32.8216 39.3143 30.1547 39.3143 27.0715C39.3143 22.7311 35.7828 19.2 31.4428 19.2C27.1028 19.2 23.5713 22.7315 23.5713 27.0715C23.5713 30.1543 25.3568 32.8216 27.9443 34.1129C19.7401 36.0472 19.2049 44.6418 19.2 44.7394L20.4185 44.8C20.4388 44.3982 21.0501 34.9434 31.4424 34.9434C41.8347 34.9434 42.446 44.3978 42.4667 44.8L43.6852 44.7394C43.6803 44.6418 43.1451 36.0472 34.9413 34.1129ZM24.791 27.0715C24.791 23.4038 27.7747 20.4201 31.4424 20.4201C35.1101 20.4201 38.0937 23.4038 38.0937 27.0715C38.0937 30.7392 35.1101 33.7232 31.4424 33.7232C27.7747 33.7232 24.791 30.7392 24.791 27.0715Z" fill="#4E4E56" stroke="#4E4E56"/>
</svg>
