<svg width="64" height="64" viewBox="0 0 64 64" fill="none" xmlns="http://www.w3.org/2000/svg">
<circle cx="32" cy="32" r="32" fill="#F0F0F7"/>
<path d="M38.459 36.6014C37.9075 36.8771 35.1899 38.2557 32.7085 40.3038C32.2359 40.6583 31.9996 41.2491 31.9996 41.8398V44.6363H41.8462H51.6928V41.8398C51.6928 41.2491 51.4171 40.6976 50.9839 40.3038C48.4631 38.2557 45.7849 36.8771 45.2334 36.6014C45.1547 36.5621 45.1153 36.5227 45.1153 36.4439V32.5446C45.5879 32.2295 45.9424 31.6781 45.9424 31.0086V26.9517C45.9424 24.943 44.2882 23.2888 42.2795 23.2888H41.8462H41.413C39.4042 23.2888 37.75 24.943 37.75 26.9517V31.0086C37.75 31.6387 38.0651 32.1901 38.5771 32.5446V36.4439C38.5771 36.5227 38.5377 36.6014 38.459 36.6014Z" fill="#505060"/>
<path d="M21.1351 30.1137V33.6705C19.8047 34.3682 16.9319 35.9737 14.2493 38.1837C13.2478 38.9514 12.8222 40.1452 12.8222 41.2231V44.7573V46.1573H14.2222H26.6667H39.1111H40.5111V44.7573V41.2231C40.5111 40.0338 39.9586 38.9748 39.1569 38.2459L39.1281 38.2197L39.0979 38.1952C36.3751 35.9829 33.5247 34.374 32.1982 33.6725V30.1188C32.8199 29.4732 33.2436 28.5768 33.2436 27.5342V22.4071C33.2436 19.0952 30.5261 16.3778 27.2142 16.3778H26.6667H26.1191C22.8072 16.3778 20.0898 19.0952 20.0898 22.4071V27.5342C20.0898 28.5429 20.4885 29.4411 21.1351 30.1137ZM31.5746 33.3509C31.5762 33.3517 31.5796 33.3534 31.5845 33.3559C31.5808 33.354 31.5772 33.3522 31.5737 33.3505L31.5746 33.3509Z" fill="#505060" stroke="#F2F2F6" stroke-width="2.8"/>
</svg>
