<svg width="50" height="50" viewBox="0 0 50 50" fill="none" xmlns="http://www.w3.org/2000/svg">
<circle cx="25" cy="25" r="25" fill="#F0F0F7"/>
<path d="M30.216 16.0005C30.0971 16.0117 29.9867 16.067 29.9065 16.1555C29.8263 16.244 29.7821 16.3593 29.7826 16.4788V19.8266H25C24.8732 19.8266 24.7515 19.877 24.6618 19.9667C24.5721 20.0564 24.5218 20.178 24.5217 20.3049V23.8918H19.7391C19.6123 23.8918 19.4907 23.9422 19.401 24.0319C19.3113 24.1216 19.2609 24.2433 19.2609 24.3701V27.2397H14.4783C14.3514 27.2397 14.2298 27.2901 14.1401 27.3797C14.0504 27.4694 14 27.5911 14 27.7179V31.7831C14 31.91 14.0504 32.0316 14.1401 32.1213C14.2298 32.211 14.3514 32.2614 14.4783 32.2614H35.5217C35.6486 32.2614 35.7702 32.211 35.8599 32.1213C35.9496 32.0316 36 31.91 36 31.7831V16.4788C36 16.3519 35.9496 16.2303 35.8599 16.1406C35.7702 16.0509 35.6486 16.0005 35.5217 16.0005H30.2609C30.2459 15.9998 30.231 15.9998 30.216 16.0005ZM30.7391 16.957H35.0435V31.3049H30.7391V16.957ZM25.4783 20.7831H29.7826V31.3049H25.4783V20.7831ZM20.2174 24.8484H24.5217V31.3049H20.2174V24.8484ZM14.9565 28.1962H19.2609V31.3049H14.9565V28.1962Z" fill="#4E4E56" stroke="#4E4E56" stroke-width="0.8"/>
</svg>
