<svg width="96" height="96" viewBox="0 0 96 96" fill="none" xmlns="http://www.w3.org/2000/svg">
<circle cx="48" cy="48" r="48" fill="#486DB7"/>
<path d="M33.9576 76.5157L34.9997 79.7367L32.2523 77.6525L29.505 79.7367L30.5471 76.421L27.7997 74.5262H31.2102L32.2523 71.3052L33.2944 74.5262H36.6102L33.9576 76.5157Z" fill="#FFD25F"/>
<path d="M49.8734 80.7789L50.9155 83.9999L48.1682 81.9157L45.4208 83.9052L46.4629 80.6841L43.7155 78.7894L47.1261 78.6947L48.1682 75.5684L49.2103 78.6947H52.5261L49.8734 80.7789Z" fill="#FFD25F"/>
<path d="M77.3466 64.9579L78.3887 68.1789L75.6413 66.0947L72.8939 68.0842L73.936 64.8632L71.2834 62.8737H74.5992L75.6413 59.7474L76.6834 62.8737H79.9992L77.3466 64.9579Z" fill="#FFD25F"/>
<path d="M65.6936 76.5157L66.8305 79.7367L64.0831 77.6525L61.241 79.7367L62.2831 76.421L59.6305 74.5262H62.9463L64.0831 71.3052L65.0305 74.5262H68.3463L65.6936 76.5157Z" fill="#FFD25F"/>
<path d="M22.3046 64.9579L23.4414 68.1789L20.6941 66.0947L17.852 68.0842L18.8941 64.8632L16.2414 62.8737H19.5572L20.6941 59.7474L21.6414 62.8737H24.9572L22.3046 64.9579Z" fill="#FFD25F"/>
<path d="M18.0417 49.0421L19.1785 52.2631L16.4311 50.1789L13.589 52.1684L14.6311 48.9473L11.9785 47.0526L15.2943 46.9579L16.4311 43.8315L17.3785 46.9579H20.6943L18.0417 49.0421Z" fill="#FFD25F"/>
<path d="M33.9576 21.5684L34.9997 24.7895L32.2523 22.7053L29.505 24.7895L30.5471 21.5684L27.7997 19.5789H31.2102L32.2523 16.4526L33.2944 19.5789H36.6102L33.9576 21.5684Z" fill="#FFD25F"/>
<path d="M22.3046 33.1263L23.4414 36.3473L20.6941 34.2631L17.852 36.3473L18.8941 33.1263L16.2414 31.1368H19.5572L20.6941 28.0105L21.6414 31.1368H24.9572L22.3046 33.1263Z" fill="#FFD25F"/>
<path d="M49.8734 17.2105L50.9155 20.4316L48.1682 18.3474L45.4208 20.3368L46.4629 17.1158L43.7155 15.221L47.1261 15.1263L48.1682 12L49.2103 15.1263H52.5261L49.8734 17.2105Z" fill="#FFD25F"/>
<path d="M65.6936 21.5684L66.8305 24.7895L64.0831 22.7053L61.241 24.7895L62.2831 21.5684L59.6305 19.5789H62.9463L64.0831 16.4526L65.0305 19.5789H68.3463L65.6936 21.5684Z" fill="#FFD25F"/>
<path d="M81.705 49.0421L82.7471 52.2631L80.0945 50.1789L77.2524 52.1684L78.2945 48.9473L75.6419 47.0526L78.9577 46.9579L80.0945 43.8315L81.0419 46.9579H84.3577L81.705 49.0421Z" fill="#FFD25F"/>
<path d="M77.3466 33.1263L78.3887 36.3473L75.6413 34.2631L72.8939 36.3473L73.936 33.1263L71.2834 31.1368H74.5992L75.6413 28.0105L76.6834 31.1368H79.9992L77.3466 33.1263Z" fill="#FFD25F"/>
</svg>
