<svg width="189" height="40" viewBox="0 0 189 40" fill="none" xmlns="http://www.w3.org/2000/svg">
<path d="M12.0131 1.42952C13.9191 -0.476508 17.0095 -0.476508 18.9155 1.42952C20.8215 3.33555 20.8215 6.42584 18.9155 8.33185L8.3319 18.9155C6.42582 20.8215 3.33555 20.8215 1.42952 18.9155C-0.476508 17.0095 -0.476508 13.9191 1.42952 12.0131L12.0131 1.42952Z" fill="#A192FF"/>
<path d="M12.0131 11.3232C13.9191 9.41721 17.0095 9.41721 18.9155 11.3232C20.8215 13.2292 20.8215 16.3196 18.9155 18.2256L8.3319 28.8092C6.42582 30.7152 3.33555 30.7152 1.42952 28.8092C-0.476508 26.9031 -0.476508 23.8129 1.42952 21.9069L12.0131 11.3232Z" fill="#A192FF"/>
<path fill-rule="evenodd" clip-rule="evenodd" d="M17.0801 10.1677L8.33191 18.9159C6.96167 20.2861 4.97939 20.6713 3.26505 20.0713L12.0132 11.3232C13.3834 9.95301 15.3657 9.56782 17.0801 10.1677Z" fill="#7654FF"/>
<path d="M12.0131 21.0847C13.9191 19.1787 17.0095 19.1787 18.9155 21.0847C20.8215 22.9907 20.8215 26.0811 18.9155 27.9871L8.3319 38.5707C6.42582 40.4767 3.33555 40.4767 1.42952 38.5707C-0.476508 36.6646 -0.476508 33.5744 1.42952 31.6684L12.0131 21.0847Z" fill="#A192FF"/>
<path fill-rule="evenodd" clip-rule="evenodd" d="M17.1767 19.9643L8.33173 28.8093C6.93559 30.2054 4.90405 30.579 3.16795 29.9298L12.013 21.0848C13.4091 19.6886 15.4406 19.3151 17.1767 19.9643Z" fill="#7654FF"/>
<path d="M46.1896 20.7453C46.1896 21.9327 45.9306 22.9621 45.4127 23.8337C44.8948 24.7053 44.1938 25.3684 43.3096 25.8232C42.438 26.2779 41.4654 26.5053 40.3917 26.5053C39.318 26.5053 38.3391 26.2779 37.4549 25.8232C36.5833 25.3684 35.8886 24.7053 35.3707 23.8337C34.8528 22.9621 34.5938 21.9327 34.5938 20.7453V18.8885C34.5938 17.7011 34.8528 16.6717 35.3707 15.8001C35.8886 14.9285 36.5833 14.2654 37.4549 13.8106C38.3391 13.3559 39.318 13.1285 40.3917 13.1285C41.4654 13.1285 42.438 13.3559 43.3096 13.8106C44.1938 14.2654 44.8948 14.9285 45.4127 15.8001C45.9306 16.6717 46.1896 17.7011 46.1896 18.8885V20.7453ZM43.1201 18.4716C43.1201 17.5116 42.8675 16.7727 42.3622 16.2548C41.857 15.7243 41.2001 15.459 40.3917 15.459C39.5833 15.459 38.9264 15.7243 38.4212 16.2548C37.9159 16.7727 37.6633 17.5116 37.6633 18.4716V21.1622C37.6633 22.1221 37.9159 22.8674 38.4212 23.3979C38.9264 23.9158 39.5833 24.1748 40.3917 24.1748C41.2001 24.1748 41.857 23.9158 42.3622 23.3979C42.8675 22.8674 43.1201 22.1221 43.1201 21.1622V18.4716Z" fill="#555566"/>
<path d="M54.2802 26.3158H51.3623V13.318H57.6338C58.3412 13.318 58.9917 13.4885 59.5854 13.8296C60.1917 14.158 60.6717 14.619 61.0254 15.2127C61.3791 15.8064 61.5559 16.4695 61.5559 17.2022V17.3159C61.5559 18.0359 61.3791 18.7053 61.0254 19.3243C60.6844 19.9306 60.2107 20.4106 59.6044 20.7643C59.0107 21.1179 58.3538 21.2948 57.6338 21.2948H54.2802V26.3158ZM54.2802 19.0022H56.9517C57.4317 19.0022 57.8296 18.8443 58.1454 18.5285C58.4612 18.2001 58.6191 17.8211 58.6191 17.3916V17.278C58.6191 16.8359 58.4612 16.4569 58.1454 16.1411C57.8423 15.8127 57.4444 15.6485 56.9517 15.6485H54.2802V19.0022Z" fill="#555566"/>
<path d="M66.1773 26.3158V13.318H75.3288L75.0067 15.6485H69.0573V18.4906H74.6088V20.8211H69.0573V23.9853H75.0635L75.3856 26.3158H66.1773Z" fill="#555566"/>
<path d="M84.1896 20.3285C84.0507 20.1264 83.8612 19.8295 83.6212 19.438C83.3812 19.0337 83.2233 18.7685 83.1475 18.6422L83.0717 18.699V26.3158H80.4002V13.318H82.8822L86.9748 19.3432L87.5433 20.2337C87.7454 20.5874 87.9033 20.8464 88.0169 21.0106L88.0738 20.9537V13.318H90.7453V26.3158H88.2633L84.1896 20.3285Z" fill="#555566"/>
<path d="M96.3993 26.3158V13.318H99.3361V23.8906H104.679L105.001 26.3158H96.3993Z" fill="#555566"/>
<path d="M116.98 23.7579H111.807L110.898 26.3158H108.075L112.793 13.318H116.279L120.997 26.3158H117.927L116.98 23.7579ZM112.603 21.5411H116.203C115.723 20.1137 115.142 18.4148 114.46 16.4443H114.365L112.603 21.5411Z" fill="#555566"/>
<path d="M130.651 15.6674V26.3158H127.752V15.6674H124.058V13.318H134.327V15.6674H130.651Z" fill="#555566"/>
<path d="M144.097 15.6674V26.3158H141.198V15.6674H137.503V13.318H147.773V15.6674H144.097Z" fill="#555566"/>
<path d="M152.181 13.318H158.168V15.6485H156.652V23.9853H158.168V26.3158H152.181V23.9853H153.715V15.6485H152.181V13.318Z" fill="#555566"/>
<path d="M166.428 21.1622C166.428 22.1221 166.687 22.8674 167.205 23.3979C167.722 23.9158 168.379 24.1748 169.175 24.1748C170.072 24.1748 170.735 23.9348 171.165 23.4548C171.594 22.9621 171.809 22.2106 171.809 21.2H174.48C174.48 22.3116 174.253 23.2716 173.798 24.08C173.356 24.8758 172.744 25.4821 171.96 25.899C171.177 26.3032 170.293 26.5053 169.308 26.5053H169.042C167.956 26.5053 166.984 26.2842 166.125 25.8421C165.266 25.4 164.59 24.7495 164.097 23.8906C163.605 23.019 163.358 21.9706 163.358 20.7453V18.8885C163.358 17.7011 163.605 16.6717 164.097 15.8001C164.59 14.9285 165.259 14.2654 166.106 13.8106C166.965 13.3559 167.918 13.1285 168.967 13.1285H169.232C170.242 13.1285 171.139 13.3306 171.922 13.7348C172.718 14.1264 173.344 14.7264 173.798 15.5348C174.253 16.3306 174.48 17.3095 174.48 18.4716H171.695C171.695 17.4864 171.474 16.7411 171.032 16.2359C170.602 15.718 169.977 15.459 169.156 15.459C168.36 15.459 167.704 15.7243 167.186 16.2548C166.68 16.7727 166.428 17.5116 166.428 18.4716V21.1622Z" fill="#555566"/>
<path d="M179.646 26.3158V13.318H188.797L188.475 15.6485H182.526V18.4906H188.077V20.8211H182.526V23.9853H188.532L188.854 26.3158H179.646Z" fill="#555566"/>
</svg>
