<svg width="96" height="96" viewBox="0 0 96 96" fill="none" xmlns="http://www.w3.org/2000/svg">
<circle cx="48" cy="48" r="48" fill="#75AEF9"/>
<path d="M59.8066 33.0626C59.8066 33.0698 59.8066 33.0766 59.8062 33.0838C59.7703 35.3178 54.0072 37.1252 46.9033 37.1252C39.7994 37.1252 34.0363 35.3178 34.0003 33.0838C34 33.0766 34 33.0698 34 33.0626C34 30.8189 39.7769 29 46.9033 29C54.0297 29 59.8066 30.8189 59.8066 33.0626Z" fill="white" stroke="#75AEF9" stroke-width="0.6"/>
<path d="M59.8481 54.9374C59.8481 54.9446 59.8481 54.9513 59.8477 54.9585C59.8118 57.1925 54.0486 58.9999 46.9448 58.9999C39.8409 58.9999 34.0778 57.1925 34.0418 54.9585C34.0415 54.9513 34.0415 54.9446 34.0415 54.9373L34.0331 49.2137C34.0331 49.221 34.0331 49.2277 34.0334 49.2349C34.0693 51.4689 39.8325 53.2763 46.9364 53.2763C54.0402 53.2763 59.8034 51.4689 59.8393 49.2349C59.8397 49.2277 59.8397 49.221 59.8397 49.2137L59.8481 54.9374Z" fill="white" stroke="#75AEF9" stroke-width="0.6"/>
<path d="M59.8197 47.6793C59.8197 47.6865 59.8197 47.6933 59.8194 47.7004C59.7834 49.9344 54.0203 51.7419 46.9164 51.7419C39.8125 51.7419 34.0494 49.9344 34.0134 47.7004C34.0131 47.6933 34.0131 47.6865 34.0131 47.6793L34.0047 41.9557C34.0047 41.9629 34.0047 41.9697 34.005 41.9769C34.041 44.2108 39.8041 46.0183 46.908 46.0183C54.0119 46.0183 59.775 44.2108 59.811 41.9769C59.8113 41.9697 59.8113 41.9629 59.8113 41.9557L59.8197 47.6793Z" fill="white" stroke="#75AEF9" stroke-width="0.6"/>
<path d="M59.8216 40.3541C59.8216 40.3613 59.8216 40.3681 59.8212 40.3752C59.7853 42.6092 54.0221 44.4167 46.9182 44.4167C39.8144 44.4167 34.0512 42.6092 34.0153 40.3752C34.015 40.3681 34.015 40.3613 34.015 40.3541L34.0066 34.6305C34.0066 34.6377 34.0066 34.6445 34.0069 34.6517C34.0428 36.8856 39.806 38.6931 46.9098 38.6931C54.0137 38.6931 59.7769 36.8856 59.8128 34.6517C59.8132 34.6445 59.8132 34.6377 59.8132 34.6305L59.8216 40.3541Z" fill="white" stroke="#75AEF9" stroke-width="0.6"/>
<path d="M65.4273 53.8296L65.4273 53.8296C65.4604 53.5536 65.4067 53.274 65.2737 53.0298C65.1407 52.7857 64.935 52.589 64.685 52.4671C64.685 52.4671 64.685 52.4671 64.685 52.4671L55.8053 48.1355L55.8053 48.1355C55.6225 48.0463 55.4218 48 55.2184 48C55.0151 48 54.8143 48.0463 54.6315 48.1355L54.6315 48.1355L45.7518 52.4671C45.5019 52.589 45.2962 52.7857 45.1631 53.0298C45.0301 53.274 44.9764 53.5535 45.0095 53.8296L45.658 59.2399C46.5677 66.8299 52.4962 69.7525 55.0305 70.2372L55.2184 70.2732L55.4062 70.2372C57.9406 69.7525 63.8691 66.8299 64.7789 59.24L65.4273 53.8296Z" fill="#75AEF9" stroke="#75AEF9" stroke-width="2"/>
<path d="M64.4344 53.7106L63.786 59.121C62.9431 66.1533 57.4636 68.8256 55.2184 69.255C52.9732 68.8256 47.4937 66.1533 46.6509 59.1209L46.0024 53.7106C45.994 53.6407 46.0076 53.57 46.0413 53.5082C46.0749 53.4465 46.127 53.3967 46.1902 53.3658L55.0699 49.0343C55.1162 49.0117 55.1669 49 55.2184 49C55.2699 49 55.3207 49.0117 55.3669 49.0343L64.2466 53.3659C64.3098 53.3967 64.3619 53.4465 64.3956 53.5082C64.4292 53.57 64.4428 53.6408 64.4344 53.7106ZM60.5381 55.1148C60.3267 54.9034 60.04 54.7846 59.741 54.7846C59.442 54.7846 59.1553 54.9034 58.9439 55.1148L53.6596 60.399L51.493 58.2324C51.3884 58.1277 51.2641 58.0447 51.1273 57.988C50.9905 57.9313 50.8439 57.9022 50.6958 57.9022C50.5478 57.9022 50.4012 57.9313 50.2644 57.988C50.1276 58.0447 50.0033 58.1277 49.8986 58.2324C49.7939 58.3371 49.7109 58.4614 49.6542 58.5982C49.5976 58.7349 49.5684 58.8816 49.5684 59.0296C49.5684 59.1777 49.5976 59.3243 49.6542 59.4611C49.7109 59.5978 49.7939 59.7221 49.8986 59.8268L52.8624 62.7907C53.0739 63.0021 53.3606 63.1208 53.6596 63.1208C53.9586 63.1208 54.2453 63.0021 54.4568 62.7907L60.5381 56.7092C60.6428 56.6045 60.7259 56.4802 60.7826 56.3434C60.8393 56.2067 60.8684 56.06 60.8684 55.912C60.8684 55.7639 60.8393 55.6173 60.7826 55.4805C60.7259 55.3437 60.6428 55.2194 60.5381 55.1148Z" fill="white"/>
</svg>
