<svg width="96" height="96" viewBox="0 0 96 96" fill="none" xmlns="http://www.w3.org/2000/svg">
<circle cx="48" cy="48" r="48" fill="#252F3E"/>
<path d="M67 48.4399L67 48.4885C66.9983 49.4342 66.7742 50.3663 66.346 51.2095C65.9177 52.0527 65.2972 52.7834 64.5345 53.3426L64.7301 51.7093C64.791 51.2038 64.693 50.6919 64.4497 50.2446C64.2063 49.7974 63.8298 49.437 63.3724 49.2135L54.4941 44.8828C54.1594 44.7192 53.7918 44.6341 53.4193 44.634C53.0468 44.6338 52.6791 44.7187 52.3443 44.882L43.4644 49.2137C43.0072 49.4368 42.6309 49.7967 42.3875 50.2434C42.1442 50.6901 42.0459 51.2015 42.1064 51.7066L42.4452 54.5336H35.0657C33.4603 54.5346 31.92 53.8987 30.7828 52.7654C29.6457 51.6321 29.0045 50.094 29 48.4885L29 48.4399C29 46.4345 30.4477 44.5866 32.8814 43.1059C32.5534 41.8829 32.5926 40.5904 32.9943 39.3895C33.3959 38.1887 34.1421 37.1326 35.1399 36.353C36.1377 35.5734 37.3429 35.1047 38.6052 35.0055C39.8675 34.9062 41.1312 35.1808 42.2385 35.7948C43.3287 33.3868 45.2108 31.425 47.5716 30.236C49.9323 29.047 52.6292 28.7026 55.213 29.2603C57.7967 29.8179 60.1115 31.2439 61.7717 33.3008C63.4319 35.3576 64.3374 37.9211 64.3373 40.5644C64.3328 41.6064 64.2027 42.6441 63.9497 43.655C65.8767 45.033 67 46.6752 67 48.4399ZM62.6344 51.4556L61.986 56.8659C61.1431 63.8982 55.6636 66.5706 53.4184 67C51.1732 66.5706 45.6938 63.8982 44.8509 56.8659L44.2024 51.4556C44.1941 51.3857 44.2076 51.315 44.2413 51.2532C44.275 51.1914 44.327 51.1416 44.3902 51.1108L53.2699 46.7792C53.3162 46.7567 53.367 46.745 53.4184 46.745C53.4699 46.745 53.5207 46.7567 53.5669 46.7792L62.4466 51.1108C62.5099 51.1417 62.5619 51.1914 62.5956 51.2532C62.6292 51.315 62.6428 51.3857 62.6344 51.4556ZM58.7381 52.8597C58.5267 52.6483 58.24 52.5296 57.941 52.5296C57.6421 52.5296 57.3553 52.6483 57.1439 52.8597L51.8597 58.144L49.6931 55.9774C49.5884 55.8727 49.4641 55.7896 49.3273 55.733C49.1905 55.6763 49.0439 55.6471 48.8959 55.6471C48.7478 55.6471 48.6012 55.6763 48.4644 55.733C48.3276 55.7896 48.2033 55.8727 48.0986 55.9774C47.9939 56.0821 47.9109 56.2063 47.8542 56.3431C47.7976 56.4799 47.7684 56.6265 47.7684 56.7746C47.7684 56.9226 47.7976 57.0692 47.8542 57.206C47.9109 57.3428 47.9939 57.4671 48.0986 57.5718L51.0625 60.5356C51.2739 60.747 51.5606 60.8658 51.8596 60.8658C52.1586 60.8658 52.4454 60.747 52.6568 60.5356L58.7381 54.4542C58.8429 54.3495 58.9259 54.2252 58.9826 54.0884C59.0393 53.9516 59.0684 53.805 59.0684 53.6569C59.0684 53.5089 59.0393 53.3623 58.9826 53.2255C58.9259 53.0887 58.8429 52.9644 58.7381 52.8597Z" fill="white"/>
</svg>
