<svg width="96" height="96" viewBox="0 0 96 96" fill="none" xmlns="http://www.w3.org/2000/svg">
<circle cx="48" cy="48" r="48" fill="#EB5424"/>
<path d="M57.8913 45.468V36.2345C57.8913 32.2451 54.4783 29 50.2826 29H45.7174C41.5217 29 38.1087 32.2451 38.1087 36.2345V45.468C35.5704 47.8774 34 51.2082 34 54.8885C34 62.2399 40.2677 68.2 48 68.2C55.7317 68.2 62 62.2399 62 54.8885C62 51.2082 60.4296 47.8774 57.8913 45.468ZM49.6739 54.9383V59.1065C49.6739 59.9857 48.9246 60.6981 48 60.6981C47.0754 60.6981 46.3261 59.9857 46.3261 59.1065V54.9383C45.6218 54.4463 45.1592 53.6598 45.1592 52.7656C45.1592 51.2742 46.4314 50.0646 48 50.0646C49.5686 50.0646 50.8408 51.2742 50.8408 52.7656C50.8408 53.6598 50.3782 54.4469 49.6739 54.9383ZM54.8478 43.2786C52.8227 42.1963 50.4883 41.5765 48 41.5765C45.5117 41.5765 43.1767 42.1963 41.1522 43.278V36.2345C41.1522 33.8407 43.1998 31.8938 45.7174 31.8938H50.2826C52.8002 31.8938 54.8478 33.8407 54.8478 36.2345V43.2786Z" fill="white"/>
</svg>
