<svg width="50" height="50" viewBox="0 0 50 50" fill="none" xmlns="http://www.w3.org/2000/svg">
<circle cx="25" cy="25" r="25" fill="#F0F0F7"/>
<path d="M16.6632 22.8808L15.7563 22.1927C15.5015 21.9824 15.1092 22.0314 14.8974 22.3105C14.6872 22.5653 14.7362 22.9576 15.0152 23.1693L16.7593 24.4927C16.8063 24.5199 16.8533 24.5471 16.9003 24.5743L16.9245 24.5758C16.9715 24.603 17.02 24.6059 17.0685 24.6089C17.117 24.6119 17.1655 24.6148 17.2154 24.5936C17.2397 24.595 17.2397 24.595 17.2397 24.595C17.2896 24.5738 17.3396 24.5525 17.3896 24.5312L19.2819 23.4303C19.459 23.3195 19.5678 23.1315 19.5797 22.9375C19.5871 22.8163 19.5703 22.6936 19.5035 22.5922C19.3258 22.3137 18.9681 22.1945 18.6654 22.3706L17.857 22.8565C18.7186 19.1132 22.1692 16.4043 26.0965 16.6445C26.4359 16.6653 26.7189 16.4149 26.7396 16.0755C26.7604 15.7361 26.51 15.4532 26.1706 15.4324C21.5161 15.1477 17.4723 18.4044 16.6632 22.8808Z" fill="#4E4E56" stroke="#4E4E56" stroke-width="0.7"/>
<path d="M18.5636 28.0337C18.4118 27.7325 18.0541 27.6134 17.7527 27.7653C17.4514 27.9173 17.3321 28.275 17.4839 28.5763C18.5666 30.7592 20.4379 32.3818 22.7508 33.1554C24.7059 33.8098 26.7755 33.7899 28.6913 33.1036L28.5486 34.2386C28.5035 34.5765 28.7523 34.8836 29.066 34.9271C29.4039 34.972 29.7112 34.7231 29.7548 34.4094L30.0342 32.2365C30.0357 32.2122 30.0357 32.2122 30.0372 32.188C30.0402 32.1395 30.0431 32.091 30.0234 32.0168C30.0248 31.9926 30.0021 31.9669 30.0021 31.9669C30.0036 31.9426 29.9808 31.9169 29.9823 31.8927L29.9596 31.8669C29.9368 31.8412 29.9155 31.7913 29.8928 31.7655L29.87 31.7398C29.823 31.7126 29.8003 31.6869 29.7533 31.6597L27.8492 30.5704C27.5672 30.4072 27.1961 30.5063 27.0328 30.7883C26.8695 31.0704 26.9684 31.4414 27.2503 31.6045L28.0735 32.0684C24.378 33.2058 20.3174 31.5715 18.5636 28.0337Z" fill="#4E4E56" stroke="#4E4E56" stroke-width="0.7"/>
<path d="M30.0734 16.8635C30.0476 16.8862 29.9992 16.8833 29.9734 16.906C29.9734 16.906 29.9492 16.9046 29.9477 16.9288C29.922 16.9516 29.8963 16.9743 29.8705 16.9971C29.8705 16.9971 29.8705 16.9971 29.8448 17.0198C29.7934 17.0654 29.7404 17.1351 29.7117 17.2064C29.7103 17.2306 29.683 17.2776 29.6816 17.3018C29.6801 17.3261 29.6771 17.3746 29.6741 17.4231L29.6862 19.6138C29.6896 19.9546 29.9657 20.2149 30.3066 20.2114C30.6475 20.2079 30.9077 19.9318 30.9042 19.5909L30.8893 18.641C33.7243 21.2234 34.3361 25.5434 32.1634 28.8415C31.9759 29.122 32.0506 29.4916 32.3312 29.6791C32.6117 29.8666 32.9813 29.7918 33.1687 29.5113C34.0547 28.1542 34.5618 26.6279 34.6581 25.0521C34.7071 24.2521 34.6575 23.4704 34.4883 22.6571C34.1221 20.6881 33.0637 18.8957 31.5136 17.5842L32.5629 17.1374C32.787 17.0538 32.9216 16.843 32.9349 16.6248C32.9409 16.5279 32.9225 16.4294 32.8785 16.3537C32.7508 16.0539 32.3946 15.9105 32.0948 16.0381L30.0734 16.8635Z" fill="#4E4E56" stroke="#4E4E56" stroke-width="0.7"/>
</svg>
