<svg width="50" height="50" viewBox="0 0 50 50" fill="none" xmlns="http://www.w3.org/2000/svg">
<circle cx="25" cy="25" r="25" fill="#F0F0F7"/>
<path d="M30.7778 22.8889H19.2222V19.9336C19.2222 16.6063 21.76 14 25 14C26.5608 14 28.0325 14.6228 29.1445 15.7535C30.2443 16.885 30.7778 18.2005 30.7778 19.7778V22.8889ZM20.1111 22H29.8889V19.7778C29.8889 18.4249 29.4505 17.3433 28.5091 16.375C27.5673 15.4171 26.3203 14.8889 25 14.8889C22.2587 14.8889 20.1111 17.1046 20.1111 19.9336V22Z" fill="#4E4E56" stroke="#4E4E56"/>
<path d="M33 35.3333H17V22H33V35.3333ZM17.8889 34.4444H32.1111V22.8889H17.8889V34.4444Z" fill="#4E4E56" stroke="#4E4E56"/>
</svg>
