<svg width="36" height="36" viewBox="0 0 36 36" fill="none" xmlns="http://www.w3.org/2000/svg">
<circle cx="18" cy="18" r="18" fill="#E9E9F7"/>
<path d="M15.0736 21.4209H12.1486C11.2177 21.4209 10.3249 21.0511 9.66667 20.3928C9.00841 19.7346 8.63861 18.8418 8.63861 17.9109C8.63861 16.98 9.00841 16.0872 9.66667 15.4289C10.3249 14.7707 11.2177 14.4009 12.1486 14.4009H16.8286C17.7595 14.4009 18.6523 14.7707 19.3106 15.4289C19.9688 16.0872 20.3386 16.98 20.3386 17.9109H19.1686C19.1686 17.2903 18.9221 16.6951 18.4832 16.2562C18.0444 15.8174 17.4492 15.5709 16.8286 15.5709H12.1486C11.528 15.5709 10.9328 15.8174 10.494 16.2562C10.0551 16.6951 9.80861 17.2903 9.80861 17.9109C9.80861 18.5315 10.0551 19.1267 10.494 19.5655C10.9328 20.0043 11.528 20.2509 12.1486 20.2509H15.0736V21.4209Z" fill="#7860FF" stroke="#7860FF" stroke-width="0.3"/>
<path d="M23.8498 21.4197H19.1698C18.2389 21.4197 17.3461 21.0499 16.6878 20.3916C16.0296 19.7334 15.6598 18.8406 15.6598 17.9097H16.8298C16.8298 18.5303 17.0763 19.1255 17.5152 19.5643C17.954 20.0031 18.5492 20.2497 19.1698 20.2497H23.8498C24.4704 20.2497 25.0656 20.0031 25.5044 19.5643C25.9433 19.1255 26.1898 18.5303 26.1898 17.9097C26.1898 17.2891 25.9433 16.6939 25.5044 16.255C25.0656 15.8162 24.4704 15.5697 23.8498 15.5697H20.9248V14.3997H23.8498C24.7807 14.3997 25.6735 14.7695 26.3317 15.4277C26.99 16.086 27.3598 16.9787 27.3598 17.9097C27.3598 18.8406 26.99 19.7334 26.3317 20.3916C25.6735 21.0499 24.7807 21.4197 23.8498 21.4197Z" fill="#7860FF" stroke="#7860FF" stroke-width="0.3"/>
</svg>
