<svg width="386" height="85" viewBox="0 0 386 85" fill="none" xmlns="http://www.w3.org/2000/svg">
<path d="M62.1377 5.87671H12.449V17.3258H1L1.00001 77.6621H50.6887V66.3276H62.1377V5.87671ZM48.3989 75.3723H3.28979V19.6156H12.449V66.3276H48.3989V75.3723ZM59.8479 64.0378H14.7388V8.1666H59.8479V64.0378Z" fill="#505060" stroke="white" stroke-width="0.8"/>
<path d="M21.4939 23.1106H53.0932C53.0932 23.1106 53.0932 22.755 53.0932 22.2217C53.0932 21.6884 53.0932 21.3329 53.0932 21.3329L21.4939 21.3328C21.4939 21.3328 21.4939 21.6884 21.4939 22.2217C21.4939 22.755 21.4939 23.1106 21.4939 23.1106Z" fill="#505060"/>
<path d="M21.4939 29.8658H53.0932C53.0932 29.8658 53.0932 29.5102 53.0932 28.9769C53.0932 28.4436 53.0932 28.088 53.0932 28.088H21.4939C21.4939 28.088 21.4939 28.4436 21.4939 28.9769C21.4939 29.5102 21.4939 29.8658 21.4939 29.8658Z" fill="#505060"/>
<path d="M21.4939 36.6206H53.0932C53.0932 36.6206 53.0932 36.2651 53.0932 35.7317C53.0932 35.1984 53.0932 34.8428 53.0932 34.8428L21.4939 34.8428C21.4939 34.8428 21.4939 35.1984 21.4939 35.7317C21.4939 36.2651 21.4939 36.6206 21.4939 36.6206Z" fill="#505060"/>
<path d="M21.494 43.3756H53.0932C53.0932 43.3756 53.0932 43.02 53.0932 42.4867C53.0932 41.9533 53.0932 41.5978 53.0932 41.5978H21.494C21.494 41.5978 21.4939 41.9533 21.4939 42.4867C21.4939 43.02 21.494 43.3756 21.494 43.3756Z" fill="#505060"/>
<path d="M385 5.87671L335.311 5.87683V17.3257H323.862L323.862 77.662H373.551V66.3275H385V5.87671ZM371.261 75.3722H326.152V19.6155H335.311V66.3275H371.261V75.3722ZM382.71 64.0377H337.601V8.16651H382.71V64.0377Z" fill="#505060" stroke="white" stroke-width="0.8"/>
<path d="M344.356 23.1106H375.956C375.956 23.1106 375.956 22.755 375.956 22.2217C375.956 21.6884 375.956 21.3328 375.956 21.3328L344.356 21.3328C344.356 21.3328 344.356 21.6884 344.356 22.2217C344.356 22.755 344.356 23.1106 344.356 23.1106Z" fill="#505060"/>
<path d="M344.356 29.8654H375.956C375.956 29.8654 375.956 29.5098 375.956 28.9765C375.956 28.4431 375.956 28.0876 375.956 28.0876L344.356 28.0876C344.356 28.0876 344.356 28.4431 344.356 28.9765C344.356 29.5098 344.356 29.8654 344.356 29.8654Z" fill="#505060"/>
<path d="M344.356 36.6206H375.956C375.956 36.6206 375.956 36.2651 375.956 35.7317C375.956 35.1984 375.956 34.8428 375.956 34.8428H344.356C344.356 34.8428 344.356 35.1984 344.356 35.7317C344.356 36.2651 344.356 36.6206 344.356 36.6206Z" fill="#505060"/>
<path d="M344.356 43.3754H375.956C375.956 43.3754 375.956 43.0198 375.956 42.4865C375.956 41.9532 375.956 41.5976 375.956 41.5976H344.356C344.356 41.5976 344.356 41.9532 344.356 42.4865C344.356 43.0198 344.356 43.3754 344.356 43.3754Z" fill="#505060"/>
<path d="M121.762 31.0645L120.487 32.3389L123.455 35.3068H106.704V37.1093H123.455L120.487 40.0772L121.762 41.3517L126.905 36.2081L121.762 31.0645ZM111.474 43.6753L106.331 48.8189L111.474 53.9625L112.749 52.688L109.781 49.7202H126.532V47.9176H109.781L112.749 44.9497L111.474 43.6753Z" fill="#505060"/>
<path d="M275.178 31.0645L273.904 32.3389L276.872 35.3068H260.121V37.1093H276.872L273.904 40.0772L275.178 41.3517L280.322 36.2081L275.178 31.0645ZM264.891 43.6753L259.747 48.8189L264.891 53.9625L266.166 52.688L263.198 49.7202H279.949V47.9176H263.198L266.166 44.9497L264.891 43.6753Z" fill="#505060"/>
<path d="M197.39 3.02136C201.419 -1.00712 207.95 -1.00712 211.979 3.02136C216.007 7.04983 216.007 13.5813 211.979 17.6097L189.61 39.9787C185.581 44.0071 179.05 44.0071 175.021 39.9787C170.993 35.9502 170.993 29.4187 175.021 25.3902L197.39 3.02136Z" fill="#A192FF"/>
<path d="M197.39 23.9322C201.419 19.9037 207.95 19.9037 211.979 23.9322C216.007 27.9606 216.007 34.4921 211.979 38.5206L189.61 60.8895C185.581 64.9179 179.05 64.9179 175.021 60.8895C170.993 56.8609 170.993 50.3295 175.021 46.3011L197.39 23.9322Z" fill="#A192FF"/>
<path fill-rule="evenodd" clip-rule="evenodd" d="M208.099 21.4899L189.61 39.9795C186.714 42.8756 182.524 43.6897 178.901 42.4217L197.39 23.9322C200.286 21.0361 204.476 20.222 208.099 21.4899Z" fill="#7654FF"/>
<path d="M197.39 44.5634C201.419 40.535 207.95 40.535 211.979 44.5634C216.007 48.5919 216.007 55.1234 211.979 59.1518L189.61 81.5208C185.581 85.5492 179.05 85.5492 175.021 81.5208C170.993 77.4922 170.993 70.9608 175.021 66.9324L197.39 44.5634Z" fill="#A192FF"/>
<path fill-rule="evenodd" clip-rule="evenodd" d="M208.304 42.1954L189.609 60.8896C186.659 63.8404 182.365 64.6299 178.696 63.2578L197.39 44.5635C200.341 41.6127 204.634 40.8232 208.304 42.1954Z" fill="#7654FF"/>
</svg>
