<svg width="528" height="318" viewBox="0 0 528 318" fill="none" xmlns="http://www.w3.org/2000/svg">
<rect x="24" y="102" width="480" height="56" rx="3" fill="#EAEAEF"/>
<rect x="24" y="170" width="480" height="56" rx="3" fill="#EAEAEF"/>
<rect x="24" y="238" width="480" height="56" rx="3" fill="#EAEAEF"/>
<path d="M45.3352 136.222C48.142 136.227 49.8182 134.011 49.8182 130.193C49.8182 126.398 48.1307 124.205 45.3352 124.205C42.5398 124.205 40.858 126.392 40.8523 130.193C40.8523 134.006 42.5284 136.222 45.3352 136.222ZM45.3352 134.443C43.8864 134.443 42.9773 132.989 42.983 130.193C42.9886 127.42 43.892 125.96 45.3352 125.96C46.7841 125.96 47.6875 127.42 47.6932 130.193C47.6932 132.989 46.7898 134.443 45.3352 134.443ZM55.7457 124.17C53.223 124.159 51.5469 125.886 51.5469 128.182C51.5469 130.386 53.1151 131.972 55.1548 131.972C56.4105 131.972 57.5014 131.364 58.0639 130.364H58.1435C58.1378 132.852 57.2344 134.335 55.6264 134.335C54.6207 134.335 53.9446 133.756 53.7344 132.83H51.6605C51.8991 134.756 53.4219 136.159 55.6264 136.159C58.4162 136.159 60.1832 133.83 60.1889 129.824C60.1832 125.557 57.9787 124.188 55.7457 124.17ZM55.7514 125.875C56.9957 125.875 57.9105 126.909 57.9105 128.125C57.9105 129.335 56.956 130.369 55.7287 130.369C54.4901 130.369 53.5923 129.392 53.5923 128.136C53.5923 126.869 54.5185 125.875 55.7514 125.875ZM66.8537 123.818H65.0526L61.3026 137.75H63.1037L66.8537 123.818ZM68.1435 136H76.1207V134.239H71.0526V134.159L73.0582 132.119C75.3196 129.949 75.9446 128.892 75.9446 127.58C75.9446 125.631 74.3594 124.205 72.0185 124.205C69.7116 124.205 68.0753 125.636 68.0753 127.847H70.081C70.081 126.659 70.831 125.915 71.9901 125.915C73.098 125.915 73.9219 126.591 73.9219 127.688C73.9219 128.659 73.331 129.352 72.1832 130.517L68.1435 134.477V136ZM82.1264 136.159C84.5866 136.159 86.3026 134.489 86.3026 132.176C86.3026 129.938 84.7457 128.324 82.6321 128.324C81.6889 128.324 80.8537 128.699 80.4219 129.21H80.3537L80.6889 126.125H85.6946V124.364H78.9446L78.3366 130.364L80.2401 130.676C80.6321 130.244 81.3707 129.955 82.0696 129.96C83.348 129.966 84.2685 130.909 84.2628 132.227C84.2685 133.528 83.3707 134.455 82.1264 134.455C81.0753 134.455 80.2287 133.79 80.1548 132.835H78.1094C78.1662 134.767 79.8537 136.159 82.1264 136.159ZM92.9787 123.818H91.1776L87.4276 137.75H89.2287L92.9787 123.818ZM94.2685 136H102.246V134.239H97.1776V134.159L99.1832 132.119C101.445 129.949 102.07 128.892 102.07 127.58C102.07 125.631 100.484 124.205 98.1435 124.205C95.8366 124.205 94.2003 125.636 94.2003 127.847H96.206C96.206 126.659 96.956 125.915 98.1151 125.915C99.223 125.915 100.047 126.591 100.047 127.688C100.047 128.659 99.456 129.352 98.3082 130.517L94.2685 134.477V136ZM108.507 136.222C111.314 136.227 112.99 134.011 112.99 130.193C112.99 126.398 111.303 124.205 108.507 124.205C105.712 124.205 104.03 126.392 104.024 130.193C104.024 134.006 105.7 136.222 108.507 136.222ZM108.507 134.443C107.058 134.443 106.149 132.989 106.155 130.193C106.161 127.42 107.064 125.96 108.507 125.96C109.956 125.96 110.859 127.42 110.865 130.193C110.865 132.989 109.962 134.443 108.507 134.443ZM119.611 124.364H117.605L114.713 126.222V128.153L117.435 126.415H117.503V136H119.611V124.364ZM126.702 136.159C129.219 136.159 131.02 134.773 131.026 132.881C131.02 131.426 129.946 130.21 128.594 129.983V129.903C129.77 129.642 130.588 128.585 130.594 127.324C130.588 125.534 128.94 124.205 126.702 124.205C124.446 124.205 122.798 125.528 122.804 127.324C122.798 128.585 123.605 129.642 124.804 129.903V129.983C123.429 130.21 122.366 131.426 122.372 132.881C122.366 134.773 124.162 136.159 126.702 136.159ZM126.702 134.534C125.384 134.534 124.531 133.807 124.543 132.733C124.531 131.619 125.446 130.83 126.702 130.83C127.94 130.83 128.849 131.625 128.861 132.733C128.849 133.807 128.003 134.534 126.702 134.534ZM126.702 129.233C125.622 129.233 124.849 128.534 124.861 127.523C124.849 126.523 125.599 125.852 126.702 125.852C127.787 125.852 128.531 126.523 128.543 127.523C128.531 128.54 127.764 129.233 126.702 129.233Z" fill="#505060"/>
<path d="M25.2912 30.9091V44H27.5668V34.9872H27.6882L31.3061 43.9616H33.0064L36.6243 35.0064H36.7457V44H39.0213V30.9091H36.1193L32.233 40.3949H32.0795L28.1932 30.9091H25.2912ZM46.0941 44.1918C48.3825 44.1918 49.9549 43.0732 50.364 41.3665L48.2035 41.1236C47.8903 41.9545 47.1232 42.3892 46.1261 42.3892C44.6303 42.3892 43.6396 41.4048 43.6204 39.7237H50.4599V39.0142C50.4599 35.5689 48.3888 34.054 45.9727 34.054C43.1602 34.054 41.3256 36.1186 41.3256 39.1484C41.3256 42.2294 43.1346 44.1918 46.0941 44.1918ZM43.6268 38.1641C43.6971 36.9112 44.6239 35.8565 46.0046 35.8565C47.3342 35.8565 48.229 36.8281 48.2418 38.1641H43.6268ZM56.0609 44.1726C57.7484 44.1726 58.5091 43.169 58.8734 42.4531H59.014V44H61.2896V30.9091H58.9693V35.8054H58.8734C58.5218 35.0959 57.7995 34.054 56.0673 34.054C53.7981 34.054 52.0147 35.831 52.0147 39.1037C52.0147 42.3381 53.747 44.1726 56.0609 44.1726ZM56.7065 42.2741C55.1788 42.2741 54.3734 40.9318 54.3734 39.0909C54.3734 37.2628 55.166 35.9524 56.7065 35.9524C58.1958 35.9524 59.014 37.1861 59.014 39.0909C59.014 40.9957 58.1831 42.2741 56.7065 42.2741ZM63.7553 44H66.0692V34.1818H63.7553V44ZM64.9187 32.7884C65.6538 32.7884 66.2546 32.2259 66.2546 31.5355C66.2546 30.8388 65.6538 30.2763 64.9187 30.2763C64.1772 30.2763 63.5763 30.8388 63.5763 31.5355C63.5763 32.2259 64.1772 32.7884 64.9187 32.7884ZM72.7314 44.1918C75.1987 44.1918 76.7711 42.728 76.9373 40.6442H74.7257C74.5275 41.6989 73.7669 42.3061 72.7505 42.3061C71.3059 42.3061 70.3727 41.098 70.3727 39.0909C70.3727 37.1094 71.3251 35.9205 72.7505 35.9205C73.8627 35.9205 74.5467 36.6364 74.7257 37.5824H76.9373C76.7775 35.4538 75.1156 34.054 72.7186 34.054C69.8422 34.054 68.0268 36.1314 68.0268 39.1293C68.0268 42.1016 69.7974 44.1918 72.7314 44.1918ZM81.6626 44.1982C83.2031 44.1982 84.1236 43.4759 84.5455 42.6513H84.6222V44H86.8466V37.429C86.8466 34.8338 84.7308 34.054 82.858 34.054C80.7933 34.054 79.2081 34.9744 78.6967 36.7642L80.8572 37.071C81.0874 36.3999 81.7393 35.8246 82.8707 35.8246C83.9446 35.8246 84.5327 36.3743 84.5327 37.3395V37.3778C84.5327 38.0426 83.8359 38.0746 82.1037 38.2599C80.1989 38.4645 78.3771 39.0334 78.3771 41.245C78.3771 43.1754 79.7898 44.1982 81.6626 44.1982ZM82.2635 42.4979C81.2983 42.4979 80.608 42.0568 80.608 41.2067C80.608 40.3182 81.3814 39.9474 82.4169 39.8004C83.0241 39.7173 84.2386 39.5639 84.5391 39.321V40.478C84.5391 41.571 83.657 42.4979 82.2635 42.4979ZM89.1733 44H91.4872V34.1818H89.1733V44ZM90.3366 32.7884C91.0717 32.7884 91.6726 32.2259 91.6726 31.5355C91.6726 30.8388 91.0717 30.2763 90.3366 30.2763C89.5952 30.2763 88.9943 30.8388 88.9943 31.5355C88.9943 32.2259 89.5952 32.7884 90.3366 32.7884ZM97.5101 44.1726C99.1976 44.1726 99.9583 43.169 100.323 42.4531H100.463V44H102.739V30.9091H100.419V35.8054H100.323C99.9711 35.0959 99.2488 34.054 97.5165 34.054C95.2473 34.054 93.464 35.831 93.464 39.1037C93.464 42.3381 95.1962 44.1726 97.5101 44.1726ZM98.1557 42.2741C96.628 42.2741 95.8226 40.9318 95.8226 39.0909C95.8226 37.2628 96.6152 35.9524 98.1557 35.9524C99.6451 35.9524 100.463 37.1861 100.463 39.0909C100.463 40.9957 99.6323 42.2741 98.1557 42.2741Z" fill="#505060"/>
<path d="M429.702 30.9091V40.267C429.702 41.897 428.922 42.7727 427.554 42.7727C426.308 42.7727 425.407 42.044 425.407 40.9318H423.847C423.847 42.9453 425.407 44.179 427.554 44.179C429.83 44.179 431.287 42.7791 431.287 40.267V30.9091H429.702ZM438.248 44.2045C440.907 44.2045 442.697 42.1847 442.697 39.142C442.697 36.0739 440.907 34.054 438.248 34.054C435.589 34.054 433.799 36.0739 433.799 39.142C433.799 42.1847 435.589 44.2045 438.248 44.2045ZM438.248 42.8494C436.228 42.8494 435.308 41.1108 435.308 39.142C435.308 37.1733 436.228 35.4091 438.248 35.4091C440.268 35.4091 441.189 37.1733 441.189 39.142C441.189 41.1108 440.268 42.8494 438.248 42.8494ZM446.508 38.0938C446.508 36.3807 447.601 35.4091 449.091 35.4091C450.51 35.4091 451.366 36.304 451.366 37.8636V44H452.875V37.7614C452.875 35.2365 451.532 34.054 449.525 34.054C447.979 34.054 447.096 34.6996 446.636 35.7159H446.508V30.9091H445V44H446.508V38.0938ZM457.143 38.0938C457.143 36.3807 458.204 35.4091 459.649 35.4091C461.049 35.4091 461.899 36.3232 461.899 37.8636V44H463.407V37.7614C463.407 35.2557 462.071 34.054 460.083 34.054C458.6 34.054 457.68 34.7188 457.22 35.7159H457.092V34.1818H455.635V44H457.143V38.0938ZM475.471 44C479.459 44 481.709 41.5199 481.709 37.429C481.709 33.3636 479.459 30.9091 475.65 30.9091H471.431V44H475.471ZM473.016 42.5938V32.3153H475.547C478.616 32.3153 480.175 34.2585 480.175 37.429C480.175 40.625 478.616 42.5938 475.368 42.5938H473.016ZM488.28 44.2045C490.275 44.2045 491.732 43.2074 492.192 41.7244L490.735 41.3153C490.351 42.3381 489.463 42.8494 488.28 42.8494C486.51 42.8494 485.289 41.7053 485.219 39.6023H492.346V38.9631C492.346 35.3068 490.172 34.054 488.127 34.054C485.468 34.054 483.704 36.1506 483.704 39.1676C483.704 42.1847 485.442 44.2045 488.28 44.2045ZM485.219 38.2983C485.321 36.7706 486.401 35.4091 488.127 35.4091C489.763 35.4091 490.812 36.6364 490.812 38.2983H485.219ZM498.629 44.2045C501.288 44.2045 503.078 42.1847 503.078 39.142C503.078 36.0739 501.288 34.054 498.629 34.054C495.97 34.054 494.18 36.0739 494.18 39.142C494.18 42.1847 495.97 44.2045 498.629 44.2045ZM498.629 42.8494C496.609 42.8494 495.689 41.1108 495.689 39.142C495.689 37.1733 496.609 35.4091 498.629 35.4091C500.649 35.4091 501.569 37.1733 501.569 39.142C501.569 41.1108 500.649 42.8494 498.629 42.8494Z" fill="#505060"/>
<path d="M25.5852 71H33.2557V69.5938H27.1705V57.9091H25.5852V71ZM39.4943 71.2045C42.1534 71.2045 43.9432 69.1847 43.9432 66.142C43.9432 63.0739 42.1534 61.054 39.4943 61.054C36.8352 61.054 35.0455 63.0739 35.0455 66.142C35.0455 69.1847 36.8352 71.2045 39.4943 71.2045ZM39.4943 69.8494C37.4744 69.8494 36.554 68.1108 36.554 66.142C36.554 64.1733 37.4744 62.4091 39.4943 62.4091C41.5142 62.4091 42.4347 64.1733 42.4347 66.142C42.4347 68.1108 41.5142 69.8494 39.4943 69.8494ZM50.2346 71.2045C52.4078 71.2045 53.8397 69.875 54.0953 68.1364H52.5868C52.3056 69.2102 51.4107 69.8494 50.2346 69.8494C48.4448 69.8494 47.2942 68.3665 47.2942 66.0909C47.2942 63.8665 48.4703 62.4091 50.2346 62.4091C51.5641 62.4091 52.3567 63.2273 52.5868 64.1222H54.0953C53.8397 62.2812 52.28 61.054 50.209 61.054C47.5499 61.054 45.7857 63.1506 45.7857 66.142C45.7857 69.0824 47.4732 71.2045 50.2346 71.2045ZM59.1898 71.2301C60.9029 71.2301 61.7978 70.3097 62.1046 69.6705H62.1813V71H63.6898V64.5312C63.6898 61.4119 61.312 61.054 60.0591 61.054C58.5762 61.054 56.8887 61.5653 56.1216 63.3551L57.5534 63.8665C57.8858 63.1506 58.6721 62.3835 60.1103 62.3835C61.4973 62.3835 62.1813 63.1186 62.1813 64.3778V64.429C62.1813 65.1577 61.4398 65.0938 59.65 65.3239C57.8283 65.5604 55.8404 65.9631 55.8404 68.2131C55.8404 70.1307 57.3233 71.2301 59.1898 71.2301ZM59.4199 69.875C58.2182 69.875 57.3489 69.3381 57.3489 68.2898C57.3489 67.1392 58.3972 66.7812 59.5733 66.6278C60.2125 66.5511 61.9256 66.3722 62.1813 66.0653V67.446C62.1813 68.6733 61.2097 69.875 59.4199 69.875ZM67.9517 57.9091H66.4432V71H67.9517V57.9091ZM75.9817 71H83.9846V69.5938H77.5669V65.1449H83.4732V63.7386H77.5669V59.3153H83.8823V57.9091H75.9817V71ZM86.7395 71H88.3248V65.1449H95.3049V71H96.8901V57.9091H95.3049V63.7386H88.3248V57.9091H86.7395V71ZM100.064 71H101.649V65.8864H104.513C104.628 65.8864 104.736 65.8864 104.845 65.88L107.606 71H109.447L106.488 65.5923C108.156 65.0234 108.936 63.6619 108.936 61.9233C108.936 59.6094 107.555 57.9091 104.487 57.9091H100.064V71ZM101.649 64.4545V59.3153H104.436C106.558 59.3153 107.376 60.3509 107.376 61.9233C107.376 63.4957 106.558 64.4545 104.461 64.4545H101.649Z" fill="#9999AF"/>
<path d="M150.642 136L151.602 133.131H155.977L156.943 136H159.193L155.091 124.364H152.489L148.392 136H150.642ZM152.17 131.438L153.744 126.75H153.835L155.409 131.438H152.17ZM163.608 136.153C165.108 136.153 165.784 135.261 166.108 134.625H166.233V136H168.256V124.364H166.193V128.716H166.108C165.795 128.085 165.153 127.159 163.614 127.159C161.597 127.159 160.011 128.739 160.011 131.648C160.011 134.523 161.551 136.153 163.608 136.153ZM164.182 134.466C162.824 134.466 162.108 133.273 162.108 131.636C162.108 130.011 162.812 128.847 164.182 128.847C165.506 128.847 166.233 129.943 166.233 131.636C166.233 133.33 165.494 134.466 164.182 134.466ZM170.447 136H172.504V130.693C172.504 129.619 173.22 128.892 174.107 128.892C174.976 128.892 175.572 129.477 175.572 130.375V136H177.589V130.557C177.589 129.574 178.175 128.892 179.169 128.892C179.999 128.892 180.658 129.381 180.658 130.46V136H182.72V130.142C182.72 128.193 181.595 127.159 179.993 127.159C178.726 127.159 177.76 127.784 177.374 128.756H177.283C176.947 127.767 176.101 127.159 174.925 127.159C173.754 127.159 172.879 127.761 172.516 128.756H172.413V127.273H170.447V136ZM184.807 136H186.864V127.273H184.807V136ZM185.841 126.034C186.494 126.034 187.028 125.534 187.028 124.92C187.028 124.301 186.494 123.801 185.841 123.801C185.182 123.801 184.648 124.301 184.648 124.92C184.648 125.534 185.182 126.034 185.841 126.034ZM191.036 130.886C191.036 129.625 191.797 128.898 192.882 128.898C193.945 128.898 194.581 129.597 194.581 130.761V136H196.638V130.443C196.643 128.352 195.45 127.159 193.649 127.159C192.342 127.159 191.445 127.784 191.047 128.756H190.945V127.273H188.979V136H191.036V130.886ZM198.729 136H200.786V127.273H198.729V136ZM199.763 126.034C200.416 126.034 200.95 125.534 200.95 124.92C200.95 124.301 200.416 123.801 199.763 123.801C199.104 123.801 198.57 124.301 198.57 124.92C198.57 125.534 199.104 126.034 199.763 126.034ZM209.798 129.58C209.514 128.102 208.332 127.159 206.287 127.159C204.185 127.159 202.753 128.193 202.759 129.807C202.753 131.08 203.537 131.92 205.213 132.267L206.702 132.58C207.503 132.756 207.878 133.08 207.878 133.574C207.878 134.17 207.23 134.619 206.253 134.619C205.31 134.619 204.696 134.21 204.52 133.426L202.514 133.619C202.77 135.222 204.116 136.17 206.259 136.17C208.44 136.17 209.98 135.04 209.986 133.386C209.98 132.142 209.179 131.381 207.531 131.023L206.043 130.705C205.156 130.506 204.804 130.199 204.81 129.693C204.804 129.102 205.457 128.693 206.315 128.693C207.264 128.693 207.764 129.21 207.923 129.784L209.798 129.58ZM216.04 127.273H214.318V125.182H212.261V127.273H211.023V128.864H212.261V133.716C212.25 135.358 213.443 136.165 214.989 136.119C215.574 136.102 215.977 135.989 216.199 135.915L215.852 134.307C215.739 134.335 215.506 134.386 215.25 134.386C214.733 134.386 214.318 134.205 214.318 133.375V128.864H216.04V127.273ZM221.53 136.17C223.564 136.17 224.962 135.176 225.325 133.659L223.405 133.443C223.126 134.182 222.445 134.568 221.558 134.568C220.229 134.568 219.348 133.693 219.331 132.199H225.411V131.568C225.411 128.506 223.57 127.159 221.422 127.159C218.922 127.159 217.291 128.994 217.291 131.688C217.291 134.426 218.899 136.17 221.53 136.17ZM219.337 130.812C219.399 129.699 220.223 128.761 221.45 128.761C222.632 128.761 223.428 129.625 223.439 130.812H219.337ZM227.151 136H229.207V130.869C229.207 129.761 230.043 128.977 231.173 128.977C231.52 128.977 231.952 129.04 232.128 129.097V127.205C231.94 127.17 231.616 127.148 231.389 127.148C230.389 127.148 229.554 127.716 229.236 128.727H229.145V127.273H227.151V136Z" fill="#505060"/>
<path d="M251.773 128H250.364C250.25 127.462 250.032 127.009 249.71 126.642C249.388 126.275 249 125.996 248.545 125.807C248.091 125.617 247.606 125.523 247.091 125.523C246.386 125.523 245.748 125.701 245.176 126.057C244.608 126.413 244.155 126.938 243.818 127.631C243.485 128.324 243.318 129.174 243.318 130.182C243.318 131.189 243.485 132.04 243.818 132.733C244.155 133.426 244.608 133.951 245.176 134.307C245.748 134.663 246.386 134.841 247.091 134.841C247.606 134.841 248.091 134.746 248.545 134.557C249 134.367 249.388 134.089 249.71 133.722C250.032 133.354 250.25 132.902 250.364 132.364H251.773C251.629 133.159 251.335 133.841 250.892 134.409C250.449 134.973 249.9 135.407 249.244 135.71C248.589 136.009 247.871 136.159 247.091 136.159C246.098 136.159 245.216 135.917 244.443 135.432C243.67 134.947 243.063 134.258 242.619 133.364C242.176 132.47 241.955 131.409 241.955 130.182C241.955 128.955 242.176 127.894 242.619 127C243.063 126.106 243.67 125.417 244.443 124.932C245.216 124.447 246.098 124.205 247.091 124.205C247.871 124.205 248.589 124.356 249.244 124.659C249.9 124.958 250.449 125.392 250.892 125.96C251.335 126.525 251.629 127.205 251.773 128ZM256.436 136.205C255.883 136.205 255.381 136.1 254.93 135.892C254.48 135.68 254.122 135.375 253.857 134.977C253.591 134.576 253.459 134.091 253.459 133.523C253.459 133.023 253.557 132.617 253.754 132.307C253.951 131.992 254.214 131.746 254.544 131.568C254.874 131.39 255.237 131.258 255.635 131.17C256.036 131.08 256.44 131.008 256.845 130.955C257.375 130.886 257.805 130.835 258.135 130.801C258.468 130.763 258.711 130.701 258.862 130.614C259.018 130.527 259.095 130.375 259.095 130.159V130.114C259.095 129.553 258.942 129.117 258.635 128.807C258.332 128.496 257.872 128.341 257.254 128.341C256.614 128.341 256.112 128.481 255.749 128.761C255.385 129.042 255.129 129.341 254.982 129.659L253.709 129.205C253.936 128.674 254.239 128.261 254.618 127.966C255 127.667 255.417 127.458 255.868 127.341C256.322 127.22 256.769 127.159 257.209 127.159C257.489 127.159 257.811 127.193 258.175 127.261C258.542 127.326 258.896 127.46 259.237 127.665C259.582 127.869 259.868 128.178 260.095 128.591C260.322 129.004 260.436 129.557 260.436 130.25V136H259.095V134.818H259.027C258.936 135.008 258.785 135.21 258.572 135.426C258.36 135.642 258.078 135.826 257.726 135.977C257.374 136.129 256.944 136.205 256.436 136.205ZM256.641 135C257.171 135 257.618 134.896 257.982 134.688C258.349 134.479 258.625 134.21 258.811 133.881C259 133.551 259.095 133.205 259.095 132.841V131.614C259.038 131.682 258.913 131.744 258.72 131.801C258.531 131.854 258.311 131.902 258.061 131.943C257.815 131.981 257.574 132.015 257.339 132.045C257.108 132.072 256.921 132.095 256.777 132.114C256.429 132.159 256.103 132.233 255.8 132.335C255.5 132.434 255.258 132.583 255.072 132.784C254.891 132.981 254.8 133.25 254.8 133.591C254.8 134.057 254.972 134.409 255.317 134.648C255.665 134.883 256.107 135 256.641 135ZM262.884 136V127.273H264.179V128.591H264.27C264.425 128.159 264.711 127.809 265.128 127.54C265.545 127.271 266.016 127.136 266.543 127.136C266.785 127.136 266.997 127.165 267.179 127.222C267.361 127.278 267.52 127.356 267.656 127.455L267.202 128.591C267.107 128.542 266.995 128.504 266.866 128.477C266.741 128.447 266.596 128.432 266.429 128.432C265.793 128.432 265.266 128.627 264.849 129.017C264.433 129.403 264.224 129.89 264.224 130.477V136H262.884ZM269.206 136V124.364H270.547V128.659H270.661C270.759 128.508 270.895 128.314 271.07 128.08C271.248 127.841 271.501 127.629 271.831 127.443C272.164 127.254 272.615 127.159 273.183 127.159C273.918 127.159 274.566 127.343 275.126 127.71C275.687 128.078 276.125 128.598 276.439 129.273C276.753 129.947 276.911 130.742 276.911 131.659C276.911 132.583 276.753 133.384 276.439 134.062C276.125 134.737 275.689 135.259 275.132 135.631C274.575 135.998 273.933 136.182 273.206 136.182C272.645 136.182 272.196 136.089 271.859 135.903C271.522 135.714 271.263 135.5 271.081 135.261C270.899 135.019 270.759 134.818 270.661 134.659H270.501V136H269.206ZM270.524 131.636C270.524 132.625 270.738 133.43 271.166 134.051C271.598 134.669 272.217 134.977 273.024 134.977C273.585 134.977 274.053 134.83 274.428 134.534C274.806 134.235 275.09 133.833 275.28 133.33C275.473 132.822 275.57 132.258 275.57 131.636C275.57 131.023 275.475 130.47 275.286 129.977C275.1 129.481 274.818 129.089 274.439 128.801C274.064 128.509 273.592 128.364 273.024 128.364C272.206 128.364 271.585 128.665 271.161 129.267C270.736 129.869 270.524 130.659 270.524 131.636ZM281.53 136.205C280.977 136.205 280.475 136.1 280.024 135.892C279.573 135.68 279.215 135.375 278.95 134.977C278.685 134.576 278.553 134.091 278.553 133.523C278.553 133.023 278.651 132.617 278.848 132.307C279.045 131.992 279.308 131.746 279.638 131.568C279.967 131.39 280.331 131.258 280.729 131.17C281.13 131.08 281.534 131.008 281.939 130.955C282.469 130.886 282.899 130.835 283.229 130.801C283.562 130.763 283.804 130.701 283.956 130.614C284.111 130.527 284.189 130.375 284.189 130.159V130.114C284.189 129.553 284.036 129.117 283.729 128.807C283.426 128.496 282.965 128.341 282.348 128.341C281.708 128.341 281.206 128.481 280.842 128.761C280.479 129.042 280.223 129.341 280.075 129.659L278.803 129.205C279.03 128.674 279.333 128.261 279.712 127.966C280.094 127.667 280.511 127.458 280.962 127.341C281.416 127.22 281.863 127.159 282.303 127.159C282.583 127.159 282.905 127.193 283.268 127.261C283.636 127.326 283.99 127.46 284.331 127.665C284.676 127.869 284.962 128.178 285.189 128.591C285.416 129.004 285.53 129.557 285.53 130.25V136H284.189V134.818H284.121C284.03 135.008 283.878 135.21 283.666 135.426C283.454 135.642 283.172 135.826 282.82 135.977C282.467 136.129 282.037 136.205 281.53 136.205ZM281.734 135C282.265 135 282.712 134.896 283.075 134.688C283.443 134.479 283.719 134.21 283.905 133.881C284.094 133.551 284.189 133.205 284.189 132.841V131.614C284.132 131.682 284.007 131.744 283.814 131.801C283.625 131.854 283.405 131.902 283.155 131.943C282.909 131.981 282.668 132.015 282.433 132.045C282.202 132.072 282.015 132.095 281.871 132.114C281.522 132.159 281.196 132.233 280.893 132.335C280.594 132.434 280.352 132.583 280.166 132.784C279.984 132.981 279.893 133.25 279.893 133.591C279.893 134.057 280.066 134.409 280.411 134.648C280.759 134.883 281.2 135 281.734 135ZM287.977 136V127.273H289.273V128.636H289.386C289.568 128.17 289.862 127.809 290.267 127.551C290.672 127.29 291.159 127.159 291.727 127.159C292.303 127.159 292.782 127.29 293.165 127.551C293.551 127.809 293.852 128.17 294.068 128.636H294.159C294.383 128.186 294.718 127.828 295.165 127.562C295.612 127.294 296.148 127.159 296.773 127.159C297.553 127.159 298.191 127.403 298.688 127.892C299.184 128.377 299.432 129.133 299.432 130.159V136H298.091V130.159C298.091 129.515 297.915 129.055 297.562 128.778C297.21 128.502 296.795 128.364 296.318 128.364C295.705 128.364 295.229 128.549 294.892 128.92C294.555 129.288 294.386 129.754 294.386 130.318V136H293.023V130.023C293.023 129.527 292.862 129.127 292.54 128.824C292.218 128.517 291.803 128.364 291.295 128.364C290.947 128.364 290.621 128.456 290.318 128.642C290.019 128.828 289.777 129.085 289.591 129.415C289.409 129.741 289.318 130.117 289.318 130.545V136H287.977ZM304.452 136.205C303.899 136.205 303.397 136.1 302.946 135.892C302.495 135.68 302.137 135.375 301.872 134.977C301.607 134.576 301.474 134.091 301.474 133.523C301.474 133.023 301.573 132.617 301.77 132.307C301.967 131.992 302.23 131.746 302.56 131.568C302.889 131.39 303.253 131.258 303.651 131.17C304.052 131.08 304.455 131.008 304.861 130.955C305.391 130.886 305.821 130.835 306.151 130.801C306.484 130.763 306.726 130.701 306.878 130.614C307.033 130.527 307.111 130.375 307.111 130.159V130.114C307.111 129.553 306.957 129.117 306.651 128.807C306.348 128.496 305.887 128.341 305.27 128.341C304.63 128.341 304.128 128.481 303.764 128.761C303.401 129.042 303.145 129.341 302.997 129.659L301.724 129.205C301.952 128.674 302.255 128.261 302.634 127.966C303.016 127.667 303.433 127.458 303.884 127.341C304.338 127.22 304.785 127.159 305.224 127.159C305.505 127.159 305.827 127.193 306.19 127.261C306.558 127.326 306.912 127.46 307.253 127.665C307.598 127.869 307.884 128.178 308.111 128.591C308.338 129.004 308.452 129.557 308.452 130.25V136H307.111V134.818H307.043C306.952 135.008 306.8 135.21 306.588 135.426C306.376 135.642 306.094 135.826 305.741 135.977C305.389 136.129 304.959 136.205 304.452 136.205ZM304.656 135C305.187 135 305.634 134.896 305.997 134.688C306.365 134.479 306.641 134.21 306.827 133.881C307.016 133.551 307.111 133.205 307.111 132.841V131.614C307.054 131.682 306.929 131.744 306.736 131.801C306.546 131.854 306.327 131.902 306.077 131.943C305.83 131.981 305.59 132.015 305.355 132.045C305.124 132.072 304.937 132.095 304.793 132.114C304.444 132.159 304.118 132.233 303.815 132.335C303.516 132.434 303.274 132.583 303.088 132.784C302.906 132.981 302.815 133.25 302.815 133.591C302.815 134.057 302.988 134.409 303.332 134.648C303.681 134.883 304.122 135 304.656 135ZM310.649 136V134.977L315.604 128.614V128.523H310.808V127.273H317.331V128.341L312.513 134.659V134.75H317.49V136H310.649ZM322.964 136.182C322.124 136.182 321.398 135.996 320.788 135.625C320.182 135.25 319.714 134.727 319.385 134.057C319.059 133.383 318.896 132.598 318.896 131.705C318.896 130.811 319.059 130.023 319.385 129.341C319.714 128.655 320.173 128.121 320.76 127.739C321.351 127.352 322.04 127.159 322.828 127.159C323.283 127.159 323.732 127.235 324.175 127.386C324.618 127.538 325.021 127.784 325.385 128.125C325.749 128.462 326.038 128.909 326.254 129.466C326.47 130.023 326.578 130.708 326.578 131.523V132.091H320.243C320.273 133.023 320.536 133.737 321.033 134.233C321.533 134.729 322.177 134.977 322.964 134.977C323.491 134.977 323.944 134.864 324.322 134.636C324.701 134.409 324.976 134.068 325.146 133.614L326.442 133.977C326.237 134.636 325.828 135.169 325.214 135.574C324.601 135.979 323.851 136.182 322.964 136.182ZM320.243 130.932H325.214C325.214 130.193 324.999 129.581 324.567 129.097C324.135 128.608 323.555 128.364 322.828 128.364C322.317 128.364 321.874 128.483 321.499 128.722C321.124 128.96 320.828 129.277 320.612 129.67C320.396 130.061 320.273 130.481 320.243 130.932ZM328.618 139.273V127.273H329.913V128.659H330.072C330.171 128.508 330.307 128.314 330.482 128.08C330.66 127.841 330.913 127.629 331.243 127.443C331.576 127.254 332.027 127.159 332.595 127.159C333.33 127.159 333.978 127.343 334.538 127.71C335.099 128.078 335.536 128.598 335.851 129.273C336.165 129.947 336.322 130.742 336.322 131.659C336.322 132.583 336.165 133.384 335.851 134.062C335.536 134.737 335.101 135.259 334.544 135.631C333.987 135.998 333.345 136.182 332.618 136.182C332.057 136.182 331.608 136.089 331.271 135.903C330.934 135.714 330.675 135.5 330.493 135.261C330.311 135.019 330.171 134.818 330.072 134.659H329.959V139.273H328.618ZM329.936 131.636C329.936 132.625 330.15 133.43 330.578 134.051C331.01 134.669 331.629 134.977 332.436 134.977C332.997 134.977 333.464 134.83 333.839 134.534C334.218 134.235 334.502 133.833 334.692 133.33C334.885 132.822 334.982 132.258 334.982 131.636C334.982 131.023 334.887 130.47 334.697 129.977C334.512 129.481 334.23 129.089 333.851 128.801C333.476 128.509 333.004 128.364 332.436 128.364C331.618 128.364 330.997 128.665 330.572 129.267C330.148 129.869 329.936 130.659 329.936 131.636ZM338.368 136V127.273H339.709V136H338.368ZM339.05 125.818C338.788 125.818 338.563 125.729 338.374 125.551C338.188 125.373 338.095 125.159 338.095 124.909C338.095 124.659 338.188 124.445 338.374 124.267C338.563 124.089 338.788 124 339.05 124C339.311 124 339.535 124.089 339.72 124.267C339.91 124.445 340.004 124.659 340.004 124.909C340.004 125.159 339.91 125.373 339.72 125.551C339.535 125.729 339.311 125.818 339.05 125.818ZM343.506 130.75V136H342.165V127.273H343.46V128.636H343.574C343.778 128.193 344.089 127.837 344.506 127.568C344.922 127.295 345.46 127.159 346.119 127.159C347.002 127.159 347.714 127.43 348.256 127.972C348.801 128.513 349.074 129.341 349.074 130.455V136H347.733V130.545C347.733 129.86 347.555 129.326 347.199 128.943C346.843 128.557 346.354 128.364 345.733 128.364C345.093 128.364 344.561 128.572 344.136 128.989C343.716 129.402 343.506 129.989 343.506 130.75ZM355.183 136.182C354.342 136.182 353.617 135.996 353.007 135.625C352.401 135.25 351.933 134.727 351.604 134.057C351.278 133.383 351.115 132.598 351.115 131.705C351.115 130.811 351.278 130.023 351.604 129.341C351.933 128.655 352.392 128.121 352.979 127.739C353.57 127.352 354.259 127.159 355.047 127.159C355.501 127.159 355.95 127.235 356.393 127.386C356.837 127.538 357.24 127.784 357.604 128.125C357.967 128.462 358.257 128.909 358.473 129.466C358.689 130.023 358.797 130.708 358.797 131.523V132.091H352.462C352.492 133.023 352.755 133.737 353.251 134.233C353.751 134.729 354.395 134.977 355.183 134.977C355.71 134.977 356.162 134.864 356.541 134.636C356.92 134.409 357.195 134.068 357.365 133.614L358.661 133.977C358.456 134.636 358.047 135.169 357.433 135.574C356.82 135.979 356.07 136.182 355.183 136.182ZM352.462 130.932H357.433C357.433 130.193 357.217 129.581 356.786 129.097C356.354 128.608 355.774 128.364 355.047 128.364C354.536 128.364 354.092 128.483 353.717 128.722C353.342 128.96 353.047 129.277 352.831 129.67C352.615 130.061 352.492 130.481 352.462 130.932ZM365.314 136V134.977L369.155 130.773C369.606 130.28 369.977 129.852 370.268 129.489C370.56 129.121 370.776 128.777 370.916 128.455C371.06 128.129 371.132 127.788 371.132 127.432C371.132 126.818 370.918 126.331 370.49 125.972C370.066 125.612 369.537 125.432 368.905 125.432C368.231 125.432 367.695 125.634 367.297 126.04C366.899 126.441 366.7 126.973 366.7 127.636H365.359C365.359 126.955 365.517 126.356 365.831 125.841C366.145 125.326 366.573 124.924 367.115 124.636C367.661 124.348 368.272 124.205 368.95 124.205C369.632 124.205 370.236 124.348 370.763 124.636C371.289 124.924 371.702 125.312 372.001 125.801C372.301 126.29 372.45 126.833 372.45 127.432C372.45 127.86 372.373 128.278 372.217 128.688C372.066 129.093 371.801 129.545 371.422 130.045C371.047 130.542 370.526 131.148 369.859 131.864L367.246 134.659V134.75H372.655V136H365.314ZM378.797 136.159C377.513 136.159 376.517 135.638 375.808 134.597C375.104 133.555 374.751 132.083 374.751 130.182C374.751 128.295 375.107 126.828 375.82 125.778C376.532 124.729 377.524 124.205 378.797 124.205C380.07 124.205 381.062 124.729 381.774 125.778C382.486 126.828 382.842 128.295 382.842 130.182C382.842 132.083 382.488 133.555 381.78 134.597C381.075 135.638 380.081 136.159 378.797 136.159ZM378.797 134.909C379.645 134.909 380.304 134.5 380.774 133.682C381.244 132.864 381.479 131.697 381.479 130.182C381.479 128.67 381.242 127.502 380.768 126.676C380.295 125.847 379.638 125.432 378.797 125.432C377.956 125.432 377.299 125.847 376.825 126.676C376.352 127.502 376.115 128.67 376.115 130.182C376.115 131.697 376.35 132.864 376.82 133.682C377.293 134.5 377.952 134.909 378.797 134.909ZM388.797 136.159C387.513 136.159 386.517 135.638 385.808 134.597C385.104 133.555 384.751 132.083 384.751 130.182C384.751 128.295 385.107 126.828 385.82 125.778C386.532 124.729 387.524 124.205 388.797 124.205C390.07 124.205 391.062 124.729 391.774 125.778C392.486 126.828 392.842 128.295 392.842 130.182C392.842 132.083 392.488 133.555 391.78 134.597C391.075 135.638 390.081 136.159 388.797 136.159ZM388.797 134.909C389.645 134.909 390.304 134.5 390.774 133.682C391.244 132.864 391.479 131.697 391.479 130.182C391.479 128.67 391.242 127.502 390.768 126.676C390.295 125.847 389.638 125.432 388.797 125.432C387.956 125.432 387.299 125.847 386.825 126.676C386.352 127.502 386.115 128.67 386.115 130.182C386.115 131.697 386.35 132.864 386.82 133.682C387.293 134.5 387.952 134.909 388.797 134.909ZM395.024 136V127.273H396.32V128.636H396.433C396.615 128.17 396.909 127.809 397.314 127.551C397.719 127.29 398.206 127.159 398.774 127.159C399.35 127.159 399.829 127.29 400.212 127.551C400.598 127.809 400.899 128.17 401.115 128.636H401.206C401.429 128.186 401.765 127.828 402.212 127.562C402.659 127.294 403.195 127.159 403.82 127.159C404.6 127.159 405.238 127.403 405.734 127.892C406.231 128.377 406.479 129.133 406.479 130.159V136H405.138V130.159C405.138 129.515 404.962 129.055 404.609 128.778C404.257 128.502 403.842 128.364 403.365 128.364C402.751 128.364 402.276 128.549 401.939 128.92C401.602 129.288 401.433 129.754 401.433 130.318V136H400.07V130.023C400.07 129.527 399.909 129.127 399.587 128.824C399.265 128.517 398.85 128.364 398.342 128.364C397.994 128.364 397.668 128.456 397.365 128.642C397.066 128.828 396.823 129.085 396.638 129.415C396.456 129.741 396.365 130.117 396.365 130.545V136H395.024ZM412.453 139.455C411.48 139.455 410.709 139.277 410.141 138.92C409.576 138.568 409.158 138.163 408.885 137.705L409.953 136.955C410.074 137.114 410.228 137.295 410.413 137.5C410.599 137.708 410.853 137.888 411.175 138.04C411.5 138.195 411.927 138.273 412.453 138.273C413.158 138.273 413.739 138.102 414.197 137.761C414.656 137.42 414.885 136.886 414.885 136.159V134.386H414.771C414.673 134.545 414.533 134.742 414.351 134.977C414.173 135.208 413.915 135.415 413.578 135.597C413.245 135.775 412.794 135.864 412.226 135.864C411.521 135.864 410.889 135.697 410.328 135.364C409.771 135.03 409.33 134.545 409.004 133.909C408.682 133.273 408.521 132.5 408.521 131.591C408.521 130.697 408.679 129.919 408.993 129.256C409.307 128.589 409.745 128.074 410.305 127.71C410.866 127.343 411.514 127.159 412.249 127.159C412.817 127.159 413.268 127.254 413.601 127.443C413.938 127.629 414.196 127.841 414.374 128.08C414.555 128.314 414.696 128.508 414.794 128.659H414.93V127.273H416.226V136.25C416.226 137 416.055 137.61 415.714 138.08C415.377 138.553 414.923 138.9 414.351 139.119C413.783 139.343 413.15 139.455 412.453 139.455ZM412.408 134.659C413.214 134.659 413.832 134.386 414.26 133.841C414.692 133.292 414.908 132.534 414.908 131.568C414.908 130.625 414.696 129.856 414.271 129.261C413.847 128.663 413.226 128.364 412.408 128.364C411.839 128.364 411.366 128.508 410.987 128.795C410.612 129.083 410.33 129.47 410.141 129.955C409.955 130.439 409.862 130.977 409.862 131.568C409.862 132.477 410.076 133.22 410.504 133.795C410.932 134.371 411.567 134.659 412.408 134.659Z" fill="#505060"/>
<path d="M45.3352 204.222C48.142 204.227 49.8182 202.011 49.8182 198.193C49.8182 194.398 48.1307 192.205 45.3352 192.205C42.5398 192.205 40.858 194.392 40.8523 198.193C40.8523 202.006 42.5284 204.222 45.3352 204.222ZM45.3352 202.443C43.8864 202.443 42.9773 200.989 42.983 198.193C42.9886 195.42 43.892 193.96 45.3352 193.96C46.7841 193.96 47.6875 195.42 47.6932 198.193C47.6932 200.989 46.7898 202.443 45.3352 202.443ZM55.7457 192.17C53.223 192.159 51.5469 193.886 51.5469 196.182C51.5469 198.386 53.1151 199.972 55.1548 199.972C56.4105 199.972 57.5014 199.364 58.0639 198.364H58.1435C58.1378 200.852 57.2344 202.335 55.6264 202.335C54.6207 202.335 53.9446 201.756 53.7344 200.83H51.6605C51.8991 202.756 53.4219 204.159 55.6264 204.159C58.4162 204.159 60.1832 201.83 60.1889 197.824C60.1832 193.557 57.9787 192.188 55.7457 192.17ZM55.7514 193.875C56.9957 193.875 57.9105 194.909 57.9105 196.125C57.9105 197.335 56.956 198.369 55.7287 198.369C54.4901 198.369 53.5923 197.392 53.5923 196.136C53.5923 194.869 54.5185 193.875 55.7514 193.875ZM66.8537 191.818H65.0526L61.3026 205.75H63.1037L66.8537 191.818ZM68.1435 204H76.1207V202.239H71.0526V202.159L73.0582 200.119C75.3196 197.949 75.9446 196.892 75.9446 195.58C75.9446 193.631 74.3594 192.205 72.0185 192.205C69.7116 192.205 68.0753 193.636 68.0753 195.847H70.081C70.081 194.659 70.831 193.915 71.9901 193.915C73.098 193.915 73.9219 194.591 73.9219 195.688C73.9219 196.659 73.331 197.352 72.1832 198.517L68.1435 202.477V204ZM82.1264 204.159C84.5866 204.159 86.3026 202.489 86.3026 200.176C86.3026 197.938 84.7457 196.324 82.6321 196.324C81.6889 196.324 80.8537 196.699 80.4219 197.21H80.3537L80.6889 194.125H85.6946V192.364H78.9446L78.3366 198.364L80.2401 198.676C80.6321 198.244 81.3707 197.955 82.0696 197.96C83.348 197.966 84.2685 198.909 84.2628 200.227C84.2685 201.528 83.3707 202.455 82.1264 202.455C81.0753 202.455 80.2287 201.79 80.1548 200.835H78.1094C78.1662 202.767 79.8537 204.159 82.1264 204.159ZM92.9787 191.818H91.1776L87.4276 205.75H89.2287L92.9787 191.818ZM94.2685 204H102.246V202.239H97.1776V202.159L99.1832 200.119C101.445 197.949 102.07 196.892 102.07 195.58C102.07 193.631 100.484 192.205 98.1435 192.205C95.8366 192.205 94.2003 193.636 94.2003 195.847H96.206C96.206 194.659 96.956 193.915 98.1151 193.915C99.223 193.915 100.047 194.591 100.047 195.688C100.047 196.659 99.456 197.352 98.3082 198.517L94.2685 202.477V204ZM108.507 204.222C111.314 204.227 112.99 202.011 112.99 198.193C112.99 194.398 111.303 192.205 108.507 192.205C105.712 192.205 104.03 194.392 104.024 198.193C104.024 202.006 105.7 204.222 108.507 204.222ZM108.507 202.443C107.058 202.443 106.149 200.989 106.155 198.193C106.161 195.42 107.064 193.96 108.507 193.96C109.956 193.96 110.859 195.42 110.865 198.193C110.865 200.989 109.962 202.443 108.507 202.443ZM119.611 192.364H117.605L114.713 194.222V196.153L117.435 194.415H117.503V204H119.611V192.364ZM126.702 204.159C129.219 204.159 131.02 202.773 131.026 200.881C131.02 199.426 129.946 198.21 128.594 197.983V197.903C129.77 197.642 130.588 196.585 130.594 195.324C130.588 193.534 128.94 192.205 126.702 192.205C124.446 192.205 122.798 193.528 122.804 195.324C122.798 196.585 123.605 197.642 124.804 197.903V197.983C123.429 198.21 122.366 199.426 122.372 200.881C122.366 202.773 124.162 204.159 126.702 204.159ZM126.702 202.534C125.384 202.534 124.531 201.807 124.543 200.733C124.531 199.619 125.446 198.83 126.702 198.83C127.94 198.83 128.849 199.625 128.861 200.733C128.849 201.807 128.003 202.534 126.702 202.534ZM126.702 197.233C125.622 197.233 124.849 196.534 124.861 195.523C124.849 194.523 125.599 193.852 126.702 193.852C127.787 193.852 128.531 194.523 128.543 195.523C128.531 196.54 127.764 197.233 126.702 197.233Z" fill="#505060"/>
<path d="M150.642 204L151.602 201.131H155.977L156.943 204H159.193L155.091 192.364H152.489L148.392 204H150.642ZM152.17 199.438L153.744 194.75H153.835L155.409 199.438H152.17ZM163.608 204.153C165.108 204.153 165.784 203.261 166.108 202.625H166.233V204H168.256V192.364H166.193V196.716H166.108C165.795 196.085 165.153 195.159 163.614 195.159C161.597 195.159 160.011 196.739 160.011 199.648C160.011 202.523 161.551 204.153 163.608 204.153ZM164.182 202.466C162.824 202.466 162.108 201.273 162.108 199.636C162.108 198.011 162.812 196.847 164.182 196.847C165.506 196.847 166.233 197.943 166.233 199.636C166.233 201.33 165.494 202.466 164.182 202.466ZM170.447 204H172.504V198.693C172.504 197.619 173.22 196.892 174.107 196.892C174.976 196.892 175.572 197.477 175.572 198.375V204H177.589V198.557C177.589 197.574 178.175 196.892 179.169 196.892C179.999 196.892 180.658 197.381 180.658 198.46V204H182.72V198.142C182.72 196.193 181.595 195.159 179.993 195.159C178.726 195.159 177.76 195.784 177.374 196.756H177.283C176.947 195.767 176.101 195.159 174.925 195.159C173.754 195.159 172.879 195.761 172.516 196.756H172.413V195.273H170.447V204ZM184.807 204H186.864V195.273H184.807V204ZM185.841 194.034C186.494 194.034 187.028 193.534 187.028 192.92C187.028 192.301 186.494 191.801 185.841 191.801C185.182 191.801 184.648 192.301 184.648 192.92C184.648 193.534 185.182 194.034 185.841 194.034ZM191.036 198.886C191.036 197.625 191.797 196.898 192.882 196.898C193.945 196.898 194.581 197.597 194.581 198.761V204H196.638V198.443C196.643 196.352 195.45 195.159 193.649 195.159C192.342 195.159 191.445 195.784 191.047 196.756H190.945V195.273H188.979V204H191.036V198.886ZM198.729 204H200.786V195.273H198.729V204ZM199.763 194.034C200.416 194.034 200.95 193.534 200.95 192.92C200.95 192.301 200.416 191.801 199.763 191.801C199.104 191.801 198.57 192.301 198.57 192.92C198.57 193.534 199.104 194.034 199.763 194.034ZM209.798 197.58C209.514 196.102 208.332 195.159 206.287 195.159C204.185 195.159 202.753 196.193 202.759 197.807C202.753 199.08 203.537 199.92 205.213 200.267L206.702 200.58C207.503 200.756 207.878 201.08 207.878 201.574C207.878 202.17 207.23 202.619 206.253 202.619C205.31 202.619 204.696 202.21 204.52 201.426L202.514 201.619C202.77 203.222 204.116 204.17 206.259 204.17C208.44 204.17 209.98 203.04 209.986 201.386C209.98 200.142 209.179 199.381 207.531 199.023L206.043 198.705C205.156 198.506 204.804 198.199 204.81 197.693C204.804 197.102 205.457 196.693 206.315 196.693C207.264 196.693 207.764 197.21 207.923 197.784L209.798 197.58ZM216.04 195.273H214.318V193.182H212.261V195.273H211.023V196.864H212.261V201.716C212.25 203.358 213.443 204.165 214.989 204.119C215.574 204.102 215.977 203.989 216.199 203.915L215.852 202.307C215.739 202.335 215.506 202.386 215.25 202.386C214.733 202.386 214.318 202.205 214.318 201.375V196.864H216.04V195.273ZM221.53 204.17C223.564 204.17 224.962 203.176 225.325 201.659L223.405 201.443C223.126 202.182 222.445 202.568 221.558 202.568C220.229 202.568 219.348 201.693 219.331 200.199H225.411V199.568C225.411 196.506 223.57 195.159 221.422 195.159C218.922 195.159 217.291 196.994 217.291 199.688C217.291 202.426 218.899 204.17 221.53 204.17ZM219.337 198.812C219.399 197.699 220.223 196.761 221.45 196.761C222.632 196.761 223.428 197.625 223.439 198.812H219.337ZM227.151 204H229.207V198.869C229.207 197.761 230.043 196.977 231.173 196.977C231.52 196.977 231.952 197.04 232.128 197.097V195.205C231.94 195.17 231.616 195.148 231.389 195.148C230.389 195.148 229.554 195.716 229.236 196.727H229.145V195.273H227.151V204Z" fill="#505060"/>
<path d="M248.773 195.273H250.136C250.074 193.517 248.455 192.205 246.205 192.205C243.977 192.205 242.227 193.5 242.227 195.455C242.227 197.023 243.364 197.955 245.182 198.477L246.614 198.886C247.841 199.227 248.932 199.659 248.932 200.818C248.932 202.091 247.705 202.932 246.091 202.932C244.705 202.932 243.477 202.318 243.364 201H241.909C242.045 202.909 243.591 204.205 246.091 204.205C248.773 204.205 250.295 202.727 250.295 200.841C250.295 198.659 248.227 197.955 247.023 197.636L245.841 197.318C244.977 197.091 243.591 196.636 243.591 195.386C243.591 194.273 244.614 193.455 246.159 193.455C247.568 193.455 248.636 194.125 248.773 195.273ZM257.93 200.432C257.93 202.068 256.68 202.818 255.68 202.818C254.567 202.818 253.771 202 253.771 200.727V195.273H252.43V200.818C252.43 203.045 253.612 204.114 255.249 204.114C256.567 204.114 257.43 203.409 257.839 202.523H257.93V204H259.271V195.273H257.93V200.432ZM261.909 204H263.205V202.659H263.364C263.659 203.136 264.227 204.182 265.909 204.182C268.091 204.182 269.614 202.432 269.614 199.659C269.614 196.909 268.091 195.159 265.886 195.159C264.182 195.159 263.659 196.205 263.364 196.659H263.25V192.364H261.909V204ZM263.227 199.636C263.227 197.682 264.091 196.364 265.727 196.364C267.432 196.364 268.273 197.795 268.273 199.636C268.273 201.5 267.409 202.977 265.727 202.977C264.114 202.977 263.227 201.614 263.227 199.636ZM275.21 204.182C277.574 204.182 279.165 202.386 279.165 199.682C279.165 196.955 277.574 195.159 275.21 195.159C272.847 195.159 271.256 196.955 271.256 199.682C271.256 202.386 272.847 204.182 275.21 204.182ZM275.21 202.977C273.415 202.977 272.597 201.432 272.597 199.682C272.597 197.932 273.415 196.364 275.21 196.364C277.006 196.364 277.824 197.932 277.824 199.682C277.824 201.432 277.006 202.977 275.21 202.977ZM281.852 195.273H280.307L283.08 199.636L280.307 204H281.852L283.943 200.614L286.034 204H287.58L284.761 199.636L287.58 195.273H286.034L283.943 198.841L281.852 195.273ZM292.679 204.182C295.043 204.182 296.634 202.386 296.634 199.682C296.634 196.955 295.043 195.159 292.679 195.159C290.315 195.159 288.724 196.955 288.724 199.682C288.724 202.386 290.315 204.182 292.679 204.182ZM292.679 202.977C290.884 202.977 290.065 201.432 290.065 199.682C290.065 197.932 290.884 196.364 292.679 196.364C294.474 196.364 295.293 197.932 295.293 199.682C295.293 201.432 294.474 202.977 292.679 202.977ZM300.021 198.75C300.021 197.227 300.964 196.364 302.249 196.364C303.493 196.364 304.249 197.176 304.249 198.545V204H305.589V198.455C305.589 196.227 304.402 195.159 302.635 195.159C301.317 195.159 300.499 195.75 300.089 196.636H299.976V195.273H298.68V204H300.021V198.75ZM311.699 204.182C313.472 204.182 314.767 203.295 315.176 201.977L313.881 201.614C313.54 202.523 312.75 202.977 311.699 202.977C310.125 202.977 309.04 201.96 308.977 200.091H315.312V199.523C315.312 196.273 313.381 195.159 311.562 195.159C309.199 195.159 307.631 197.023 307.631 199.705C307.631 202.386 309.176 204.182 311.699 204.182ZM308.977 198.932C309.068 197.574 310.028 196.364 311.562 196.364C313.017 196.364 313.949 197.455 313.949 198.932H308.977ZM321.557 201.614H327.034V204H328.375V201.614H329.966V200.364H328.375V192.364H326.67L321.557 200.455V201.614ZM327.034 200.364H323.08V200.273L326.943 194.159H327.034V200.364ZM332.118 204H333.459V198.545C333.459 197.267 334.391 196.364 335.436 196.364C336.453 196.364 337.163 197.028 337.163 198.023V204H338.527V198.318C338.527 197.193 339.232 196.364 340.459 196.364C341.413 196.364 342.232 196.869 342.232 198.159V204H343.572V198.159C343.572 196.108 342.47 195.159 340.913 195.159C339.663 195.159 338.749 195.733 338.3 196.636H338.209C337.777 195.705 337.016 195.159 335.868 195.159C334.732 195.159 333.891 195.705 333.527 196.636H333.413V195.273H332.118V204ZM349.547 207.455C351.638 207.455 353.32 206.5 353.32 204.25V195.273H352.024V196.659H351.888C351.592 196.205 351.047 195.159 349.342 195.159C347.138 195.159 345.615 196.909 345.615 199.591C345.615 202.318 347.206 203.864 349.32 203.864C351.024 203.864 351.57 202.864 351.865 202.386H351.979V204.159C351.979 205.614 350.956 206.273 349.547 206.273C347.962 206.273 347.405 205.438 347.047 204.955L345.979 205.705C346.524 206.619 347.598 207.455 349.547 207.455ZM349.501 202.659C347.82 202.659 346.956 201.386 346.956 199.568C346.956 197.795 347.797 196.364 349.501 196.364C351.138 196.364 352.001 197.682 352.001 199.568C352.001 201.5 351.115 202.659 349.501 202.659Z" fill="#505060"/>
<path d="M45.3352 272.222C48.142 272.227 49.8182 270.011 49.8182 266.193C49.8182 262.398 48.1307 260.205 45.3352 260.205C42.5398 260.205 40.858 262.392 40.8523 266.193C40.8523 270.006 42.5284 272.222 45.3352 272.222ZM45.3352 270.443C43.8864 270.443 42.9773 268.989 42.983 266.193C42.9886 263.42 43.892 261.96 45.3352 261.96C46.7841 261.96 47.6875 263.42 47.6932 266.193C47.6932 268.989 46.7898 270.443 45.3352 270.443ZM55.7457 260.17C53.223 260.159 51.5469 261.886 51.5469 264.182C51.5469 266.386 53.1151 267.972 55.1548 267.972C56.4105 267.972 57.5014 267.364 58.0639 266.364H58.1435C58.1378 268.852 57.2344 270.335 55.6264 270.335C54.6207 270.335 53.9446 269.756 53.7344 268.83H51.6605C51.8991 270.756 53.4219 272.159 55.6264 272.159C58.4162 272.159 60.1832 269.83 60.1889 265.824C60.1832 261.557 57.9787 260.188 55.7457 260.17ZM55.7514 261.875C56.9957 261.875 57.9105 262.909 57.9105 264.125C57.9105 265.335 56.956 266.369 55.7287 266.369C54.4901 266.369 53.5923 265.392 53.5923 264.136C53.5923 262.869 54.5185 261.875 55.7514 261.875ZM66.8537 259.818H65.0526L61.3026 273.75H63.1037L66.8537 259.818ZM68.1435 272H76.1207V270.239H71.0526V270.159L73.0582 268.119C75.3196 265.949 75.9446 264.892 75.9446 263.58C75.9446 261.631 74.3594 260.205 72.0185 260.205C69.7116 260.205 68.0753 261.636 68.0753 263.847H70.081C70.081 262.659 70.831 261.915 71.9901 261.915C73.098 261.915 73.9219 262.591 73.9219 263.688C73.9219 264.659 73.331 265.352 72.1832 266.517L68.1435 270.477V272ZM82.1264 272.159C84.5866 272.159 86.3026 270.489 86.3026 268.176C86.3026 265.938 84.7457 264.324 82.6321 264.324C81.6889 264.324 80.8537 264.699 80.4219 265.21H80.3537L80.6889 262.125H85.6946V260.364H78.9446L78.3366 266.364L80.2401 266.676C80.6321 266.244 81.3707 265.955 82.0696 265.96C83.348 265.966 84.2685 266.909 84.2628 268.227C84.2685 269.528 83.3707 270.455 82.1264 270.455C81.0753 270.455 80.2287 269.79 80.1548 268.835H78.1094C78.1662 270.767 79.8537 272.159 82.1264 272.159ZM92.9787 259.818H91.1776L87.4276 273.75H89.2287L92.9787 259.818ZM94.2685 272H102.246V270.239H97.1776V270.159L99.1832 268.119C101.445 265.949 102.07 264.892 102.07 263.58C102.07 261.631 100.484 260.205 98.1435 260.205C95.8366 260.205 94.2003 261.636 94.2003 263.847H96.206C96.206 262.659 96.956 261.915 98.1151 261.915C99.223 261.915 100.047 262.591 100.047 263.688C100.047 264.659 99.456 265.352 98.3082 266.517L94.2685 270.477V272ZM108.507 272.222C111.314 272.227 112.99 270.011 112.99 266.193C112.99 262.398 111.303 260.205 108.507 260.205C105.712 260.205 104.03 262.392 104.024 266.193C104.024 270.006 105.7 272.222 108.507 272.222ZM108.507 270.443C107.058 270.443 106.149 268.989 106.155 266.193C106.161 263.42 107.064 261.96 108.507 261.96C109.956 261.96 110.859 263.42 110.865 266.193C110.865 268.989 109.962 270.443 108.507 270.443ZM119.611 260.364H117.605L114.713 262.222V264.153L117.435 262.415H117.503V272H119.611V260.364ZM126.702 272.159C129.219 272.159 131.02 270.773 131.026 268.881C131.02 267.426 129.946 266.21 128.594 265.983V265.903C129.77 265.642 130.588 264.585 130.594 263.324C130.588 261.534 128.94 260.205 126.702 260.205C124.446 260.205 122.798 261.528 122.804 263.324C122.798 264.585 123.605 265.642 124.804 265.903V265.983C123.429 266.21 122.366 267.426 122.372 268.881C122.366 270.773 124.162 272.159 126.702 272.159ZM126.702 270.534C125.384 270.534 124.531 269.807 124.543 268.733C124.531 267.619 125.446 266.83 126.702 266.83C127.94 266.83 128.849 267.625 128.861 268.733C128.849 269.807 128.003 270.534 126.702 270.534ZM126.702 265.233C125.622 265.233 124.849 264.534 124.861 263.523C124.849 262.523 125.599 261.852 126.702 261.852C127.787 261.852 128.531 262.523 128.543 263.523C128.531 264.54 127.764 265.233 126.702 265.233Z" fill="#505060"/>
<path d="M148.636 262.131H152.233V272H154.324V262.131H157.92V260.364H148.636V262.131ZM162.217 272.17C164.251 272.17 165.649 271.176 166.013 269.659L164.092 269.443C163.814 270.182 163.132 270.568 162.246 270.568C160.916 270.568 160.036 269.693 160.018 268.199H166.098V267.568C166.098 264.506 164.257 263.159 162.109 263.159C159.609 263.159 157.979 264.994 157.979 267.688C157.979 270.426 159.587 272.17 162.217 272.17ZM160.024 266.812C160.087 265.699 160.911 264.761 162.138 264.761C163.32 264.761 164.115 265.625 164.126 266.812H160.024ZM174.736 265.58C174.452 264.102 173.27 263.159 171.224 263.159C169.122 263.159 167.69 264.193 167.696 265.807C167.69 267.08 168.474 267.92 170.151 268.267L171.639 268.58C172.44 268.756 172.815 269.08 172.815 269.574C172.815 270.17 172.168 270.619 171.19 270.619C170.247 270.619 169.634 270.21 169.457 269.426L167.452 269.619C167.707 271.222 169.054 272.17 171.196 272.17C173.378 272.17 174.918 271.04 174.923 269.386C174.918 268.142 174.116 267.381 172.469 267.023L170.98 266.705C170.094 266.506 169.741 266.199 169.747 265.693C169.741 265.102 170.395 264.693 171.253 264.693C172.202 264.693 172.702 265.21 172.861 265.784L174.736 265.58ZM180.977 263.273H179.256V261.182H177.199V263.273H175.96V264.864H177.199V269.716C177.188 271.358 178.381 272.165 179.926 272.119C180.511 272.102 180.915 271.989 181.136 271.915L180.79 270.307C180.676 270.335 180.443 270.386 180.188 270.386C179.67 270.386 179.256 270.205 179.256 269.375V264.864H180.977V263.273Z" fill="#505060"/>
<path d="M191.409 272H192.818V266.795H197.864V265.545H192.818V261.614H198.386V260.364H191.409V272ZM203.186 272.205C204.709 272.205 205.504 271.386 205.777 270.818H205.845V272H207.186V266.25C207.186 263.477 205.072 263.159 203.959 263.159C202.641 263.159 201.141 263.614 200.459 265.205L201.732 265.659C202.027 265.023 202.726 264.341 204.004 264.341C205.237 264.341 205.845 264.994 205.845 266.114V266.159C205.845 266.807 205.186 266.75 203.595 266.955C201.976 267.165 200.209 267.523 200.209 269.523C200.209 271.227 201.527 272.205 203.186 272.205ZM203.391 271C202.322 271 201.55 270.523 201.55 269.591C201.55 268.568 202.482 268.25 203.527 268.114C204.095 268.045 205.618 267.886 205.845 267.614V268.841C205.845 269.932 204.982 271 203.391 271ZM210.974 260.364H209.634V272H210.974V260.364ZM219.612 265.227C219.192 263.989 218.249 263.159 216.521 263.159C214.68 263.159 213.317 264.205 213.317 265.682C213.317 266.886 214.033 267.693 215.635 268.068L217.089 268.409C217.97 268.614 218.385 269.034 218.385 269.636C218.385 270.386 217.589 271 216.339 271C215.243 271 214.555 270.528 214.317 269.591L213.044 269.909C213.357 271.392 214.578 272.182 216.362 272.182C218.391 272.182 219.771 271.074 219.771 269.568C219.771 268.352 219.01 267.585 217.453 267.205L216.158 266.886C215.124 266.631 214.658 266.284 214.658 265.614C214.658 264.864 215.453 264.318 216.521 264.318C217.692 264.318 218.175 264.966 218.408 265.568L219.612 265.227ZM225.449 272.182C227.222 272.182 228.517 271.295 228.926 269.977L227.631 269.614C227.29 270.523 226.5 270.977 225.449 270.977C223.875 270.977 222.79 269.96 222.727 268.091H229.062V267.523C229.062 264.273 227.131 263.159 225.312 263.159C222.949 263.159 221.381 265.023 221.381 267.705C221.381 270.386 222.926 272.182 225.449 272.182ZM222.727 266.932C222.818 265.574 223.778 264.364 225.312 264.364C226.767 264.364 227.699 265.455 227.699 266.932H222.727ZM239.489 263.273H237.534V262.386C237.534 261.523 237.898 261.068 238.784 261.068C239.17 261.068 239.398 261.159 239.534 261.205L239.92 260.045C239.716 259.955 239.307 259.818 238.648 259.818C237.398 259.818 236.193 260.568 236.193 262.068V263.273H234.784V264.409H236.193V272H237.534V264.409H239.489V263.273ZM244.554 272.182C246.918 272.182 248.509 270.386 248.509 267.682C248.509 264.955 246.918 263.159 244.554 263.159C242.19 263.159 240.599 264.955 240.599 267.682C240.599 270.386 242.19 272.182 244.554 272.182ZM244.554 270.977C242.759 270.977 241.94 269.432 241.94 267.682C241.94 265.932 242.759 264.364 244.554 264.364C246.349 264.364 247.168 265.932 247.168 267.682C247.168 269.432 246.349 270.977 244.554 270.977ZM250.555 272H251.896V266.477C251.896 265.295 252.828 264.432 254.101 264.432C254.459 264.432 254.828 264.5 254.919 264.523V263.159C254.766 263.148 254.413 263.136 254.214 263.136C253.169 263.136 252.26 263.727 251.942 264.591H251.851V263.273H250.555V272ZM260.554 261.614H264.213V272H265.622V261.614H269.281V260.364H260.554V261.614ZM275.587 268.432C275.587 270.068 274.337 270.818 273.337 270.818C272.223 270.818 271.428 270 271.428 268.727V263.273H270.087V268.818C270.087 271.045 271.268 272.114 272.905 272.114C274.223 272.114 275.087 271.409 275.496 270.523H275.587V272H276.928V263.273H275.587V268.432ZM279.565 272H280.861V270.659H281.02C281.315 271.136 281.884 272.182 283.565 272.182C285.747 272.182 287.27 270.432 287.27 267.659C287.27 264.909 285.747 263.159 283.543 263.159C281.838 263.159 281.315 264.205 281.02 264.659H280.906V260.364H279.565V272ZM280.884 267.636C280.884 265.682 281.747 264.364 283.384 264.364C285.088 264.364 285.929 265.795 285.929 267.636C285.929 269.5 285.065 270.977 283.384 270.977C281.77 270.977 280.884 269.614 280.884 267.636ZM292.98 272.182C294.753 272.182 296.048 271.295 296.457 269.977L295.162 269.614C294.821 270.523 294.031 270.977 292.98 270.977C291.406 270.977 290.321 269.96 290.259 268.091H296.594V267.523C296.594 264.273 294.662 263.159 292.844 263.159C290.48 263.159 288.912 265.023 288.912 267.705C288.912 270.386 290.457 272.182 292.98 272.182ZM290.259 266.932C290.349 265.574 291.31 264.364 292.844 264.364C294.298 264.364 295.23 265.455 295.23 266.932H290.259ZM298.634 272H299.974V266.477C299.974 265.295 300.906 264.432 302.179 264.432C302.537 264.432 302.906 264.5 302.997 264.523V263.159C302.844 263.148 302.491 263.136 302.293 263.136C301.247 263.136 300.338 263.727 300.02 264.591H299.929V263.273H298.634V272ZM307.866 272.182C309.798 272.182 311.071 271 311.298 269.455H309.957C309.707 270.409 308.912 270.977 307.866 270.977C306.276 270.977 305.253 269.659 305.253 267.636C305.253 265.659 306.298 264.364 307.866 264.364C309.048 264.364 309.753 265.091 309.957 265.886H311.298C311.071 264.25 309.685 263.159 307.844 263.159C305.48 263.159 303.912 265.023 303.912 267.682C303.912 270.295 305.412 272.182 307.866 272.182ZM318.759 268.432C318.759 270.068 317.509 270.818 316.509 270.818C315.395 270.818 314.599 270 314.599 268.727V263.273H313.259V268.818C313.259 271.045 314.44 272.114 316.077 272.114C317.395 272.114 318.259 271.409 318.668 270.523H318.759V272H320.099V263.273H318.759V268.432ZM323.896 260.364H322.555V272H323.896V260.364ZM329.898 272.182C332.261 272.182 333.852 270.386 333.852 267.682C333.852 264.955 332.261 263.159 329.898 263.159C327.534 263.159 325.943 264.955 325.943 267.682C325.943 270.386 327.534 272.182 329.898 272.182ZM329.898 270.977C328.102 270.977 327.284 269.432 327.284 267.682C327.284 265.932 328.102 264.364 329.898 264.364C331.693 264.364 332.511 265.932 332.511 267.682C332.511 269.432 331.693 270.977 329.898 270.977ZM342.081 265.227C341.661 263.989 340.717 263.159 338.99 263.159C337.149 263.159 335.786 264.205 335.786 265.682C335.786 266.886 336.501 267.693 338.104 268.068L339.558 268.409C340.439 268.614 340.854 269.034 340.854 269.636C340.854 270.386 340.058 271 338.808 271C337.712 271 337.024 270.528 336.786 269.591L335.513 269.909C335.825 271.392 337.047 272.182 338.831 272.182C340.859 272.182 342.24 271.074 342.24 269.568C342.24 268.352 341.479 267.585 339.922 267.205L338.626 266.886C337.592 266.631 337.126 266.284 337.126 265.614C337.126 264.864 337.922 264.318 338.99 264.318C340.161 264.318 340.643 264.966 340.876 265.568L342.081 265.227ZM344.259 272H345.599V263.273H344.259V272ZM344.94 261.818C345.463 261.818 345.895 261.409 345.895 260.909C345.895 260.409 345.463 260 344.94 260C344.418 260 343.986 260.409 343.986 260.909C343.986 261.409 344.418 261.818 344.94 261.818ZM354.237 265.227C353.817 263.989 352.874 263.159 351.146 263.159C349.305 263.159 347.942 264.205 347.942 265.682C347.942 266.886 348.658 267.693 350.26 268.068L351.714 268.409C352.595 268.614 353.01 269.034 353.01 269.636C353.01 270.386 352.214 271 350.964 271C349.868 271 349.18 270.528 348.942 269.591L347.669 269.909C347.982 271.392 349.203 272.182 350.987 272.182C353.016 272.182 354.396 271.074 354.396 269.568C354.396 268.352 353.635 267.585 352.078 267.205L350.783 266.886C349.749 266.631 349.283 266.284 349.283 265.614C349.283 264.864 350.078 264.318 351.146 264.318C352.317 264.318 352.8 264.966 353.033 265.568L354.237 265.227Z" fill="#505060"/>
</svg>
