<svg width="576" height="357" viewBox="0 0 576 357" fill="none" xmlns="http://www.w3.org/2000/svg">
<path d="M510.426 140.891L510.362 140.898C509.895 144.312 511.917 144.697 514.247 146.26C514.881 146.683 518.087 150.45 518.234 150.463C519.745 150.636 519.962 147.971 519.917 147.336C522.183 145.613 527.7 128.705 523.252 127.155C523.354 127.424 523.463 127.687 523.565 127.956C523.226 127.065 521.319 128.167 520.749 127.744C521.21 128.084 522.183 123.49 522.247 123.343C523.29 120.774 525.389 119.012 527.488 117.301C529.524 115.648 539.584 112.452 539.578 109.703C540.41 111.369 545.959 109.114 545.824 108.601C544.98 106.339 546.055 103.873 545.063 101.637C547.008 101.951 547.072 105.603 547.034 107.051C547.597 106.634 548.864 105.872 549.165 105.66C549.204 105.519 549.37 105.526 549.37 105.526C549.632 105.475 549.805 105.571 549.895 105.814C550.048 104.039 551.578 101.919 553.12 101.086C552.602 102.156 553.76 102.758 553.229 104.187C553.76 103.61 554.164 102.969 554.253 103.636C554.592 103.514 554.74 103.328 554.804 103.059L554.829 103.424C555.488 103.258 555.527 102.412 555.642 101.874C555.802 101.957 555.904 102.105 555.93 102.297C556.807 100.644 559.015 101.49 559.821 100.644C560.147 100.304 559.924 99.4522 559.783 98.4015C559.648 97.3892 556.468 93.7758 555.559 95.7747C555.911 95.858 556.282 95.6786 556.269 96.0886C556.871 94.6343 557.901 97.2995 558.106 97.7736C558.151 97.402 558.093 97.2611 558.183 96.96C558.24 97.1778 558.484 97.5045 558.445 97.4341C558.522 97.4405 558.605 97.4533 558.682 97.4597C560.896 102.06 551.84 96.7357 550.727 95.6209L550.464 95.7811C550.618 95.2686 550.266 94.8842 549.728 94.6279C549.645 94.692 549.607 94.7817 549.62 94.8906C549.332 94.5766 548.487 94.3204 548.148 94.2883C547.712 94.6599 547.271 93.936 547.533 93.9296C547.354 94.1154 548.25 91.4181 548.173 91.5783C547.962 91.1939 547.642 91.0337 547.2 91.1042C548.282 90.5788 547.757 89.8869 548.602 89.0284C547.232 86.3824 544 87.3498 544 83.4417V83.3648L545.594 83.2879C546.298 82.2436 547.975 80.1742 548.397 78.5726C548.685 77.4706 549.069 76.2918 549.332 75.2218C549.632 74.0109 550.938 72.3516 551.066 71.2817C551.111 71.7686 551.386 72.1914 551.712 72.5438C552.685 71.2304 552.32 71.0574 553.069 71.9159L553.146 71.7558C553.255 71.8455 553.242 72.3067 553.261 72.4669C553.287 72.4413 554.048 68.5908 554.292 68.9176C553.831 69.1995 555.034 70.0836 555.226 70.1092C556.308 70.2438 555.565 68.9496 556.16 68.6549C556.084 68.6933 558.298 66.9122 557.888 67.5785C558.023 67.6746 558.125 67.7964 558.202 67.9437C561.21 65.8551 558.733 59.2562 559.386 56.5653C560.199 57.7954 560.935 60.8707 562.368 61.5754C565.204 62.9721 562.202 59.679 563.546 59.5124C563.527 59.5252 564 57.8467 563.904 57.8787C564.756 59.269 566.522 55.8606 568.103 58.9807C568.199 59.4419 569.127 55.4569 569.178 55.3544C569.671 55.4377 570.131 55.5915 570.567 55.8285C570.784 55.4762 571.002 55.1238 571.219 54.7778C571.059 55.1943 571.207 55.2455 571.661 54.9188C571.443 52.3625 572.013 54.6241 572.666 52.7277C572.826 53.0224 572.979 53.3235 573.139 53.6182C572.883 52.638 575.655 51.4207 575.834 50.5814C576.467 47.6151 575.187 50.0368 573.722 48.9156C573.805 48.8964 575.085 47.7048 575.085 47.7048C573.703 47.2435 571.431 46.0454 570.541 44.9627C569.696 43.9312 570.023 42.3743 569.472 41.6376C568.788 40.7278 567.181 41.2275 566.023 40.4651C564.212 39.2735 563.54 35.6985 563.008 33.7508C561.856 29.5416 561.299 21.4691 556.218 19.8866C552.653 18.7782 552.442 21.5524 549.696 22.1674C547.949 22.5582 547.367 20.8861 546.548 20.9886C542.688 21.4691 541.076 34.4812 540.973 37.6269C540.852 41.2916 540.698 43.771 539.757 47.2179C539.367 48.6402 539.066 53.8104 538.1 54.6689C537.511 55.1943 535.488 55.0021 534.586 55.6427C533.658 56.2962 533.319 57.411 532.576 58.2119C530.688 60.2428 529.114 61.1526 526.375 61.8765C520.25 63.4846 513.799 64.0548 507.604 65.3682C499.7 67.0468 496.903 70.7115 492.487 77.0093C492.833 76.894 490.202 81.1417 489.492 83.8133C489.71 83.4161 489.927 83.0252 490.138 82.628C489.844 82.942 491.674 83.5826 492.116 83.3392C491.873 84.6462 488.545 88.4582 492.013 89.6178C490.49 90.0983 484.948 93.9232 485.633 95.9477C482.151 93.2441 468.679 94.8714 465.71 97.9466C462.81 100.951 467.425 101.964 467.034 105.475C466.439 110.818 460.468 114.976 456.052 117.173C456.302 116.936 456.5 116.667 456.654 116.36C451.54 121.222 445.415 126.399 438.683 128.782C436.225 129.654 430.971 131.55 428.647 130.916L428.494 131.127L428.468 130.839C428.756 130.743 427.7 131.082 427.707 130.736C427.975 130.685 428.251 130.653 428.519 130.634C428.519 130.634 429.844 129.378 429.518 129.634C429.787 129.385 425.108 128.34 424.686 127.796L424.372 127.507C424.398 127.629 424.423 127.751 424.449 127.873C424.084 128.116 423.387 127.962 423.086 127.77C423.086 127.776 422.99 126.284 423.425 127.219C422.689 124.759 425.505 119.646 426.695 117.59C428.398 114.649 428.014 113.605 430.983 114.104C431.86 110.113 429.569 99.8879 426.913 96.7614C425.422 95.0123 423.118 94.8073 421.108 96.236C419.374 97.4661 419.815 99.7854 418.196 100.977C415.38 103.046 414.868 99.843 415.444 97.575C416.02 95.3262 418.267 93.7758 418.894 91.5463C419.425 89.6691 416.494 82.1347 417.012 81.5773C417.665 81.5966 418.324 81.6158 418.977 81.635C417.831 81.0392 417.819 79.2901 416.903 78.4444C415.655 77.2912 413.953 76.8299 412.423 76.1892C408.872 74.7029 404.795 72.6271 400.814 73.5689C401.774 73.7867 399.617 77.8037 402.203 78.3227C401.844 79.7193 400.148 78.6943 399.387 79.4823C398.35 80.5458 398.401 82.045 398.139 83.384C398.062 83.762 397.928 88.6183 396.801 88.0161C397.211 87.2089 396.462 88.0994 396.2 87.888C395.726 87.0743 396.372 84.691 395.86 85.2868C395.969 84.8704 396.078 84.4476 396.174 84.0247L396.36 84.1528C396.372 83.3456 396.379 82.5447 396.385 81.7375C395.348 82.4615 395.361 83.8838 394.651 84.8063C393.947 85.7225 392.59 86.4144 391.982 87.3754C390.843 89.1822 390.1 92.5585 391.214 94.2435C384.987 94.6471 391.982 112.118 392.66 115.142C393.768 120.095 390.971 134.433 383.784 133.389C378.74 132.658 376.82 124.432 376.283 120.415C375.483 114.425 376.123 108.159 377.371 102.278C377.883 99.8622 383.24 82.628 382.401 82.3525C380.622 81.7695 381.588 84.5757 380.11 83.9478C379.88 86.2479 375.144 92.5841 372.788 93.039C372.75 92.4816 372.929 92.3791 373.313 92.7251C373.102 92.3791 373.025 92.0011 373.076 91.5975C373.166 91.6744 373.23 91.6295 373.262 91.7833C373.108 84.6462 381.87 80.5522 381.87 73.4471C381.704 74.5427 381.23 75.6703 382.312 76.4711C382.619 76.1188 385.678 73.492 385.672 73.4856C386.158 74.6132 385.729 75.0296 385.038 75.3948C384.827 75.8689 384.2 76.4327 384.488 76.894C384.648 76.9709 385.179 77.3745 385.486 77.4193C385.435 77.2399 385.211 76.7786 385.384 76.4968C387.304 73.146 391.95 71.1599 395.624 70.5321C396.36 70.4039 403.707 71.6661 403.547 71.8967C400.699 69.8017 407.143 69.5518 407.329 69.5582C408.577 70.3719 409.78 68.7125 411.105 69.5326C411.016 67.995 407.937 66.656 407.534 66.3805C408.001 61.0501 396.04 65.522 399.688 59.5765C395.502 61.2935 391.201 62.2738 387.054 64.1445C383.931 65.5604 381.147 66.2587 377.896 64.6571C375.816 63.632 374.196 61.3384 371.905 60.6977C368.949 59.8712 369.896 61.3576 367.713 61.9918C367.79 61.9342 367.528 61.0757 367.086 61.5177L366.926 61.4152C366.664 61.947 366.344 62.4403 365.953 62.8888C366.734 62.3122 367.086 58.5386 368.027 57.4495C366.837 55.9567 371.841 53.5862 372.776 53.5349C370.843 49.1527 360.353 60.1211 358.901 61.2935C356.597 63.1515 354.062 65.1632 351.201 66.0601C348.117 67.0276 345.627 66.169 342.702 67.0147C342.44 63.3821 344.501 61.4729 339.579 63.5167C337.358 64.4392 332.066 68.3986 329.71 66.515C332.456 66.8546 337.243 58.9294 338.945 57.2252C343.592 52.5931 350.35 51.1196 355.086 46.5772C352.213 47.5702 348.475 46.6477 345.704 45.7059C344.904 45.4304 342.805 44.0785 342.433 44.0913C340.149 44.1682 338.433 46.763 336.136 46.5644C334.677 46.4426 333.23 45.0203 331.771 44.5462C329.077 43.6621 327.464 43.6172 325.058 42.1117C322.638 40.6061 321.826 39.7091 318.67 39.7476C314.286 39.7988 309.557 41.7849 306.555 37.3963C304.808 34.7631 307.202 30.7909 300.802 29.7914C300.802 31.4956 300.802 33.1998 300.802 34.9105C217.602 38.7289 84.4828 11.5514 48.4702 0C48.611 0.288304 49.027 0.570207 49.1742 0.858511C49.187 0.916172 48.3806 0.42925 48.3614 0.42925C48.0094 0.474097 48.8798 4.27331 48.8734 4.22846C50.211 2.60115 51.6254 7.03462 49.2766 6.30425C49.4046 6.81038 48.6366 6.65663 47.811 6.96415C47.8942 7.45107 48.0158 7.93158 48.1694 8.40568C48.3422 8.11737 48.6366 13.3581 49.1486 13.6656C48.8094 13.3261 50.6654 14.7676 50.2558 15.0046L50.2302 15.1071C47.3246 16.1515 47.619 19.0537 47.6574 21.0462C47.5166 20.6234 47.3502 20.2069 47.2094 19.7841C46.2686 20.9437 46.275 22.6223 45.9102 23.9869C44.8606 23.9869 44.5086 22.8081 44.5086 22.8081C45.3022 22.0969 45.6414 20.5016 45.5838 19.4958L44.9822 19.5727C46.051 17.6186 46.275 15.9785 45.7246 15.908C44.931 15.8055 45.3278 11.5194 45.3278 11.5194C45.0206 11.6091 43.2734 12.0447 43.2478 12.0575C43.2478 12.0575 43.4142 11.026 42.0702 10.4046C42.147 10.3341 40.5534 11.0068 39.4974 9.8536C39.6574 9.88564 34.8639 7.5792 32.6687 5.83656C31.6127 4.99727 30.6847 2.90867 29.0271 3.20979C29.5967 3.6967 29.7375 4.02986 29.1039 4.39505C27.3247 8.57226 28.4959 14.5434 28.9439 18.6885C29.3919 19.5278 28.6047 22.9234 28.2079 23.8652L28.3423 24.3393L28.3935 24.6468H28.6815L28.9439 25.2555L28.7839 25.358C28.7199 25.0184 27.7023 27.658 29.8591 27.043C30.3967 27.2864 30.5951 27.626 30.0191 27.7477C30.0191 27.7477 29.2959 28.0424 29.0719 28.4781C28.8927 28.8561 29.4943 29.7722 29.0463 30.1887L28.8095 30.1118L28.5471 30.3681C28.7455 30.8165 28.2591 31.8993 28.1247 32.4503C26.7743 31.3867 28.3487 29.2597 28.0479 27.9271C27.6319 29.5928 26.4479 31.0728 26.3967 32.8411C26.4351 32.8603 29.0015 33.6611 28.7903 33.5907C30.6719 34.1801 29.1871 34.6093 29.3535 34.7311C28.9951 34.6286 28.6431 34.526 28.2847 34.4171C28.1567 34.4876 28.2015 34.8848 28.2015 34.8848L27.9135 35.045L27.9647 34.8848C27.5871 34.462 27.2095 35.4614 26.8383 35.0386C27.3311 37.1464 25.1743 37.4219 25.5839 42.3807C25.6223 42.8356 25.1167 43.8991 24.9503 44.6551C24.7519 44.4437 24.5471 43.8799 24.3487 43.6685C23.8943 44.1362 24.7647 45.0524 23.9519 45.1741C22.0959 48.0059 20.3295 53.5413 20.1695 55.0982C19.5231 55.6171 19.0879 56.5974 18.9343 57.4046C19.0943 57.3726 19.2479 57.3149 19.4079 57.2829C18.4415 60.8002 15.8112 63.5487 14.736 67.0211C15.5232 66.0345 12.1056 69.8465 11.6384 71.0318C5.5456 75.5934 8.35519 84.4732 7.65119 90.4187C6.9472 92.9301 7.08159 95.5825 6.3776 98.1004C5.5776 100.945 3.89441 103.431 2.69122 106.109C3.11362 105.577 2.47362 106.461 2.56322 106.16C-2.08956 107.96 0.880028 115.898 1.55842 120.159C2.21762 124.31 0.59843 128.142 0.835229 132.274C1.14243 137.624 5.2576 144.844 5.2384 143.806C3.85601 145.248 7.67039 149.265 8.20799 150.847C9.00159 153.179 7.77279 155.537 7.72159 157.875C7.66399 160.438 8.29119 161.386 9.82078 163.443C10.1792 163.923 12.8288 167.607 12.3232 167.556C12.3232 167.562 10.416 168.658 10.2496 168.556C7.62559 172.701 10.1088 177.198 12.3488 180.85C13.3984 182.567 14.6656 184.201 15.536 186.02C15.9968 186.981 16.3103 190.089 16.3103 191.018L16.4127 190.992C16.5407 191.46 17.0655 191.87 17.4623 192.094C17.4687 192.017 17.4815 191.934 17.4879 191.857C18.0383 191.742 17.3535 201.589 18.1599 202.704C18.8831 203.709 22.1407 203.434 23.3503 203.786C26.6911 204.741 28.3167 208.085 31.2415 208.963C29.4111 208.937 31.3823 211.161 32.1183 211.116C32.1183 211.116 36.1822 211.987 37.7118 213.749C38.8638 215.069 38.1854 217.587 39.779 218.656C40.2078 218.554 41.6798 218.65 41.6414 218.266C42.2878 219.207 43.3502 220.796 43.7406 220.918C45.091 223.948 47.459 225.941 48.1246 229.292C48.483 231.105 47.619 234.161 48.1438 235.525L48.355 235.263C49.0782 235.916 49.2894 236.704 48.9758 237.633C53.987 238.127 59.0237 238.607 63.9837 239.491C68.3421 240.266 72.8029 241.868 77.2892 241.247C76.7324 242.201 76.0604 243.066 75.286 243.854C85.9164 250.415 96.1755 257.661 107.452 263.113C118.652 268.527 130.076 270.007 142.255 271.724C145.468 272.179 148.098 272.569 149.73 269.302C151.202 266.355 149.577 266.682 153.43 266.432C156.265 266.246 159.606 266.617 162.402 267.066C167.964 267.95 172.028 270.686 175.919 274.652C179.119 277.919 183.804 281.923 185.935 285.857C189.013 291.527 188.969 298.767 193.218 303.937C194.005 304.891 194.889 305.987 196.092 306.442C197.103 306.826 198.933 306.154 199.586 306.455C200.015 306.653 201.327 308.864 202.14 309.363C203.97 310.497 205.999 311.125 207.983 309.882C210.889 308.063 210.703 303.476 213.961 301.682C216.988 300.01 220.943 301.265 224.143 301.323C227.535 301.381 227.074 301.252 229.602 303.777C232.412 306.583 234.78 308.928 236.751 312.49C239.669 317.775 241.909 322.67 245.749 327.386C249.397 331.864 250.197 336.381 252.604 341.423C253.788 343.896 257.947 353.525 261.314 351.622L261.391 351.962C263.451 352.68 266.395 353.839 268.533 354.397C270.191 354.832 274.389 354.941 274.184 355.242C274.274 355.21 273.723 355.178 273.807 355.146C273.851 355.255 273.704 355.543 273.672 355.479L273.595 355.377C275.573 358.164 277.039 355.979 279.208 356.088L279.195 356.242L279.279 356.19L279.163 356.216C279.311 355.697 279.112 355.165 279.183 354.64C278.85 354.743 278.76 354.845 279.023 354.717C279.272 355.242 278.389 354.64 278.389 354.64L278.491 354.8C278.479 354.659 278.523 354.55 278.651 354.486C278.587 354.621 277.307 353.942 277.179 353.884C277.301 353.57 277.378 353.878 277.467 353.91C277.365 353.634 277.275 353.352 277.205 353.07L277.339 353.122L277.365 352.724C277.199 352.737 277.128 352.654 277.128 352.487C277.064 352.321 276.898 352.955 276.891 353.038C276.565 352.334 277.378 351.43 276.917 350.7C276.827 350.834 276.744 350.963 276.655 351.097C276.821 350.636 276.635 350.469 276.13 350.674C275.983 350.687 276.277 350.322 276.341 350.251L276.053 350.328L276.104 350.142C276.002 350.277 275.88 350.322 275.739 350.245C275.963 350.021 276.085 350.277 276.136 349.848C276.136 349.848 275.547 349.963 275.509 349.982C275.72 349.777 275.381 348.893 275.746 349.271L275.848 349.085C275.759 349.143 275.669 349.143 275.586 349.085L275.797 348.983C275.784 348.432 275.919 348.534 275.983 348.829C277 346.99 275.048 344.825 274.511 343.178C274.632 343.294 276.226 344.325 275.035 343.153C275.08 343.255 275.125 343.364 275.17 343.467C274.255 343.761 274.536 342.031 274.568 341.705C274.85 341.737 275.125 341.775 275.407 341.807C275.88 340.692 275.867 339.257 276.168 338.079C275.899 338.117 273.807 338.136 274.306 337.367C273.781 337.495 275.279 337.124 275.17 337.265C276.066 338.04 279.413 332.139 277.743 332.139C277.743 332.139 277.474 332.139 277.64 332.139C276.725 332.139 276.149 330.807 275.906 329.801C277 330.147 277.551 329.282 277.141 330.185C277.986 329.801 278.735 330.038 279.016 330.435C279.899 330.198 281.045 328.18 281.237 327.578C281.211 327.674 281.243 327.725 281.339 327.732C281.333 327.136 281.295 325.803 281.237 326.098C281.499 326.143 281.736 326.245 281.947 326.412C281.947 325.867 282.479 326.354 282.549 326.45C282.709 326.079 283.669 325.701 283.157 325.803C284.84 324.611 282.735 321.728 284.309 321.415C284.303 322.203 285.768 323.401 286.069 323.567C286.069 323.567 288.066 322.625 289.192 322.017C289.083 321.825 288.93 321.716 288.744 321.805C288.744 321.805 287.631 321.254 287.983 321.152C287.88 320.543 287.221 320.191 286.671 319.999C286.741 320.357 285.89 318.314 285.909 318.051C289.403 318.865 288.623 318.711 292.13 317.5C291.88 317.801 290.44 319.691 291.055 320.152C291.675 320.152 291.867 320.268 291.266 321.331C291.336 321.293 306.126 311.49 303.522 311.004C304.802 311.42 306.786 310.292 307.483 309.274C308.328 308.044 308.078 307.544 308.77 309.005C311.611 309.946 316.002 303.258 320.162 304.539L320.213 304.116C324.443 301.996 328.686 303.681 332.936 304.674C334.606 305.064 336.238 305.5 337.979 305.308C339.425 305.148 340.36 304.071 341.205 303.354C340.904 303.45 339.579 303.309 339.944 302.643C340.641 302.886 343.893 300.516 344.257 302.04C343.745 302.258 343.835 302.681 343.905 302.931C344.635 303.469 346.817 302.354 347.553 302.271C347.272 302.861 346.997 303.444 346.715 304.033C347.547 304.866 348.757 303.77 347.95 305.558C350.273 305.724 350.389 305.795 350.389 305.795C350.638 305.949 351.131 305.609 351.336 305.507C351.061 305.487 351.809 307.32 352.597 307.634C353.486 307.992 354.267 307.73 354.107 308.05C354.421 308.851 357.672 307.915 357.07 309.575C356.577 309.652 356.091 309.729 355.598 309.805C355.169 310.337 357.115 310.619 357.16 310.734C357.013 310.459 357.736 310.235 357.627 310.939C357.985 310.446 358.376 310.318 358.792 310.549C358.753 310.401 359.009 310.324 359.349 310.363C359.323 309.729 359.201 309.203 359.745 309.133C359.72 308.704 360.181 308.165 360.744 308.12C360.693 307.813 362.51 308.909 362.92 309.274C363.041 309.229 363.784 308.217 363.617 308.242C364.174 308.62 364.014 311.984 365.653 310.19C365.921 309.895 366.152 307.025 365.659 307.121C365.915 307.32 366.177 307.518 366.433 307.71C366.331 307.736 365.384 305.942 366.645 305.667C367.253 305.321 370.753 306.288 369.019 307.236C369.921 307.224 371.195 307.352 370.939 307.525C372.251 308.364 375.4 308.748 375.515 310.766C375.726 310.401 375.937 310.036 376.148 309.671C376.756 310.132 377.249 310.696 377.614 311.369C377.78 309.043 378.331 310.421 378.907 309.088C377.723 309.037 376.968 307.198 376.654 306.23C376.635 306.218 376.36 306.967 376.251 306.993C375.067 306.455 370.99 303.283 371.329 302.88C371.041 302.579 372.686 302.559 372.968 302.655C372.424 301.803 371.176 301.957 370.792 301.419C371.342 300.125 373.896 299.945 374.459 300.535C374.683 299.939 373.716 299.081 373.979 299.138C373.691 298.888 373.972 298.382 373.864 297.998C373.313 298.062 372.916 297.639 373.179 297.53C372.993 297.325 372.808 297.114 372.622 296.909C372.027 296.986 369.499 301.534 368.884 297.934C368.552 295.96 377.902 291.873 379.796 291.591C379.803 290.918 378.28 291.636 378.011 291.251C380.353 290.143 386.504 293.141 388.116 291.751C388.449 290.367 388.276 287.35 390.036 286.786C391.195 287.375 390.913 293.174 393.185 291.7C393 292.02 392.814 292.341 392.635 292.661C393.787 292.475 399.432 290.387 399.432 290.387C401.71 293.878 407.886 287.382 407.815 288.836C407.822 288.65 416.564 291.732 417.249 291.533C417.652 292.033 419.246 291.892 418.772 292.148C419.572 293.225 421.582 294.141 422.177 295.288C422.395 295.704 422.459 297.28 422.574 297.357C424.692 297.466 426.651 296.121 428.507 295.301C428.321 295.582 428.142 295.864 427.956 296.14C430.727 296.755 431.495 292.257 434.388 293.09C434.868 292.232 432.865 292.514 432.993 291.668C434.311 292.091 434.619 292.078 433.915 291.617C433.799 291.527 433.876 290.97 433.863 290.88C442.023 290.201 444.084 293.519 449.62 298.908C453.262 302.45 457.313 303.264 457.172 309.248C455.969 311.503 456.116 315.982 456.961 318.301C458.772 323.279 458.721 318.448 459.316 318.653C459.482 318.711 459.162 319.704 459.118 319.691C459.265 319.044 459.457 318.403 459.694 317.782C458.906 317.936 459.201 318.801 460.903 318.596C460.846 318.115 461.786 317.872 461.876 318.096C462.138 318.749 461.262 319.55 461.063 320.152C460.302 322.427 459.175 322.177 459.687 324.708C460.282 327.648 463.886 331.217 466.676 332.204C467.086 332.024 465.825 329.923 466.017 329.577C466.612 330 467.252 330.064 467.937 329.756C466.254 330.48 467.822 333.735 468.577 334.593C468.615 334.638 471.482 337.169 470.849 335.746C471.918 337.194 472.289 339.315 472.634 341.026C472.66 340.763 473.71 340.974 473.633 342.128C473.825 342.07 473.978 342.736 473.761 342.442C473.812 342.723 473.863 342.999 473.921 343.281C475.329 341.359 480.481 344.146 480.743 344.857C480.103 345.1 479.982 345.555 480.167 346.01L480.295 345.908C481.927 348.547 483.143 348.656 485.39 350.456C485.102 350.431 482.343 350.597 482.561 351.552C483.438 355.326 492.397 348.912 493.185 347.452C495.322 343.486 494.228 336.253 493.633 332.011C492.826 326.271 489.991 322.529 486.951 317.814C485.236 315.155 484.353 312.259 482.945 309.46C481.684 306.961 479.265 304.891 478.535 302.143C479.002 302.316 479.438 302.54 479.847 302.822C477.223 298.453 473.511 294.999 471.764 290.111C471.572 289.566 468.327 277.893 466.958 280.456C467.034 280.309 465.895 275.645 465.434 275.42C466.753 275.779 467.022 274.863 466.734 273.755C466.465 273.793 466.177 273.21 466.535 273.056C466.196 272.774 466.017 272.441 466.273 272.557C466.068 272.326 465.831 272.134 465.562 271.98C465.626 271.929 465.684 271.877 465.748 271.82C465.646 271.531 465.658 271.519 466.151 271.487C466.362 271.025 466.9 270.769 467.137 271.141C467.45 270.442 467.764 269.75 468.084 269.052C467.636 269.161 467.028 268.053 467.982 268.251C467.758 267.559 468.558 267.284 468.11 265.522C467.854 265.721 468.122 264.804 468.711 264.894C468.865 264.17 470.804 256.61 470.919 256.54C472.09 255.828 472.334 256.405 472.865 254.778C472.858 254.637 473.14 254.297 473.306 254.278C473.569 253.894 476.73 252.215 474.862 251.216C474.734 251.145 473.761 251.658 473.793 251.76C474.298 250.729 473.287 251.011 473.966 250.998C477.486 250.908 480.353 247.57 482.247 244.982C483.482 243.29 487.252 240.625 487.713 238.863C487.789 238.562 486.964 237.39 487.028 237.332C487.066 237.294 487.118 237.242 487.169 237.185C488.378 235.801 492.698 228.741 493.389 227.978C494.541 227.69 495.815 227.306 496.89 226.838C499.335 225.768 498.177 227.274 500.167 224.736C502.183 222.167 502.631 218.624 504.98 216.087C504.641 215.869 504.295 215.652 503.956 215.427C504.385 215.184 504.813 214.934 505.242 214.691C505.21 215.017 505.172 215.338 505.14 215.664C506.074 216.247 507.514 213.332 506.791 212.615C507.162 212.698 507.457 212.89 507.687 213.191C507.501 213.307 507.591 213.48 507.476 213.64C509.364 213.883 512.327 210.956 513.146 211.116C513.204 211.366 513.261 211.615 513.319 211.872C514.324 212.544 515.585 208.252 515.002 207.547C515.277 207.727 513.581 206.996 513.37 206.996C513.537 207.483 513.697 207.97 513.863 208.457C513.031 208.482 505.537 210.379 506.068 208.258C506.932 207.944 507.015 207.56 506.324 207.092C506.324 207.086 510.548 210.276 511.943 206.368C511.629 206.195 511.322 206.022 511.009 205.849C512.065 205.548 512.513 204.856 512.34 203.786C511.521 205.253 506.618 202.755 505.793 201.967C507.111 202.005 509.697 202.979 510.714 201.64C509.607 201.903 509.255 201.538 509.658 200.538C506.407 199.417 511.924 200.038 512.173 200.006C512.301 200.307 512.122 200.621 512.257 200.967C511.789 200.878 511.405 201.019 511.111 201.377C512.973 203.511 514.906 202.101 517.089 201.762C516.724 201.557 517.569 199.468 517.511 199.718C517.511 199.718 518.253 198.988 518.247 199.007C518.177 198.981 519.111 198.469 518.983 198.558C520.916 198.315 519.847 193.657 518.317 193.401C516.065 193.029 516.935 197.123 514.945 197.533C515.386 196.399 515.444 193.785 515.809 193.67C515.469 193.254 508.954 195.009 508.013 195.56C508.327 193.741 508.545 192.773 509.428 193.055C509.965 193.228 510.849 193.99 511.514 193.683C513.197 192.901 510.669 192.049 510.298 191.351C510.945 191.87 515.137 191.69 514.657 190.749C514.298 190.684 513.94 190.627 513.581 190.563C513.805 189.627 515.092 190.351 515.533 190.492C515.508 190.044 515.489 189.595 515.463 189.153C515.911 189.55 512.161 185.783 515.073 185.194C515.073 190.191 520.257 192.824 522.196 196.944C523.169 199.02 523.572 201.108 521.94 202.966C521.345 203.645 517.869 204.19 518.701 205.772C523.386 201.691 525.082 200.756 521.543 194.439C520.103 191.87 515.655 181.35 512.673 180.523C512.244 180.863 512.308 181.164 512.852 181.42C512.391 180.933 510.516 180.306 509.85 180.485C509.889 181.196 510.221 181.715 510.855 182.055C510.177 181.92 509.633 182.131 509.229 182.682C509.191 182.484 509.204 182.381 509.281 182.208C508.833 182.202 508.391 182.189 507.943 182.183C509.153 179.716 503.111 178.774 501.869 178.031C502.145 177.602 502.42 177.173 502.689 176.743C503.098 177.724 509.249 181.01 510.087 179.78C511.335 177.941 504.397 176.058 503.969 174.661C504.833 175.193 506.849 176.974 507.975 176.372C507.975 176.372 506.887 174.226 506.919 174.021C507.412 174.379 508.282 175.834 509.082 175.59C509.069 172.662 506.401 172.669 504.519 171.387C502.388 169.933 500.826 168.594 498.727 166.307C501.133 167.332 507.457 171.977 507.693 171.637C508.186 170.945 507.233 169.081 506.932 168.491C507.22 168.421 507.508 168.351 507.796 168.28C507.565 168.037 507.329 167.793 507.098 167.556C507.277 167.537 507.437 167.479 507.585 167.377C507.457 168.376 502.58 164.859 502.004 165.051C502.074 165.397 502.151 165.737 502.221 166.083C500.487 166.294 499.661 163.321 498.401 162.962C497.133 162.597 496.097 164.263 494.586 163.693C494.874 163.654 495.143 163.565 495.399 163.43C495.009 163.135 494.612 162.834 494.221 162.54C494.484 162.655 494.746 162.77 495.009 162.879C494.529 162.04 494.868 158.567 495.61 159.625C495.866 159.567 496.007 158.888 495.77 158.702C496.493 158.151 496.961 157.44 497.178 156.575C497.921 158.279 495.834 158.51 496.045 160.124C496.276 159.906 496.199 159.977 496.429 159.759C496.237 160.111 495.373 163.315 495.994 163.27C496.314 163.18 497.639 161.553 497.869 160.97C497.812 161.482 499.815 164.071 500.026 163.776C500.103 163.501 500.186 163.232 500.263 162.956C500.647 163.334 501.025 163.712 501.409 164.09C501.421 163.725 501.434 163.366 501.441 163.001C501.754 163.039 502.074 163.084 502.388 163.123C501.85 164.378 502.567 164.917 504.519 164.731C504.525 164.398 504.532 164.064 504.538 163.731C504.877 164.673 505.505 165.333 506.426 165.705C507.258 162.559 502.605 162.258 501.268 160.483C501.517 160.816 504.717 161.726 504.762 161.579C505.172 160.304 502.644 153.551 500.948 153.737C501.575 153.307 502.196 152.885 502.823 152.455C502.33 152.314 501.844 152.173 501.351 152.032C501.697 151.975 502.042 151.911 502.388 151.853C502.465 151.232 500.001 150.354 499.725 149.688C501.249 151.956 502.433 147.247 502.273 147.163C502.58 147.497 502.989 146.958 502.887 146.363C503.399 147.497 505.217 143.774 505.767 143.819C505.677 144.248 505.588 144.678 505.505 145.113C506.65 145.235 506.215 143.563 507.06 143.287C506.81 143.954 506.913 144.562 507.361 145.12C507.156 145.549 505.313 144.927 505.697 146.061C506.317 146.125 506.938 146.196 507.553 146.26C507.597 146.446 500.973 148.47 504.506 151.763C503.553 150.873 505.697 149.316 506.535 149.713C506.842 150.348 503.431 153.038 505.396 153.474C505.78 152.769 506.157 152.756 506.522 153.436C506.535 154.397 505.108 154.243 504.57 154.435C504.218 155.55 506.01 156.53 506.708 156.171C506.452 157.696 505.377 158.305 505.473 158.708C505.953 158.696 506.189 158.715 506.785 158.375C506.119 158.644 508.525 167.55 508.999 160.547C509.114 160.316 510.861 162.552 510.631 161.399C511.93 161.508 510.33 163.18 510.209 163.469C510.311 163.232 511.937 162.687 512.135 162.828C512.167 163.11 510.695 163.84 511.226 164.237C511.565 164.052 511.898 163.866 512.237 163.68C512.263 163.693 511.297 165.378 511.367 165.57C512.007 165.916 513.268 165.551 513.933 165.416C512.628 166.698 510.849 175.622 512.903 176.596C515.38 177.775 515.853 169.087 515.943 168.139C516.289 164.257 519.853 158.593 518.234 154.909C510.324 149.899 508.372 142.41 510.426 140.891Z" fill="#DCDCE4"/>
<circle cx="62" cy="32" r="32" fill="#7860FF"/>
<circle cx="39" cy="56" r="12" fill="#7860FF"/>
<circle cx="12" cy="150" r="12" fill="#7860FF"/>
<circle cx="342" cy="152" r="12" fill="#7860FF"/>
<circle cx="472" cy="186" r="12" fill="#7860FF"/>
<circle cx="493" cy="139" r="12" fill="#7860FF"/>
<circle cx="544" cy="99" r="12" fill="#7860FF"/>
<circle cx="45" cy="213" r="12" fill="#7860FF"/>
<circle cx="250" cy="119" r="20" fill="#7860FF"/>
<circle cx="374" cy="130" r="20" fill="#7860FF"/>
<path d="M59.1233 26.8182H57.3683L54.8378 28.4439V30.1342L57.2192 28.6129H57.2789V37H59.1233V26.8182ZM65.3627 37.1392C67.5402 37.1392 69.1262 35.8913 69.1212 34.1712C69.1262 32.8984 68.3307 31.9837 66.9039 31.7798V31.7003C68.0075 31.4616 68.7483 30.6413 68.7433 29.4979C68.7483 27.9467 67.4259 26.679 65.3925 26.679C63.4138 26.679 61.8825 27.8572 61.8428 29.5625H63.6176C63.6475 28.7074 64.4429 28.1754 65.3825 28.1754C66.3321 28.1754 66.9635 28.7521 66.9585 29.6072C66.9635 30.4972 66.2277 31.0888 65.1737 31.0888H64.2739V32.5107H65.1737C66.4614 32.5107 67.227 33.157 67.222 34.0767C67.227 34.9766 66.4465 35.593 65.3577 35.593C64.3335 35.593 63.5431 35.0611 63.4983 34.2308H61.629C61.6787 35.951 63.2149 37.1392 65.3627 37.1392Z" fill="white"/>
<path d="M40.1829 50.8182H38.4279L35.8974 52.4439V54.1342L38.2788 52.6129H38.3384V61H40.1829V50.8182Z" fill="white"/>
<path d="M247.057 124H254.037V122.459H249.603V122.389L251.358 120.604C253.336 118.705 253.883 117.781 253.883 116.632C253.883 114.927 252.496 113.679 250.448 113.679C248.429 113.679 246.998 114.932 246.998 116.866H248.752C248.752 115.827 249.409 115.175 250.423 115.175C251.392 115.175 252.113 115.767 252.113 116.727C252.113 117.577 251.596 118.183 250.592 119.202L247.057 122.668V124Z" fill="white"/>
<path d="M343.183 146.818H341.428L338.897 148.444V150.134L341.279 148.613H341.338V157H343.183V146.818Z" fill="white"/>
<path d="M473.183 180.818H471.428L468.897 182.444V184.134L471.279 182.613H471.338V191H473.183V180.818Z" fill="white"/>
<path d="M494.183 133.818H492.428L489.897 135.444V137.134L492.279 135.613H492.338V144H494.183V133.818Z" fill="white"/>
<path d="M545.183 93.8182H543.428L540.897 95.4439V97.1342L543.279 95.6129H543.338V104H545.183V93.8182Z" fill="white"/>
<path d="M370.057 135H377.037V133.459H372.603V133.389L374.358 131.604C376.336 129.705 376.883 128.781 376.883 127.632C376.883 125.927 375.496 124.679 373.448 124.679C371.429 124.679 369.998 125.932 369.998 127.866H371.752C371.752 126.827 372.409 126.175 373.423 126.175C374.392 126.175 375.113 126.767 375.113 127.727C375.113 128.577 374.596 129.183 373.592 130.202L370.057 133.668V135Z" fill="white"/>
<path d="M13.1829 144.818H11.4279L8.89737 146.444V148.134L11.2788 146.613H11.3384V155H13.1829V144.818Z" fill="white"/>
<path d="M46.1829 207.818H44.4279L41.8974 209.444V211.134L44.2788 209.613H44.3384V218H46.1829V207.818Z" fill="white"/>
</svg>
