<svg width="583" height="520" viewBox="0 0 583 520" fill="none" xmlns="http://www.w3.org/2000/svg">
<rect x="1.06449" width="212.739" height="219.467" rx="19.2409" transform="matrix(0.866259 -0.499595 0.866259 0.499595 102.142 355.183)" stroke="#DFDFE5" stroke-width="1.22884"/>
<rect width="331.295" height="341.713" rx="14.4486" transform="matrix(0.866259 -0.499595 0.866259 0.499595 0 338.342)" fill="white"/>
<path d="M23.1231 369.09L274 514.489V494.763L23.1231 349.363C17.0709 345.855 14.0299 341.263 14 336.666V356.393C14.0299 360.99 17.0709 365.582 23.1231 369.09Z" fill="url(#paint0_linear)"/>
<path d="M295.622 500.296C303.774 500.364 311.963 498.604 318.184 495.017V514.719C311.963 518.306 303.774 520.066 295.622 519.998C287.773 519.933 279.959 518.173 273.97 514.719V495.017C279.959 498.471 287.773 500.23 295.622 500.296Z" fill="url(#paint1_linear)"/>
<path d="M318.011 514.72L560.785 374.705C566.911 371.172 569.964 366.537 569.942 361.907V342.303C569.92 346.901 566.868 351.495 560.785 355.003L318.011 495.018V514.72Z" fill="#8B8B90"/>
<g opacity="0.8">
<path d="M23.1552 359.114C10.9483 352.073 10.9483 340.658 23.1552 333.617L265.886 299.51C278.093 292.469 297.884 292.469 310.091 299.51L561.845 338.821C574.052 345.862 574.052 357.277 561.845 364.318L319.114 504.32C306.907 511.361 287.116 511.361 274.909 504.32L23.1552 359.114Z" fill="#F2F2F4"/>
<path d="M23.1552 352.863C10.9483 345.823 10.9483 334.407 23.1552 327.367L265.886 187.365C278.093 180.324 297.884 180.324 310.091 187.365L561.845 332.571C574.052 339.612 574.052 351.027 561.845 358.068L319.114 498.07C306.907 505.11 287.116 505.11 274.909 498.07L23.1552 352.863Z" fill="#F2F2F4"/>
<path d="M23.1555 369.262L274.909 514.469V496.775L23.1555 351.569C17.0822 348.066 14.0306 343.48 14.0006 338.889V356.582C14.0306 361.173 17.0822 365.759 23.1555 369.262Z" fill="#F2F2F4"/>
<path d="M296.621 502.054C304.772 502.122 312.96 500.362 319.179 496.775V514.469C312.96 518.056 304.772 519.815 296.621 519.747C288.774 519.682 280.961 517.922 274.973 514.469V496.775C280.961 500.229 288.774 501.989 296.621 502.054Z" fill="#F2F2F4"/>
<path d="M319.006 514.47L561.736 374.468C567.862 370.935 570.913 366.3 570.892 361.67V344.075C570.87 348.673 567.818 353.267 561.736 356.774L319.006 496.776V514.47Z" fill="#F2F2F4"/>
</g>
<rect width="187.526" height="193.423" rx="14.4486" transform="matrix(0.866259 -0.499595 0.866259 0.499595 127 344.985)" fill="#DFDFE5"/>
<rect width="187.526" height="193.423" rx="14.4486" transform="matrix(0.866259 -0.499595 0.866259 0.499595 127 281.501)" fill="white"/>
<path d="M139.513 357.946L282.041 440.146V370.184L139.513 287.985C136.075 286.002 134.347 283.406 134.33 280.807V350.768C134.347 353.367 136.075 355.963 139.513 357.946Z" fill="url(#paint2_linear)"/>
<path d="M294.333 373.172C298.948 373.211 303.583 372.215 307.104 370.184V440.146C303.583 442.177 298.948 443.173 294.333 443.134C289.891 443.097 285.467 442.101 282.078 440.146V370.184C285.467 372.139 289.891 373.135 294.333 373.172Z" fill="url(#paint3_linear)"/>
<path d="M307.006 440.147L444.426 360.893C447.893 358.893 449.621 356.27 449.609 353.649V283.742C449.596 286.345 447.869 288.946 444.426 290.931L307.006 370.185V440.147Z" fill="#8B8B90"/>
<g opacity="0.7">
<path d="M140.183 352.969C133.272 348.983 133.272 342.521 140.183 338.536L277.603 259.282C284.513 255.296 295.718 255.296 302.629 259.282L445.157 341.482C452.068 345.467 452.068 351.93 445.157 355.915L307.737 435.169C300.826 439.154 289.622 439.154 282.711 435.169L140.183 352.969Z" fill="#196FE1"/>
<path d="M140.183 289.485C133.272 285.499 133.272 279.037 140.183 275.052L277.603 195.798C284.513 191.812 295.718 191.812 302.629 195.798L445.157 277.998C452.068 281.983 452.068 288.445 445.157 292.431L307.737 371.685C300.826 375.67 289.622 375.67 282.711 371.685L140.183 289.485Z" fill="#196FE1"/>
<path d="M140.183 358.714L282.711 440.914V370.952L140.183 288.752C136.745 286.769 135.017 284.173 135 281.574V351.536C135.017 354.135 136.745 356.731 140.183 358.714Z" fill="#196FE1"/>
<path d="M295.003 373.94C299.618 373.979 304.253 372.983 307.774 370.952V440.914C304.253 442.944 299.618 443.94 295.003 443.902C290.561 443.865 286.137 442.869 282.747 440.914V370.952C286.137 372.907 290.561 373.903 295.003 373.94Z" fill="#196FE1"/>
<path d="M307.676 440.914L445.095 361.661C448.563 359.661 450.291 357.037 450.279 354.416V284.51C450.266 287.113 448.539 289.713 445.095 291.699L307.676 370.953V440.914Z" fill="#196FE1"/>
</g>
<rect width="187.526" height="193.423" rx="14.4486" transform="matrix(0.866259 -0.499595 0.866259 0.499595 127 251.078)" fill="#DFDFE5"/>
<rect width="187.526" height="193.423" rx="14.4486" transform="matrix(0.866259 -0.499595 0.866259 0.499595 127 187.594)" fill="white"/>
<path d="M139.513 264.04L282.041 346.239V276.278L139.513 194.078C136.075 192.095 134.347 189.499 134.33 186.9V256.862C134.347 259.461 136.075 262.057 139.513 264.04Z" fill="url(#paint4_linear)"/>
<path d="M294.333 279.266C298.948 279.304 303.583 278.308 307.104 276.278V346.239C303.583 348.27 298.948 349.266 294.333 349.228C289.891 349.19 285.467 348.194 282.078 346.239V276.278C285.467 278.233 289.891 279.229 294.333 279.266Z" fill="url(#paint5_linear)"/>
<path d="M307.006 346.24L444.426 266.986C447.893 264.986 449.621 262.363 449.609 259.742V189.836C449.596 192.438 447.869 195.039 444.426 197.024L307.006 276.278V346.24Z" fill="#8B8B90"/>
<path d="M140.183 259.062C133.272 255.077 133.272 248.615 140.183 244.629L277.603 165.375C284.513 161.39 295.718 161.39 302.629 165.375L445.157 247.575C452.068 251.561 452.068 258.023 445.157 262.008L307.737 341.262C300.826 345.248 289.622 345.248 282.711 341.262L140.183 259.062Z" fill="#196FE1"/>
<path d="M140.183 195.578C133.272 191.592 133.272 185.13 140.183 181.145L277.603 101.891C284.513 97.9054 295.718 97.9054 302.629 101.891L445.157 184.091C452.068 188.077 452.068 194.539 445.157 198.524L307.737 277.778C300.826 281.764 289.622 281.764 282.711 277.778L140.183 195.578Z" fill="#196FE1"/>
<path d="M140.183 264.807L282.711 347.007V277.045L140.183 194.845C136.745 192.862 135.017 190.266 135 187.667V257.629C135.017 260.228 136.745 262.824 140.183 264.807Z" fill="#196FE1"/>
<path d="M295.003 280.033C299.618 280.072 304.253 279.076 307.774 277.045V347.007C304.253 349.038 299.618 350.034 295.003 349.995C290.561 349.958 286.137 348.962 282.747 347.007V277.045C286.137 279 290.561 279.996 295.003 280.033Z" fill="#196FE1"/>
<path d="M307.676 347.008L445.095 267.754C448.563 265.754 450.291 263.131 450.279 260.509V190.603C450.266 193.206 448.539 195.806 445.095 197.792L307.676 277.046V347.008Z" fill="#196FE1"/>
<rect width="187.526" height="193.423" rx="14.4486" transform="matrix(0.866259 -0.499595 0.866259 0.499595 127 251.078)" fill="#DFDFE5"/>
<rect width="187.526" height="193.423" rx="14.4486" transform="matrix(0.866259 -0.499595 0.866259 0.499595 127 187.594)" fill="white"/>
<path d="M139.513 264.04L282.041 346.239V276.278L139.513 194.078C136.075 192.095 134.347 189.499 134.33 186.9V256.862C134.347 259.461 136.075 262.057 139.513 264.04Z" fill="url(#paint6_linear)"/>
<path d="M294.333 279.266C298.948 279.304 303.583 278.308 307.104 276.278V346.239C303.583 348.27 298.948 349.266 294.333 349.228C289.891 349.19 285.467 348.194 282.078 346.239V276.278C285.467 278.233 289.891 279.229 294.333 279.266Z" fill="url(#paint7_linear)"/>
<path d="M307.006 346.24L444.426 266.986C447.893 264.986 449.621 262.363 449.609 259.742V189.836C449.596 192.438 447.869 195.039 444.426 197.024L307.006 276.278V346.24Z" fill="#8B8B90"/>
<g opacity="0.7" filter="url(#filter0_d)">
<path d="M140.183 259.062C133.272 255.077 133.272 248.615 140.183 244.629L277.603 165.375C284.513 161.39 295.718 161.39 302.629 165.375L445.157 247.575C452.068 251.561 452.068 258.023 445.157 262.008L307.737 341.262C300.826 345.248 289.622 345.248 282.711 341.262L140.183 259.062Z" fill="#4092FD"/>
<path d="M140.183 195.578C133.272 191.592 133.272 185.13 140.183 181.145L277.603 101.891C284.513 97.9054 295.718 97.9054 302.629 101.891L445.157 184.091C452.068 188.077 452.068 194.539 445.157 198.524L307.737 277.778C300.826 281.764 289.622 281.764 282.711 277.778L140.183 195.578Z" fill="#4092FD"/>
<path d="M140.183 264.807L282.711 347.007V277.045L140.183 194.845C136.745 192.862 135.017 190.266 135 187.667V257.629C135.017 260.228 136.745 262.824 140.183 264.807Z" fill="#4092FD"/>
<path d="M295.003 280.033C299.618 280.072 304.253 279.076 307.774 277.045V347.007C304.253 349.038 299.618 350.034 295.003 349.995C290.561 349.958 286.137 348.962 282.747 347.007V277.045C286.137 279 290.561 279.996 295.003 280.033Z" fill="#4092FD"/>
<path d="M307.676 347.008L445.095 267.754C448.563 265.754 450.291 263.131 450.279 260.509V190.603C450.266 193.206 448.539 195.806 445.095 197.792L307.676 277.046V347.008Z" fill="#4092FD"/>
</g>
<rect width="187.526" height="193.423" rx="14.4486" transform="matrix(0.866259 -0.499595 0.866259 0.499595 127 157.171)" fill="#DFDFE5"/>
<rect width="187.526" height="193.423" rx="14.4486" transform="matrix(0.866259 -0.499595 0.866259 0.499595 127 93.687)" fill="white"/>
<path d="M139.513 170.133L282.041 252.333V182.371L139.513 100.171C136.075 98.1879 134.347 95.5919 134.33 92.9929V162.955C134.347 165.554 136.075 168.15 139.513 170.133Z" fill="url(#paint8_linear)"/>
<path d="M294.333 185.359C298.948 185.397 303.583 184.401 307.104 182.371V252.333C303.583 254.363 298.948 255.359 294.333 255.321C289.891 255.284 285.467 254.288 282.078 252.333V182.371C285.467 184.326 289.891 185.322 294.333 185.359Z" fill="url(#paint9_linear)"/>
<path d="M307.006 252.333L444.426 173.08C447.893 171.08 449.621 168.456 449.609 165.835V95.9289C449.596 98.5315 447.869 101.132 444.426 103.118L307.006 182.371V252.333Z" fill="#8B8B90"/>
<g opacity="0.6" filter="url(#filter1_d)">
<path d="M140.183 165.155C133.272 161.17 133.272 154.708 140.183 150.722L277.603 71.4684C284.513 67.4827 295.718 67.4827 302.629 71.4684L445.157 153.668C452.068 157.654 452.068 164.116 445.157 168.102L307.737 247.355C300.826 251.341 289.622 251.341 282.711 247.355L140.183 165.155Z" fill="#76B1FE"/>
<path d="M140.183 101.671C133.272 97.6856 133.272 91.2235 140.183 87.2379L277.603 7.98424C284.513 3.99858 295.718 3.99858 302.629 7.98424L445.157 90.184C452.068 94.1697 452.068 100.632 445.157 104.617L307.737 183.871C300.826 187.857 289.622 187.857 282.711 183.871L140.183 101.671Z" fill="#76B1FE"/>
<path d="M140.183 170.9L282.711 253.1V183.138L140.183 100.939C136.745 98.9555 135.017 96.3595 135 93.7605V163.722C135.017 166.321 136.745 168.917 140.183 170.9Z" fill="#76B1FE"/>
<path d="M295.003 186.126C299.618 186.165 304.253 185.169 307.774 183.138V253.1C304.253 255.131 299.618 256.127 295.003 256.088C290.561 256.051 286.137 255.055 282.747 253.1V183.138C286.137 185.093 290.561 186.089 295.003 186.126Z" fill="#76B1FE"/>
<path d="M307.676 253.101L445.095 173.847C448.563 171.847 450.291 169.224 450.279 166.603V96.6964C450.266 99.2991 448.539 101.9 445.095 103.885L307.676 183.139V253.101Z" fill="#76B1FE"/>
</g>
<path d="M327.791 465.846L330.211 464.45L324.572 461.198L327.861 459.301C331.581 457.156 331.174 454.798 328.214 453.091C325.261 451.388 321.197 451.149 317.469 453.299L311.752 456.596L327.791 465.846ZM322.52 460.015L316.247 456.397L319.286 454.645C321.682 453.262 323.961 453.448 325.778 454.496C327.595 455.543 327.955 456.88 325.59 458.244L322.52 460.015Z" fill="#A7A7AC"/>
<path d="M328.012 447.218L325.67 448.569L341.709 457.819L344.051 456.468L328.012 447.218Z" fill="#A7A7AC"/>
<path d="M350.968 452.786C352.957 451.639 353.067 450.41 352.613 449.633L352.707 449.579L354.351 450.528L356.638 449.209L348.65 444.602C345.149 442.583 341.696 443.771 339.785 444.873C337.608 446.128 336.48 447.791 337.889 449.507L340.591 448.527C340.082 447.836 340.137 446.856 341.711 445.948C343.223 445.076 344.789 445.085 346.152 445.871L346.207 445.903C347.06 446.395 346.167 446.892 344.256 448.283C342.244 449.751 340.505 451.44 343.238 453.016C345.604 454.38 348.681 454.105 350.968 452.786ZM349.598 451.408C348.274 452.172 346.723 452.379 345.564 451.711C344.311 450.988 344.977 450.09 346.152 449.204C346.81 448.707 348.407 447.551 348.407 447.163L349.958 448.057C351.383 448.879 351.548 450.284 349.598 451.408Z" fill="#A7A7AC"/>
<path d="M353.343 437.234L350.876 438.657L347.994 436.995L345.652 438.345L348.534 440.007L346.772 441.023L348.652 442.107L350.414 441.091L357.517 445.188C359.694 446.453 362.42 446.1 364.229 445.012C364.965 444.578 365.325 444.208 365.498 443.991L363.14 443.119C363.015 443.228 362.796 443.435 362.42 443.652C361.66 444.09 360.728 444.339 359.373 443.557L352.756 439.741L355.223 438.318L353.343 437.234Z" fill="#A7A7AC"/>
<path d="M361.658 432.438L359.066 433.933L357.985 433.31C356.92 432.696 356.779 432.109 357.922 431.449C358.408 431.169 358.862 431.034 359.152 430.948L357.805 429.539C357.351 429.656 356.474 429.936 355.526 430.483C353.623 431.58 353.067 433.184 355.322 434.485L356.716 435.288L354.86 436.359L356.74 437.443L358.596 436.372L368.746 442.226L371.095 440.871L360.945 435.017L363.538 433.522L361.658 432.438Z" fill="#A7A7AC"/>
<path d="M380.939 435.474C384.33 433.518 384.064 430.808 380.344 428.663C376.601 426.504 371.902 426.35 368.511 428.306C365.12 430.261 365.386 432.971 369.129 435.13C372.849 437.276 377.548 437.429 380.939 435.474ZM378.981 434.335C376.765 435.614 373.797 435.094 371.487 433.762C369.184 432.434 368.26 430.709 370.476 429.43C372.677 428.161 375.669 428.694 377.971 430.022C380.281 431.354 381.182 433.066 378.981 434.335Z" fill="#A7A7AC"/>
<path d="M388.918 430.592L391.259 429.242L383.913 425.005C382.339 424.097 382.417 422.742 384.078 421.785C384.563 421.505 385.198 421.238 385.44 421.162L383.201 419.87C382.934 419.987 382.449 420.24 382.151 420.412C380.742 421.225 380.334 422.381 381.188 423.379L381.063 423.451L379.152 422.349L376.888 423.655L388.918 430.592Z" fill="#A7A7AC"/>
<path d="M397.382 425.711L399.723 424.36L392.307 420.083C390.686 419.148 390.693 417.843 392.025 417.075C393.325 416.325 395.087 416.303 396.395 417.057L404.391 421.669L406.725 420.323L399.057 415.901C397.609 415.065 397.444 413.95 398.971 413.069C400.209 412.355 401.916 412.166 403.545 413.105L411.392 417.631L413.734 416.28L405.667 411.628C402.918 410.043 400.013 410.138 397.836 411.393C396.105 412.391 395.635 413.62 396.34 414.695L396.215 414.767C394.374 414.311 392.471 414.487 390.866 415.413C389.276 416.33 388.884 417.468 389.707 418.52L389.558 418.606L387.6 417.477L385.352 418.773L397.382 425.711Z" fill="#A7A7AC"/>
<circle r="5.3058" transform="matrix(0.866259 -0.499595 0.866259 0.499595 302.192 470.839)" fill="#A7A7AC"/>
<path d="M295.686 163.157L293.349 160.378L298.631 157.332L303.444 158.683L305.609 157.434L287.223 152.443L284.866 153.802L293.521 164.406L295.686 163.157ZM292.227 159.045L288.451 154.567L288.556 154.506L296.32 156.684L292.227 159.045Z" fill="white"/>
<path d="M311.206 158.593L313.18 157.454L307.799 154.351L307.918 154.283C308.922 154.45 310.777 154.683 312.625 153.616C315.081 152.2 314.897 150.037 311.615 148.145C308.328 146.249 304.584 146.176 302.135 147.589C300.253 148.674 300.722 149.729 300.999 150.292L300.834 150.388L299.19 149.44L297.263 150.551L311.206 158.593ZM304.267 152.36C302.148 151.138 301.666 149.794 303.389 148.8C305.178 147.768 307.588 148.122 309.602 149.283C311.635 150.456 312.262 151.884 310.5 152.901C308.803 153.879 306.4 153.59 304.267 152.36Z" fill="white"/>
<path d="M322.68 151.975L324.654 150.837L319.274 147.734L319.393 147.665C320.396 147.833 322.251 148.065 324.1 146.999C326.556 145.582 326.371 143.42 323.09 141.527C319.802 139.631 316.059 139.559 313.609 140.972C311.728 142.057 312.196 143.111 312.474 143.675L312.309 143.77L310.665 142.822L308.737 143.934L322.68 151.975ZM315.742 145.742C313.622 144.52 313.14 143.176 314.864 142.182C316.653 141.151 319.062 141.505 321.076 142.666C323.109 143.839 323.737 145.266 321.974 146.283C320.277 147.262 317.874 146.972 315.742 145.742Z" fill="white"/>
<path d="M330.286 134.362C328.299 133.688 326.034 133.806 323.842 135.07C321.551 136.391 321.135 138.025 322.931 139.06C324.37 139.89 326.199 139.94 328.523 139.087L330.616 138.314C331.811 137.876 332.702 137.865 333.336 138.23C334.122 138.683 333.897 139.521 332.603 140.267C331.421 140.949 330.154 141.093 328.919 140.656L327.302 141.923C329.428 142.769 331.93 142.491 334.207 141.177C336.657 139.765 337.053 138.036 335.217 136.977C333.785 136.151 331.989 136.166 329.698 136.993L327.718 137.708C326.338 138.2 325.48 138.261 324.8 137.861C324.014 137.415 324.304 136.608 325.427 135.961C326.655 135.253 327.902 135.317 328.814 135.576L330.286 134.362Z" fill="white"/>
<rect width="28.2748" height="28.2748" rx="3.16284" transform="matrix(0.866259 -0.499595 0.866259 0.499595 208 112.865)" stroke="white" stroke-width="1.50448"/>
<rect width="28.2748" height="28.2748" rx="3.16284" transform="matrix(0.866259 -0.499595 0.866259 0.499595 240.631 131.684)" stroke="white" stroke-width="1.50448"/>
<rect width="28.2748" height="28.2748" rx="3.16284" transform="matrix(0.866259 -0.499595 0.866259 0.499595 240.631 94.0467)" stroke="white" stroke-width="1.50448"/>
<rect width="28.2748" height="28.2748" rx="3.16284" transform="matrix(0.866259 -0.499595 0.866259 0.499595 273.261 112.865)" stroke="white" stroke-width="1.50448"/>
<defs>
<filter id="filter0_d" x="125" y="98.9019" width="335.34" height="273.094" filterUnits="userSpaceOnUse" color-interpolation-filters="sRGB">
<feFlood flood-opacity="0" result="BackgroundImageFix"/>
<feColorMatrix in="SourceAlpha" type="matrix" values="0 0 0 0 0 0 0 0 0 0 0 0 0 0 0 0 0 0 127 0"/>
<feOffset dy="12"/>
<feGaussianBlur stdDeviation="5"/>
<feColorMatrix type="matrix" values="0 0 0 0 0.0957667 0 0 0 0 0.237292 0 0 0 0 0.0460417 0 0 0 0.25 0"/>
<feBlend mode="normal" in2="BackgroundImageFix" result="effect1_dropShadow"/>
<feBlend mode="normal" in="SourceGraphic" in2="effect1_dropShadow" result="shape"/>
</filter>
<filter id="filter1_d" x="125" y="4.995" width="335.34" height="273.094" filterUnits="userSpaceOnUse" color-interpolation-filters="sRGB">
<feFlood flood-opacity="0" result="BackgroundImageFix"/>
<feColorMatrix in="SourceAlpha" type="matrix" values="0 0 0 0 0 0 0 0 0 0 0 0 0 0 0 0 0 0 127 0"/>
<feOffset dy="12"/>
<feGaussianBlur stdDeviation="5"/>
<feColorMatrix type="matrix" values="0 0 0 0 0.0957667 0 0 0 0 0.237292 0 0 0 0 0.0460417 0 0 0 0.25 0"/>
<feBlend mode="normal" in2="BackgroundImageFix" result="effect1_dropShadow"/>
<feBlend mode="normal" in="SourceGraphic" in2="effect1_dropShadow" result="shape"/>
</filter>
<linearGradient id="paint0_linear" x1="24.8598" y1="336.515" x2="263.036" y2="769.553" gradientUnits="userSpaceOnUse">
<stop stop-color="#8B8B90"/>
<stop offset="0.528847" stop-color="white"/>
</linearGradient>
<linearGradient id="paint1_linear" x1="273.792" y1="536.758" x2="318.47" y2="535.611" gradientUnits="userSpaceOnUse">
<stop stop-color="white"/>
<stop offset="1" stop-color="#8B8B90"/>
</linearGradient>
<linearGradient id="paint2_linear" x1="140.5" y1="280.721" x2="274.795" y2="526.09" gradientUnits="userSpaceOnUse">
<stop stop-color="#8B8B90"/>
<stop offset="0.528847" stop-color="white"/>
</linearGradient>
<linearGradient id="paint3_linear" x1="281.977" y1="393.811" x2="307.266" y2="393.162" gradientUnits="userSpaceOnUse">
<stop stop-color="white"/>
<stop offset="1" stop-color="#8B8B90"/>
</linearGradient>
<linearGradient id="paint4_linear" x1="140.5" y1="186.814" x2="274.795" y2="432.183" gradientUnits="userSpaceOnUse">
<stop stop-color="#8B8B90"/>
<stop offset="0.528847" stop-color="white"/>
</linearGradient>
<linearGradient id="paint5_linear" x1="281.977" y1="299.905" x2="307.266" y2="299.255" gradientUnits="userSpaceOnUse">
<stop stop-color="white"/>
<stop offset="1" stop-color="#8B8B90"/>
</linearGradient>
<linearGradient id="paint6_linear" x1="140.5" y1="186.814" x2="274.795" y2="432.183" gradientUnits="userSpaceOnUse">
<stop stop-color="#8B8B90"/>
<stop offset="0.528847" stop-color="white"/>
</linearGradient>
<linearGradient id="paint7_linear" x1="281.977" y1="299.905" x2="307.266" y2="299.255" gradientUnits="userSpaceOnUse">
<stop stop-color="white"/>
<stop offset="1" stop-color="#8B8B90"/>
</linearGradient>
<linearGradient id="paint8_linear" x1="140.5" y1="92.9076" x2="274.795" y2="338.276" gradientUnits="userSpaceOnUse">
<stop stop-color="#8B8B90"/>
<stop offset="0.528847" stop-color="white"/>
</linearGradient>
<linearGradient id="paint9_linear" x1="281.977" y1="205.998" x2="307.266" y2="205.349" gradientUnits="userSpaceOnUse">
<stop stop-color="white"/>
<stop offset="1" stop-color="#8B8B90"/>
</linearGradient>
</defs>
</svg>
