<svg width="605" height="433" viewBox="0 0 605 433" fill="none" xmlns="http://www.w3.org/2000/svg">
<g opacity="0.9" filter="url(#filter0_d)">
<path d="M34.2388 317.827C29.1363 315.713 29.1363 312.287 34.2388 310.173L209.776 237.463C214.878 235.35 223.151 235.35 228.254 237.463L403.791 310.173C408.893 312.287 408.893 315.713 403.791 317.827L228.253 390.537C223.151 392.65 214.878 392.65 209.776 390.537L34.2388 317.827Z" fill="#7860FF"/>
</g>
<text fill="#9999AF" xml:space="preserve" style="white-space: pre" font-family="Inter" font-size="14" letter-spacing="0em"><tspan x="491" y="355.591">Secure data in&#10;</tspan><tspan x="491" y="376.591">transit &#38; storage</tspan></text>
<text fill="#9999AF" xml:space="preserve" style="white-space: pre" font-family="Inter" font-size="14" letter-spacing="0em"><tspan x="491" y="283.591">Compliant data&#10;</tspan><tspan x="491" y="304.591">infrastructure</tspan></text>
<text transform="matrix(0.92388 -0.382683 0.92388 0.382683 198 363)" fill="white" xml:space="preserve" style="white-space: pre" font-family="Inter" font-size="20" font-weight="600" letter-spacing="0em"><tspan x="0.0800781" y="22.2727">Security</tspan></text>
<text fill="#9999AF" xml:space="preserve" style="white-space: pre" font-family="Inter" font-size="14" letter-spacing="0em"><tspan x="491" y="211.591">Tamper-resistant&#10;</tspan><tspan x="491" y="232.591">audit log</tspan></text>
<text fill="#9999AF" xml:space="preserve" style="white-space: pre" font-family="Inter" font-size="14" letter-spacing="0em"><tspan x="491" y="139.591">Role-based&#10;</tspan><tspan x="491" y="160.591">access control</tspan></text>
<rect x="393" y="135" width="82" height="1" fill="#DFDFE9"/>
<rect x="393" y="207" width="82" height="1" fill="#DFDFE9"/>
<rect x="393" y="279" width="82" height="1" fill="#DFDFE9"/>
<rect x="393" y="351" width="82" height="1" fill="#DFDFE9"/>
<g opacity="0.9" filter="url(#filter1_d)">
<path d="M34.2388 246.19C29.1363 244.077 29.1363 240.65 34.2388 238.537L209.776 165.827C214.878 163.713 223.151 163.713 228.254 165.827L403.791 238.537C408.893 240.65 408.893 244.077 403.791 246.19L228.253 318.9C223.151 321.014 214.878 321.014 209.776 318.9L34.2388 246.19Z" fill="#75AEF9"/>
</g>
<text transform="matrix(0.92388 -0.382683 0.92388 0.382683 198 292)" fill="white" xml:space="preserve" style="white-space: pre" font-family="Inter" font-size="20" font-weight="600" letter-spacing="0em"><tspan x="0.00976562" y="22.2727">Compliance</tspan></text>
<g opacity="0.9" filter="url(#filter2_d)">
<path d="M34.2388 174.19C29.1363 172.077 29.1363 168.65 34.2388 166.537L209.776 93.8268C214.878 91.7133 223.151 91.7133 228.254 93.8268L403.791 166.537C408.893 168.65 408.893 172.077 403.791 174.19L228.253 246.9C223.151 249.014 214.878 249.014 209.776 246.9L34.2388 174.19Z" fill="#F4899E"/>
</g>
<text transform="matrix(0.92388 -0.382683 0.92388 0.382683 198 220)" fill="white" xml:space="preserve" style="white-space: pre" font-family="Inter" font-size="20" font-weight="600" letter-spacing="0em"><tspan x="0" y="22.2727">Audit</tspan></text>
<g opacity="0.9" filter="url(#filter3_d)">
<path d="M34.2388 102.19C29.1363 100.077 29.1363 96.6502 34.2388 94.5367L209.776 21.8268C214.878 19.7133 223.151 19.7133 228.254 21.8268L403.791 94.5367C408.893 96.6502 408.893 100.077 403.791 102.19L228.253 174.9C223.151 177.014 214.878 177.014 209.776 174.9L34.2388 102.19Z" fill="#FFD25F"/>
</g>
<text transform="matrix(0.92388 -0.382683 0.92388 0.382683 198 148)" fill="white" xml:space="preserve" style="white-space: pre" font-family="Inter" font-size="20" font-weight="600" letter-spacing="0em"><tspan x="0.482422" y="22.2727">Access</tspan></text>
<defs>
<filter id="filter0_d" x="0.411961" y="215.878" width="437.205" height="216.244" filterUnits="userSpaceOnUse" color-interpolation-filters="sRGB">
<feFlood flood-opacity="0" result="BackgroundImageFix"/>
<feColorMatrix in="SourceAlpha" type="matrix" values="0 0 0 0 0 0 0 0 0 0 0 0 0 0 0 0 0 0 127 0"/>
<feOffset dy="10"/>
<feGaussianBlur stdDeviation="15"/>
<feColorMatrix type="matrix" values="0 0 0 0 0.188235 0 0 0 0 0.184314 0 0 0 0 0.223529 0 0 0 0.05 0"/>
<feBlend mode="normal" in2="BackgroundImageFix" result="effect1_dropShadow"/>
<feBlend mode="normal" in="SourceGraphic" in2="effect1_dropShadow" result="shape"/>
</filter>
<filter id="filter1_d" x="0.411961" y="144.242" width="437.205" height="216.244" filterUnits="userSpaceOnUse" color-interpolation-filters="sRGB">
<feFlood flood-opacity="0" result="BackgroundImageFix"/>
<feColorMatrix in="SourceAlpha" type="matrix" values="0 0 0 0 0 0 0 0 0 0 0 0 0 0 0 0 0 0 127 0"/>
<feOffset dy="10"/>
<feGaussianBlur stdDeviation="15"/>
<feColorMatrix type="matrix" values="0 0 0 0 0.188235 0 0 0 0 0.184314 0 0 0 0 0.223529 0 0 0 0.05 0"/>
<feBlend mode="normal" in2="BackgroundImageFix" result="effect1_dropShadow"/>
<feBlend mode="normal" in="SourceGraphic" in2="effect1_dropShadow" result="shape"/>
</filter>
<filter id="filter2_d" x="0.411961" y="72.2417" width="437.205" height="216.244" filterUnits="userSpaceOnUse" color-interpolation-filters="sRGB">
<feFlood flood-opacity="0" result="BackgroundImageFix"/>
<feColorMatrix in="SourceAlpha" type="matrix" values="0 0 0 0 0 0 0 0 0 0 0 0 0 0 0 0 0 0 127 0"/>
<feOffset dy="10"/>
<feGaussianBlur stdDeviation="15"/>
<feColorMatrix type="matrix" values="0 0 0 0 0.188235 0 0 0 0 0.184314 0 0 0 0 0.223529 0 0 0 0.05 0"/>
<feBlend mode="normal" in2="BackgroundImageFix" result="effect1_dropShadow"/>
<feBlend mode="normal" in="SourceGraphic" in2="effect1_dropShadow" result="shape"/>
</filter>
<filter id="filter3_d" x="0.411961" y="0.241699" width="437.205" height="216.244" filterUnits="userSpaceOnUse" color-interpolation-filters="sRGB">
<feFlood flood-opacity="0" result="BackgroundImageFix"/>
<feColorMatrix in="SourceAlpha" type="matrix" values="0 0 0 0 0 0 0 0 0 0 0 0 0 0 0 0 0 0 127 0"/>
<feOffset dy="10"/>
<feGaussianBlur stdDeviation="15"/>
<feColorMatrix type="matrix" values="0 0 0 0 0.188235 0 0 0 0 0.184314 0 0 0 0 0.223529 0 0 0 0.05 0"/>
<feBlend mode="normal" in2="BackgroundImageFix" result="effect1_dropShadow"/>
<feBlend mode="normal" in="SourceGraphic" in2="effect1_dropShadow" result="shape"/>
</filter>
</defs>
</svg>
