<svg width="528" height="318" viewBox="0 0 528 318" fill="none" xmlns="http://www.w3.org/2000/svg">
<rect x="24" y="102" width="480" height="56" rx="3" fill="#E9E4FC"/>
<rect x="24" y="170" width="480" height="56" rx="3" fill="#E9E4FC"/>
<rect x="24" y="238" width="480" height="56" rx="3" fill="#E9E4FC"/>
<path d="M45.3352 136.222C48.142 136.227 49.8182 134.011 49.8182 130.193C49.8182 126.398 48.1307 124.205 45.3352 124.205C42.5398 124.205 40.858 126.392 40.8523 130.193C40.8523 134.006 42.5284 136.222 45.3352 136.222ZM45.3352 134.443C43.8864 134.443 42.9773 132.989 42.983 130.193C42.9886 127.42 43.892 125.96 45.3352 125.96C46.7841 125.96 47.6875 127.42 47.6932 130.193C47.6932 132.989 46.7898 134.443 45.3352 134.443ZM55.7457 124.17C53.223 124.159 51.5469 125.886 51.5469 128.182C51.5469 130.386 53.1151 131.972 55.1548 131.972C56.4105 131.972 57.5014 131.364 58.0639 130.364H58.1435C58.1378 132.852 57.2344 134.335 55.6264 134.335C54.6207 134.335 53.9446 133.756 53.7344 132.83H51.6605C51.8991 134.756 53.4219 136.159 55.6264 136.159C58.4162 136.159 60.1832 133.83 60.1889 129.824C60.1832 125.557 57.9787 124.188 55.7457 124.17ZM55.7514 125.875C56.9957 125.875 57.9105 126.909 57.9105 128.125C57.9105 129.335 56.956 130.369 55.7287 130.369C54.4901 130.369 53.5923 129.392 53.5923 128.136C53.5923 126.869 54.5185 125.875 55.7514 125.875ZM66.8537 123.818H65.0526L61.3026 137.75H63.1037L66.8537 123.818ZM68.1435 136H76.1207V134.239H71.0526V134.159L73.0582 132.119C75.3196 129.949 75.9446 128.892 75.9446 127.58C75.9446 125.631 74.3594 124.205 72.0185 124.205C69.7116 124.205 68.0753 125.636 68.0753 127.847H70.081C70.081 126.659 70.831 125.915 71.9901 125.915C73.098 125.915 73.9219 126.591 73.9219 127.688C73.9219 128.659 73.331 129.352 72.1832 130.517L68.1435 134.477V136ZM77.6207 133.841H83.1719V136H85.1832V133.841H86.6719V132.108H85.1832V124.364H82.5582L77.6207 132.165V133.841ZM83.1946 132.108H79.7798V132.017L83.1037 126.75H83.1946V132.108ZM93.2599 123.818H91.4588L87.7088 137.75H89.5099L93.2599 123.818ZM94.5497 136H102.527V134.239H97.4588V134.159L99.4645 132.119C101.726 129.949 102.351 128.892 102.351 127.58C102.351 125.631 100.766 124.205 98.4247 124.205C96.1179 124.205 94.4815 125.636 94.4815 127.847H96.4872C96.4872 126.659 97.2372 125.915 98.3963 125.915C99.5043 125.915 100.328 126.591 100.328 127.688C100.328 128.659 99.7372 129.352 98.5895 130.517L94.5497 134.477V136ZM108.788 136.222C111.595 136.227 113.271 134.011 113.271 130.193C113.271 126.398 111.584 124.205 108.788 124.205C105.993 124.205 104.311 126.392 104.305 130.193C104.305 134.006 105.982 136.222 108.788 136.222ZM108.788 134.443C107.339 134.443 106.43 132.989 106.436 130.193C106.442 127.42 107.345 125.96 108.788 125.96C110.237 125.96 111.141 127.42 111.146 130.193C111.146 132.989 110.243 134.443 108.788 134.443ZM119.892 124.364H117.886L114.994 126.222V128.153L117.716 126.415H117.784V136H119.892V124.364ZM126.983 136.159C129.5 136.159 131.301 134.773 131.307 132.881C131.301 131.426 130.227 130.21 128.875 129.983V129.903C130.051 129.642 130.869 128.585 130.875 127.324C130.869 125.534 129.222 124.205 126.983 124.205C124.727 124.205 123.08 125.528 123.085 127.324C123.08 128.585 123.886 129.642 125.085 129.903V129.983C123.71 130.21 122.648 131.426 122.653 132.881C122.648 134.773 124.443 136.159 126.983 136.159ZM126.983 134.534C125.665 134.534 124.812 133.807 124.824 132.733C124.812 131.619 125.727 130.83 126.983 130.83C128.222 130.83 129.131 131.625 129.142 132.733C129.131 133.807 128.284 134.534 126.983 134.534ZM126.983 129.233C125.903 129.233 125.131 128.534 125.142 127.523C125.131 126.523 125.881 125.852 126.983 125.852C128.068 125.852 128.812 126.523 128.824 127.523C128.812 128.54 128.045 129.233 126.983 129.233Z" fill="#505060"/>
<path d="M25.2912 44H27.6626V39.5767H30.1683C33.1918 39.5767 34.8153 37.7614 34.8153 35.2429C34.8153 32.7436 33.2109 30.9091 30.2003 30.9091H25.2912V44ZM27.6626 37.6271V32.8906H29.8359C31.6129 32.8906 32.3991 33.8494 32.3991 35.2429C32.3991 36.6364 31.6129 37.6271 29.8487 37.6271H27.6626ZM40.915 44.1918C43.7914 44.1918 45.6195 42.1655 45.6195 39.1293C45.6195 36.0866 43.7914 34.054 40.915 34.054C38.0385 34.054 36.2104 36.0866 36.2104 39.1293C36.2104 42.1655 38.0385 44.1918 40.915 44.1918ZM40.9277 42.3381C39.3361 42.3381 38.5563 40.919 38.5563 39.1229C38.5563 37.3267 39.3361 35.8885 40.9277 35.8885C42.4938 35.8885 43.2736 37.3267 43.2736 39.1229C43.2736 40.919 42.4938 42.3381 40.9277 42.3381ZM49.8974 30.9091H47.5835V44H49.8974V30.9091ZM52.2768 44H54.5907V34.1818H52.2768V44ZM53.4402 32.7884C54.1752 32.7884 54.7761 32.2259 54.7761 31.5355C54.7761 30.8388 54.1752 30.2763 53.4402 30.2763C52.6987 30.2763 52.0978 30.8388 52.0978 31.5355C52.0978 32.2259 52.6987 32.7884 53.4402 32.7884ZM61.2528 44.1918C63.7202 44.1918 65.2926 42.728 65.4588 40.6442H63.2472C63.049 41.6989 62.2884 42.3061 61.272 42.3061C59.8274 42.3061 58.8942 41.098 58.8942 39.0909C58.8942 37.1094 59.8466 35.9205 61.272 35.9205C62.3842 35.9205 63.0682 36.6364 63.2472 37.5824H65.4588C65.299 35.4538 63.6371 34.054 61.2401 34.054C58.3636 34.054 56.5483 36.1314 56.5483 39.1293C56.5483 42.1016 58.3189 44.1918 61.2528 44.1918ZM71.7054 44.1918C73.9938 44.1918 75.5662 43.0732 75.9753 41.3665L73.8148 41.1236C73.5016 41.9545 72.7346 42.3892 71.7374 42.3892C70.2417 42.3892 69.2509 41.4048 69.2317 39.7237H76.0712V39.0142C76.0712 35.5689 74.0002 34.054 71.584 34.054C68.7715 34.054 66.937 36.1186 66.937 39.1484C66.937 42.2294 68.7459 44.1918 71.7054 44.1918ZM69.2381 38.1641C69.3084 36.9112 70.2353 35.8565 71.6159 35.8565C72.9455 35.8565 73.8404 36.8281 73.8532 38.1641H69.2381Z" fill="#505060"/>
<path d="M429.702 30.9091V40.267C429.702 41.897 428.922 42.7727 427.554 42.7727C426.308 42.7727 425.407 42.044 425.407 40.9318H423.847C423.847 42.9453 425.407 44.179 427.554 44.179C429.83 44.179 431.287 42.7791 431.287 40.267V30.9091H429.702ZM438.248 44.2045C440.907 44.2045 442.697 42.1847 442.697 39.142C442.697 36.0739 440.907 34.054 438.248 34.054C435.589 34.054 433.799 36.0739 433.799 39.142C433.799 42.1847 435.589 44.2045 438.248 44.2045ZM438.248 42.8494C436.228 42.8494 435.308 41.1108 435.308 39.142C435.308 37.1733 436.228 35.4091 438.248 35.4091C440.268 35.4091 441.189 37.1733 441.189 39.142C441.189 41.1108 440.268 42.8494 438.248 42.8494ZM446.508 38.0938C446.508 36.3807 447.601 35.4091 449.091 35.4091C450.51 35.4091 451.366 36.304 451.366 37.8636V44H452.875V37.7614C452.875 35.2365 451.532 34.054 449.525 34.054C447.979 34.054 447.096 34.6996 446.636 35.7159H446.508V30.9091H445V44H446.508V38.0938ZM457.143 38.0938C457.143 36.3807 458.204 35.4091 459.649 35.4091C461.049 35.4091 461.899 36.3232 461.899 37.8636V44H463.407V37.7614C463.407 35.2557 462.071 34.054 460.083 34.054C458.6 34.054 457.68 34.7188 457.22 35.7159H457.092V34.1818H455.635V44H457.143V38.0938ZM475.471 44C479.459 44 481.709 41.5199 481.709 37.429C481.709 33.3636 479.459 30.9091 475.65 30.9091H471.431V44H475.471ZM473.016 42.5938V32.3153H475.547C478.616 32.3153 480.175 34.2585 480.175 37.429C480.175 40.625 478.616 42.5938 475.368 42.5938H473.016ZM488.153 44.2045C490.812 44.2045 492.601 42.1847 492.601 39.142C492.601 36.0739 490.812 34.054 488.153 34.054C485.493 34.054 483.704 36.0739 483.704 39.142C483.704 42.1847 485.493 44.2045 488.153 44.2045ZM488.153 42.8494C486.133 42.8494 485.212 41.1108 485.212 39.142C485.212 37.1733 486.133 35.4091 488.153 35.4091C490.172 35.4091 491.093 37.1733 491.093 39.142C491.093 41.1108 490.172 42.8494 488.153 42.8494ZM499.021 44.2045C501.015 44.2045 502.472 43.2074 502.933 41.7244L501.475 41.3153C501.092 42.3381 500.203 42.8494 499.021 42.8494C497.25 42.8494 496.029 41.7053 495.959 39.6023H503.086V38.9631C503.086 35.3068 500.913 34.054 498.867 34.054C496.208 34.054 494.444 36.1506 494.444 39.1676C494.444 42.1847 496.183 44.2045 499.021 44.2045ZM495.959 38.2983C496.061 36.7706 497.141 35.4091 498.867 35.4091C500.504 35.4091 501.552 36.6364 501.552 38.2983H495.959Z" fill="#505060"/>
<path d="M25.5852 71H27.1705V66.2188H30.0341C33.0831 66.2188 34.4574 64.3651 34.4574 62.0511C34.4574 59.7372 33.0831 57.9091 30.0085 57.9091H25.5852V71ZM27.1705 64.8125V59.3153H29.9574C32.0859 59.3153 32.8977 60.4787 32.8977 62.0511C32.8977 63.6236 32.0859 64.8125 29.983 64.8125H27.1705ZM40.6896 71.2045C43.3487 71.2045 45.1385 69.1847 45.1385 66.142C45.1385 63.0739 43.3487 61.054 40.6896 61.054C38.0305 61.054 36.2408 63.0739 36.2408 66.142C36.2408 69.1847 38.0305 71.2045 40.6896 71.2045ZM40.6896 69.8494C38.6697 69.8494 37.7493 68.1108 37.7493 66.142C37.7493 64.1733 38.6697 62.4091 40.6896 62.4091C42.7095 62.4091 43.63 64.1733 43.63 66.142C43.63 68.1108 42.7095 69.8494 40.6896 69.8494ZM48.9498 57.9091H47.4412V71H48.9498V57.9091ZM51.7127 71H53.2212V61.1818H51.7127V71ZM52.4798 59.5455C53.0678 59.5455 53.5536 59.0852 53.5536 58.5227C53.5536 57.9602 53.0678 57.5 52.4798 57.5C51.8917 57.5 51.4059 57.9602 51.4059 58.5227C51.4059 59.0852 51.8917 59.5455 52.4798 59.5455ZM59.9728 71.2045C62.1461 71.2045 63.5779 69.875 63.8336 68.1364H62.3251C62.0439 69.2102 61.149 69.8494 59.9728 69.8494C58.1831 69.8494 57.0325 68.3665 57.0325 66.0909C57.0325 63.8665 58.2086 62.4091 59.9728 62.4091C61.3024 62.4091 62.095 63.2273 62.3251 64.1222H63.8336C63.5779 62.2812 62.0183 61.054 59.9473 61.054C57.2882 61.054 55.524 63.1506 55.524 66.142C55.524 69.0824 57.2115 71.2045 59.9728 71.2045ZM70.1554 71.2045C72.1497 71.2045 73.6071 70.2074 74.0673 68.7244L72.6099 68.3153C72.2264 69.3381 71.3379 69.8494 70.1554 69.8494C68.3848 69.8494 67.1639 68.7053 67.0936 66.6023H74.2207V65.9631C74.2207 62.3068 72.0474 61.054 70.002 61.054C67.3429 61.054 65.5787 63.1506 65.5787 66.1676C65.5787 69.1847 67.3173 71.2045 70.1554 71.2045ZM67.0936 65.2983C67.1958 63.7706 68.2761 62.4091 70.002 62.4091C71.6383 62.4091 72.6866 63.6364 72.6866 65.2983H67.0936ZM92.3166 62C91.8308 59.3153 89.6831 57.7301 87.0495 57.7301C83.7001 57.7301 81.2711 60.3125 81.2711 64.4545C81.2711 68.5966 83.7001 71.179 87.0495 71.179C89.6831 71.179 91.8308 69.5938 92.3166 66.9091H90.7314C90.3478 68.7244 88.7882 69.696 87.0495 69.696C84.6717 69.696 82.8052 67.8551 82.8052 64.4545C82.8052 61.054 84.6717 59.2131 87.0495 59.2131C88.7882 59.2131 90.3478 60.1847 90.7314 62H92.3166ZM95.4151 71L96.7319 67.2926H102.025L103.341 71H105.003L100.196 57.9091H98.56L93.7532 71H95.4151ZM97.2305 65.8864L99.3271 59.9801H99.4293L101.526 65.8864H97.2305ZM111.082 71C115.071 71 117.321 68.5199 117.321 64.429C117.321 60.3636 115.071 57.9091 111.261 57.9091H107.042V71H111.082ZM108.627 69.5938V59.3153H111.159C114.227 59.3153 115.787 61.2585 115.787 64.429C115.787 67.625 114.227 69.5938 110.98 69.5938H108.627ZM128.545 71.179C129.747 71.179 131.089 70.7571 131.939 69.8878L132.866 71H134.681L132.873 68.7947C133.365 68.1619 133.914 67.1009 133.914 65.2727H132.457C132.457 66.1676 132.252 66.9602 131.914 67.6186L129.069 64.1477L130.028 63.4318C131.102 62.6392 131.767 61.7699 131.767 60.517C131.767 59.0597 130.565 57.7812 128.596 57.7812C126.679 57.7812 125.426 58.983 125.426 60.7472C125.426 61.9105 126.059 62.8054 126.96 63.892C125.432 64.9531 124.377 65.9375 124.377 67.5227C124.377 69.6449 125.963 71.179 128.545 71.179ZM131.038 68.7947C130.316 69.4723 129.402 69.8494 128.494 69.8494C126.934 69.8494 125.912 68.75 125.912 67.5227C125.912 67.1648 126.244 66.2443 127.42 65.375L127.906 65.017L131.038 68.7947ZM128.142 63.0227C127.503 62.2429 126.96 61.5014 126.96 60.7727C126.96 59.9545 127.65 59.0852 128.647 59.0852C129.593 59.0852 130.233 59.8523 130.233 60.517C130.233 61.4119 129.747 61.8977 129.005 62.3835L128.142 63.0227ZM141.618 71H143.204V65.8864H146.067C146.182 65.8864 146.291 65.8864 146.4 65.88L149.161 71H151.002L148.042 65.5923C149.711 65.0234 150.491 63.6619 150.491 61.9233C150.491 59.6094 149.11 57.9091 146.042 57.9091H141.618V71ZM143.204 64.4545V59.3153H145.991C148.113 59.3153 148.931 60.3509 148.931 61.9233C148.931 63.4957 148.113 64.4545 146.016 64.4545H143.204ZM153.132 57.9091V71H154.615V61.054H154.743L158.834 71H160.266L164.357 61.054H164.484V71H165.967V57.9091H164.075L159.626 68.7756H159.473L155.024 57.9091H153.132ZM176.709 61.1818H178.243C178.173 59.2067 176.351 57.7301 173.82 57.7301C171.314 57.7301 169.346 59.1875 169.346 61.3864C169.346 63.1506 170.624 64.1989 172.669 64.7869L174.28 65.2472C175.661 65.6307 176.888 66.1165 176.888 67.4205C176.888 68.8523 175.507 69.7983 173.692 69.7983C172.132 69.7983 170.752 69.108 170.624 67.625H168.988C169.141 69.7727 170.88 71.2301 173.692 71.2301C176.709 71.2301 178.422 69.5682 178.422 67.446C178.422 64.9915 176.096 64.1989 174.74 63.8409L173.411 63.483C172.439 63.2273 170.88 62.7159 170.88 61.3097C170.88 60.0568 172.03 59.1364 173.769 59.1364C175.354 59.1364 176.556 59.8906 176.709 61.1818Z" fill="#9999AF"/>
<path d="M151.705 124.364H149.392L153.489 136H156.091L160.193 124.364H157.875L154.852 133.523H154.733L151.705 124.364ZM161.635 136H163.692V127.273H161.635V136ZM162.669 126.034C163.322 126.034 163.857 125.534 163.857 124.92C163.857 124.301 163.322 123.801 162.669 123.801C162.01 123.801 161.476 124.301 161.476 124.92C161.476 125.534 162.01 126.034 162.669 126.034ZM169.614 136.17C171.807 136.17 173.205 134.869 173.352 133.017H171.386C171.21 133.955 170.534 134.494 169.631 134.494C168.347 134.494 167.517 133.42 167.517 131.636C167.517 129.875 168.364 128.818 169.631 128.818C170.619 128.818 171.227 129.455 171.386 130.295H173.352C173.21 128.403 171.733 127.159 169.602 127.159C167.045 127.159 165.432 129.006 165.432 131.67C165.432 134.312 167.006 136.17 169.614 136.17ZM179.399 127.273H177.678V125.182H175.621V127.273H174.382V128.864H175.621V133.716C175.609 135.358 176.803 136.165 178.348 136.119C178.933 136.102 179.337 135.989 179.558 135.915L179.212 134.307C179.098 134.335 178.865 134.386 178.609 134.386C178.092 134.386 177.678 134.205 177.678 133.375V128.864H179.399V127.273ZM181.119 136H183.176V127.273H181.119V136ZM182.153 126.034C182.807 126.034 183.341 125.534 183.341 124.92C183.341 124.301 182.807 123.801 182.153 123.801C181.494 123.801 180.96 124.301 180.96 124.92C180.96 125.534 181.494 126.034 182.153 126.034ZM185.291 136H187.348V130.693C187.348 129.619 188.064 128.892 188.95 128.892C189.82 128.892 190.416 129.477 190.416 130.375V136H192.433V130.557C192.433 129.574 193.018 128.892 194.013 128.892C194.842 128.892 195.501 129.381 195.501 130.46V136H197.564V130.142C197.564 128.193 196.439 127.159 194.837 127.159C193.57 127.159 192.604 127.784 192.217 128.756H192.126C191.791 127.767 190.945 127.159 189.768 127.159C188.598 127.159 187.723 127.761 187.359 128.756H187.257V127.273H185.291V136Z" fill="#7860FF"/>
<path d="M212 136C215.545 136 217.545 133.795 217.545 130.159C217.545 126.545 215.545 124.364 212.159 124.364H208.409V136H212ZM209.818 134.75V125.614H212.068C214.795 125.614 216.182 127.341 216.182 130.159C216.182 133 214.795 134.75 211.909 134.75H209.818ZM219.727 136H221.068V127.273H219.727V136ZM220.409 125.818C220.932 125.818 221.364 125.409 221.364 124.909C221.364 124.409 220.932 124 220.409 124C219.886 124 219.455 124.409 219.455 124.909C219.455 125.409 219.886 125.818 220.409 125.818ZM229.706 129.227C229.286 127.989 228.342 127.159 226.615 127.159C224.774 127.159 223.411 128.205 223.411 129.682C223.411 130.886 224.126 131.693 225.729 132.068L227.183 132.409C228.064 132.614 228.479 133.034 228.479 133.636C228.479 134.386 227.683 135 226.433 135C225.337 135 224.649 134.528 224.411 133.591L223.138 133.909C223.45 135.392 224.672 136.182 226.456 136.182C228.484 136.182 229.865 135.074 229.865 133.568C229.865 132.352 229.104 131.585 227.547 131.205L226.251 130.886C225.217 130.631 224.751 130.284 224.751 129.614C224.751 128.864 225.547 128.318 226.615 128.318C227.786 128.318 228.268 128.966 228.501 129.568L229.706 129.227ZM235.679 127.273H233.815V125.182H232.474V127.273H231.156V128.409H232.474V133.864C232.474 135.386 233.702 136.114 234.838 136.114C235.338 136.114 235.656 136.023 235.838 135.955L235.565 134.75C235.452 134.773 235.27 134.818 234.974 134.818C234.384 134.818 233.815 134.636 233.815 133.5V128.409H235.679V127.273ZM243.196 132.432C243.196 134.068 241.946 134.818 240.946 134.818C239.832 134.818 239.037 134 239.037 132.727V127.273H237.696V132.818C237.696 135.045 238.878 136.114 240.514 136.114C241.832 136.114 242.696 135.409 243.105 134.523H243.196V136H244.537V127.273H243.196V132.432ZM246.993 136H248.334V130.477C248.334 129.295 249.266 128.432 250.538 128.432C250.896 128.432 251.266 128.5 251.357 128.523V127.159C251.203 127.148 250.851 127.136 250.652 127.136C249.607 127.136 248.697 127.727 248.379 128.591H248.288V127.273H246.993V136ZM253.128 136H254.423V134.659H254.582C254.878 135.136 255.446 136.182 257.128 136.182C259.31 136.182 260.832 134.432 260.832 131.659C260.832 128.909 259.31 127.159 257.105 127.159C255.401 127.159 254.878 128.205 254.582 128.659H254.469V124.364H253.128V136ZM254.446 131.636C254.446 129.682 255.31 128.364 256.946 128.364C258.651 128.364 259.491 129.795 259.491 131.636C259.491 133.5 258.628 134.977 256.946 134.977C255.332 134.977 254.446 133.614 254.446 131.636ZM265.452 136.205C266.974 136.205 267.77 135.386 268.043 134.818H268.111V136H269.452V130.25C269.452 127.477 267.338 127.159 266.224 127.159C264.906 127.159 263.406 127.614 262.724 129.205L263.997 129.659C264.293 129.023 264.991 128.341 266.27 128.341C267.503 128.341 268.111 128.994 268.111 130.114V130.159C268.111 130.807 267.452 130.75 265.861 130.955C264.241 131.165 262.474 131.523 262.474 133.523C262.474 135.227 263.793 136.205 265.452 136.205ZM265.656 135C264.588 135 263.815 134.523 263.815 133.591C263.815 132.568 264.747 132.25 265.793 132.114C266.361 132.045 267.884 131.886 268.111 131.614V132.841C268.111 133.932 267.247 135 265.656 135ZM273.24 130.75C273.24 129.227 274.183 128.364 275.467 128.364C276.712 128.364 277.467 129.176 277.467 130.545V136H278.808V130.455C278.808 128.227 277.621 127.159 275.854 127.159C274.536 127.159 273.717 127.75 273.308 128.636H273.195V127.273H271.899V136H273.24V130.75ZM284.804 136.182C286.736 136.182 288.009 135 288.236 133.455H286.895C286.645 134.409 285.849 134.977 284.804 134.977C283.213 134.977 282.19 133.659 282.19 131.636C282.19 129.659 283.236 128.364 284.804 128.364C285.986 128.364 286.69 129.091 286.895 129.886H288.236C288.009 128.25 286.622 127.159 284.781 127.159C282.418 127.159 280.849 129.023 280.849 131.682C280.849 134.295 282.349 136.182 284.804 136.182ZM293.855 136.182C295.628 136.182 296.923 135.295 297.332 133.977L296.037 133.614C295.696 134.523 294.906 134.977 293.855 134.977C292.281 134.977 291.196 133.96 291.134 132.091H297.469V131.523C297.469 128.273 295.537 127.159 293.719 127.159C291.355 127.159 289.787 129.023 289.787 131.705C289.787 134.386 291.332 136.182 293.855 136.182ZM291.134 130.932C291.224 129.574 292.185 128.364 293.719 128.364C295.173 128.364 296.105 129.455 296.105 130.932H291.134Z" fill="#7860FF"/>
<path d="M45.3352 204.222C48.142 204.227 49.8182 202.011 49.8182 198.193C49.8182 194.398 48.1307 192.205 45.3352 192.205C42.5398 192.205 40.858 194.392 40.8523 198.193C40.8523 202.006 42.5284 204.222 45.3352 204.222ZM45.3352 202.443C43.8864 202.443 42.9773 200.989 42.983 198.193C42.9886 195.42 43.892 193.96 45.3352 193.96C46.7841 193.96 47.6875 195.42 47.6932 198.193C47.6932 200.989 46.7898 202.443 45.3352 202.443ZM55.9673 204.159C58.4787 204.176 60.1662 202.449 60.1605 200.148C60.1662 197.949 58.598 196.358 56.5582 196.358C55.3082 196.358 54.206 196.966 53.6491 197.966H53.5696C53.5753 195.483 54.473 193.994 56.0866 193.994C57.0866 193.994 57.7628 194.58 57.9787 195.5H60.0526C59.8026 193.591 58.2855 192.17 56.0866 192.17C53.2912 192.17 51.5241 194.5 51.5241 198.511C51.5241 202.778 53.7344 204.148 55.9673 204.159ZM55.956 202.455C54.7116 202.455 53.8026 201.426 53.7969 200.21C53.8082 198.989 54.7514 197.966 55.9844 197.966C57.2173 197.966 58.1207 198.943 58.1151 200.193C58.1207 201.466 57.1889 202.455 55.956 202.455ZM66.8537 191.818H65.0526L61.3026 205.75H63.1037L66.8537 191.818ZM72.8764 192.364H70.8707L67.9787 194.222V196.153L70.7003 194.415H70.7685V204H72.8764V192.364ZM80.0923 204.159C82.6037 204.176 84.2912 202.449 84.2855 200.148C84.2912 197.949 82.723 196.358 80.6832 196.358C79.4332 196.358 78.331 196.966 77.7741 197.966H77.6946C77.7003 195.483 78.598 193.994 80.2116 193.994C81.2116 193.994 81.8878 194.58 82.1037 195.5H84.1776C83.9276 193.591 82.4105 192.17 80.2116 192.17C77.4162 192.17 75.6491 194.5 75.6491 198.511C75.6491 202.778 77.8594 204.148 80.0923 204.159ZM80.081 202.455C78.8366 202.455 77.9276 201.426 77.9219 200.21C77.9332 198.989 78.8764 197.966 80.1094 197.966C81.3423 197.966 82.2457 198.943 82.2401 200.193C82.2457 201.466 81.3139 202.455 80.081 202.455ZM90.9787 191.818H89.1776L85.4276 205.75H87.2287L90.9787 191.818ZM92.2685 204H100.246V202.239H95.1776V202.159L97.1832 200.119C99.4446 197.949 100.07 196.892 100.07 195.58C100.07 193.631 98.4844 192.205 96.1435 192.205C93.8366 192.205 92.2003 193.636 92.2003 195.847H94.206C94.206 194.659 94.956 193.915 96.1151 193.915C97.223 193.915 98.0469 194.591 98.0469 195.688C98.0469 196.659 97.456 197.352 96.3082 198.517L92.2685 202.477V204ZM106.507 204.222C109.314 204.227 110.99 202.011 110.99 198.193C110.99 194.398 109.303 192.205 106.507 192.205C103.712 192.205 102.03 194.392 102.024 198.193C102.024 202.006 103.7 204.222 106.507 204.222ZM106.507 202.443C105.058 202.443 104.149 200.989 104.155 198.193C104.161 195.42 105.064 193.96 106.507 193.96C107.956 193.96 108.859 195.42 108.865 198.193C108.865 200.989 107.962 202.443 106.507 202.443ZM117.611 192.364H115.605L112.713 194.222V196.153L115.435 194.415H115.503V204H117.611V192.364ZM124.702 204.159C127.219 204.159 129.02 202.773 129.026 200.881C129.02 199.426 127.946 198.21 126.594 197.983V197.903C127.77 197.642 128.588 196.585 128.594 195.324C128.588 193.534 126.94 192.205 124.702 192.205C122.446 192.205 120.798 193.528 120.804 195.324C120.798 196.585 121.605 197.642 122.804 197.903V197.983C121.429 198.21 120.366 199.426 120.372 200.881C120.366 202.773 122.162 204.159 124.702 204.159ZM124.702 202.534C123.384 202.534 122.531 201.807 122.543 200.733C122.531 199.619 123.446 198.83 124.702 198.83C125.94 198.83 126.849 199.625 126.861 200.733C126.849 201.807 126.003 202.534 124.702 202.534ZM124.702 197.233C123.622 197.233 122.849 196.534 122.861 195.523C122.849 194.523 123.599 193.852 124.702 193.852C125.787 193.852 126.531 194.523 126.543 195.523C126.531 196.54 125.764 197.233 124.702 197.233Z" fill="#505060"/>
<path d="M148.705 192.364H146.392L150.489 204H153.091L157.193 192.364H154.875L151.852 201.523H151.733L148.705 192.364ZM158.635 204H160.692V195.273H158.635V204ZM159.669 194.034C160.322 194.034 160.857 193.534 160.857 192.92C160.857 192.301 160.322 191.801 159.669 191.801C159.01 191.801 158.476 192.301 158.476 192.92C158.476 193.534 159.01 194.034 159.669 194.034ZM166.614 204.17C168.807 204.17 170.205 202.869 170.352 201.017H168.386C168.21 201.955 167.534 202.494 166.631 202.494C165.347 202.494 164.517 201.42 164.517 199.636C164.517 197.875 165.364 196.818 166.631 196.818C167.619 196.818 168.227 197.455 168.386 198.295H170.352C170.21 196.403 168.733 195.159 166.602 195.159C164.045 195.159 162.432 197.006 162.432 199.67C162.432 202.312 164.006 204.17 166.614 204.17ZM176.399 195.273H174.678V193.182H172.621V195.273H171.382V196.864H172.621V201.716C172.609 203.358 173.803 204.165 175.348 204.119C175.933 204.102 176.337 203.989 176.558 203.915L176.212 202.307C176.098 202.335 175.865 202.386 175.609 202.386C175.092 202.386 174.678 202.205 174.678 201.375V196.864H176.399V195.273ZM178.119 204H180.176V195.273H178.119V204ZM179.153 194.034C179.807 194.034 180.341 193.534 180.341 192.92C180.341 192.301 179.807 191.801 179.153 191.801C178.494 191.801 177.96 192.301 177.96 192.92C177.96 193.534 178.494 194.034 179.153 194.034ZM182.291 204H184.348V198.693C184.348 197.619 185.064 196.892 185.95 196.892C186.82 196.892 187.416 197.477 187.416 198.375V204H189.433V198.557C189.433 197.574 190.018 196.892 191.013 196.892C191.842 196.892 192.501 197.381 192.501 198.46V204H194.564V198.142C194.564 196.193 193.439 195.159 191.837 195.159C190.57 195.159 189.604 195.784 189.217 196.756H189.126C188.791 195.767 187.945 195.159 186.768 195.159C185.598 195.159 184.723 195.761 184.359 196.756H184.257V195.273H182.291V204Z" fill="#7860FF"/>
<path d="M209 204C212.545 204 214.545 201.795 214.545 198.159C214.545 194.545 212.545 192.364 209.159 192.364H205.409V204H209ZM206.818 202.75V193.614H209.068C211.795 193.614 213.182 195.341 213.182 198.159C213.182 201 211.795 202.75 208.909 202.75H206.818ZM220.273 204.182C222.636 204.182 224.227 202.386 224.227 199.682C224.227 196.955 222.636 195.159 220.273 195.159C217.909 195.159 216.318 196.955 216.318 199.682C216.318 202.386 217.909 204.182 220.273 204.182ZM220.273 202.977C218.477 202.977 217.659 201.432 217.659 199.682C217.659 197.932 218.477 196.364 220.273 196.364C222.068 196.364 222.886 197.932 222.886 199.682C222.886 201.432 222.068 202.977 220.273 202.977ZM226.274 204H227.615V198.545C227.615 197.267 228.547 196.364 229.592 196.364C230.609 196.364 231.32 197.028 231.32 198.023V204H232.683V198.318C232.683 197.193 233.388 196.364 234.615 196.364C235.57 196.364 236.388 196.869 236.388 198.159V204H237.729V198.159C237.729 196.108 236.626 195.159 235.07 195.159C233.82 195.159 232.905 195.733 232.456 196.636H232.365C231.933 195.705 231.172 195.159 230.024 195.159C228.888 195.159 228.047 195.705 227.683 196.636H227.57V195.273H226.274V204ZM243.839 204.182C245.612 204.182 246.908 203.295 247.317 201.977L246.021 201.614C245.68 202.523 244.891 202.977 243.839 202.977C242.266 202.977 241.18 201.96 241.118 200.091H247.453V199.523C247.453 196.273 245.521 195.159 243.703 195.159C241.339 195.159 239.771 197.023 239.771 199.705C239.771 202.386 241.317 204.182 243.839 204.182ZM241.118 198.932C241.209 197.574 242.169 196.364 243.703 196.364C245.158 196.364 246.089 197.455 246.089 198.932H241.118ZM255.675 197.227C255.254 195.989 254.311 195.159 252.584 195.159C250.743 195.159 249.379 196.205 249.379 197.682C249.379 198.886 250.095 199.693 251.697 200.068L253.152 200.409C254.033 200.614 254.447 201.034 254.447 201.636C254.447 202.386 253.652 203 252.402 203C251.305 203 250.618 202.528 250.379 201.591L249.107 201.909C249.419 203.392 250.641 204.182 252.425 204.182C254.453 204.182 255.834 203.074 255.834 201.568C255.834 200.352 255.072 199.585 253.516 199.205L252.22 198.886C251.186 198.631 250.72 198.284 250.72 197.614C250.72 196.864 251.516 196.318 252.584 196.318C253.754 196.318 254.237 196.966 254.47 197.568L255.675 197.227ZM261.648 195.273H259.784V193.182H258.443V195.273H257.125V196.409H258.443V201.864C258.443 203.386 259.67 204.114 260.807 204.114C261.307 204.114 261.625 204.023 261.807 203.955L261.534 202.75C261.42 202.773 261.239 202.818 260.943 202.818C260.352 202.818 259.784 202.636 259.784 201.5V196.409H261.648V195.273ZM263.665 204H265.006V195.273H263.665V204ZM264.347 193.818C264.869 193.818 265.301 193.409 265.301 192.909C265.301 192.409 264.869 192 264.347 192C263.824 192 263.392 192.409 263.392 192.909C263.392 193.409 263.824 193.818 264.347 193.818ZM271.007 204.182C272.939 204.182 274.212 203 274.439 201.455H273.098C272.848 202.409 272.053 202.977 271.007 202.977C269.416 202.977 268.393 201.659 268.393 199.636C268.393 197.659 269.439 196.364 271.007 196.364C272.189 196.364 272.893 197.091 273.098 197.886H274.439C274.212 196.25 272.825 195.159 270.984 195.159C268.621 195.159 267.053 197.023 267.053 199.682C267.053 202.295 268.553 204.182 271.007 204.182ZM284.672 204C288.217 204 290.217 201.795 290.217 198.159C290.217 194.545 288.217 192.364 284.831 192.364H281.081V204H284.672ZM282.49 202.75V193.614H284.74C287.467 193.614 288.854 195.341 288.854 198.159C288.854 201 287.467 202.75 284.581 202.75H282.49ZM292.399 204H293.74V195.273H292.399V204ZM293.081 193.818C293.604 193.818 294.036 193.409 294.036 192.909C294.036 192.409 293.604 192 293.081 192C292.558 192 292.126 192.409 292.126 192.909C292.126 193.409 292.558 193.818 293.081 193.818ZM302.378 197.227C301.957 195.989 301.014 195.159 299.287 195.159C297.446 195.159 296.082 196.205 296.082 197.682C296.082 198.886 296.798 199.693 298.401 200.068L299.855 200.409C300.736 200.614 301.151 201.034 301.151 201.636C301.151 202.386 300.355 203 299.105 203C298.009 203 297.321 202.528 297.082 201.591L295.81 201.909C296.122 203.392 297.344 204.182 299.128 204.182C301.156 204.182 302.537 203.074 302.537 201.568C302.537 200.352 301.776 199.585 300.219 199.205L298.923 198.886C297.889 198.631 297.423 198.284 297.423 197.614C297.423 196.864 298.219 196.318 299.287 196.318C300.457 196.318 300.94 196.966 301.173 197.568L302.378 197.227ZM304.555 207.273H305.896V202.659H306.01C306.305 203.136 306.874 204.182 308.555 204.182C310.737 204.182 312.26 202.432 312.26 199.659C312.26 196.909 310.737 195.159 308.533 195.159C306.828 195.159 306.305 196.205 306.01 196.659H305.851V195.273H304.555V207.273ZM305.874 199.636C305.874 197.682 306.737 196.364 308.374 196.364C310.078 196.364 310.919 197.795 310.919 199.636C310.919 201.5 310.055 202.977 308.374 202.977C306.76 202.977 305.874 201.614 305.874 199.636ZM319.805 200.432C319.805 202.068 318.555 202.818 317.555 202.818C316.442 202.818 315.646 202 315.646 200.727V195.273H314.305V200.818C314.305 203.045 315.487 204.114 317.124 204.114C318.442 204.114 319.305 203.409 319.714 202.523H319.805V204H321.146V195.273H319.805V200.432ZM327.398 195.273H325.534V193.182H324.193V195.273H322.875V196.409H324.193V201.864C324.193 203.386 325.42 204.114 326.557 204.114C327.057 204.114 327.375 204.023 327.557 203.955L327.284 202.75C327.17 202.773 326.989 202.818 326.693 202.818C326.102 202.818 325.534 202.636 325.534 201.5V196.409H327.398V195.273ZM332.98 204.182C334.753 204.182 336.048 203.295 336.457 201.977L335.162 201.614C334.821 202.523 334.031 202.977 332.98 202.977C331.406 202.977 330.321 201.96 330.259 200.091H336.594V199.523C336.594 196.273 334.662 195.159 332.844 195.159C330.48 195.159 328.912 197.023 328.912 199.705C328.912 202.386 330.457 204.182 332.98 204.182ZM330.259 198.932C330.349 197.574 331.31 196.364 332.844 196.364C334.298 196.364 335.23 197.455 335.23 198.932H330.259Z" fill="#7860FF"/>
<path d="M45.3352 272.222C48.142 272.227 49.8182 270.011 49.8182 266.193C49.8182 262.398 48.1307 260.205 45.3352 260.205C42.5398 260.205 40.858 262.392 40.8523 266.193C40.8523 270.006 42.5284 272.222 45.3352 272.222ZM45.3352 270.443C43.8864 270.443 42.9773 268.989 42.983 266.193C42.9886 263.42 43.892 261.96 45.3352 261.96C46.7841 261.96 47.6875 263.42 47.6932 266.193C47.6932 268.989 46.7898 270.443 45.3352 270.443ZM55.9673 272.159C58.4787 272.176 60.1662 270.449 60.1605 268.148C60.1662 265.949 58.598 264.358 56.5582 264.358C55.3082 264.358 54.206 264.966 53.6491 265.966H53.5696C53.5753 263.483 54.473 261.994 56.0866 261.994C57.0866 261.994 57.7628 262.58 57.9787 263.5H60.0526C59.8026 261.591 58.2855 260.17 56.0866 260.17C53.2912 260.17 51.5241 262.5 51.5241 266.511C51.5241 270.778 53.7344 272.148 55.9673 272.159ZM55.956 270.455C54.7116 270.455 53.8026 269.426 53.7969 268.21C53.8082 266.989 54.7514 265.966 55.9844 265.966C57.2173 265.966 58.1207 266.943 58.1151 268.193C58.1207 269.466 57.1889 270.455 55.956 270.455ZM66.8537 259.818H65.0526L61.3026 273.75H63.1037L66.8537 259.818ZM72.4446 272.222C75.2514 272.227 76.9276 270.011 76.9276 266.193C76.9276 262.398 75.2401 260.205 72.4446 260.205C69.6491 260.205 67.9673 262.392 67.9616 266.193C67.9616 270.006 69.6378 272.222 72.4446 272.222ZM72.4446 270.443C70.9957 270.443 70.0866 268.989 70.0923 266.193C70.098 263.42 71.0014 261.96 72.4446 261.96C73.8935 261.96 74.7969 263.42 74.8026 266.193C74.8026 268.989 73.8991 270.443 72.4446 270.443ZM78.8153 272H86.7926V270.239H81.7244V270.159L83.7301 268.119C85.9915 265.949 86.6165 264.892 86.6165 263.58C86.6165 261.631 85.0312 260.205 82.6903 260.205C80.3835 260.205 78.7472 261.636 78.7472 263.847H80.7528C80.7528 262.659 81.5028 261.915 82.6619 261.915C83.7699 261.915 84.5938 262.591 84.5938 263.688C84.5938 264.659 84.0028 265.352 82.8551 266.517L78.8153 270.477V272ZM93.5256 259.818H91.7244L87.9744 273.75H89.7756L93.5256 259.818ZM94.8153 272H102.793V270.239H97.7244V270.159L99.7301 268.119C101.991 265.949 102.616 264.892 102.616 263.58C102.616 261.631 101.031 260.205 98.6903 260.205C96.3835 260.205 94.7472 261.636 94.7472 263.847H96.7528C96.7528 262.659 97.5028 261.915 98.6619 261.915C99.7699 261.915 100.594 262.591 100.594 263.688C100.594 264.659 100.003 265.352 98.8551 266.517L94.8153 270.477V272ZM109.054 272.222C111.861 272.227 113.537 270.011 113.537 266.193C113.537 262.398 111.849 260.205 109.054 260.205C106.259 260.205 104.577 262.392 104.571 266.193C104.571 270.006 106.247 272.222 109.054 272.222ZM109.054 270.443C107.605 270.443 106.696 268.989 106.702 266.193C106.707 263.42 107.611 261.96 109.054 261.96C110.503 261.96 111.406 263.42 111.412 266.193C111.412 268.989 110.509 270.443 109.054 270.443ZM120.158 260.364H118.152L115.26 262.222V264.153L117.982 262.415H118.05V272H120.158V260.364ZM127.249 272.159C129.766 272.159 131.567 270.773 131.572 268.881C131.567 267.426 130.493 266.21 129.141 265.983V265.903C130.317 265.642 131.135 264.585 131.141 263.324C131.135 261.534 129.487 260.205 127.249 260.205C124.993 260.205 123.345 261.528 123.351 263.324C123.345 264.585 124.152 265.642 125.351 265.903V265.983C123.976 266.21 122.913 267.426 122.919 268.881C122.913 270.773 124.709 272.159 127.249 272.159ZM127.249 270.534C125.93 270.534 125.078 269.807 125.089 268.733C125.078 267.619 125.993 266.83 127.249 266.83C128.487 266.83 129.396 267.625 129.408 268.733C129.396 269.807 128.55 270.534 127.249 270.534ZM127.249 265.233C126.169 265.233 125.396 264.534 125.408 263.523C125.396 262.523 126.146 261.852 127.249 261.852C128.334 261.852 129.078 262.523 129.089 263.523C129.078 264.54 128.311 265.233 127.249 265.233Z" fill="#505060"/>
<path d="M152.256 260.364H150.148V272H152.256V260.364ZM156.504 266.886C156.504 265.625 157.266 264.898 158.351 264.898C159.413 264.898 160.05 265.597 160.05 266.761V272H162.107V266.443C162.112 264.352 160.919 263.159 159.118 263.159C157.811 263.159 156.913 263.784 156.516 264.756H156.413V263.273H154.447V272H156.504V266.886ZM171.68 263.273H169.493L167.482 269.756H167.391L165.385 263.273H163.192L166.3 272H168.572L171.68 263.273ZM176.614 272.17C179.17 272.17 180.795 270.369 180.795 267.67C180.795 264.966 179.17 263.159 176.614 263.159C174.057 263.159 172.432 264.966 172.432 267.67C172.432 270.369 174.057 272.17 176.614 272.17ZM176.625 270.523C175.21 270.523 174.517 269.261 174.517 267.665C174.517 266.068 175.21 264.79 176.625 264.79C178.017 264.79 178.71 266.068 178.71 267.665C178.71 269.261 178.017 270.523 176.625 270.523ZM184.598 260.364H182.541V272H184.598V260.364ZM194.509 263.273H192.321L190.31 269.756H190.219L188.213 263.273H186.02L189.128 272H191.401L194.509 263.273ZM199.499 272.17C201.533 272.17 202.93 271.176 203.294 269.659L201.374 269.443C201.095 270.182 200.413 270.568 199.527 270.568C198.197 270.568 197.317 269.693 197.3 268.199H203.379V267.568C203.379 264.506 201.538 263.159 199.391 263.159C196.891 263.159 195.26 264.994 195.26 267.688C195.26 270.426 196.868 272.17 199.499 272.17ZM197.305 266.812C197.368 265.699 198.192 264.761 199.419 264.761C200.601 264.761 201.396 265.625 201.408 266.812H197.305ZM208.358 272.153C209.858 272.153 210.534 271.261 210.858 270.625H210.983V272H213.006V260.364H210.943V264.716H210.858C210.545 264.085 209.903 263.159 208.364 263.159C206.347 263.159 204.761 264.739 204.761 267.648C204.761 270.523 206.301 272.153 208.358 272.153ZM208.932 270.466C207.574 270.466 206.858 269.273 206.858 267.636C206.858 266.011 207.562 264.847 208.932 264.847C210.256 264.847 210.983 265.943 210.983 267.636C210.983 269.33 210.244 270.466 208.932 270.466ZM219.257 272H221.365V268.068H223.592C226.28 268.068 227.723 266.455 227.723 264.216C227.723 261.994 226.297 260.364 223.621 260.364H219.257V272ZM221.365 266.335V262.125H223.297C224.876 262.125 225.575 262.977 225.575 264.216C225.575 265.455 224.876 266.335 223.308 266.335H221.365ZM231.818 272.176C233.188 272.176 234.006 271.534 234.381 270.801H234.449V272H236.426V266.159C236.426 263.852 234.545 263.159 232.881 263.159C231.045 263.159 229.636 263.977 229.182 265.568L231.102 265.841C231.307 265.244 231.886 264.733 232.892 264.733C233.847 264.733 234.369 265.222 234.369 266.08V266.114C234.369 266.705 233.75 266.733 232.21 266.898C230.517 267.08 228.898 267.585 228.898 269.551C228.898 271.267 230.153 272.176 231.818 272.176ZM232.352 270.665C231.494 270.665 230.881 270.273 230.881 269.517C230.881 268.727 231.568 268.398 232.489 268.267C233.028 268.193 234.108 268.057 234.375 267.841V268.869C234.375 269.841 233.591 270.665 232.352 270.665ZM238.494 272H240.551V266.869C240.551 265.761 241.386 264.977 242.517 264.977C242.864 264.977 243.295 265.04 243.472 265.097V263.205C243.284 263.17 242.96 263.148 242.733 263.148C241.733 263.148 240.898 263.716 240.58 264.727H240.489V263.273H238.494V272ZM249.743 263.273H248.021V261.182H245.964V263.273H244.726V264.864H245.964V269.716C245.953 271.358 247.146 272.165 248.692 272.119C249.277 272.102 249.68 271.989 249.902 271.915L249.555 270.307C249.442 270.335 249.209 270.386 248.953 270.386C248.436 270.386 248.021 270.205 248.021 269.375V264.864H249.743V263.273ZM252.741 275.256C254.344 275.256 255.27 274.426 255.764 273.057L259.27 263.284L257.071 263.273L255.054 269.864H254.963L252.952 263.273H250.77L253.935 272.182L253.759 272.653C253.366 273.619 252.776 273.693 251.878 273.438L251.401 275.034C251.679 275.153 252.179 275.256 252.741 275.256Z" fill="#7860FF"/>
<path d="M269.409 260.364V272H270.727V263.159H270.841L274.477 272H275.75L279.386 263.159H279.5V272H280.818V260.364H279.136L275.182 270.023H275.045L271.091 260.364H269.409ZM287.48 272.182C289.253 272.182 290.548 271.295 290.957 269.977L289.662 269.614C289.321 270.523 288.531 270.977 287.48 270.977C285.906 270.977 284.821 269.96 284.759 268.091H291.094V267.523C291.094 264.273 289.162 263.159 287.344 263.159C284.98 263.159 283.412 265.023 283.412 267.705C283.412 270.386 284.957 272.182 287.48 272.182ZM284.759 266.932C284.849 265.574 285.81 264.364 287.344 264.364C288.798 264.364 289.73 265.455 289.73 266.932H284.759ZM294.474 266.75C294.474 265.227 295.418 264.364 296.702 264.364C297.946 264.364 298.702 265.176 298.702 266.545V272H300.043V266.455C300.043 264.227 298.855 263.159 297.088 263.159C295.77 263.159 294.952 263.75 294.543 264.636H294.429V263.273H293.134V272H294.474V266.75ZM306.288 263.273H304.425V261.182H303.084V263.273H301.766V264.409H303.084V269.864C303.084 271.386 304.311 272.114 305.447 272.114C305.947 272.114 306.266 272.023 306.447 271.955L306.175 270.75C306.061 270.773 305.879 270.818 305.584 270.818C304.993 270.818 304.425 270.636 304.425 269.5V264.409H306.288V263.273ZM310.874 272.205C312.396 272.205 313.192 271.386 313.464 270.818H313.533V272H314.874V266.25C314.874 263.477 312.76 263.159 311.646 263.159C310.328 263.159 308.828 263.614 308.146 265.205L309.419 265.659C309.714 265.023 310.413 264.341 311.692 264.341C312.925 264.341 313.533 264.994 313.533 266.114V266.159C313.533 266.807 312.874 266.75 311.283 266.955C309.663 267.165 307.896 267.523 307.896 269.523C307.896 271.227 309.214 272.205 310.874 272.205ZM311.078 271C310.01 271 309.237 270.523 309.237 269.591C309.237 268.568 310.169 268.25 311.214 268.114C311.783 268.045 313.305 267.886 313.533 267.614V268.841C313.533 269.932 312.669 271 311.078 271ZM318.662 260.364H317.321V272H318.662V260.364ZM325.8 272H327.209V266.795H333.413V272H334.822V260.364H333.413V265.545H327.209V260.364H325.8V272ZM341.121 272.182C342.893 272.182 344.189 271.295 344.598 269.977L343.303 269.614C342.962 270.523 342.172 270.977 341.121 270.977C339.547 270.977 338.462 269.96 338.399 268.091H344.734V267.523C344.734 264.273 342.803 263.159 340.984 263.159C338.621 263.159 337.053 265.023 337.053 267.705C337.053 270.386 338.598 272.182 341.121 272.182ZM338.399 266.932C338.49 265.574 339.45 264.364 340.984 264.364C342.439 264.364 343.371 265.455 343.371 266.932H338.399ZM349.342 272.205C350.865 272.205 351.661 271.386 351.933 270.818H352.001V272H353.342V266.25C353.342 263.477 351.229 263.159 350.115 263.159C348.797 263.159 347.297 263.614 346.615 265.205L347.888 265.659C348.183 265.023 348.882 264.341 350.161 264.341C351.393 264.341 352.001 264.994 352.001 266.114V266.159C352.001 266.807 351.342 266.75 349.751 266.955C348.132 267.165 346.365 267.523 346.365 269.523C346.365 271.227 347.683 272.205 349.342 272.205ZM349.547 271C348.479 271 347.706 270.523 347.706 269.591C347.706 268.568 348.638 268.25 349.683 268.114C350.251 268.045 351.774 267.886 352.001 267.614V268.841C352.001 269.932 351.138 271 349.547 271ZM357.131 260.364H355.79V272H357.131V260.364ZM363.382 263.273H361.518V261.182H360.178V263.273H358.859V264.409H360.178V269.864C360.178 271.386 361.405 272.114 362.541 272.114C363.041 272.114 363.359 272.023 363.541 271.955L363.268 270.75C363.155 270.773 362.973 270.818 362.678 270.818C362.087 270.818 361.518 270.636 361.518 269.5V264.409H363.382V263.273ZM366.928 266.75C366.928 265.227 367.899 264.364 369.223 264.364C370.484 264.364 371.246 265.159 371.246 266.545V272H372.587V266.455C372.587 264.21 371.393 263.159 369.609 263.159C368.234 263.159 367.45 263.733 367.041 264.636H366.928V260.364H365.587V272H366.928V266.75Z" fill="#7860FF"/>
</svg>
