<svg width="528" height="558" viewBox="0 0 528 558" fill="none" xmlns="http://www.w3.org/2000/svg">
<circle cx="263.5" cy="251.5" r="251.5" fill="url(#paint0_radial)"/>
<rect x="0.673469" y="352.673" width="526.653" height="204.653" rx="6.06122" fill="white" stroke="#E1E1EB" stroke-width="1.34694"/>
<text fill="#56565A" xml:space="preserve" style="white-space: pre" font-family="Inter" font-size="18.8571" letter-spacing="0px"><tspan x="40" y="459.509">New document added to your case.</tspan></text>
<path d="M40 486C40 484.343 41.3431 483 43 483H489C490.657 483 492 484.343 492 486V520C492 521.657 490.657 523 489 523H43C41.3431 523 40 521.657 40 520V486Z" fill="#6D49FE"/>
<text fill="white" xml:space="preserve" style="white-space: pre" font-family="Inter" font-size="16" font-weight="600" letter-spacing="0px"><tspan x="204.352" y="508.818">View Full Profile</tspan></text>
<path d="M473.792 399.792L481.5 407.5M481.5 407.5L473.792 415.208M481.5 407.5L489.208 415.208M481.5 407.5L489.208 399.792" stroke="#A7A7AC" stroke-width="3"/>
<path d="M1 357C1 355.343 2.34315 354 4 354V556C2.34315 556 1 554.657 1 553V357Z" fill="#6D49FE"/>
<rect x="0.673469" y="352.673" width="526.653" height="204.653" rx="6.06122" stroke="#E1E1EB" stroke-width="1.34694"/>
<rect x="36" y="385" width="40" height="40" rx="20" fill="#F2F2F4"/>
<path fill-rule="evenodd" clip-rule="evenodd" d="M57.3855 395.212C56.8541 394.231 55.4463 394.231 54.9148 395.212L45.781 412.07C45.2738 413.007 45.9516 414.145 47.0163 414.145H65.284C66.3488 414.145 67.0266 413.007 66.5194 412.07L57.3855 395.212ZM55.5685 407.64H57.3627L57.4837 401.863H55.4518L55.5685 407.64ZM57.4232 408.508H55.5123V410.524H57.4232V408.508Z" fill="#717175"/>
<text fill="#56565A" xml:space="preserve" style="white-space: pre" font-family="Inter" font-size="18.8571" font-weight="600" letter-spacing="0px"><tspan x="92" y="412.357">Notification</tspan></text>
<rect x="0.673469" y="7.67347" width="526.653" height="161.653" rx="6.06122" fill="white" stroke="#E1E1EB" stroke-width="1.34694"/>
<rect x="36" y="35" width="40" height="40" rx="20" fill="#F2F2F4"/>
<path fill-rule="evenodd" clip-rule="evenodd" d="M57.3855 45.2124C56.8541 44.2315 55.4463 44.2315 54.9148 45.2124L45.781 62.0711C45.2738 63.0072 45.9516 64.1454 47.0163 64.1454H65.284C66.3488 64.1454 67.0266 63.0072 66.5194 62.0711L57.3855 45.2124ZM55.5685 57.6403H57.3627L57.4837 51.864H55.4518L55.5685 57.6403ZM57.4232 58.5083H55.5123V60.5252H57.4232V58.5083Z" fill="#717175"/>
<text fill="#56565A" xml:space="preserve" style="white-space: pre" font-family="Inter" font-size="18.8571" letter-spacing="0px"><tspan x="36" y="110.357">Reported disturbance at 1st Ave. and Main St.  </tspan><tspan x="36" y="133.357">De-escalation services requested.</tspan></text>
<path d="M473.792 50.7917L481.5 58.5M481.5 58.5L473.792 66.2083M481.5 58.5L489.208 66.2083M481.5 58.5L489.208 50.7917" stroke="#A7A7AC" stroke-width="3"/>
<path d="M1 12C1 10.3431 2.34315 9 4 9V168C2.34315 168 1 166.657 1 165V12Z" fill="#6D49FE"/>
<rect x="0.673469" y="7.67347" width="526.653" height="161.653" rx="6.06122" stroke="#E1E1EB" stroke-width="1.34694"/>
<text fill="#56565A" xml:space="preserve" style="white-space: pre" font-family="Inter" font-size="18.8571" font-weight="600" letter-spacing="0px"><tspan x="92" y="60.3571">Alert</tspan></text>
<rect x="36" y="385" width="40" height="40" rx="20" fill="#F2F2F4"/>
<path d="M55.5104 395.708C52.1449 395.708 49.4167 398.486 49.4167 401.913L49.4167 407.083L48.0625 410.875H62.9583L61.6042 407.083V401.913C61.6042 398.486 58.8759 395.708 55.5104 395.708Z" fill="#717175" stroke="#717175" stroke-width="1.35417"/>
<path d="M57.1917 412.816C56.9266 413.508 56.2674 413.99 55.5104 413.99C54.7534 413.99 54.0943 413.508 53.8291 412.816H57.1917Z" stroke="#717175" stroke-width="1.35417"/>
<rect x="0.673469" y="190.673" width="526.653" height="142.653" rx="6.06122" fill="white" stroke="#E1E1EB" stroke-width="1.34694"/>
<rect x="36" y="218" width="40" height="40" rx="20" fill="#F2F2F4"/>
<path fill-rule="evenodd" clip-rule="evenodd" d="M57.3855 228.212C56.8541 227.231 55.4463 227.231 54.9148 228.212L45.781 245.071C45.2738 246.007 45.9516 247.145 47.0163 247.145H65.284C66.3488 247.145 67.0266 246.007 66.5194 245.071L57.3855 228.212ZM55.5685 240.64H57.3627L57.4837 234.864H55.4518L55.5685 240.64ZM57.4232 241.508H55.5123V243.525H57.4232V241.508Z" fill="#717175"/>
<text fill="#56565A" xml:space="preserve" style="white-space: pre" font-family="Inter" font-size="18.8571" letter-spacing="0px"><tspan x="36" y="293.357">10 new participants enrolled in your study.</tspan></text>
<path d="M473.792 233.792L481.5 241.5M481.5 241.5L473.792 249.208M481.5 241.5L489.208 249.208M481.5 241.5L489.208 233.792" stroke="#A7A7AC" stroke-width="3"/>
<path d="M1 195C1 193.343 2.34315 192 4 192V332C2.34315 332 1 330.657 1 329V195Z" fill="#6D49FE"/>
<rect x="0.673469" y="190.673" width="526.653" height="142.653" rx="6.06122" stroke="#E1E1EB" stroke-width="1.34694"/>
<rect x="36" y="218" width="40" height="40" rx="20" fill="#F2F2F4"/>
<path d="M55.5104 228.708C52.1449 228.708 49.4167 231.486 49.4167 234.913L49.4167 240.083L48.0625 243.875H62.9583L61.6042 240.083V234.913C61.6042 231.486 58.8759 228.708 55.5104 228.708Z" fill="#717175" stroke="#717175" stroke-width="1.35417"/>
<path d="M57.1917 245.816C56.9266 246.508 56.2674 246.99 55.5104 246.99C54.7534 246.99 54.0943 246.508 53.8291 245.816H57.1917Z" stroke="#717175" stroke-width="1.35417"/>
<text fill="#56565A" xml:space="preserve" style="white-space: pre" font-family="Inter" font-size="18.8571" font-weight="600" letter-spacing="0px"><tspan x="92" y="243.357">Notification</tspan></text>
<defs>
<radialGradient id="paint0_radial" cx="0" cy="0" r="1" gradientUnits="userSpaceOnUse" gradientTransform="translate(263.5 251.5) rotate(90) scale(251.5)">
<stop stop-color="#E2E0EB" stop-opacity="0.7"/>
<stop offset="1" stop-color="#E2E0EB" stop-opacity="0"/>
</radialGradient>
</defs>
</svg>
