<svg width="511" height="427" viewBox="0 0 511 427" fill="none" xmlns="http://www.w3.org/2000/svg">
<path d="M388.5 292L292 196" stroke="#A7A7AC" stroke-width="0.25"/>
<path d="M388 292L292 388.5" stroke="#A7A7AC" stroke-width="0.25"/>
<path d="M388 97L196 4" stroke="#A7A7AC" stroke-width="0.25"/>
<path d="M4.5 4.5L101 100" stroke="#A7A7AC" stroke-width="0.25"/>
<path d="M4 196L100 292" stroke="#A7A7AC" stroke-width="0.25"/>
<path d="M5 388L100.5 292.5" stroke="#A7A7AC" stroke-width="0.25"/>
<path d="M100.5 292L196 4L292 388L100.5 100L292 196L100.5 292Z" stroke="#A7A7AC" stroke-width="0.25"/>
<circle opacity="0.8" cx="4" cy="4" r="4" fill="#D9D9DC"/>
<circle opacity="0.8" cx="100" cy="4" r="4" fill="#D9D9DC"/>
<circle opacity="0.8" cx="196" cy="4" r="4" fill="#D9D9DC"/>
<circle opacity="0.8" cx="292" cy="4" r="4" fill="#D9D9DC"/>
<circle opacity="0.8" cx="292" cy="100" r="4" fill="#D9D9DC"/>
<circle opacity="0.8" cx="292" cy="196" r="4" fill="#D9D9DC"/>
<circle opacity="0.8" cx="292" cy="292" r="4" fill="#D9D9DC"/>
<circle opacity="0.8" cx="196" cy="196" r="4" fill="#D9D9DC"/>
<circle opacity="0.8" cx="388" cy="4" r="4" fill="#D9D9DC"/>
<circle opacity="0.8" cx="388" cy="97" r="4" fill="#D9D9DC"/>
<circle opacity="0.8" cx="388" cy="196" r="4" fill="#D9D9DC"/>
<circle opacity="0.8" cx="388" cy="292" r="4" fill="#D9D9DC"/>
<circle opacity="0.8" cx="4" cy="100" r="4" fill="#D9D9DC"/>
<circle opacity="0.8" cx="100" cy="100" r="4" fill="#D9D9DC"/>
<circle opacity="0.8" cx="196" cy="100" r="4" fill="#D9D9DC"/>
<circle opacity="0.8" cx="100" cy="100" r="4" fill="#D9D9DC"/>
<circle opacity="0.8" cx="100" cy="196" r="4" fill="#D9D9DC"/>
<circle opacity="0.8" cx="100" cy="292" r="4" fill="#D9D9DC"/>
<circle opacity="0.8" cx="196" cy="292" r="4" fill="#D9D9DC"/>
<circle opacity="0.8" cx="4" cy="388" r="4" fill="#D9D9DC"/>
<circle opacity="0.8" cx="4" cy="292" r="4" fill="#D9D9DC"/>
<circle opacity="0.8" cx="4" cy="196" r="4" fill="#D9D9DC"/>
<circle opacity="0.8" cx="100" cy="388" r="4" fill="#D9D9DC"/>
<circle opacity="0.8" cx="196" cy="388" r="4" fill="#D9D9DC"/>
<circle opacity="0.8" cx="292" cy="388" r="4" fill="#D9D9DC"/>
<circle opacity="0.8" cx="388" cy="388" r="4" fill="#D9D9DC"/>
<circle opacity="0.8" cx="4" cy="100" r="4" fill="#D9D9DC"/>
<circle cx="100" cy="100" r="4" fill="#FF859D"/>
<rect x="110" y="110" width="95" height="29" rx="1" fill="#FADBE1"/>
<path d="M121.004 130V119.818H122.849V124.129H127.567V119.818H129.416V130H127.567V125.675H122.849V130H121.004ZM134.723 130.149C133.958 130.149 133.297 129.988 132.74 129.667C132.186 129.345 131.76 128.891 131.462 128.305C131.164 127.718 131.015 127.025 131.015 126.227C131.015 125.441 131.164 124.752 131.462 124.158C131.76 123.562 132.18 123.098 132.72 122.766C133.263 122.432 133.9 122.264 134.629 122.264C135.255 122.264 135.834 122.4 136.364 122.672C136.894 122.94 137.319 123.36 137.637 123.93C137.958 124.496 138.119 125.227 138.119 126.122V126.674H132.799C132.809 127.327 132.99 127.836 133.341 128.2C133.696 128.565 134.165 128.747 134.748 128.747C135.136 128.747 135.471 128.664 135.752 128.499C136.038 128.33 136.241 128.084 136.364 127.763L138.044 127.952C137.885 128.615 137.514 129.147 136.931 129.548C136.351 129.949 135.615 130.149 134.723 130.149ZM132.804 125.461H136.394C136.391 124.941 136.228 124.511 135.907 124.173C135.588 123.835 135.171 123.666 134.654 123.666C134.117 123.666 133.681 123.844 133.346 124.198C133.011 124.553 132.831 124.974 132.804 125.461ZM141.839 130.154C141.11 130.154 140.502 129.959 140.014 129.567C139.527 129.176 139.284 128.606 139.284 127.857C139.284 127.284 139.421 126.84 139.696 126.525C139.975 126.207 140.334 125.976 140.775 125.834C141.219 125.688 141.688 125.589 142.182 125.536C142.855 125.463 143.337 125.395 143.629 125.332C143.924 125.269 144.071 125.108 144.071 124.849V124.82C144.071 124.445 143.96 124.155 143.738 123.95C143.516 123.744 143.196 123.641 142.779 123.641C142.338 123.641 141.988 123.737 141.73 123.93C141.474 124.122 141.302 124.349 141.213 124.611L139.532 124.372C139.731 123.676 140.119 123.151 140.695 122.796C141.276 122.442 141.967 122.264 142.769 122.264C143.133 122.264 143.498 122.307 143.862 122.393C144.227 122.48 144.56 122.622 144.862 122.821C145.167 123.02 145.41 123.288 145.593 123.626C145.778 123.964 145.871 124.385 145.871 124.889V130H144.141V128.951H144.081C143.919 129.272 143.654 129.554 143.286 129.796C142.921 130.035 142.439 130.154 141.839 130.154ZM142.306 128.832C142.85 128.832 143.281 128.676 143.599 128.364C143.917 128.053 144.076 127.685 144.076 127.261V126.361C144 126.424 143.859 126.48 143.654 126.53C143.451 126.576 143.236 126.616 143.007 126.649C142.779 126.682 142.585 126.71 142.426 126.734C142.025 126.79 141.69 126.901 141.421 127.067C141.153 127.229 141.019 127.483 141.019 127.827C141.019 128.159 141.14 128.409 141.382 128.578C141.624 128.747 141.932 128.832 142.306 128.832ZM149.48 119.818V130H147.681V119.818H149.48ZM155.144 122.364V123.756H153.638V127.703C153.638 128.064 153.717 128.303 153.876 128.419C154.036 128.532 154.228 128.588 154.453 128.588C154.566 128.588 154.669 128.58 154.761 128.563C154.857 128.547 154.93 128.532 154.98 128.518L155.283 129.925C155.187 129.959 155.05 129.995 154.871 130.035C154.695 130.075 154.48 130.098 154.224 130.104C153.548 130.124 152.98 129.959 152.519 129.607C152.062 129.256 151.835 128.721 151.838 128.001V123.756H150.754V122.364H151.838V120.534H153.638V122.364H155.144ZM158.613 125.526V130H156.813V119.818H158.573V123.661H158.663C158.838 123.227 159.114 122.886 159.488 122.637C159.866 122.388 160.348 122.264 160.935 122.264C161.727 122.264 162.363 122.513 162.844 123.01C163.325 123.507 163.565 124.216 163.565 125.138V130H161.765V125.416C161.765 124.902 161.633 124.503 161.367 124.218C161.106 123.93 160.738 123.786 160.264 123.786C159.783 123.786 159.387 123.938 159.075 124.243C158.767 124.545 158.613 124.972 158.613 125.526ZM168.73 130.149C167.971 130.149 167.318 129.982 166.771 129.647C166.225 129.312 165.804 128.848 165.509 128.255C165.217 127.662 165.071 126.981 165.071 126.212C165.071 125.433 165.22 124.748 165.519 124.158C165.817 123.565 166.238 123.101 166.781 122.766C167.328 122.432 167.975 122.264 168.72 122.264C169.343 122.264 169.894 122.379 170.371 122.607C170.848 122.833 171.229 123.151 171.514 123.562C171.799 123.973 171.962 124.455 172.002 125.009H170.281C170.212 124.641 170.046 124.334 169.784 124.089C169.526 123.84 169.179 123.716 168.745 123.716C168.192 123.716 167.744 123.935 167.403 124.372C167.065 124.806 166.896 125.41 166.896 126.182C166.896 126.961 167.063 127.572 167.398 128.016C167.736 128.46 168.185 128.683 168.745 128.683C169.14 128.683 169.474 128.57 169.749 128.344C170.028 128.119 170.205 127.801 170.281 127.39H172.002C171.959 127.93 171.799 128.407 171.524 128.822C171.249 129.236 170.875 129.561 170.401 129.796C169.927 130.031 169.37 130.149 168.73 130.149ZM175.677 130.154C174.948 130.154 174.339 129.959 173.852 129.567C173.365 129.176 173.121 128.606 173.121 127.857C173.121 127.284 173.259 126.84 173.534 126.525C173.813 126.207 174.172 125.976 174.613 125.834C175.057 125.688 175.526 125.589 176.02 125.536C176.693 125.463 177.175 125.395 177.467 125.332C177.762 125.269 177.909 125.108 177.909 124.849V124.82C177.909 124.445 177.798 124.155 177.576 123.95C177.354 123.744 177.034 123.641 176.616 123.641C176.176 123.641 175.826 123.737 175.567 123.93C175.312 124.122 175.14 124.349 175.05 124.611L173.37 124.372C173.569 123.676 173.957 123.151 174.533 122.796C175.113 122.442 175.804 122.264 176.607 122.264C176.971 122.264 177.336 122.307 177.7 122.393C178.065 122.48 178.398 122.622 178.7 122.821C179.004 123.02 179.248 123.288 179.43 123.626C179.616 123.964 179.709 124.385 179.709 124.889V130H177.979V128.951H177.919C177.757 129.272 177.491 129.554 177.124 129.796C176.759 130.035 176.277 130.154 175.677 130.154ZM176.144 128.832C176.688 128.832 177.119 128.676 177.437 128.364C177.755 128.053 177.914 127.685 177.914 127.261V126.361C177.838 126.424 177.697 126.48 177.491 126.53C177.289 126.576 177.074 126.616 176.845 126.649C176.616 126.682 176.423 126.71 176.263 126.734C175.862 126.79 175.528 126.901 175.259 127.067C174.991 127.229 174.857 127.483 174.857 127.827C174.857 128.159 174.978 128.409 175.219 128.578C175.461 128.747 175.77 128.832 176.144 128.832ZM181.518 130V122.364H183.263V123.636H183.343C183.482 123.192 183.721 122.851 184.059 122.612C184.4 122.374 184.79 122.254 185.227 122.254C185.327 122.254 185.438 122.259 185.56 122.269C185.686 122.276 185.791 122.287 185.874 122.304V123.96C185.797 123.933 185.676 123.91 185.511 123.89C185.348 123.867 185.191 123.855 185.038 123.855C184.545 123.855 184.134 124.011 183.805 124.322C183.481 124.631 183.318 125.027 183.318 125.511V130H181.518ZM190.135 130.149C189.37 130.149 188.709 129.988 188.152 129.667C187.598 129.345 187.172 128.891 186.874 128.305C186.576 127.718 186.427 127.025 186.427 126.227C186.427 125.441 186.576 124.752 186.874 124.158C187.172 123.562 187.592 123.098 188.132 122.766C188.675 122.432 189.312 122.264 190.041 122.264C190.667 122.264 191.246 122.4 191.776 122.672C192.306 122.94 192.731 123.36 193.049 123.93C193.37 124.496 193.531 125.227 193.531 126.122V126.674H188.211C188.221 127.327 188.402 127.836 188.753 128.2C189.108 128.565 189.577 128.747 190.16 128.747C190.548 128.747 190.883 128.664 191.165 128.499C191.45 128.33 191.653 128.084 191.776 127.763L193.456 127.952C193.297 128.615 192.926 129.147 192.343 129.548C191.763 129.949 191.027 130.149 190.135 130.149ZM188.216 125.461H191.806C191.803 124.941 191.64 124.511 191.319 124.173C191.001 123.835 190.583 123.666 190.066 123.666C189.529 123.666 189.093 123.844 188.758 124.198C188.424 124.553 188.243 124.974 188.216 125.461Z" fill="#FF6A87"/>
<circle cx="196" cy="4" r="4" fill="#2C80EE"/>
<rect x="206" y="14" width="124" height="29" rx="1" fill="#E9F2FF"/>
<path d="M222.538 26.6172C222.491 26.183 222.297 25.8449 221.956 25.603C221.615 25.361 221.169 25.2401 220.619 25.2401C220.042 25.2401 219.591 25.366 219.266 25.6179C218.942 25.8665 218.777 26.183 218.774 26.5675C218.771 26.8492 218.855 27.0829 219.028 27.2685C219.2 27.4508 219.419 27.5966 219.684 27.706C219.952 27.8153 220.226 27.9032 220.504 27.9695L221.459 28.2081C221.969 28.3274 222.451 28.5047 222.906 28.7401C223.363 28.9721 223.734 29.2836 224.019 29.6747C224.308 30.0625 224.452 30.5514 224.452 31.1413C224.448 32.0395 224.109 32.767 223.433 33.3239C222.756 33.8774 221.808 34.1541 220.589 34.1541C219.402 34.1541 218.456 33.8807 217.75 33.3338C217.044 32.7836 216.673 32.0031 216.636 30.9922H218.451C218.487 31.5258 218.706 31.9235 219.107 32.1854C219.508 32.4472 219.997 32.5781 220.574 32.5781C221.177 32.5781 221.666 32.4455 222.04 32.1804C222.415 31.9119 222.604 31.5606 222.607 31.1264C222.604 30.732 222.435 30.4337 222.1 30.2315C221.769 30.026 221.328 29.8537 220.778 29.7145L219.619 29.4162C218.781 29.2008 218.118 28.8743 217.631 28.4368C217.147 27.996 216.905 27.411 216.905 26.6818C216.905 26.0819 217.067 25.5566 217.392 25.1058C217.717 24.6551 218.161 24.3054 218.724 24.0568C219.291 23.8049 219.931 23.679 220.643 23.679C221.366 23.679 222.001 23.8049 222.548 24.0568C223.094 24.3054 223.522 24.6518 223.83 25.0959C224.142 25.5367 224.303 26.0438 224.312 26.6172H222.538ZM229.347 34.1491C228.602 34.1491 227.955 33.9851 227.409 33.657C226.862 33.3288 226.437 32.8698 226.136 32.2798C225.838 31.6866 225.688 30.9972 225.688 30.2116C225.688 29.4228 225.838 28.7334 226.136 28.1435C226.437 27.5502 226.862 27.0895 227.409 26.7614C227.955 26.4299 228.602 26.2642 229.347 26.2642C230.093 26.2642 230.74 26.4299 231.286 26.7614C231.837 27.0895 232.261 27.5502 232.559 28.1435C232.857 28.7334 233.007 29.4228 233.007 30.2116C233.007 30.9972 232.857 31.6866 232.559 32.2798C232.261 32.8698 231.837 33.3288 231.286 33.657C230.74 33.9851 230.093 34.1491 229.347 34.1491ZM229.357 32.7074C229.765 32.7074 230.103 32.5964 230.372 32.3743C230.643 32.1522 230.846 31.8523 230.978 31.4744C231.114 31.0933 231.182 30.6707 231.182 30.2067C231.182 29.7393 231.114 29.3168 230.978 28.9389C230.846 28.5578 230.643 28.2545 230.372 28.0291C230.103 27.8037 229.765 27.6911 229.357 27.6911C228.946 27.6911 228.603 27.8037 228.328 28.0291C228.057 28.2545 227.853 28.5578 227.717 28.9389C227.581 29.3168 227.513 29.7393 227.513 30.2067C227.513 30.6707 227.581 31.0933 227.717 31.4744C227.853 31.8523 228.057 32.1522 228.328 32.3743C228.603 32.5964 228.946 32.7074 229.357 32.7074ZM237.865 34.1491C237.106 34.1491 236.453 33.9818 235.906 33.647C235.359 33.3123 234.938 32.8482 234.643 32.255C234.352 31.6617 234.206 30.9806 234.206 30.2116C234.206 29.4328 234.355 28.7483 234.653 28.1584C234.952 27.5651 235.373 27.1011 235.916 26.7663C236.463 26.4316 237.109 26.2642 237.855 26.2642C238.478 26.2642 239.028 26.3786 239.506 26.6072C239.983 26.8326 240.364 27.1508 240.649 27.5618C240.934 27.9728 241.097 28.455 241.136 29.0085H239.416C239.347 28.6406 239.181 28.334 238.919 28.0888C238.661 27.8402 238.314 27.7159 237.88 27.7159C237.326 27.7159 236.879 27.9347 236.538 28.3722C236.2 28.8063 236.031 29.4096 236.031 30.1818C236.031 30.9607 236.198 31.5722 236.533 32.0163C236.871 32.4605 237.32 32.6825 237.88 32.6825C238.274 32.6825 238.609 32.5698 238.884 32.3445C239.163 32.1191 239.34 31.8009 239.416 31.3899H241.136C241.093 31.9302 240.934 32.4074 240.659 32.8217C240.384 33.236 240.009 33.5608 239.536 33.7962C239.062 34.0315 238.505 34.1491 237.865 34.1491ZM242.614 34V26.3636H244.414V34H242.614ZM243.519 25.2798C243.231 25.2798 242.984 25.1854 242.778 24.9964C242.576 24.8042 242.475 24.5739 242.475 24.3054C242.475 24.0336 242.576 23.8033 242.778 23.6143C242.984 23.4221 243.231 23.326 243.519 23.326C243.804 23.326 244.048 23.4221 244.25 23.6143C244.455 23.8033 244.558 24.0336 244.558 24.3054C244.558 24.5739 244.455 24.8042 244.25 24.9964C244.048 25.1854 243.804 25.2798 243.519 25.2798ZM248.462 34.1541C247.733 34.1541 247.125 33.9586 246.637 33.5675C246.15 33.1764 245.907 32.6063 245.907 31.8572C245.907 31.2839 246.044 30.8397 246.319 30.5249C246.598 30.2067 246.957 29.9763 247.398 29.8338C247.842 29.688 248.311 29.5885 248.805 29.5355C249.478 29.4626 249.96 29.3946 250.252 29.3317C250.547 29.2687 250.694 29.108 250.694 28.8494V28.8196C250.694 28.4451 250.583 28.1551 250.361 27.9496C250.139 27.7441 249.819 27.6413 249.402 27.6413C248.961 27.6413 248.611 27.7375 248.353 27.9297C248.097 28.1219 247.925 28.349 247.836 28.6108L246.155 28.3722C246.354 27.6761 246.742 27.1508 247.319 26.7962C247.899 26.4415 248.59 26.2642 249.392 26.2642C249.756 26.2642 250.121 26.3073 250.485 26.3935C250.85 26.4796 251.183 26.6222 251.485 26.821C251.79 27.0199 252.033 27.2884 252.216 27.6264C252.401 27.9645 252.494 28.3854 252.494 28.8892V34H250.764V32.951H250.704C250.542 33.2725 250.277 33.5542 249.909 33.7962C249.544 34.0348 249.062 34.1541 248.462 34.1541ZM248.929 32.8317C249.473 32.8317 249.904 32.6759 250.222 32.3643C250.54 32.0528 250.699 31.6849 250.699 31.2607V30.3608C250.623 30.4238 250.482 30.4801 250.277 30.5298C250.074 30.5762 249.859 30.616 249.63 30.6491C249.402 30.6823 249.208 30.7105 249.049 30.7337C248.648 30.79 248.313 30.901 248.044 31.0668C247.776 31.2292 247.642 31.4827 247.642 31.8274C247.642 32.1589 247.763 32.4091 248.005 32.5781C248.247 32.7472 248.555 32.8317 248.929 32.8317ZM256.103 23.8182V34H254.304V23.8182H256.103ZM267.04 26.6172C266.993 26.183 266.799 25.8449 266.458 25.603C266.117 25.361 265.671 25.2401 265.121 25.2401C264.544 25.2401 264.093 25.366 263.768 25.6179C263.443 25.8665 263.279 26.183 263.276 26.5675C263.273 26.8492 263.357 27.0829 263.53 27.2685C263.702 27.4508 263.921 27.5966 264.186 27.706C264.454 27.8153 264.728 27.9032 265.006 27.9695L265.961 28.2081C266.471 28.3274 266.953 28.5047 267.407 28.7401C267.865 28.9721 268.236 29.2836 268.521 29.6747C268.809 30.0625 268.954 30.5514 268.954 31.1413C268.95 32.0395 268.611 32.767 267.934 33.3239C267.258 33.8774 266.31 34.1541 265.091 34.1541C263.904 34.1541 262.958 33.8807 262.252 33.3338C261.546 32.7836 261.175 32.0031 261.138 30.9922H262.953C262.989 31.5258 263.208 31.9235 263.609 32.1854C264.01 32.4472 264.499 32.5781 265.076 32.5781C265.679 32.5781 266.168 32.4455 266.542 32.1804C266.917 31.9119 267.106 31.5606 267.109 31.1264C267.106 30.732 266.937 30.4337 266.602 30.2315C266.271 30.026 265.83 29.8537 265.28 29.7145L264.121 29.4162C263.283 29.2008 262.62 28.8743 262.133 28.4368C261.649 27.996 261.407 27.411 261.407 26.6818C261.407 26.0819 261.569 25.5566 261.894 25.1058C262.219 24.6551 262.663 24.3054 263.226 24.0568C263.793 23.8049 264.433 23.679 265.145 23.679C265.868 23.679 266.503 23.8049 267.05 24.0568C267.596 24.3054 268.024 24.6518 268.332 25.0959C268.644 25.5367 268.805 26.0438 268.814 26.6172H267.04ZM273.899 34.1491C273.134 34.1491 272.472 33.9884 271.915 33.6669C271.362 33.3454 270.936 32.8913 270.638 32.3047C270.339 31.718 270.19 31.0253 270.19 30.2266C270.19 29.4411 270.339 28.7517 270.638 28.1584C270.936 27.5618 271.355 27.0978 271.896 26.7663C272.439 26.4316 273.076 26.2642 273.805 26.2642C274.431 26.2642 275.009 26.4001 275.54 26.6719C276.07 26.9403 276.494 27.3596 276.812 27.9297C277.134 28.4964 277.295 29.2273 277.295 30.1222V30.674H271.975C271.985 31.3269 272.166 31.8357 272.517 32.2003C272.872 32.5649 273.341 32.7472 273.924 32.7472C274.312 32.7472 274.647 32.6643 274.928 32.4986C275.213 32.3295 275.417 32.0843 275.54 31.7628L277.22 31.9517C277.061 32.6146 276.69 33.1465 276.107 33.5476C275.527 33.9486 274.791 34.1491 273.899 34.1491ZM271.98 29.4609H275.57C275.566 28.9406 275.404 28.5114 275.082 28.1733C274.764 27.8352 274.347 27.6662 273.83 27.6662C273.293 27.6662 272.857 27.8435 272.522 28.1982C272.187 28.5528 272.007 28.9737 271.98 29.4609ZM278.817 34V26.3636H280.562V27.6364H280.642C280.781 27.1922 281.02 26.8509 281.358 26.6122C281.699 26.3736 282.089 26.2543 282.526 26.2543C282.626 26.2543 282.737 26.2592 282.859 26.2692C282.985 26.2758 283.09 26.2874 283.172 26.304V27.9595C283.096 27.933 282.975 27.9098 282.809 27.8899C282.647 27.8667 282.49 27.8551 282.337 27.8551C281.843 27.8551 281.432 28.0109 281.104 28.3224C280.779 28.6307 280.617 29.0268 280.617 29.5107V34H278.817ZM291.422 26.3636L288.702 34H286.713L283.994 26.3636H285.913L287.668 32.0362H287.748L289.507 26.3636H291.422ZM292.667 34V26.3636H294.467V34H292.667ZM293.572 25.2798C293.283 25.2798 293.036 25.1854 292.831 24.9964C292.629 24.8042 292.528 24.5739 292.528 24.3054C292.528 24.0336 292.629 23.8033 292.831 23.6143C293.036 23.4221 293.283 23.326 293.572 23.326C293.857 23.326 294.1 23.4221 294.303 23.6143C294.508 23.8033 294.611 24.0336 294.611 24.3054C294.611 24.5739 294.508 24.8042 294.303 24.9964C294.1 25.1854 293.857 25.2798 293.572 25.2798ZM299.648 34.1491C298.889 34.1491 298.236 33.9818 297.689 33.647C297.143 33.3123 296.722 32.8482 296.427 32.255C296.135 31.6617 295.989 30.9806 295.989 30.2116C295.989 29.4328 296.138 28.7483 296.437 28.1584C296.735 27.5651 297.156 27.1011 297.699 26.7663C298.246 26.4316 298.893 26.2642 299.638 26.2642C300.261 26.2642 300.812 26.3786 301.289 26.6072C301.766 26.8326 302.147 27.1508 302.432 27.5618C302.717 27.9728 302.88 28.455 302.92 29.0085H301.199C301.13 28.6406 300.964 28.334 300.702 28.0888C300.444 27.8402 300.097 27.7159 299.663 27.7159C299.11 27.7159 298.662 27.9347 298.321 28.3722C297.983 28.8063 297.814 29.4096 297.814 30.1818C297.814 30.9607 297.981 31.5722 298.316 32.0163C298.654 32.4605 299.103 32.6825 299.663 32.6825C300.058 32.6825 300.392 32.5698 300.667 32.3445C300.946 32.1191 301.123 31.8009 301.199 31.3899H302.92C302.876 31.9302 302.717 32.4074 302.442 32.8217C302.167 33.236 301.793 33.5608 301.319 33.7962C300.845 34.0315 300.288 34.1491 299.648 34.1491ZM307.778 34.1491C307.012 34.1491 306.351 33.9884 305.794 33.6669C305.241 33.3454 304.815 32.8913 304.517 32.3047C304.218 31.718 304.069 31.0253 304.069 30.2266C304.069 29.4411 304.218 28.7517 304.517 28.1584C304.815 27.5618 305.234 27.0978 305.775 26.7663C306.318 26.4316 306.954 26.2642 307.684 26.2642C308.31 26.2642 308.888 26.4001 309.419 26.6719C309.949 26.9403 310.373 27.3596 310.691 27.9297C311.013 28.4964 311.174 29.2273 311.174 30.1222V30.674H305.854C305.864 31.3269 306.045 31.8357 306.396 32.2003C306.751 32.5649 307.22 32.7472 307.803 32.7472C308.191 32.7472 308.525 32.6643 308.807 32.4986C309.092 32.3295 309.296 32.0843 309.419 31.7628L311.099 31.9517C310.94 32.6146 310.569 33.1465 309.985 33.5476C309.405 33.9486 308.67 34.1491 307.778 34.1491ZM305.859 29.4609H309.449C309.445 28.9406 309.283 28.5114 308.961 28.1733C308.643 27.8352 308.225 27.6662 307.708 27.6662C307.172 27.6662 306.736 27.8435 306.401 28.1982C306.066 28.5528 305.886 28.9737 305.859 29.4609ZM318.732 28.3821L317.091 28.5611C317.021 28.3092 316.872 28.0871 316.644 27.8949C316.418 27.7027 316.098 27.6065 315.684 27.6065C315.31 27.6065 314.995 27.6877 314.74 27.8501C314.488 28.0125 314.363 28.223 314.367 28.4815C314.363 28.7036 314.445 28.8859 314.61 29.0284C314.779 29.1676 315.058 29.2803 315.445 29.3665L316.748 29.6449C318.177 29.9564 318.892 30.6458 318.896 31.7131C318.896 32.1937 318.757 32.6179 318.478 32.9858C318.2 33.3504 317.815 33.6354 317.325 33.8409C316.834 34.0464 316.271 34.1491 315.634 34.1491C314.696 34.1491 313.944 33.9519 313.377 33.5575C312.811 33.1631 312.471 32.6162 312.358 31.9169L314.113 31.7479C314.269 32.4439 314.774 32.7919 315.629 32.7919C316.057 32.7919 316.4 32.7057 316.659 32.5334C316.92 32.3577 317.051 32.139 317.051 31.8771C317.051 31.4496 316.708 31.1596 316.022 31.0071L314.72 30.7337C313.987 30.5812 313.445 30.3243 313.094 29.9631C312.743 29.5985 312.569 29.1378 312.572 28.581C312.572 28.1103 312.701 27.7027 312.96 27.358C313.218 27.0099 313.579 26.7415 314.044 26.5526C314.508 26.3603 315.046 26.2642 315.659 26.2642C316.554 26.2642 317.258 26.4564 317.772 26.8409C318.289 27.2221 318.609 27.7358 318.732 28.3821Z" fill="#2C80EE"/>
<circle cx="292" cy="196" r="4" fill="#45C095"/>
<rect x="302" y="206" width="70" height="29" rx="1" fill="#D1ECE2"/>
<path d="M317.021 215.818H318.851V222.977C318.851 223.634 318.713 224.199 318.438 224.673C318.163 225.143 317.779 225.506 317.285 225.761C316.794 226.013 316.221 226.139 315.565 226.139C314.971 226.139 314.436 226.033 313.959 225.821C313.482 225.606 313.104 225.287 312.825 224.866C312.547 224.446 312.408 223.922 312.408 223.295H314.242C314.249 223.706 314.38 224.031 314.635 224.27C314.89 224.505 315.223 224.623 315.634 224.623C316.078 224.623 316.42 224.484 316.658 224.205C316.897 223.924 317.018 223.514 317.021 222.977V215.818ZM325.64 222.788V218.364H327.439V226H325.694V224.643H325.615C325.442 225.07 325.159 225.42 324.765 225.692C324.373 225.964 323.891 226.099 323.318 226.099C322.569 226.099 321.957 225.851 321.483 225.354C321.009 224.853 320.772 224.144 320.772 223.226V218.364H322.572V222.947C322.572 223.431 322.705 223.816 322.97 224.101C323.235 224.386 323.583 224.528 324.014 224.528C324.279 224.528 324.536 224.464 324.784 224.335C325.033 224.205 325.237 224.013 325.396 223.758C325.558 223.499 325.64 223.176 325.64 222.788ZM335.325 220.382L333.685 220.561C333.615 220.309 333.466 220.087 333.237 219.895C333.012 219.703 332.692 219.607 332.278 219.607C331.903 219.607 331.588 219.688 331.333 219.85C331.081 220.013 330.957 220.223 330.96 220.482C330.957 220.704 331.038 220.886 331.204 221.028C331.373 221.168 331.651 221.28 332.039 221.366L333.342 221.645C334.77 221.956 335.486 222.646 335.49 223.713C335.49 224.194 335.35 224.618 335.072 224.986C334.794 225.35 334.409 225.635 333.919 225.841C333.428 226.046 332.865 226.149 332.228 226.149C331.29 226.149 330.538 225.952 329.971 225.558C329.404 225.163 329.065 224.616 328.952 223.917L330.707 223.748C330.863 224.444 331.368 224.792 332.223 224.792C332.651 224.792 332.994 224.706 333.252 224.533C333.514 224.358 333.645 224.139 333.645 223.877C333.645 223.45 333.302 223.16 332.616 223.007L331.313 222.734C330.581 222.581 330.039 222.324 329.688 221.963C329.336 221.598 329.162 221.138 329.166 220.581C329.166 220.11 329.295 219.703 329.553 219.358C329.812 219.01 330.173 218.741 330.637 218.553C331.101 218.36 331.64 218.264 332.253 218.264C333.148 218.264 333.852 218.456 334.366 218.841C334.883 219.222 335.203 219.736 335.325 220.382ZM340.787 218.364V219.756H339.28V223.703C339.28 224.064 339.36 224.303 339.519 224.419C339.678 224.532 339.87 224.588 340.096 224.588C340.208 224.588 340.311 224.58 340.404 224.563C340.5 224.547 340.573 224.532 340.623 224.518L340.926 225.925C340.83 225.959 340.692 225.995 340.513 226.035C340.338 226.075 340.122 226.098 339.867 226.104C339.191 226.124 338.622 225.959 338.162 225.607C337.704 225.256 337.477 224.721 337.481 224.001V219.756H336.397V218.364H337.481V216.534H339.28V218.364H340.787ZM342.292 226V218.364H344.092V226H342.292ZM343.197 217.28C342.908 217.28 342.661 217.185 342.456 216.996C342.254 216.804 342.153 216.574 342.153 216.305C342.153 216.034 342.254 215.803 342.456 215.614C342.661 215.422 342.908 215.326 343.197 215.326C343.482 215.326 343.725 215.422 343.928 215.614C344.133 215.803 344.236 216.034 344.236 216.305C344.236 216.574 344.133 216.804 343.928 216.996C343.725 217.185 343.482 217.28 343.197 217.28ZM349.273 226.149C348.514 226.149 347.861 225.982 347.314 225.647C346.768 225.312 346.347 224.848 346.052 224.255C345.76 223.662 345.614 222.981 345.614 222.212C345.614 221.433 345.763 220.748 346.062 220.158C346.36 219.565 346.781 219.101 347.324 218.766C347.871 218.432 348.518 218.264 349.263 218.264C349.886 218.264 350.437 218.379 350.914 218.607C351.391 218.833 351.772 219.151 352.057 219.562C352.342 219.973 352.505 220.455 352.545 221.009H350.824C350.755 220.641 350.589 220.334 350.327 220.089C350.069 219.84 349.722 219.716 349.288 219.716C348.735 219.716 348.287 219.935 347.946 220.372C347.608 220.806 347.439 221.41 347.439 222.182C347.439 222.961 347.606 223.572 347.941 224.016C348.279 224.46 348.728 224.683 349.288 224.683C349.683 224.683 350.017 224.57 350.292 224.344C350.571 224.119 350.748 223.801 350.824 223.39H352.545C352.501 223.93 352.342 224.407 352.067 224.822C351.792 225.236 351.418 225.561 350.944 225.796C350.47 226.031 349.913 226.149 349.273 226.149ZM357.403 226.149C356.637 226.149 355.976 225.988 355.419 225.667C354.866 225.345 354.44 224.891 354.142 224.305C353.843 223.718 353.694 223.025 353.694 222.227C353.694 221.441 353.843 220.752 354.142 220.158C354.44 219.562 354.859 219.098 355.4 218.766C355.943 218.432 356.579 218.264 357.309 218.264C357.935 218.264 358.513 218.4 359.044 218.672C359.574 218.94 359.998 219.36 360.316 219.93C360.638 220.496 360.799 221.227 360.799 222.122V222.674H355.479C355.489 223.327 355.67 223.836 356.021 224.2C356.376 224.565 356.845 224.747 357.428 224.747C357.816 224.747 358.15 224.664 358.432 224.499C358.717 224.33 358.921 224.084 359.044 223.763L360.724 223.952C360.565 224.615 360.194 225.147 359.61 225.548C359.03 225.949 358.295 226.149 357.403 226.149ZM355.484 221.461H359.074C359.07 220.941 358.908 220.511 358.586 220.173C358.268 219.835 357.85 219.666 357.333 219.666C356.797 219.666 356.361 219.844 356.026 220.198C355.691 220.553 355.511 220.974 355.484 221.461Z" fill="#45C095"/>
<circle cx="388" cy="292" r="4" fill="#8B8B90"/>
<rect x="398" y="302" width="113" height="29" rx="1" fill="#F2F2F4"/>
<path d="M414.538 314.617C414.491 314.183 414.297 313.845 413.956 313.603C413.615 313.361 413.169 313.24 412.619 313.24C412.042 313.24 411.591 313.366 411.266 313.618C410.942 313.866 410.777 314.183 410.774 314.567C410.771 314.849 410.855 315.083 411.028 315.268C411.2 315.451 411.419 315.597 411.684 315.706C411.952 315.815 412.226 315.903 412.504 315.969L413.459 316.208C413.969 316.327 414.451 316.505 414.906 316.74C415.363 316.972 415.734 317.284 416.019 317.675C416.308 318.062 416.452 318.551 416.452 319.141C416.448 320.04 416.109 320.767 415.433 321.324C414.756 321.877 413.808 322.154 412.589 322.154C411.402 322.154 410.456 321.881 409.75 321.334C409.044 320.784 408.673 320.003 408.636 318.992H410.451C410.487 319.526 410.706 319.924 411.107 320.185C411.508 320.447 411.997 320.578 412.574 320.578C413.177 320.578 413.666 320.446 414.04 320.18C414.415 319.912 414.604 319.561 414.607 319.126C414.604 318.732 414.435 318.434 414.1 318.232C413.769 318.026 413.328 317.854 412.778 317.714L411.619 317.416C410.781 317.201 410.118 316.874 409.631 316.437C409.147 315.996 408.905 315.411 408.905 314.682C408.905 314.082 409.067 313.557 409.392 313.106C409.717 312.655 410.161 312.305 410.724 312.057C411.291 311.805 411.931 311.679 412.643 311.679C413.366 311.679 414.001 311.805 414.548 312.057C415.094 312.305 415.522 312.652 415.83 313.096C416.142 313.537 416.303 314.044 416.312 314.617H414.538ZM418.017 324.864V314.364H419.786V315.626H419.891C419.984 315.441 420.113 315.244 420.279 315.035C420.448 314.823 420.676 314.642 420.965 314.493C421.256 314.34 421.626 314.264 422.073 314.264C422.663 314.264 423.195 314.415 423.669 314.717C424.146 315.018 424.524 315.461 424.803 316.044C425.084 316.627 425.225 317.343 425.225 318.192C425.225 319.03 425.088 319.743 424.813 320.33C424.538 320.916 424.163 321.364 423.689 321.672C423.215 321.98 422.678 322.134 422.078 322.134C421.641 322.134 421.278 322.061 420.99 321.915C420.701 321.77 420.469 321.594 420.294 321.388C420.121 321.18 419.987 320.982 419.891 320.797H419.816V324.864H418.017ZM419.781 318.182C419.781 318.921 419.937 319.519 420.249 319.977C420.56 320.431 421.003 320.658 421.576 320.658C422.169 320.658 422.62 320.424 422.928 319.957C423.237 319.489 423.391 318.898 423.391 318.182C423.391 317.469 423.238 316.884 422.933 316.427C422.628 315.969 422.176 315.741 421.576 315.741C420.996 315.741 420.552 315.963 420.244 316.407C419.936 316.848 419.781 317.439 419.781 318.182ZM426.767 322V314.364H428.512V315.636H428.591C428.73 315.192 428.969 314.851 429.307 314.612C429.648 314.374 430.038 314.254 430.475 314.254C430.575 314.254 430.686 314.259 430.808 314.269C430.934 314.276 431.039 314.287 431.122 314.304V315.96C431.045 315.933 430.924 315.91 430.759 315.89C430.596 315.867 430.439 315.855 430.286 315.855C429.793 315.855 429.382 316.011 429.053 316.322C428.729 316.631 428.566 317.027 428.566 317.511V322H426.767ZM435.384 322.149C434.618 322.149 433.957 321.988 433.4 321.667C432.846 321.345 432.42 320.891 432.122 320.305C431.824 319.718 431.675 319.025 431.675 318.227C431.675 317.441 431.824 316.752 432.122 316.158C432.42 315.562 432.84 315.098 433.38 314.766C433.924 314.432 434.56 314.264 435.289 314.264C435.915 314.264 436.494 314.4 437.024 314.672C437.554 314.94 437.979 315.36 438.297 315.93C438.618 316.496 438.779 317.227 438.779 318.122V318.674H433.46C433.469 319.327 433.65 319.836 434.001 320.2C434.356 320.565 434.825 320.747 435.408 320.747C435.796 320.747 436.131 320.664 436.413 320.499C436.698 320.33 436.902 320.084 437.024 319.763L438.705 319.952C438.545 320.615 438.174 321.147 437.591 321.548C437.011 321.949 436.275 322.149 435.384 322.149ZM433.464 317.461H437.054C437.051 316.941 436.888 316.511 436.567 316.173C436.249 315.835 435.831 315.666 435.314 315.666C434.777 315.666 434.341 315.844 434.006 316.198C433.672 316.553 433.491 316.974 433.464 317.461ZM442.499 322.154C441.77 322.154 441.162 321.959 440.675 321.567C440.187 321.176 439.944 320.606 439.944 319.857C439.944 319.284 440.081 318.84 440.356 318.525C440.635 318.207 440.994 317.976 441.435 317.834C441.879 317.688 442.348 317.589 442.842 317.536C443.515 317.463 443.997 317.395 444.289 317.332C444.584 317.269 444.731 317.108 444.731 316.849V316.82C444.731 316.445 444.62 316.155 444.398 315.95C444.176 315.744 443.856 315.641 443.439 315.641C442.998 315.641 442.648 315.737 442.39 315.93C442.135 316.122 441.962 316.349 441.873 316.611L440.192 316.372C440.391 315.676 440.779 315.151 441.356 314.796C441.936 314.442 442.627 314.264 443.429 314.264C443.793 314.264 444.158 314.307 444.523 314.393C444.887 314.48 445.22 314.622 445.522 314.821C445.827 315.02 446.07 315.288 446.253 315.626C446.438 315.964 446.531 316.385 446.531 316.889V322H444.801V320.951H444.741C444.579 321.272 444.314 321.554 443.946 321.796C443.581 322.035 443.099 322.154 442.499 322.154ZM442.966 320.832C443.51 320.832 443.941 320.676 444.259 320.364C444.577 320.053 444.736 319.685 444.736 319.261V318.361C444.66 318.424 444.519 318.48 444.314 318.53C444.112 318.576 443.896 318.616 443.667 318.649C443.439 318.682 443.245 318.71 443.086 318.734C442.685 318.79 442.35 318.901 442.081 319.067C441.813 319.229 441.679 319.483 441.679 319.827C441.679 320.159 441.8 320.409 442.042 320.578C442.284 320.747 442.592 320.832 442.966 320.832ZM451.175 322.134C450.575 322.134 450.038 321.98 449.564 321.672C449.09 321.364 448.715 320.916 448.44 320.33C448.165 319.743 448.028 319.03 448.028 318.192C448.028 317.343 448.167 316.627 448.445 316.044C448.727 315.461 449.106 315.018 449.584 314.717C450.061 314.415 450.593 314.264 451.18 314.264C451.63 314.264 451.998 314.34 452.283 314.493C452.572 314.642 452.8 314.823 452.969 315.035C453.142 315.244 453.273 315.441 453.362 315.626H453.437V311.818H455.241V322H453.471V320.797H453.362C453.269 320.982 453.135 321.18 452.959 321.388C452.784 321.594 452.552 321.77 452.263 321.915C451.975 322.061 451.612 322.134 451.175 322.134ZM451.677 320.658C452.25 320.658 452.693 320.431 453.004 319.977C453.316 319.519 453.471 318.921 453.471 318.182C453.471 317.439 453.317 316.848 453.009 316.407C452.701 315.963 452.257 315.741 451.677 315.741C451.077 315.741 450.624 315.969 450.319 316.427C450.015 316.884 449.862 317.469 449.862 318.182C449.862 318.898 450.016 319.489 450.324 319.957C450.633 320.424 451.083 320.658 451.677 320.658ZM463.195 316.382L461.554 316.561C461.484 316.309 461.335 316.087 461.107 315.895C460.881 315.703 460.561 315.607 460.147 315.607C459.772 315.607 459.458 315.688 459.202 315.85C458.951 316.013 458.826 316.223 458.83 316.482C458.826 316.704 458.907 316.886 459.073 317.028C459.242 317.168 459.521 317.28 459.908 317.366L461.211 317.645C462.639 317.956 463.355 318.646 463.359 319.713C463.359 320.194 463.219 320.618 462.941 320.986C462.663 321.35 462.278 321.635 461.788 321.841C461.297 322.046 460.734 322.149 460.097 322.149C459.159 322.149 458.407 321.952 457.84 321.558C457.273 321.163 456.934 320.616 456.821 319.917L458.576 319.748C458.732 320.444 459.237 320.792 460.092 320.792C460.52 320.792 460.863 320.706 461.121 320.533C461.383 320.358 461.514 320.139 461.514 319.877C461.514 319.45 461.171 319.16 460.485 319.007L459.183 318.734C458.45 318.581 457.908 318.324 457.557 317.963C457.205 317.598 457.031 317.138 457.035 316.581C457.035 316.11 457.164 315.703 457.423 315.358C457.681 315.01 458.042 314.741 458.506 314.553C458.97 314.36 459.509 314.264 460.122 314.264C461.017 314.264 461.721 314.456 462.235 314.841C462.752 315.222 463.072 315.736 463.195 316.382ZM466.642 317.526V322H464.843V311.818H466.603V315.661H466.692C466.868 315.227 467.143 314.886 467.517 314.637C467.895 314.388 468.377 314.264 468.964 314.264C469.756 314.264 470.393 314.513 470.873 315.01C471.354 315.507 471.594 316.216 471.594 317.138V322H469.794V317.416C469.794 316.902 469.662 316.503 469.397 316.218C469.135 315.93 468.767 315.786 468.293 315.786C467.812 315.786 467.416 315.938 467.105 316.243C466.797 316.545 466.642 316.972 466.642 317.526ZM476.809 322.149C476.044 322.149 475.382 321.988 474.826 321.667C474.272 321.345 473.846 320.891 473.548 320.305C473.25 319.718 473.1 319.025 473.1 318.227C473.1 317.441 473.25 316.752 473.548 316.158C473.846 315.562 474.266 315.098 474.806 314.766C475.349 314.432 475.986 314.264 476.715 314.264C477.341 314.264 477.92 314.4 478.45 314.672C478.98 314.94 479.404 315.36 479.723 315.93C480.044 316.496 480.205 317.227 480.205 318.122V318.674H474.885C474.895 319.327 475.076 319.836 475.427 320.2C475.782 320.565 476.251 320.747 476.834 320.747C477.222 320.747 477.557 320.664 477.838 320.499C478.123 320.33 478.327 320.084 478.45 319.763L480.13 319.952C479.971 320.615 479.6 321.147 479.017 321.548C478.437 321.949 477.701 322.149 476.809 322.149ZM474.89 317.461H478.48C478.476 316.941 478.314 316.511 477.993 316.173C477.674 315.835 477.257 315.666 476.74 315.666C476.203 315.666 475.767 315.844 475.432 316.198C475.097 316.553 474.917 316.974 474.89 317.461ZM485.108 322.149C484.343 322.149 483.681 321.988 483.124 321.667C482.571 321.345 482.145 320.891 481.847 320.305C481.548 319.718 481.399 319.025 481.399 318.227C481.399 317.441 481.548 316.752 481.847 316.158C482.145 315.562 482.564 315.098 483.105 314.766C483.648 314.432 484.285 314.264 485.014 314.264C485.64 314.264 486.218 314.4 486.749 314.672C487.279 314.94 487.703 315.36 488.021 315.93C488.343 316.496 488.504 317.227 488.504 318.122V318.674H483.184C483.194 319.327 483.375 319.836 483.726 320.2C484.081 320.565 484.55 320.747 485.133 320.747C485.521 320.747 485.856 320.664 486.137 320.499C486.422 320.33 486.626 320.084 486.749 319.763L488.429 319.952C488.27 320.615 487.899 321.147 487.316 321.548C486.735 321.949 486 322.149 485.108 322.149ZM483.189 317.461H486.779C486.775 316.941 486.613 316.511 486.291 316.173C485.973 315.835 485.556 315.666 485.039 315.666C484.502 315.666 484.066 315.844 483.731 316.198C483.396 316.553 483.216 316.974 483.189 317.461ZM493.839 314.364V315.756H492.333V319.703C492.333 320.064 492.413 320.303 492.572 320.419C492.731 320.532 492.923 320.588 493.148 320.588C493.261 320.588 493.364 320.58 493.457 320.563C493.553 320.547 493.626 320.532 493.675 320.518L493.979 321.925C493.883 321.959 493.745 321.995 493.566 322.035C493.39 322.075 493.175 322.098 492.92 322.104C492.244 322.124 491.675 321.959 491.214 321.607C490.757 321.256 490.53 320.721 490.533 320.001V315.756H489.45V314.364H490.533V312.534H492.333V314.364H493.839ZM501.271 316.382L499.63 316.561C499.561 316.309 499.411 316.087 499.183 315.895C498.957 315.703 498.637 315.607 498.223 315.607C497.849 315.607 497.534 315.688 497.279 315.85C497.027 316.013 496.902 316.223 496.906 316.482C496.902 316.704 496.984 316.886 497.149 317.028C497.318 317.168 497.597 317.28 497.985 317.366L499.287 317.645C500.716 317.956 501.432 318.646 501.435 319.713C501.435 320.194 501.296 320.618 501.017 320.986C500.739 321.35 500.354 321.635 499.864 321.841C499.373 322.046 498.81 322.149 498.173 322.149C497.235 322.149 496.483 321.952 495.916 321.558C495.35 321.163 495.01 320.616 494.897 319.917L496.652 319.748C496.808 320.444 497.313 320.792 498.169 320.792C498.596 320.792 498.939 320.706 499.198 320.533C499.459 320.358 499.59 320.139 499.59 319.877C499.59 319.45 499.247 319.16 498.561 319.007L497.259 318.734C496.526 318.581 495.984 318.324 495.633 317.963C495.282 317.598 495.108 317.138 495.111 316.581C495.111 316.11 495.24 315.703 495.499 315.358C495.757 315.01 496.119 314.741 496.583 314.553C497.047 314.36 497.585 314.264 498.198 314.264C499.093 314.264 499.798 314.456 500.311 314.841C500.828 315.222 501.148 315.736 501.271 316.382Z" fill="#8B8B90"/>
<circle cx="4" cy="196" r="4" fill="#8B8B90"/>
<rect x="14" y="206" width="50" height="29" rx="1" fill="#F2F2F4"/>
<path d="M29.0213 215.818H30.8509V222.977C30.8509 223.634 30.7133 224.199 30.4382 224.673C30.1631 225.143 29.7786 225.506 29.2848 225.761C28.7943 226.013 28.2209 226.139 27.5646 226.139C26.9714 226.139 26.4361 226.033 25.9588 225.821C25.4815 225.606 25.1037 225.287 24.8253 224.866C24.5469 224.446 24.4077 223.922 24.4077 223.295H26.2422C26.2488 223.706 26.3797 224.031 26.6349 224.27C26.8902 224.505 27.2232 224.623 27.6342 224.623C28.0784 224.623 28.4197 224.484 28.6584 224.205C28.897 223.924 29.018 223.514 29.0213 222.977V215.818ZM32.8519 215.818H35.109L38.1317 223.196H38.2511L41.2738 215.818H43.5309V226H41.761V219.005H41.6665L38.8526 225.97H37.5302L34.7163 218.99H34.6218V226H32.8519V215.818ZM51.0728 218.617C51.0264 218.183 50.8325 217.845 50.4911 217.603C50.1497 217.361 49.704 217.24 49.1538 217.24C48.5771 217.24 48.1263 217.366 47.8015 217.618C47.4767 217.866 47.3126 218.183 47.3093 218.567C47.306 218.849 47.3905 219.083 47.5629 219.268C47.7352 219.451 47.954 219.597 48.2191 219.706C48.4876 219.815 48.761 219.903 49.0394 219.969L49.994 220.208C50.5044 220.327 50.9866 220.505 51.4407 220.74C51.8981 220.972 52.2693 221.284 52.5543 221.675C52.8427 222.062 52.9869 222.551 52.9869 223.141C52.9835 224.04 52.6438 224.767 51.9677 225.324C51.2915 225.877 50.3436 226.154 49.1239 226.154C47.9374 226.154 46.9911 225.881 46.2852 225.334C45.5792 224.784 45.208 224.003 45.1715 222.992H46.9862C47.0226 223.526 47.2414 223.924 47.6424 224.185C48.0434 224.447 48.5323 224.578 49.109 224.578C49.7122 224.578 50.2011 224.446 50.5756 224.18C50.9502 223.912 51.1391 223.561 51.1424 223.126C51.1391 222.732 50.9701 222.434 50.6353 222.232C50.3039 222.026 49.863 221.854 49.3129 221.714L48.1545 221.416C47.3159 221.201 46.6531 220.874 46.1658 220.437C45.6819 219.996 45.44 219.411 45.44 218.682C45.44 218.082 45.6024 217.557 45.9272 217.106C46.252 216.655 46.6961 216.305 47.2596 216.057C47.8263 215.805 48.466 215.679 49.1786 215.679C49.9012 215.679 50.5359 215.805 51.0827 216.057C51.6296 216.305 52.0572 216.652 52.3654 217.096C52.677 217.537 52.8377 218.044 52.8477 218.617H51.0728Z" fill="#8B8B90"/>
<circle cx="4" cy="388" r="4" fill="#8B8B90"/>
<rect x="14" y="398" width="53" height="29" rx="1" fill="#F2F2F4"/>
<path d="M33.7195 411.254H31.8601C31.754 410.644 31.4789 410.171 31.0348 409.837C30.5907 409.502 30.0587 409.335 29.4389 409.335C28.607 409.335 27.9259 409.643 27.3956 410.259C26.8653 410.876 26.6001 411.759 26.6001 412.909C26.6001 414.076 26.8653 414.964 27.3956 415.574C27.9292 416.18 28.6087 416.484 29.4339 416.484C30.0438 416.484 30.5708 416.323 31.0149 416.001C31.4624 415.677 31.7441 415.216 31.8601 414.619L33.7195 414.629C33.6267 415.279 33.393 415.869 33.0185 416.399C32.6439 416.929 32.1501 417.352 31.5369 417.667C30.9271 417.982 30.2178 418.139 29.4091 418.139C28.5142 418.139 27.7154 417.932 27.0128 417.518C26.3101 417.1 25.7566 416.502 25.3523 415.723C24.9479 414.941 24.7457 414.003 24.7457 412.909C24.7457 411.812 24.9496 410.874 25.3572 410.095C25.7649 409.313 26.3201 408.715 27.0227 408.3C27.7287 407.886 28.5241 407.679 29.4091 407.679C30.1615 407.679 30.8426 407.82 31.4524 408.102C32.0656 408.383 32.571 408.791 32.9688 409.325C33.3665 409.855 33.6167 410.498 33.7195 411.254ZM35.4086 407.818H37.6657L40.6884 415.196H40.8077L43.8304 407.818H46.0875V418H44.3176V411.005H44.2232L41.4093 417.97H40.0868L37.2729 410.99H37.1784V418H35.4086V407.818ZM53.6294 410.617C53.583 410.183 53.3891 409.845 53.0478 409.603C52.7064 409.361 52.2606 409.24 51.7104 409.24C51.1337 409.24 50.6829 409.366 50.3581 409.618C50.0333 409.866 49.8693 410.183 49.8659 410.567C49.8626 410.849 49.9471 411.083 50.1195 411.268C50.2918 411.451 50.5106 411.597 50.7757 411.706C51.0442 411.815 51.3176 411.903 51.5961 411.969L52.5506 412.208C53.061 412.327 53.5433 412.505 53.9973 412.74C54.4547 412.972 54.8259 413.284 55.111 413.675C55.3993 414.062 55.5435 414.551 55.5435 415.141C55.5402 416.04 55.2005 416.767 54.5243 417.324C53.8482 417.877 52.9003 418.154 51.6806 418.154C50.494 418.154 49.5478 417.881 48.8418 417.334C48.1358 416.784 47.7646 416.003 47.7282 414.992H49.5428C49.5792 415.526 49.798 415.924 50.199 416.185C50.6001 416.447 51.089 416.578 51.6657 416.578C52.2689 416.578 52.7578 416.446 53.1323 416.18C53.5068 415.912 53.6957 415.561 53.699 415.126C53.6957 414.732 53.5267 414.434 53.1919 414.232C52.8605 414.026 52.4197 413.854 51.8695 413.714L50.7111 413.416C49.8726 413.201 49.2097 412.874 48.7225 412.437C48.2386 411.996 47.9966 411.411 47.9966 410.682C47.9966 410.082 48.159 409.557 48.4838 409.106C48.8087 408.655 49.2528 408.305 49.8162 408.057C50.383 407.805 51.0227 407.679 51.7353 407.679C52.4578 407.679 53.0925 407.805 53.6394 408.057C54.1863 408.305 54.6138 408.652 54.9221 409.096C55.2336 409.537 55.3944 410.044 55.4043 410.617H53.6294Z" fill="#8B8B90"/>
<circle cx="4" cy="4" r="4" fill="#8B8B90"/>
<rect x="14" y="14" width="49" height="29" rx="1" fill="#F2F2F4"/>
<path d="M25.0043 34V23.8182H31.6264V25.3643H26.8487V28.1286H31.2834V29.6747H26.8487V32.4538H31.6662V34H25.0043ZM33.5082 34V23.8182H35.3526V28.1286H40.0707V23.8182H41.9201V34H40.0707V29.6747H35.3526V34H33.5082ZM43.9261 34V23.8182H47.7443C48.9143 23.8182 49.8042 24.1181 50.4141 24.718C51.0272 25.3179 51.3338 26.1035 51.3338 27.0746C51.3338 27.7673 51.178 28.3622 50.8665 28.8594C50.5549 29.3565 50.1009 29.7244 49.5043 29.9631L51.7067 34H49.6484L47.6499 30.2713H45.7706V34H43.9261ZM45.7706 28.7401H47.4709C48.1536 28.7401 48.6541 28.5975 48.9723 28.3125C49.2938 28.0275 49.4545 27.6148 49.4545 27.0746C49.4545 26.531 49.2938 26.1101 48.9723 25.8118C48.6541 25.5102 48.1503 25.3594 47.4609 25.3594H45.7706V28.7401Z" fill="#8B8B90"/>
<circle cx="388" cy="97" r="4" fill="#8B8B90"/>
<rect x="398" y="107" width="58" height="29" rx="1" fill="#F2F2F4"/>
<path d="M409.004 127V116.818H410.849V121.129H415.567V116.818H417.416V127H415.567V122.675H410.849V127H409.004ZM419.422 116.818H421.679L424.702 124.196H424.821L427.844 116.818H430.101V127H428.331V120.005H428.237L425.423 126.97H424.1L421.287 119.99H421.192V127H419.422V116.818ZM433.954 116.818V127H432.11V116.818H433.954ZM441.485 119.617C441.439 119.183 441.245 118.845 440.903 118.603C440.562 118.361 440.116 118.24 439.566 118.24C438.989 118.24 438.538 118.366 438.214 118.618C437.889 118.866 437.725 119.183 437.721 119.567C437.718 119.849 437.803 120.083 437.975 120.268C438.147 120.451 438.366 120.597 438.631 120.706C438.9 120.815 439.173 120.903 439.452 120.969L440.406 121.208C440.916 121.327 441.399 121.505 441.853 121.74C442.31 121.972 442.681 122.284 442.966 122.675C443.255 123.062 443.399 123.551 443.399 124.141C443.396 125.04 443.056 125.767 442.38 126.324C441.704 126.877 440.756 127.154 439.536 127.154C438.349 127.154 437.403 126.881 436.697 126.334C435.991 125.784 435.62 125.003 435.584 123.992H437.398C437.435 124.526 437.653 124.924 438.055 125.185C438.456 125.447 438.944 125.578 439.521 125.578C440.124 125.578 440.613 125.446 440.988 125.18C441.362 124.912 441.551 124.561 441.555 124.126C441.551 123.732 441.382 123.434 441.047 123.232C440.716 123.026 440.275 122.854 439.725 122.714L438.567 122.416C437.728 122.201 437.065 121.874 436.578 121.437C436.094 120.996 435.852 120.411 435.852 119.682C435.852 119.082 436.015 118.557 436.339 118.106C436.664 117.655 437.108 117.305 437.672 117.057C438.238 116.805 438.878 116.679 439.591 116.679C440.313 116.679 440.948 116.805 441.495 117.057C442.042 117.305 442.469 117.652 442.778 118.096C443.089 118.537 443.25 119.044 443.26 119.617H441.485Z" fill="#8B8B90"/>
<rect x="110" y="302" width="110" height="29" rx="1" fill="#DBD6FF"/>
<path d="M121.004 322V311.818H124.822C125.605 311.818 126.261 311.964 126.791 312.256C127.325 312.547 127.728 312.947 127.999 313.454C128.274 313.961 128.412 314.539 128.412 315.189C128.412 315.842 128.274 316.422 127.999 316.929C127.724 317.436 127.318 317.835 126.781 318.127C126.244 318.415 125.583 318.56 124.798 318.56H122.849V322H121.004ZM122.849 317.043H124.549C125.235 317.043 125.737 316.869 126.055 316.521C126.374 316.173 126.533 315.729 126.533 315.189C126.533 314.645 126.374 314.205 126.055 313.866C125.737 313.528 125.232 313.359 124.539 313.359H122.849V317.043ZM134.802 318.788V314.364H136.601V322H134.856V320.643H134.777C134.604 321.07 134.321 321.42 133.927 321.692C133.536 321.964 133.053 322.099 132.48 322.099C131.731 322.099 131.119 321.851 130.645 321.354C130.171 320.853 129.934 320.144 129.934 319.226V314.364H131.734V318.947C131.734 319.431 131.867 319.816 132.132 320.101C132.397 320.386 132.745 320.528 133.176 320.528C133.441 320.528 133.698 320.464 133.947 320.335C134.195 320.205 134.399 320.013 134.558 319.758C134.72 319.499 134.802 319.176 134.802 318.788ZM138.532 322V311.818H140.331V315.626H140.406C140.499 315.441 140.628 315.244 140.794 315.035C140.963 314.823 141.191 314.642 141.48 314.493C141.771 314.34 142.141 314.264 142.588 314.264C143.178 314.264 143.71 314.415 144.184 314.717C144.662 315.018 145.039 315.461 145.318 316.044C145.6 316.627 145.74 317.343 145.74 318.192C145.74 319.03 145.603 319.743 145.328 320.33C145.053 320.916 144.678 321.364 144.204 321.672C143.73 321.98 143.193 322.134 142.593 322.134C142.156 322.134 141.793 322.061 141.505 321.915C141.216 321.77 140.984 321.594 140.809 321.388C140.636 321.18 140.502 320.982 140.406 320.797H140.301V322H138.532ZM140.297 318.182C140.297 318.921 140.452 319.519 140.764 319.977C141.075 320.431 141.518 320.658 142.091 320.658C142.685 320.658 143.135 320.424 143.444 319.957C143.752 319.489 143.906 318.898 143.906 318.182C143.906 317.469 143.753 316.884 143.449 316.427C143.144 315.969 142.691 315.741 142.091 315.741C141.511 315.741 141.067 315.963 140.759 316.407C140.451 316.848 140.297 317.439 140.297 318.182ZM149.07 311.818V322H147.27V311.818H149.07ZM150.921 322V314.364H152.721V322H150.921ZM151.826 313.28C151.537 313.28 151.29 313.185 151.085 312.996C150.883 312.804 150.782 312.574 150.782 312.305C150.782 312.034 150.883 311.803 151.085 311.614C151.29 311.422 151.537 311.326 151.826 311.326C152.111 311.326 152.354 311.422 152.556 311.614C152.762 311.803 152.865 312.034 152.865 312.305C152.865 312.574 152.762 312.804 152.556 312.996C152.354 313.185 152.111 313.28 151.826 313.28ZM157.902 322.149C157.143 322.149 156.49 321.982 155.943 321.647C155.396 321.312 154.976 320.848 154.681 320.255C154.389 319.662 154.243 318.981 154.243 318.212C154.243 317.433 154.392 316.748 154.691 316.158C154.989 315.565 155.41 315.101 155.953 314.766C156.5 314.432 157.146 314.264 157.892 314.264C158.515 314.264 159.066 314.379 159.543 314.607C160.02 314.833 160.401 315.151 160.686 315.562C160.971 315.973 161.134 316.455 161.173 317.009H159.453C159.384 316.641 159.218 316.334 158.956 316.089C158.698 315.84 158.351 315.716 157.917 315.716C157.364 315.716 156.916 315.935 156.575 316.372C156.237 316.806 156.068 317.41 156.068 318.182C156.068 318.961 156.235 319.572 156.57 320.016C156.908 320.46 157.357 320.683 157.917 320.683C158.311 320.683 158.646 320.57 158.921 320.344C159.2 320.119 159.377 319.801 159.453 319.39H161.173C161.13 319.93 160.971 320.407 160.696 320.822C160.421 321.236 160.047 321.561 159.573 321.796C159.099 322.031 158.542 322.149 157.902 322.149ZM171.737 314.617C171.69 314.183 171.497 313.845 171.155 313.603C170.814 313.361 170.368 313.24 169.818 313.24C169.241 313.24 168.79 313.366 168.466 313.618C168.141 313.866 167.977 314.183 167.973 314.567C167.97 314.849 168.055 315.083 168.227 315.268C168.399 315.451 168.618 315.597 168.883 315.706C169.152 315.815 169.425 315.903 169.703 315.969L170.658 316.208C171.168 316.327 171.651 316.505 172.105 316.74C172.562 316.972 172.933 317.284 173.218 317.675C173.507 318.062 173.651 318.551 173.651 319.141C173.648 320.04 173.308 320.767 172.632 321.324C171.956 321.877 171.008 322.154 169.788 322.154C168.601 322.154 167.655 321.881 166.949 321.334C166.243 320.784 165.872 320.003 165.836 318.992H167.65C167.687 319.526 167.905 319.924 168.306 320.185C168.708 320.447 169.196 320.578 169.773 320.578C170.376 320.578 170.865 320.446 171.24 320.18C171.614 319.912 171.803 319.561 171.806 319.126C171.803 318.732 171.634 318.434 171.299 318.232C170.968 318.026 170.527 317.854 169.977 317.714L168.819 317.416C167.98 317.201 167.317 316.874 166.83 316.437C166.346 315.996 166.104 315.411 166.104 314.682C166.104 314.082 166.266 313.557 166.591 313.106C166.916 312.655 167.36 312.305 167.924 312.057C168.49 311.805 169.13 311.679 169.843 311.679C170.565 311.679 171.2 311.805 171.747 312.057C172.294 312.305 172.721 312.652 173.029 313.096C173.341 313.537 173.502 314.044 173.512 314.617H171.737ZM177.413 322.154C176.684 322.154 176.076 321.959 175.589 321.567C175.101 321.176 174.858 320.606 174.858 319.857C174.858 319.284 174.995 318.84 175.27 318.525C175.549 318.207 175.908 317.976 176.349 317.834C176.793 317.688 177.262 317.589 177.756 317.536C178.429 317.463 178.911 317.395 179.203 317.332C179.498 317.269 179.645 317.108 179.645 316.849V316.82C179.645 316.445 179.534 316.155 179.312 315.95C179.09 315.744 178.77 315.641 178.353 315.641C177.912 315.641 177.562 315.737 177.304 315.93C177.049 316.122 176.876 316.349 176.787 316.611L175.106 316.372C175.305 315.676 175.693 315.151 176.27 314.796C176.85 314.442 177.541 314.264 178.343 314.264C178.707 314.264 179.072 314.307 179.437 314.393C179.801 314.48 180.134 314.622 180.436 314.821C180.741 315.02 180.984 315.288 181.167 315.626C181.352 315.964 181.445 316.385 181.445 316.889V322H179.715V320.951H179.655C179.493 321.272 179.228 321.554 178.86 321.796C178.495 322.035 178.013 322.154 177.413 322.154ZM177.881 320.832C178.424 320.832 178.855 320.676 179.173 320.364C179.491 320.053 179.65 319.685 179.65 319.261V318.361C179.574 318.424 179.433 318.48 179.228 318.53C179.026 318.576 178.81 318.616 178.581 318.649C178.353 318.682 178.159 318.71 178 318.734C177.599 318.79 177.264 318.901 176.996 319.067C176.727 319.229 176.593 319.483 176.593 319.827C176.593 320.159 176.714 320.409 176.956 320.578C177.198 320.747 177.506 320.832 177.881 320.832ZM187.123 314.364V315.756H185.537V322H183.737V315.756H182.608V314.364H183.737V313.643C183.737 313.129 183.843 312.701 184.055 312.36C184.271 312.019 184.559 311.763 184.92 311.594C185.282 311.425 185.683 311.341 186.123 311.341C186.435 311.341 186.712 311.366 186.954 311.415C187.196 311.465 187.375 311.51 187.491 311.55L187.128 312.942C187.055 312.919 186.96 312.895 186.844 312.872C186.728 312.846 186.599 312.832 186.456 312.832C186.122 312.832 185.885 312.914 185.746 313.076C185.606 313.235 185.537 313.464 185.537 313.762V314.364H187.123ZM191.626 322.149C190.86 322.149 190.199 321.988 189.642 321.667C189.089 321.345 188.663 320.891 188.364 320.305C188.066 319.718 187.917 319.025 187.917 318.227C187.917 317.441 188.066 316.752 188.364 316.158C188.663 315.562 189.082 315.098 189.622 314.766C190.166 314.432 190.802 314.264 191.531 314.264C192.158 314.264 192.736 314.4 193.266 314.672C193.797 314.94 194.221 315.36 194.539 315.93C194.861 316.496 195.021 317.227 195.021 318.122V318.674H189.702C189.712 319.327 189.892 319.836 190.244 320.2C190.598 320.565 191.067 320.747 191.651 320.747C192.038 320.747 192.373 320.664 192.655 320.499C192.94 320.33 193.144 320.084 193.266 319.763L194.947 319.952C194.788 320.615 194.416 321.147 193.833 321.548C193.253 321.949 192.517 322.149 191.626 322.149ZM189.707 317.461H193.296C193.293 316.941 193.13 316.511 192.809 316.173C192.491 315.835 192.073 315.666 191.556 315.666C191.019 315.666 190.583 315.844 190.249 316.198C189.914 316.553 189.733 316.974 189.707 317.461ZM200.357 314.364V315.756H198.851V319.703C198.851 320.064 198.93 320.303 199.089 320.419C199.248 320.532 199.441 320.588 199.666 320.588C199.779 320.588 199.881 320.58 199.974 320.563C200.07 320.547 200.143 320.532 200.193 320.518L200.496 321.925C200.4 321.959 200.263 321.995 200.084 322.035C199.908 322.075 199.693 322.098 199.437 322.104C198.761 322.124 198.193 321.959 197.732 321.607C197.275 321.256 197.048 320.721 197.051 320.001V315.756H195.967V314.364H197.051V312.534H198.851V314.364H200.357ZM202.981 324.849C202.736 324.849 202.509 324.829 202.3 324.789C202.094 324.753 201.93 324.708 201.808 324.655L202.225 323.258C202.62 323.371 202.949 323.389 203.214 323.312C203.48 323.24 203.698 322.993 203.871 322.572L204.025 322.159L201.256 314.364H203.165L204.925 320.131H205.004L206.769 314.364L208.693 314.374L205.626 322.925C205.41 323.525 205.09 323.995 204.666 324.337C204.245 324.678 203.683 324.849 202.981 324.849Z" fill="#7860FF"/>
<circle cx="100" cy="292" r="4" fill="#5D4FFF"/>
<circle cx="292" cy="388" r="4" fill="#FF9C72"/>
<rect x="302" y="398" width="151" height="29" rx="1" fill="#FFD2BF"/>
<path d="M318.538 410.617C318.491 410.183 318.297 409.845 317.956 409.603C317.615 409.361 317.169 409.24 316.619 409.24C316.042 409.24 315.591 409.366 315.266 409.618C314.942 409.866 314.777 410.183 314.774 410.567C314.771 410.849 314.855 411.083 315.028 411.268C315.2 411.451 315.419 411.597 315.684 411.706C315.952 411.815 316.226 411.903 316.504 411.969L317.459 412.208C317.969 412.327 318.451 412.505 318.906 412.74C319.363 412.972 319.734 413.284 320.019 413.675C320.308 414.062 320.452 414.551 320.452 415.141C320.448 416.04 320.109 416.767 319.433 417.324C318.756 417.877 317.808 418.154 316.589 418.154C315.402 418.154 314.456 417.881 313.75 417.334C313.044 416.784 312.673 416.003 312.636 414.992H314.451C314.487 415.526 314.706 415.924 315.107 416.185C315.508 416.447 315.997 416.578 316.574 416.578C317.177 416.578 317.666 416.446 318.04 416.18C318.415 415.912 318.604 415.561 318.607 415.126C318.604 414.732 318.435 414.434 318.1 414.232C317.769 414.026 317.328 413.854 316.778 413.714L315.619 413.416C314.781 413.201 314.118 412.874 313.631 412.437C313.147 411.996 312.905 411.411 312.905 410.682C312.905 410.082 313.067 409.557 313.392 409.106C313.717 408.655 314.161 408.305 314.724 408.057C315.291 407.805 315.931 407.679 316.643 407.679C317.366 407.679 318.001 407.805 318.548 408.057C319.094 408.305 319.522 408.652 319.83 409.096C320.142 409.537 320.303 410.044 320.312 410.617H318.538ZM325.347 418.149C324.588 418.149 323.936 417.982 323.389 417.647C322.842 417.312 322.421 416.848 322.126 416.255C321.834 415.662 321.688 414.981 321.688 414.212C321.688 413.433 321.838 412.748 322.136 412.158C322.434 411.565 322.855 411.101 323.399 410.766C323.945 410.432 324.592 410.264 325.338 410.264C325.961 410.264 326.511 410.379 326.988 410.607C327.465 410.833 327.847 411.151 328.132 411.562C328.417 411.973 328.579 412.455 328.619 413.009H326.899C326.829 412.641 326.663 412.334 326.401 412.089C326.143 411.84 325.797 411.716 325.362 411.716C324.809 411.716 324.361 411.935 324.02 412.372C323.682 412.806 323.513 413.41 323.513 414.182C323.513 414.961 323.68 415.572 324.015 416.016C324.353 416.46 324.802 416.683 325.362 416.683C325.757 416.683 326.092 416.57 326.367 416.344C326.645 416.119 326.822 415.801 326.899 415.39H328.619C328.576 415.93 328.417 416.407 328.142 416.822C327.866 417.236 327.492 417.561 327.018 417.796C326.544 418.031 325.987 418.149 325.347 418.149ZM330.097 418V410.364H331.896V418H330.097ZM331.001 409.28C330.713 409.28 330.466 409.185 330.261 408.996C330.058 408.804 329.957 408.574 329.957 408.305C329.957 408.034 330.058 407.803 330.261 407.614C330.466 407.422 330.713 407.326 331.001 407.326C331.286 407.326 331.53 407.422 331.732 407.614C331.938 407.803 332.04 408.034 332.04 408.305C332.04 408.574 331.938 408.804 331.732 408.996C331.53 409.185 331.286 409.28 331.001 409.28ZM337.128 418.149C336.362 418.149 335.701 417.988 335.144 417.667C334.59 417.345 334.165 416.891 333.866 416.305C333.568 415.718 333.419 415.025 333.419 414.227C333.419 413.441 333.568 412.752 333.866 412.158C334.165 411.562 334.584 411.098 335.124 410.766C335.668 410.432 336.304 410.264 337.033 410.264C337.66 410.264 338.238 410.4 338.768 410.672C339.299 410.94 339.723 411.36 340.041 411.93C340.363 412.496 340.523 413.227 340.523 414.122V414.674H335.204C335.214 415.327 335.394 415.836 335.746 416.2C336.1 416.565 336.569 416.747 337.153 416.747C337.54 416.747 337.875 416.664 338.157 416.499C338.442 416.33 338.646 416.084 338.768 415.763L340.449 415.952C340.29 416.615 339.918 417.147 339.335 417.548C338.755 417.949 338.019 418.149 337.128 418.149ZM335.209 413.461H338.798C338.795 412.941 338.632 412.511 338.311 412.173C337.993 411.835 337.575 411.666 337.058 411.666C336.521 411.666 336.085 411.844 335.751 412.198C335.416 412.553 335.235 412.974 335.209 413.461ZM343.846 413.526V418H342.046V410.364H343.766V411.661H343.855C344.031 411.237 344.311 410.899 344.696 410.647C345.083 410.392 345.562 410.264 346.132 410.264C346.921 410.264 347.554 410.514 348.032 411.015C348.512 411.515 348.751 412.223 348.748 413.138V418H346.948V413.416C346.948 412.906 346.815 412.506 346.55 412.218C346.288 411.93 345.925 411.786 345.461 411.786C344.987 411.786 344.6 411.938 344.298 412.243C343.996 412.545 343.846 412.972 343.846 413.526ZM354.39 410.364V411.756H352.884V415.703C352.884 416.064 352.963 416.303 353.123 416.419C353.282 416.532 353.474 416.588 353.699 416.588C353.812 416.588 353.915 416.58 354.007 416.563C354.104 416.547 354.176 416.532 354.226 416.518L354.529 417.925C354.433 417.959 354.296 417.995 354.117 418.035C353.941 418.075 353.726 418.098 353.471 418.104C352.794 418.124 352.226 417.959 351.765 417.607C351.308 417.256 351.081 416.721 351.084 416.001V411.756H350V410.364H351.084V408.534H352.884V410.364H354.39ZM355.895 418V410.364H357.695V418H355.895ZM356.8 409.28C356.512 409.28 356.265 409.185 356.059 408.996C355.857 408.804 355.756 408.574 355.756 408.305C355.756 408.034 355.857 407.803 356.059 407.614C356.265 407.422 356.512 407.326 356.8 407.326C357.085 407.326 357.329 407.422 357.531 407.614C357.737 407.803 357.839 408.034 357.839 408.305C357.839 408.574 357.737 408.804 357.531 408.996C357.329 409.185 357.085 409.28 356.8 409.28ZM363.414 410.364V411.756H361.828V418H360.028V411.756H358.9V410.364H360.028V409.643C360.028 409.129 360.134 408.701 360.346 408.36C360.562 408.019 360.85 407.763 361.211 407.594C361.573 407.425 361.974 407.341 362.414 407.341C362.726 407.341 363.003 407.366 363.245 407.415C363.487 407.465 363.666 407.51 363.782 407.55L363.419 408.942C363.346 408.919 363.251 408.895 363.135 408.872C363.019 408.846 362.89 408.832 362.748 408.832C362.413 408.832 362.176 408.914 362.037 409.076C361.897 409.235 361.828 409.464 361.828 409.762V410.364H363.414ZM364.823 418V410.364H366.623V418H364.823ZM365.728 409.28C365.44 409.28 365.193 409.185 364.987 408.996C364.785 408.804 364.684 408.574 364.684 408.305C364.684 408.034 364.785 407.803 364.987 407.614C365.193 407.422 365.44 407.326 365.728 407.326C366.013 407.326 366.257 407.422 366.459 407.614C366.664 407.803 366.767 408.034 366.767 408.305C366.767 408.574 366.664 408.804 366.459 408.996C366.257 409.185 366.013 409.28 365.728 409.28ZM371.805 418.149C371.046 418.149 370.393 417.982 369.846 417.647C369.299 417.312 368.878 416.848 368.583 416.255C368.291 415.662 368.145 414.981 368.145 414.212C368.145 413.433 368.295 412.748 368.593 412.158C368.891 411.565 369.312 411.101 369.856 410.766C370.403 410.432 371.049 410.264 371.795 410.264C372.418 410.264 372.968 410.379 373.445 410.607C373.922 410.833 374.304 411.151 374.589 411.562C374.874 411.973 375.036 412.455 375.076 413.009H373.356C373.286 412.641 373.12 412.334 372.858 412.089C372.6 411.84 372.254 411.716 371.819 411.716C371.266 411.716 370.818 411.935 370.477 412.372C370.139 412.806 369.97 413.41 369.97 414.182C369.97 414.961 370.137 415.572 370.472 416.016C370.81 416.46 371.259 416.683 371.819 416.683C372.214 416.683 372.549 416.57 372.824 416.344C373.102 416.119 373.279 415.801 373.356 415.39H375.076C375.033 415.93 374.874 416.407 374.599 416.822C374.323 417.236 373.949 417.561 373.475 417.796C373.001 418.031 372.444 418.149 371.805 418.149ZM380.106 418V407.818H383.924C385.094 407.818 385.984 408.118 386.594 408.718C387.207 409.318 387.513 410.103 387.513 411.075C387.513 411.767 387.358 412.362 387.046 412.859C386.735 413.357 386.281 413.724 385.684 413.963L387.886 418H385.828L383.83 414.271H381.95V418H380.106ZM381.95 412.74H383.651C384.333 412.74 384.834 412.598 385.152 412.312C385.473 412.027 385.634 411.615 385.634 411.075C385.634 410.531 385.473 410.11 385.152 409.812C384.834 409.51 384.33 409.359 383.641 409.359H381.95V412.74ZM392.403 418.149C391.637 418.149 390.976 417.988 390.419 417.667C389.866 417.345 389.44 416.891 389.142 416.305C388.843 415.718 388.694 415.025 388.694 414.227C388.694 413.441 388.843 412.752 389.142 412.158C389.44 411.562 389.859 411.098 390.4 410.766C390.943 410.432 391.579 410.264 392.309 410.264C392.935 410.264 393.513 410.4 394.044 410.672C394.574 410.94 394.998 411.36 395.316 411.93C395.638 412.496 395.799 413.227 395.799 414.122V414.674H390.479C390.489 415.327 390.67 415.836 391.021 416.2C391.376 416.565 391.845 416.747 392.428 416.747C392.816 416.747 393.15 416.664 393.432 416.499C393.717 416.33 393.921 416.084 394.044 415.763L395.724 415.952C395.565 416.615 395.194 417.147 394.61 417.548C394.03 417.949 393.295 418.149 392.403 418.149ZM390.484 413.461H394.074C394.07 412.941 393.908 412.511 393.586 412.173C393.268 411.835 392.85 411.666 392.333 411.666C391.797 411.666 391.361 411.844 391.026 412.198C390.691 412.553 390.511 412.974 390.484 413.461ZM403.357 412.382L401.716 412.561C401.646 412.309 401.497 412.087 401.269 411.895C401.043 411.703 400.723 411.607 400.309 411.607C399.935 411.607 399.62 411.688 399.365 411.85C399.113 412.013 398.988 412.223 398.992 412.482C398.988 412.704 399.07 412.886 399.235 413.028C399.404 413.168 399.683 413.28 400.07 413.366L401.373 413.645C402.802 413.956 403.517 414.646 403.521 415.713C403.521 416.194 403.382 416.618 403.103 416.986C402.825 417.35 402.44 417.635 401.95 417.841C401.459 418.046 400.896 418.149 400.259 418.149C399.321 418.149 398.569 417.952 398.002 417.558C397.436 417.163 397.096 416.616 396.983 415.917L398.738 415.748C398.894 416.444 399.399 416.792 400.254 416.792C400.682 416.792 401.025 416.706 401.284 416.533C401.545 416.358 401.676 416.139 401.676 415.877C401.676 415.45 401.333 415.16 400.647 415.007L399.345 414.734C398.612 414.581 398.07 414.324 397.719 413.963C397.368 413.598 397.194 413.138 397.197 412.581C397.197 412.11 397.326 411.703 397.585 411.358C397.843 411.01 398.204 410.741 398.669 410.553C399.133 410.36 399.671 410.264 400.284 410.264C401.179 410.264 401.883 410.456 402.397 410.841C402.914 411.222 403.234 411.736 403.357 412.382ZM408.385 418.149C407.62 418.149 406.959 417.988 406.402 417.667C405.848 417.345 405.422 416.891 405.124 416.305C404.826 415.718 404.677 415.025 404.677 414.227C404.677 413.441 404.826 412.752 405.124 412.158C405.422 411.562 405.842 411.098 406.382 410.766C406.925 410.432 407.562 410.264 408.291 410.264C408.917 410.264 409.496 410.4 410.026 410.672C410.556 410.94 410.981 411.36 411.299 411.93C411.62 412.496 411.781 413.227 411.781 414.122V414.674H406.461C406.471 415.327 406.652 415.836 407.003 416.2C407.358 416.565 407.827 416.747 408.41 416.747C408.798 416.747 409.133 416.664 409.415 416.499C409.7 416.33 409.903 416.084 410.026 415.763L411.706 415.952C411.547 416.615 411.176 417.147 410.593 417.548C410.013 417.949 409.277 418.149 408.385 418.149ZM406.466 413.461H410.056C410.053 412.941 409.89 412.511 409.569 412.173C409.251 411.835 408.833 411.666 408.316 411.666C407.779 411.666 407.343 411.844 407.008 412.198C406.674 412.553 406.493 412.974 406.466 413.461ZM415.501 418.154C414.772 418.154 414.164 417.959 413.676 417.567C413.189 417.176 412.946 416.606 412.946 415.857C412.946 415.284 413.083 414.84 413.358 414.525C413.637 414.207 413.996 413.976 414.437 413.834C414.881 413.688 415.35 413.589 415.844 413.536C416.517 413.463 416.999 413.395 417.291 413.332C417.586 413.269 417.733 413.108 417.733 412.849V412.82C417.733 412.445 417.622 412.155 417.4 411.95C417.178 411.744 416.858 411.641 416.441 411.641C416 411.641 415.65 411.737 415.392 411.93C415.136 412.122 414.964 412.349 414.875 412.611L413.194 412.372C413.393 411.676 413.781 411.151 414.358 410.796C414.938 410.442 415.629 410.264 416.431 410.264C416.795 410.264 417.16 410.307 417.525 410.393C417.889 410.48 418.222 410.622 418.524 410.821C418.829 411.02 419.072 411.288 419.255 411.626C419.44 411.964 419.533 412.385 419.533 412.889V418H417.803V416.951H417.743C417.581 417.272 417.316 417.554 416.948 417.796C416.583 418.035 416.101 418.154 415.501 418.154ZM415.968 416.832C416.512 416.832 416.943 416.676 417.261 416.364C417.579 416.053 417.738 415.685 417.738 415.261V414.361C417.662 414.424 417.521 414.48 417.316 414.53C417.114 414.576 416.898 414.616 416.669 414.649C416.441 414.682 416.247 414.71 416.088 414.734C415.687 414.79 415.352 414.901 415.083 415.067C414.815 415.229 414.681 415.483 414.681 415.827C414.681 416.159 414.802 416.409 415.044 416.578C415.286 416.747 415.594 416.832 415.968 416.832ZM421.343 418V410.364H423.088V411.636H423.167C423.306 411.192 423.545 410.851 423.883 410.612C424.225 410.374 424.614 410.254 425.051 410.254C425.151 410.254 425.262 410.259 425.385 410.269C425.511 410.276 425.615 410.287 425.698 410.304V411.96C425.622 411.933 425.501 411.91 425.335 411.89C425.172 411.867 425.015 411.855 424.863 411.855C424.369 411.855 423.958 412.011 423.63 412.322C423.305 412.631 423.142 413.027 423.142 413.511V418H421.343ZM429.91 418.149C429.151 418.149 428.498 417.982 427.951 417.647C427.404 417.312 426.983 416.848 426.688 416.255C426.397 415.662 426.251 414.981 426.251 414.212C426.251 413.433 426.4 412.748 426.698 412.158C426.997 411.565 427.418 411.101 427.961 410.766C428.508 410.432 429.154 410.264 429.9 410.264C430.523 410.264 431.073 410.379 431.551 410.607C432.028 410.833 432.409 411.151 432.694 411.562C432.979 411.973 433.142 412.455 433.181 413.009H431.461C431.392 412.641 431.226 412.334 430.964 412.089C430.705 411.84 430.359 411.716 429.925 411.716C429.371 411.716 428.924 411.935 428.583 412.372C428.244 412.806 428.075 413.41 428.075 414.182C428.075 414.961 428.243 415.572 428.578 416.016C428.916 416.46 429.365 416.683 429.925 416.683C430.319 416.683 430.654 416.57 430.929 416.344C431.208 416.119 431.385 415.801 431.461 415.39H433.181C433.138 415.93 432.979 416.407 432.704 416.822C432.429 417.236 432.054 417.561 431.58 417.796C431.106 418.031 430.55 418.149 429.91 418.149ZM436.459 413.526V418H434.659V407.818H436.419V411.661H436.509C436.684 411.227 436.959 410.886 437.334 410.637C437.712 410.388 438.194 410.264 438.781 410.264C439.573 410.264 440.209 410.513 440.69 411.01C441.17 411.507 441.411 412.216 441.411 413.138V418H439.611V413.416C439.611 412.902 439.478 412.503 439.213 412.218C438.951 411.93 438.583 411.786 438.109 411.786C437.629 411.786 437.233 411.938 436.921 412.243C436.613 412.545 436.459 412.972 436.459 413.526Z" fill="#FF8450"/>
</svg>
