<svg width="50" height="50" viewBox="0 0 50 50" fill="none" xmlns="http://www.w3.org/2000/svg">
<circle cx="25" cy="25" r="25" fill="#F0F0F7"/>
<path d="M34.1683 17.3062C33.7438 15.639 30.601 14 25.1102 14C19.6233 14 16.4808 15.6369 16.053 17.3029C16.0201 17.367 16 17.4387 16 17.5159V32.6592C16 32.8043 16.0667 32.9323 16.1694 33.0191C16.8963 34.5678 19.9775 36 25.1102 36C30.2442 36 33.3257 34.5671 34.0516 33.0177C34.1533 32.9311 34.2194 32.8036 34.2194 32.6592V32.3142C34.2194 32.3114 34.2198 32.3088 34.2198 32.306C34.2198 32.3043 34.2194 32.3029 34.2194 32.3012V27.3777C34.2194 27.3749 34.2198 27.3723 34.2198 27.3695C34.2198 27.3678 34.2194 27.3664 34.2194 27.3647V22.5401C34.2194 22.5373 34.2198 22.5347 34.2198 22.5319C34.2198 22.5302 34.2194 22.5288 34.2194 22.5271V17.7026C34.2194 17.6997 34.2198 17.6971 34.2198 17.6943C34.2198 17.6914 34.2194 17.6886 34.2194 17.6858V17.5159C34.2194 17.4401 34.2 17.3696 34.1683 17.3062ZM33.2729 27.3751C33.263 28.6732 29.9137 30.117 25.1102 30.117C20.2995 30.117 16.9469 28.669 16.9469 27.3692C16.9469 27.3676 16.9465 27.3662 16.9465 27.3645V24.2021C18.2959 25.3367 21.0664 26.2259 25.1102 26.2259C29.1532 26.2259 31.923 25.3369 33.2729 24.2028V27.3751ZM33.2729 22.5375C33.263 23.8356 29.9137 25.2794 25.1102 25.2794C20.2995 25.2794 16.9469 23.8314 16.9469 22.5316C16.9469 22.53 16.9465 22.5286 16.9465 22.5269V19.3645C18.2959 20.4991 21.0664 21.3883 25.1102 21.3883C29.1532 21.3883 31.923 20.4996 33.2729 19.3652V22.5375ZM25.1102 14.9465C29.9137 14.9465 33.263 16.3903 33.2729 17.6884V17.7C33.263 18.998 29.9137 20.4418 25.1102 20.4418C20.2995 20.4418 16.9469 18.9938 16.9469 17.6943C16.9469 16.3948 20.2995 14.9465 25.1102 14.9465ZM25.1102 35.0535C20.2995 35.0535 16.9469 33.6055 16.9469 32.306C16.9469 32.3043 16.9465 32.3029 16.9465 32.3012V29.04C18.2959 30.1745 21.0664 31.0637 25.1102 31.0637C29.1532 31.0637 31.923 30.1748 33.2729 29.0407V32.3116C33.263 33.6099 29.9137 35.0535 25.1102 35.0535Z" fill="#4E4E56" stroke="#4E4E56" stroke-width="0.8"/>
</svg>
