<svg width="50" height="50" viewBox="0 0 50 50" fill="none" xmlns="http://www.w3.org/2000/svg">
<circle cx="25" cy="25" r="25" fill="#F0F0F7"/>
<path d="M21.9292 26.4856C23.7256 25.5777 24.9653 23.7026 24.9653 21.5346C24.9653 18.4828 22.5134 16 19.5001 16C16.4869 16 14.035 18.4831 14.035 21.5346C14.035 23.7023 15.2746 25.5777 17.0711 26.4856C11.375 27.8457 11.0034 33.8888 11 33.9574L11.846 34C11.8601 33.7175 12.2845 27.0696 19.4999 27.0696C26.7152 27.0696 27.1396 33.7172 27.154 34L28 33.9574C27.9966 33.8888 27.625 27.8457 21.9292 26.4856ZM14.8819 21.5346C14.8819 18.9558 16.9534 16.8579 19.4999 16.8579C22.0463 16.8579 24.1179 18.9558 24.1179 21.5346C24.1179 24.1135 22.0463 26.2116 19.4999 26.2116C16.9534 26.2116 14.8819 24.1135 14.8819 21.5346Z" fill="#4E4E56" stroke="#4E4E56"/>
<path d="M34.3576 28.1555C35.7314 27.4493 36.6793 25.9909 36.6793 24.3047C36.6793 21.931 34.8044 20 32.5001 20C30.1959 20 28.3209 21.9313 28.3209 24.3047C28.3209 25.9907 29.2689 27.4493 30.6426 28.1555C28.7463 28.616 27.6217 29.7669 26.9561 30.9241L27.194 31.8395C27.8551 30.3387 29.3093 28.6097 32.4999 28.6097C38.0175 28.6097 38.342 33.78 38.3531 34L39 33.9669C38.9974 33.9135 38.7132 29.2133 34.3576 28.1555ZM28.9685 24.3047C28.9685 22.2989 30.5526 20.6673 32.4999 20.6673C34.4472 20.6673 36.0313 22.2989 36.0313 24.3047C36.0313 26.3105 34.4472 27.9424 32.4999 27.9424C30.5526 27.9424 28.9685 26.3105 28.9685 24.3047Z" fill="#4E4E56" stroke="#4E4E56"/>
</svg>
