<svg width="50" height="50" viewBox="0 0 50 50" fill="none" xmlns="http://www.w3.org/2000/svg">
<circle cx="25" cy="25" r="25" fill="#F0F0F7"/>
<path d="M16.6632 22.8813L15.7563 22.1932C15.5015 21.9829 15.1092 22.0319 14.8974 22.311C14.6872 22.5658 14.7362 22.9581 15.0152 23.1698L16.7593 24.4931C16.8063 24.5204 16.8533 24.5476 16.9003 24.5748L16.9245 24.5763C16.9715 24.6035 17.02 24.6064 17.0685 24.6094C17.117 24.6124 17.1655 24.6153 17.2154 24.594C17.2397 24.5955 17.2397 24.5955 17.2397 24.5955C17.2896 24.5743 17.3396 24.553 17.3896 24.5317L19.2819 23.4308C19.459 23.32 19.5678 23.1319 19.5797 22.938C19.5871 22.8168 19.5703 22.6941 19.5035 22.5927C19.3258 22.3142 18.9681 22.1949 18.6654 22.3711L17.857 22.857C18.7186 19.1137 22.1692 16.4048 26.0965 16.645C26.4359 16.6658 26.7189 16.4154 26.7396 16.076C26.7604 15.7366 26.51 15.4537 26.1706 15.4329C21.5161 15.1482 17.4723 18.4048 16.6632 22.8813Z" fill="#4E4E56" stroke="#4E4E56" stroke-width="0.7"/>
<path d="M18.5636 28.0341C18.4118 27.7329 18.0541 27.6138 17.7527 27.7658C17.4514 27.9177 17.3321 28.2754 17.4839 28.5767C18.5666 30.7596 20.4379 32.3822 22.7508 33.1558C24.7059 33.8102 26.7755 33.7903 28.6913 33.1041L28.5486 34.239C28.5035 34.5769 28.7523 34.8841 29.066 34.9275C29.4039 34.9724 29.7112 34.7235 29.7548 34.4098L30.0342 32.2369C30.0357 32.2127 30.0357 32.2127 30.0372 32.1884C30.0402 32.1399 30.0431 32.0914 30.0234 32.0172C30.0248 31.993 30.0021 31.9673 30.0021 31.9673C30.0036 31.943 29.9808 31.9173 29.9823 31.8931L29.9596 31.8674C29.9368 31.8416 29.9155 31.7917 29.8928 31.766L29.87 31.7402C29.823 31.713 29.8003 31.6873 29.7533 31.6601L27.8492 30.5708C27.5672 30.4076 27.1961 30.5067 27.0328 30.7887C26.8695 31.0708 26.9684 31.4418 27.2503 31.605L28.0735 32.0688C24.378 33.2063 20.3174 31.5719 18.5636 28.0341Z" fill="#4E4E56" stroke="#4E4E56" stroke-width="0.7"/>
<path d="M30.0734 16.8632C30.0476 16.8859 29.9992 16.883 29.9734 16.9057C29.9734 16.9057 29.9492 16.9043 29.9477 16.9285C29.922 16.9513 29.8963 16.974 29.8705 16.9968C29.8705 16.9968 29.8705 16.9968 29.8448 17.0195C29.7934 17.0651 29.7404 17.1348 29.7117 17.2061C29.7103 17.2303 29.683 17.2773 29.6816 17.3015C29.6801 17.3258 29.6771 17.3743 29.6741 17.4228L29.6862 19.6135C29.6896 19.9543 29.9657 20.2146 30.3066 20.2111C30.6475 20.2076 30.9077 19.9315 30.9042 19.5906L30.8893 18.6407C33.7243 21.2231 34.3361 25.5431 32.1634 28.8412C31.9759 29.1217 32.0506 29.4913 32.3312 29.6788C32.6117 29.8663 32.9813 29.7915 33.1687 29.511C34.0547 28.1539 34.5618 26.6276 34.6581 25.0518C34.7071 24.2518 34.6575 23.4701 34.4883 22.6568C34.1221 20.6878 33.0637 18.8954 31.5136 17.5839L32.5629 17.1371C32.787 17.0535 32.9216 16.8427 32.9349 16.6245C32.9409 16.5276 32.9225 16.4291 32.8785 16.3534C32.7508 16.0536 32.3946 15.9102 32.0948 16.0378L30.0734 16.8632Z" fill="#4E4E56" stroke="#4E4E56" stroke-width="0.7"/>
</svg>
