<svg width="38" height="48" viewBox="0 0 38 48" fill="none" xmlns="http://www.w3.org/2000/svg">
<path d="M18.624 0.378784C18.624 0.378784 14.6147 7.09859 0 7.09859V25.9712C0 39.8397 18.624 47.5603 18.624 47.5603C18.624 47.5603 37.248 39.8397 37.248 25.9712V7.09859C22.6333 7.09859 18.624 0.378784 18.624 0.378784Z" fill="#6EADFF"/>
<path d="M18.5 5.29358C18.5 5.29358 15.3785 10.6134 4 10.6134V25.5542C4 36.5334 18.5 42.6456 18.5 42.6456C18.5 42.6456 33 36.5334 33 25.5542V10.6134C21.6215 10.6134 18.5 5.29358 18.5 5.29358Z" fill="#D3E6FF"/>
<circle cx="18.5" cy="25.5" r="5.5" fill="#F4899E"/>
<path fill-rule="evenodd" clip-rule="evenodd" d="M26.133 37.9058C24.1025 35.4758 21.4294 34 18.5004 34C15.5715 34 12.8983 35.4758 10.8679 37.9058C14.6158 41.0081 18.5004 42.6456 18.5004 42.6456C18.5004 42.6456 22.3851 41.0081 26.133 37.9058Z" fill="#318AFF"/>
</svg>
