<svg width="32" height="42" viewBox="0 0 32 42" fill="none" xmlns="http://www.w3.org/2000/svg">
<path d="M15.52 0.882812C15.52 0.882812 12.1789 6.61085 0 6.61085V22.6981C0 34.5197 15.52 41.1009 15.52 41.1009C15.52 41.1009 31.04 34.5197 31.04 22.6981V6.61085C18.8611 6.61085 15.52 0.882812 15.52 0.882812Z" fill="#6EADFF"/>
<path d="M15.4168 5.07227C15.4168 5.07227 12.8156 9.60696 3.3335 9.60696V22.3427C3.3335 31.7015 15.4168 36.9115 15.4168 36.9115C15.4168 36.9115 27.5002 31.7015 27.5002 22.3427V9.60696C18.0181 9.60696 15.4168 5.07227 15.4168 5.07227Z" fill="#D3E6FF"/>
<circle cx="15.4168" cy="17.0833" r="4.58333" fill="#F4899E"/>
<path fill-rule="evenodd" clip-rule="evenodd" d="M23.8318 30.8972C22.2054 26.8869 19.0469 24.167 15.4171 24.167C11.7873 24.167 8.62884 26.8869 7.00244 30.8971C10.558 34.8168 15.4171 36.912 15.4171 36.912C15.4171 36.912 20.2763 34.8168 23.8318 30.8972Z" fill="#318AFF"/>
</svg>
