<svg width="21" height="40" viewBox="0 0 21 40" fill="none" xmlns="http://www.w3.org/2000/svg">
<path d="M12.0132 1.42953C13.9192 -0.476511 17.0096 -0.476511 18.9156 1.42953C20.8217 3.33557 20.8216 6.42588 18.9156 8.3319L8.33195 18.9156C6.42586 20.8216 3.33557 20.8216 1.42953 18.9156C-0.476511 17.0096 -0.476511 13.9192 1.42953 12.0132L12.0132 1.42953Z" fill="#BABABF"/>
<path d="M12.0132 11.3228C13.9192 9.4168 17.0096 9.4168 18.9156 11.3228C20.8217 13.2289 20.8216 16.3192 18.9156 18.2252L8.33195 28.8089C6.42586 30.7149 3.33557 30.7149 1.42953 28.8089C-0.476511 26.9028 -0.476511 23.8126 1.42953 21.9065L12.0132 11.3228Z" fill="#BABABF"/>
<path fill-rule="evenodd" clip-rule="evenodd" d="M17.0804 10.1673L8.33216 18.9155C6.96191 20.2858 4.97962 20.6709 3.26526 20.071L12.0135 11.3229C13.3837 9.9526 15.366 9.56742 17.0804 10.1673Z" fill="#E6E6E8"/>
<path d="M12.0132 21.0843C13.9192 19.1783 17.0096 19.1783 18.9156 21.0843C20.8217 22.9903 20.8216 26.0807 18.9156 27.9867L8.33195 38.5704C6.42586 40.4764 3.33557 40.4764 1.42953 38.5704C-0.476511 36.6643 -0.476511 33.574 1.42953 31.668L12.0132 21.0843Z" fill="#BABABF"/>
<path fill-rule="evenodd" clip-rule="evenodd" d="M17.1772 19.9639L8.33215 28.8089C6.936 30.2051 4.90444 30.5786 3.16833 29.9294L12.0134 21.0843C13.4095 19.6882 15.4411 19.3147 17.1772 19.9639Z" fill="#E6E6E8"/>
</svg>
