<svg width="189" height="40" viewBox="0 0 189 40" fill="none" xmlns="http://www.w3.org/2000/svg">
<path d="M12.0131 1.42952C13.9191 -0.476508 17.0095 -0.476508 18.9155 1.42952C20.8215 3.33555 20.8215 6.42584 18.9155 8.33185L8.3319 18.9155C6.42582 20.8215 3.33555 20.8215 1.42952 18.9155C-0.476508 17.0095 -0.476508 13.9191 1.42952 12.0131L12.0131 1.42952Z" fill="#A192FF"/>
<path d="M12.0131 11.3231C13.9191 9.41705 17.0095 9.41705 18.9155 11.3231C20.8215 13.2291 20.8215 16.3194 18.9155 18.2254L8.3319 28.809C6.42582 30.7151 3.33555 30.7151 1.42952 28.809C-0.476508 26.903 -0.476508 23.8127 1.42952 21.9067L12.0131 11.3231Z" fill="#A192FF"/>
<path fill-rule="evenodd" clip-rule="evenodd" d="M17.0801 10.1675L8.33195 18.9157C6.9617 20.2859 4.97942 20.6711 3.26508 20.0712L12.0132 11.3231C13.3835 9.95285 15.3657 9.56766 17.0801 10.1675Z" fill="#7860FF"/>
<path d="M12.0131 21.0848C13.9191 19.1788 17.0095 19.1788 18.9155 21.0848C20.8215 22.9908 20.8215 26.0811 18.9155 27.9871L8.3319 38.5708C6.42582 40.4768 3.33555 40.4768 1.42952 38.5708C-0.476508 36.6647 -0.476508 33.5744 1.42952 31.6684L12.0131 21.0848Z" fill="#A192FF"/>
<path fill-rule="evenodd" clip-rule="evenodd" d="M17.1767 19.9643L8.33175 28.8093C6.93561 30.2055 4.90407 30.579 3.16797 29.9298L12.013 21.0848C13.4091 19.6887 15.4407 19.3151 17.1767 19.9643Z" fill="#7860FF"/>
<path d="M46.1896 20.7452C46.1896 21.9326 45.9306 22.962 45.4128 23.8336C44.8949 24.7052 44.1938 25.3683 43.3096 25.8231C42.438 26.2778 41.4654 26.5052 40.3917 26.5052C39.3181 26.5052 38.3391 26.2778 37.4549 25.8231C36.5833 25.3683 35.8886 24.7052 35.3707 23.8336C34.8528 22.962 34.5939 21.9326 34.5939 20.7452V18.8884C34.5939 17.701 34.8528 16.6716 35.3707 15.8C35.8886 14.9284 36.5833 14.2653 37.4549 13.8105C38.3391 13.3558 39.3181 13.1284 40.3917 13.1284C41.4654 13.1284 42.438 13.3558 43.3096 13.8105C44.1938 14.2653 44.8949 14.9284 45.4128 15.8C45.9306 16.6716 46.1896 17.701 46.1896 18.8884V20.7452ZM43.1201 18.4715C43.1201 17.5115 42.8675 16.7726 42.3622 16.2547C41.857 15.7242 41.2001 15.4589 40.3917 15.4589C39.5833 15.4589 38.9265 15.7242 38.4212 16.2547C37.916 16.7726 37.6633 17.5115 37.6633 18.4715V21.1621C37.6633 22.122 37.916 22.8673 38.4212 23.3978C38.9265 23.9157 39.5833 24.1747 40.3917 24.1747C41.2001 24.1747 41.857 23.9157 42.3622 23.3978C42.8675 22.8673 43.1201 22.122 43.1201 21.1621V18.4715Z" fill="#555566"/>
<path d="M54.2802 26.3157H51.3623V13.3179H57.6339C58.3412 13.3179 58.9918 13.4884 59.5854 13.8295C60.1918 14.1579 60.6717 14.6189 61.0254 15.2126C61.3791 15.8063 61.556 16.4694 61.556 17.2021V17.3158C61.556 18.0358 61.3791 18.7052 61.0254 19.3242C60.6844 19.9305 60.2107 20.4105 59.6044 20.7642C59.0107 21.1178 58.3539 21.2947 57.6339 21.2947H54.2802V26.3157ZM54.2802 19.0021H56.9518C57.4318 19.0021 57.8297 18.8442 58.1455 18.5284C58.4612 18.2 58.6191 17.821 58.6191 17.3915V17.2779C58.6191 16.8358 58.4612 16.4568 58.1455 16.141C57.8423 15.8126 57.4444 15.6484 56.9518 15.6484H54.2802V19.0021Z" fill="#555566"/>
<path d="M66.1773 26.3157V13.3179H75.3288L75.0067 15.6484H69.0573V18.4905H74.6088V20.821H69.0573V23.9852H75.0636L75.3857 26.3157H66.1773Z" fill="#555566"/>
<path d="M84.1896 20.3284C84.0507 20.1263 83.8612 19.8294 83.6212 19.4379C83.3812 19.0336 83.2233 18.7684 83.1475 18.6421L83.0717 18.6989V26.3157H80.4002V13.3179H82.8823L86.9749 19.3431L87.5433 20.2336C87.7454 20.5873 87.9033 20.8463 88.017 21.0105L88.0738 20.9536V13.3179H90.7454V26.3157H88.2633L84.1896 20.3284Z" fill="#555566"/>
<path d="M96.3994 26.3157V13.3179H99.3362V23.8905H104.679L105.001 26.3157H96.3994Z" fill="#555566"/>
<path d="M116.98 23.7578H111.807L110.898 26.3157H108.075L112.793 13.3179H116.279L120.997 26.3157H117.927L116.98 23.7578ZM112.603 21.541H116.203C115.723 20.1136 115.142 18.4147 114.46 16.4442H114.365L112.603 21.541Z" fill="#555566"/>
<path d="M130.651 15.6673V26.3157H127.752V15.6673H124.058V13.3179H134.327V15.6673H130.651Z" fill="#555566"/>
<path d="M144.097 15.6673V26.3157H141.198V15.6673H137.503V13.3179H147.773V15.6673H144.097Z" fill="#555566"/>
<path d="M152.181 13.3179H158.168V15.6484H156.652V23.9852H158.168V26.3157H152.181V23.9852H153.715V15.6484H152.181V13.3179Z" fill="#555566"/>
<path d="M166.428 21.1621C166.428 22.122 166.687 22.8673 167.205 23.3978C167.723 23.9157 168.379 24.1747 169.175 24.1747C170.072 24.1747 170.735 23.9347 171.165 23.4547C171.594 22.962 171.809 22.2105 171.809 21.1999H174.48C174.48 22.3115 174.253 23.2715 173.798 24.0799C173.356 24.8757 172.744 25.482 171.96 25.8989C171.177 26.3031 170.293 26.5052 169.308 26.5052H169.043C167.956 26.5052 166.984 26.2841 166.125 25.842C165.266 25.3999 164.59 24.7494 164.097 23.8905C163.605 23.0189 163.358 21.9705 163.358 20.7452V18.8884C163.358 17.701 163.605 16.6716 164.097 15.8C164.59 14.9284 165.259 14.2653 166.106 13.8105C166.965 13.3558 167.918 13.1284 168.967 13.1284H169.232C170.243 13.1284 171.139 13.3305 171.923 13.7347C172.718 14.1263 173.344 14.7263 173.798 15.5347C174.253 16.3305 174.48 17.3094 174.48 18.4715H171.695C171.695 17.4863 171.474 16.741 171.032 16.2358C170.603 15.7179 169.977 15.4589 169.156 15.4589C168.36 15.4589 167.704 15.7242 167.186 16.2547C166.68 16.7726 166.428 17.5115 166.428 18.4715V21.1621Z" fill="#555566"/>
<path d="M179.646 26.3157V13.3179H188.797L188.475 15.6484H182.526V18.4905H188.077V20.821H182.526V23.9852H188.532L188.854 26.3157H179.646Z" fill="#555566"/>
</svg>
