<svg width="50" height="50" viewBox="0 0 50 50" fill="none" xmlns="http://www.w3.org/2000/svg">
<circle cx="25" cy="25" r="25" fill="#EAEAEF"/>
<path fill-rule="evenodd" clip-rule="evenodd" d="M34.8868 23.1125C34.7528 19.3615 31.1358 16.8162 27.5858 17.8209C24.2367 12.7973 16.3998 14.8737 16.1319 20.9691C9.83562 22.7106 11.0413 32.222 17.6725 32.222H33.3462C38.6377 32.222 39.7764 24.72 34.8868 23.1125Z" fill="#505060"/>
<path d="M33.4985 23.0028L33.4968 23.0027C31.1546 22.9183 29.2151 24.7962 29.2151 27.1358V27.8628C28.5262 27.9668 28 28.5598 28 29.2783V34.9382C28 35.7303 28.6396 36.3699 29.4317 36.3699H37.234C38.0262 36.3699 38.6657 35.7303 38.6657 34.9382V29.2866C38.6947 28.5314 38.1394 27.9512 37.4666 27.8472V27.1998C37.4666 24.9988 35.7614 23.0882 33.4985 23.0028ZM34.5233 27.8466H32.1904V27.1358C32.1904 26.4713 32.7395 25.9427 33.4078 25.976C34.0184 26.0104 34.5233 26.5383 34.5233 27.1998V27.8466Z" fill="#505060" stroke="#EAEAEF" stroke-width="2"/>
<path d="M37.25 28.8306H36.6265C36.5465 28.8306 36.4666 28.7666 36.4666 28.6707V27.1998C36.4666 25.505 35.1556 24.066 33.4608 24.0021C31.6861 23.9381 30.2151 25.3611 30.2151 27.1358V28.6867C30.2151 28.7666 30.1512 28.8466 30.0552 28.8466H29.4317C29.1919 28.8466 29 29.0384 29 29.2783V34.9382C29 35.178 29.1919 35.3699 29.4317 35.3699H37.234C37.4739 35.3699 37.6657 35.178 37.6657 34.9382V29.2623C37.6817 29.0224 37.4899 28.8306 37.25 28.8306ZM31.1904 27.1358C31.1904 25.9047 32.2137 24.9134 33.4608 24.9774C34.6279 25.0413 35.5233 26.0326 35.5233 27.1998V28.6867C35.5233 28.7666 35.4593 28.8466 35.3634 28.8466H31.3343C31.2544 28.8466 31.1744 28.7826 31.1744 28.6867V27.1358H31.1904Z" fill="#505060" stroke="#505060"/>
</svg>
