<svg width="50" height="50" viewBox="0 0 50 50" fill="none" xmlns="http://www.w3.org/2000/svg">
<circle cx="25" cy="25" r="25" fill="#EAEAEF"/>
<path d="M20.9369 29.7507H16.8747C15.5818 29.7507 14.3419 29.2371 13.4278 28.3229C12.5136 27.4087 12 26.1688 12 24.876C12 23.5831 12.5136 22.3432 13.4278 21.429C14.3419 20.5149 15.5818 20.0013 16.8747 20.0013H23.3743C24.6671 20.0013 25.907 20.5149 26.8212 21.429C27.7354 22.3432 28.249 23.5831 28.249 24.876H26.6241C26.6241 24.0141 26.2817 23.1875 25.6722 22.578C25.0628 21.9686 24.2362 21.6262 23.3743 21.6262H16.8747C16.0128 21.6262 15.1862 21.9686 14.5767 22.578C13.9673 23.1875 13.6249 24.0141 13.6249 24.876C13.6249 25.7379 13.9673 26.5645 14.5767 27.1739C15.1862 27.7834 16.0128 28.1258 16.8747 28.1258H20.9369V29.7507Z" fill="#505060" stroke="#505060" stroke-width="0.3"/>
<path d="M33.1257 29.7494H26.6262C25.3333 29.7494 24.0934 29.2358 23.1792 28.3216C22.265 27.4074 21.7515 26.1675 21.7515 24.8747H23.3764C23.3764 25.7366 23.7187 26.5632 24.3282 27.1726C24.9377 27.7821 25.7643 28.1245 26.6262 28.1245H33.1257C33.9876 28.1245 34.8142 27.7821 35.4237 27.1726C36.0331 26.5632 36.3755 25.7366 36.3755 24.8747C36.3755 24.0128 36.0331 23.1862 35.4237 22.5767C34.8142 21.9673 33.9876 21.6249 33.1257 21.6249H29.0635V20H33.1257C34.4186 20 35.6585 20.5136 36.5727 21.4278C37.4868 22.3419 38.0004 23.5818 38.0004 24.8747C38.0004 26.1675 37.4868 27.4074 36.5727 28.3216C35.6585 29.2358 34.4186 29.7494 33.1257 29.7494Z" fill="#505060" stroke="#505060" stroke-width="0.3"/>
</svg>
