<svg width="50" height="50" viewBox="0 0 50 50" fill="none" xmlns="http://www.w3.org/2000/svg">
<circle cx="25" cy="25" r="25" fill="#EAEAEF"/>
<path d="M14.6673 11.7348C14.3027 11.7348 14.0596 11.9779 14.0596 12.3425V14.6519C14.0596 15.0166 14.3027 15.2597 14.6673 15.2597H16.9767C17.3413 15.2597 17.5844 15.0166 17.5844 14.6519C17.5844 14.2873 17.3413 14.0442 16.9767 14.0442H16.1866C18.6176 11.5525 21.9601 10.2155 25.485 10.2155C29.0706 10.2155 32.4132 11.6133 34.9656 14.105C35.2087 14.3481 35.5734 14.3481 35.8165 14.105C36.0596 13.8619 36.0596 13.4972 35.8165 13.2541C33.0817 10.5193 29.3745 9 25.485 9C21.5955 9 18.0098 10.4586 15.275 13.1934V12.3425C15.275 12.0387 14.9712 11.7348 14.6673 11.7348Z" fill="#505060" stroke="#505060" stroke-width="0.4"/>
<path d="M14.1823 35.917C17.0387 38.7734 20.7459 40.1712 24.5138 40.1712C28.221 40.1712 31.9282 38.7734 34.7845 35.9778V36.8286C34.7845 37.1933 35.0276 37.4364 35.3923 37.4364C35.7569 37.4364 36 37.1933 36 36.8286V34.5192C36 34.1546 35.7569 33.9115 35.3923 33.9115H33.0829C32.7182 33.9115 32.4751 34.1546 32.4751 34.5192C32.4751 34.8839 32.7182 35.127 33.0829 35.127H33.8122C28.5856 40.2319 20.1989 40.2319 15.0331 35.0662C14.7901 34.8231 14.4254 34.8231 14.1823 35.0662C13.9392 35.3093 13.9392 35.6739 14.1823 35.917Z" fill="#505060" stroke="#505060" stroke-width="0.4"/>
<path d="M34.663 26.6521C34.9061 26.5913 35.1492 26.3482 35.1492 26.0443V23.0056C35.1492 22.7018 34.9669 22.4587 34.663 22.3979L32.1713 21.7902C32.1105 21.6079 32.0497 21.4863 31.989 21.304L33.326 19.1161C33.4475 18.873 33.4475 18.5692 33.2652 18.3869L31.0774 16.3206C30.895 16.1382 30.5912 16.0775 30.3481 16.2598L28.1602 17.5968C27.9779 17.536 27.8564 17.4753 27.6741 17.4145L27.0663 14.9228C27.0055 14.6797 26.7624 14.4366 26.4586 14.4366H23.4199C23.116 14.4366 22.8729 14.6189 22.8122 14.9228L22.2044 17.4145C22.0221 17.4753 21.9006 17.536 21.7183 17.5968L19.5304 16.2598C19.2873 16.1382 18.9834 16.1382 18.8011 16.3813L16.7348 18.5084C16.5525 18.6907 16.4917 18.9946 16.6741 19.2377L18.0111 21.4255C17.9503 21.6079 17.8895 21.7294 17.8287 21.9117L15.3978 22.5195C15.0939 22.5802 14.9116 22.8233 14.9116 23.1272V26.1659C14.9116 26.4697 15.0939 26.7128 15.3978 26.7736L17.8895 27.3813C17.9503 27.5637 18.0111 27.6852 18.0718 27.8675L16.7348 30.0554C16.6133 30.2985 16.6133 30.6023 16.7956 30.7847L18.9227 32.9725C19.105 33.1548 19.4089 33.2156 19.652 33.0333L21.8398 31.6963C22.0221 31.757 22.1437 31.8178 22.326 31.8786L22.9337 34.3703C22.9945 34.6134 23.2376 34.8565 23.5415 34.8565H26.5801C26.884 34.8565 27.1271 34.6742 27.1879 34.3703L27.7956 31.8786C27.9779 31.8178 28.0995 31.757 28.2818 31.6963L30.4696 33.0333C30.7127 33.2156 31.0166 33.1548 31.1989 32.9725L33.326 30.8454C33.5083 30.6631 33.5691 30.3592 33.3868 30.1161L32.0497 27.9283C32.1105 27.746 32.1713 27.6244 32.2321 27.4421L34.663 26.6521ZM25 29.3261C22.3868 29.3261 20.2597 27.199 20.2597 24.5858C20.2597 21.9725 22.3868 19.8454 25 19.8454C27.6133 19.8454 29.7403 21.9725 29.7403 24.5858C29.7403 27.199 27.6133 29.3261 25 29.3261Z" fill="#505060"/>
</svg>
