<svg width="50" height="50" viewBox="0 0 50 50" fill="none" xmlns="http://www.w3.org/2000/svg">
<circle cx="25" cy="25" r="25" fill="#EAEAEF"/>
<path d="M33.2043 17.7084C33.2043 17.7132 33.2043 17.7177 33.2041 17.7225C33.1801 19.2119 29.3381 20.4168 24.6022 20.4168C19.8663 20.4168 16.0242 19.2119 16.0002 17.7225C16 17.7177 16 17.7132 16 17.7084C16 16.2126 19.8513 15 24.6022 15C29.3531 15 33.2043 16.2126 33.2043 17.7084Z" fill="#505060" stroke="#F2F2F6" stroke-width="0.4"/>
<path d="M33.2326 32.2917C33.2326 32.2965 33.2326 32.301 33.2324 32.3058C33.2085 33.7951 29.3664 35.0001 24.6305 35.0001C19.8946 35.0001 16.0525 33.7951 16.0285 32.3058C16.0283 32.301 16.0283 32.2965 16.0283 32.2917L16.0227 28.476C16.0227 28.4808 16.0227 28.4853 16.0229 28.4901C16.0469 29.9794 19.889 31.1843 24.6249 31.1843C29.3608 31.1843 33.2028 29.9794 33.2268 28.4901C33.227 28.4853 33.227 28.4808 33.227 28.476L33.2326 32.2917Z" fill="#505060" stroke="#F2F2F6" stroke-width="0.4"/>
<path d="M33.2131 27.4531C33.2131 27.4579 33.2131 27.4624 33.2129 27.4672C33.1889 28.9565 29.3469 30.1615 24.6109 30.1615C19.875 30.1615 16.033 28.9565 16.009 27.4672C16.0088 27.4624 16.0088 27.4579 16.0088 27.4531L16.0032 23.6374C16.0032 23.6422 16.0032 23.6467 16.0034 23.6515C16.0273 25.1408 19.8694 26.3458 24.6053 26.3458C29.3413 26.3458 33.1833 25.1408 33.2073 23.6515C33.2075 23.6467 33.2075 23.6422 33.2075 23.6374L33.2131 27.4531Z" fill="#505060" stroke="#F2F2F6" stroke-width="0.4"/>
<path d="M33.2165 22.5696C33.2165 22.5744 33.2165 22.5789 33.2163 22.5837C33.1923 24.073 29.3503 25.2779 24.6143 25.2779C19.8785 25.2779 16.0364 24.073 16.0124 22.5837C16.0122 22.5789 16.0122 22.5744 16.0122 22.5696L16.0066 18.7538C16.0066 18.7587 16.0066 18.7632 16.0068 18.768C16.0308 20.2573 19.8729 21.4622 24.6087 21.4622C29.3447 21.4622 33.1867 20.2573 33.2107 18.768C33.2109 18.7632 33.2109 18.7587 33.2109 18.7538L33.2165 22.5696Z" fill="#505060" stroke="#F2F2F6" stroke-width="0.4"/>
<circle cx="32.8125" cy="31.8125" r="7.8125" fill="#EAEAEF"/>
<path d="M30.0008 29.9696L28.8014 30.5509C29.0584 29.6777 29.6043 28.9128 30.3533 28.3764C31.1022 27.84 32.0118 27.5624 32.9392 27.5873C33.8667 27.6121 34.7595 27.9378 35.4774 28.5135C36.1953 29.0891 36.6978 29.882 36.9058 30.7676C36.9094 30.7964 36.919 30.8241 36.9342 30.8491C36.9494 30.874 36.9697 30.8955 36.9939 30.9122C37.0181 30.9289 37.0456 30.9404 37.0747 30.9461C37.1037 30.9517 37.1336 30.9513 37.1625 30.9449C37.1914 30.9385 37.2186 30.9262 37.2423 30.9088C37.266 30.8915 37.2858 30.8694 37.3002 30.8441C37.3147 30.8188 37.3236 30.7908 37.3263 30.7619C37.329 30.7331 37.3255 30.704 37.316 30.6765C37.0873 29.7047 36.5368 28.8344 35.7503 28.2012C34.9637 27.5681 33.9854 27.2076 32.9678 27.1761C31.9502 27.1446 30.9506 27.4437 30.1248 28.027C29.2989 28.6102 28.6934 29.4447 28.4025 30.4004L27.8246 29.2559C27.7955 29.2162 27.7531 29.1879 27.7048 29.1759C27.6565 29.1639 27.6054 29.169 27.5606 29.1903C27.5157 29.2116 27.48 29.2477 27.4597 29.2923C27.4394 29.3369 27.4359 29.3871 27.4497 29.434L28.2601 31.0437C28.285 31.0926 28.3285 31.1299 28.3813 31.1475C28.4341 31.1651 28.4919 31.1615 28.542 31.1376L30.1883 30.341C30.2132 30.3289 30.2354 30.3122 30.2537 30.2917C30.272 30.2713 30.286 30.2475 30.2949 30.2217C30.3038 30.1959 30.3074 30.1687 30.3056 30.1416C30.3037 30.1144 30.2964 30.0879 30.2841 30.0635C30.2718 30.0391 30.2547 30.0174 30.2338 29.9994C30.2129 29.9815 30.1886 29.9678 30.1623 29.9591C30.136 29.9504 30.1082 29.9468 30.0805 29.9486C30.0528 29.9504 30.0257 29.9576 30.0008 29.9696ZM38.1617 33.8325C38.1865 33.8817 38.1904 33.9386 38.1724 33.9907C38.1545 34.0427 38.1161 34.0856 38.0658 34.11C38.0156 34.1343 37.9575 34.1381 37.9043 34.1205C37.8512 34.1029 37.8074 34.0653 37.7825 34.0161L37.2455 32.9544C36.9598 33.9142 36.357 34.754 35.5317 35.3423C34.7064 35.9306 33.7051 36.234 32.6849 36.2051C31.6646 36.1763 30.6829 35.8166 29.8937 35.1827C29.1044 34.5487 28.5522 33.6761 28.3236 32.7018C28.3157 32.6747 28.3135 32.6464 28.3172 32.6186C28.3208 32.5907 28.3302 32.5638 28.3448 32.5396C28.3594 32.5154 28.3789 32.4944 28.4021 32.4778C28.4252 32.4612 28.4516 32.4494 28.4796 32.4431C28.5075 32.4368 28.5365 32.4362 28.5648 32.4412C28.593 32.4463 28.6199 32.4569 28.6438 32.4724C28.6677 32.488 28.6881 32.5081 28.7038 32.5317C28.7195 32.5552 28.7302 32.5816 28.7351 32.6093C28.9459 33.5079 29.4596 34.3108 30.1933 34.8883C30.9271 35.4659 31.8381 35.7844 32.7794 35.7926C33.7207 35.8007 34.6374 35.498 35.3814 34.9332C36.1255 34.3684 36.6536 33.5745 36.8805 32.6797L35.6119 33.2968C35.5871 33.3138 35.5589 33.3254 35.5291 33.3308C35.4992 33.3362 35.4686 33.3352 35.4392 33.328C35.4098 33.3208 35.3824 33.3075 35.3587 33.2889C35.335 33.2704 35.3157 33.2471 35.302 33.2206C35.2883 33.1941 35.2806 33.1651 35.2794 33.1354C35.2782 33.1057 35.2835 33.0762 35.295 33.0487C35.3065 33.0212 35.3239 32.9965 35.346 32.9762C35.3681 32.9559 35.3944 32.9404 35.4231 32.931L37.0679 32.1275C37.1181 32.1035 37.1758 32.1 37.2286 32.1176C37.2814 32.1351 37.325 32.1724 37.3498 32.2213L38.1617 33.8325Z" fill="#505060" stroke="#505060"/>
</svg>
