<svg width="50" height="50" viewBox="0 0 50 50" fill="none" xmlns="http://www.w3.org/2000/svg">
<circle cx="25" cy="25" r="25" fill="#EAEAEF"/>
<path d="M36 34.5822L29.3511 27.9333C30.5489 26.4178 31.2089 24.56 31.2089 22.6044C31.2089 20.3067 30.3044 18.1556 28.6911 16.5178C27.0533 14.9044 24.9022 14 22.6044 14C20.3067 14 18.1556 14.9044 16.5178 16.5178C14.9044 18.1311 14 20.3067 14 22.6044C14 24.9022 14.9044 27.0533 16.5178 28.6911C18.1311 30.3044 20.3067 31.2089 22.6044 31.2089C24.56 31.2089 26.4178 30.5489 27.9333 29.3511L34.5822 36L36 34.5822ZM17.9356 27.2733C15.3689 24.7067 15.3689 20.5022 17.9356 17.9356C19.1822 16.6889 20.8444 16.0044 22.6044 16.0044C24.3644 16.0044 26.0267 16.6889 27.2733 17.9356C29.84 20.5022 29.84 24.7067 27.2733 27.2733C26.0267 28.52 24.3644 29.2044 22.6044 29.2044C20.8444 29.2044 19.1822 28.52 17.9356 27.2733Z" fill="#505060"/>
</svg>
