<svg width="50" height="50" viewBox="0 0 50 50" fill="none" xmlns="http://www.w3.org/2000/svg">
<circle cx="25" cy="25" r="25" fill="#EAEAEF"/>
<path d="M34.967 16.1433C34.967 16.1489 34.967 16.1541 34.9667 16.1597C34.9389 17.8882 30.4799 19.2866 24.9835 19.2866C19.4871 19.2866 15.0281 17.8882 15.0003 16.1597C15 16.1541 15 16.1489 15 16.1433C15 14.4073 19.4697 13 24.9835 13C30.4973 13 34.967 14.4073 34.967 16.1433Z" fill="#505060" stroke="#EAEAEF" stroke-width="0.4"/>
<path d="M35 33.0683C35 33.0739 35 33.0791 34.9997 33.0847C34.9719 34.8131 30.5129 36.2116 25.0165 36.2116C19.5201 36.2116 15.0611 34.8131 15.0332 33.0846C15.033 33.0791 15.033 33.0739 15.033 33.0683L15.0265 28.6398C15.0265 28.6454 15.0265 28.6506 15.0267 28.6562C15.0545 30.3847 19.5136 31.7831 25.01 31.7831C30.5064 31.7831 34.9654 30.3847 34.9932 28.6562C34.9935 28.6506 34.9935 28.6454 34.9935 28.6398L35 33.0683Z" fill="#505060" stroke="#EAEAEF" stroke-width="0.4"/>
<path d="M34.9773 27.4527C34.9773 27.4583 34.9773 27.4635 34.977 27.4691C34.9492 29.1976 30.4902 30.596 24.9938 30.596C19.4974 30.596 15.0384 29.1976 15.0105 27.4691C15.0103 27.4635 15.0103 27.4583 15.0103 27.4527L15.0038 23.0243C15.0038 23.0299 15.0038 23.0351 15.004 23.0407C15.0318 24.7691 19.4909 26.1676 24.9873 26.1676C30.4837 26.1676 34.9427 24.7691 34.9705 23.0407C34.9708 23.0351 34.9708 23.0299 34.9708 23.0243L34.9773 27.4527Z" fill="#505060" stroke="#EAEAEF" stroke-width="0.4"/>
<path d="M34.9791 21.7851C34.9791 21.7907 34.9791 21.7959 34.9788 21.8015C34.951 23.53 30.492 24.9284 24.9956 24.9284C19.4992 24.9284 15.0402 23.53 15.0124 21.8015C15.0121 21.7959 15.0121 21.7907 15.0121 21.7851L15.0056 17.3567C15.0056 17.3623 15.0056 17.3675 15.0059 17.3731C15.0337 19.1015 19.4927 20.5 24.9891 20.5C30.4855 20.5 34.9445 19.1015 34.9723 17.3731C34.9726 17.3675 34.9726 17.3623 34.9726 17.3567L34.9791 21.7851Z" fill="#505060" stroke="#EAEAEF" stroke-width="0.4"/>
</svg>
