<svg width="50" height="50" viewBox="0 0 50 50" fill="none" xmlns="http://www.w3.org/2000/svg">
<circle cx="25" cy="25" r="25" fill="#EAEAEF"/>
<path d="M17.5532 18C20.0994 18 22.3047 19.4532 23.3896 21.5745H36.0213L39 24.125L34.8298 27.5319L33.0426 25.7447L31.2553 27.5319L29.4681 25.7447L27.6809 27.5319H23.3896C22.3047 29.6532 20.0994 31.1064 17.5532 31.1064C13.934 31.1064 11 28.1724 11 24.5532C11 20.934 13.934 18 17.5532 18ZM15.4681 22.766C14.481 22.766 13.6809 23.5661 13.6809 24.5532C13.6809 25.5403 14.481 26.3404 15.4681 26.3404C16.4551 26.3404 17.2553 25.5403 17.2553 24.5532C17.2553 23.5661 16.4551 22.766 15.4681 22.766Z" fill="#505060"/>
</svg>
