<svg width="56" height="31" viewBox="0 0 56 31" fill="none" xmlns="http://www.w3.org/2000/svg">
<path d="M55.8229 30.9428H44.2694V26.9391C44.2694 25.452 43.6402 24.0793 42.4963 23.1642C41.524 22.3634 40.5517 21.6199 39.5793 20.9907V20.9335V16.0719C38.9502 15.6716 38.5498 14.9852 38.5498 14.1845V9.15126C38.5498 6.63465 40.5517 4.63281 43.0683 4.63281H43.583H44.0978C46.6144 4.63281 48.6162 6.63465 48.6162 9.15126V14.1845C48.6162 14.9852 48.2159 15.6716 47.5867 16.0719V20.8763C47.5867 20.9335 47.6439 21.0479 47.7011 21.1051C48.3874 21.4483 51.7048 23.107 54.8505 25.6808C55.4225 26.1383 55.7085 26.8247 55.7085 27.5682V30.9428H55.8229ZM8.00738 21.1051C7.32103 21.4483 4.00369 23.107 0.857933 25.6808C0.285978 26.1383 0 26.8247 0 27.5682V31H11.5535V26.9391C11.5535 25.452 12.1827 24.0793 13.3266 23.1642C14.2989 22.3634 15.2712 21.6199 16.2435 20.9907V20.9335V16.0719C16.8727 15.6716 17.2731 14.9852 17.2731 14.1845V9.15126C17.2731 6.63465 15.2712 4.63281 12.7546 4.63281H12.2399H11.7251C9.20848 4.63281 7.20664 6.63465 7.20664 9.15126V14.1845C7.20664 14.9852 7.60701 15.6716 8.23617 16.0719V20.8763C8.12177 20.9907 8.12177 21.0479 8.00738 21.1051Z" fill="#BEBECB"/>
<path d="M23.1582 19.3321C22.3574 19.7325 18.4109 21.7343 14.8076 24.7085C14.1213 25.2232 13.7781 26.0812 13.7781 26.9391V31H28.077H42.3759V26.9391C42.3759 26.0812 41.9755 25.2804 41.3463 24.7085C37.6858 21.7343 33.7965 19.7325 32.9958 19.3321C32.8814 19.2749 32.8242 19.2177 32.8242 19.1033V13.441C33.5106 12.9834 34.0253 12.1827 34.0253 11.2103V5.31919C34.0253 2.40222 31.6231 0 28.7061 0H28.077H27.4478C24.5308 0 22.1286 2.40222 22.1286 5.31919V11.2103C22.1286 12.1255 22.5862 12.9262 23.3297 13.441V19.1033C23.3297 19.2177 23.2725 19.3321 23.1582 19.3321Z" fill="#505060"/>
</svg>
