<svg width="64" height="64" viewBox="0 0 64 64" fill="none" xmlns="http://www.w3.org/2000/svg">
<circle cx="32" cy="32" r="32" fill="#EAEAEF"/>
<path d="M47.2479 43.0498H39.0487V40.2084C39.0487 39.1531 38.6022 38.1789 37.7904 37.5295C37.1003 36.9612 36.4103 36.4335 35.7203 35.987V35.9464V32.4963C35.2738 32.2121 34.9896 31.725 34.9896 31.1568V27.5848C34.9896 25.7988 36.4103 24.3782 38.1963 24.3782H38.5616H38.9269C40.7129 24.3782 42.1336 25.7988 42.1336 27.5848V31.1568C42.1336 31.725 41.8494 32.2121 41.4029 32.4963V35.9058C41.4029 35.9464 41.4435 36.0276 41.4841 36.0682C41.9712 36.3117 44.3254 37.4889 46.5579 39.3154C46.9638 39.6402 47.1668 40.1273 47.1668 40.6549V43.0498H47.2479Z" fill="#505060"/>
<path d="M24.067 34.8099C23.4987 35.094 20.698 36.5147 18.1408 38.6254C17.6537 38.9907 17.4102 39.5996 17.4102 40.2084V43.0903H27.5578H37.7054V40.2084C37.7054 39.5996 37.4212 39.0313 36.9747 38.6254C34.3769 36.5147 31.6168 35.094 31.0485 34.8099C30.9674 34.7693 30.9268 34.7287 30.9268 34.6475V30.6291C31.4138 30.3044 31.7792 29.7361 31.7792 29.0461V24.8652C31.7792 22.7951 30.0744 21.0903 28.0043 21.0903H27.5578H27.1113C25.0411 21.0903 23.3364 22.7951 23.3364 24.8652V29.0461C23.3364 29.6955 23.6611 30.2638 24.1888 30.6291V34.6475C24.1888 34.7287 24.1482 34.8099 24.067 34.8099Z" fill="#505060"/>
</svg>
