<svg width="32" height="32" viewBox="0 0 32 32" fill="none" xmlns="http://www.w3.org/2000/svg">
<circle cx="16" cy="16" r="16" fill="#E9E9F7"/>
<path d="M13.3988 19.0409H10.7988C9.97136 19.0409 9.17777 18.7122 8.59266 18.1271C8.00755 17.542 7.67883 16.7484 7.67883 15.9209C7.67883 15.0934 8.00755 14.2998 8.59266 13.7147C9.17777 13.1296 9.97136 12.8009 10.7988 12.8009H14.9588C15.7863 12.8009 16.5799 13.1296 17.165 13.7147C17.7501 14.2998 18.0788 15.0934 18.0788 15.9209H17.0388C17.0388 15.3693 16.8197 14.8402 16.4296 14.4501C16.0395 14.06 15.5105 13.8409 14.9588 13.8409H10.7988C10.2472 13.8409 9.71813 14.06 9.32805 14.4501C8.93797 14.8402 8.71883 15.3693 8.71883 15.9209C8.71883 16.4726 8.93797 17.0016 9.32805 17.3917C9.71813 17.7818 10.2472 18.0009 10.7988 18.0009H13.3988V19.0409Z" fill="#7860FF" stroke="#7860FF" stroke-width="0.3"/>
<path d="M21.1998 19.0396H17.0398C16.2123 19.0396 15.4187 18.7108 14.8336 18.1257C14.2485 17.5406 13.9198 16.747 13.9198 15.9196H14.9598C14.9598 16.4712 15.1789 17.0003 15.569 17.3903C15.9591 17.7804 16.4881 17.9996 17.0398 17.9996H21.1998C21.7514 17.9996 22.2805 17.7804 22.6706 17.3903C23.0607 17.0003 23.2798 16.4712 23.2798 15.9196C23.2798 15.3679 23.0607 14.8389 22.6706 14.4488C22.2805 14.0587 21.7514 13.8396 21.1998 13.8396H18.5998V12.7996H21.1998C22.0273 12.7996 22.8209 13.1283 23.406 13.7134C23.9911 14.2985 24.3198 15.0921 24.3198 15.9196C24.3198 16.747 23.9911 17.5406 23.406 18.1257C22.8209 18.7108 22.0273 19.0396 21.1998 19.0396Z" fill="#7860FF" stroke="#7860FF" stroke-width="0.3"/>
<circle cx="16" cy="16" r="16" fill="#EAEAEF"/>
<path fill-rule="evenodd" clip-rule="evenodd" d="M22.6475 15.192C22.5618 12.7914 20.2469 11.1624 17.9749 11.8054C15.8315 8.59027 10.8159 9.91919 10.6444 13.8202C6.6148 14.9348 7.38643 21.0221 11.6304 21.0221H21.6616C25.0481 21.0221 25.7769 16.2208 22.6475 15.192Z" fill="#505060"/>
</svg>
