<svg width="32" height="32" viewBox="0 0 32 32" fill="none" xmlns="http://www.w3.org/2000/svg">
<circle cx="16" cy="16" r="16" fill="#E9E9F7"/>
<path d="M13.3988 19.041H10.7988C9.97136 19.041 9.17777 18.7123 8.59266 18.1271C8.00755 17.542 7.67883 16.7484 7.67883 15.921C7.67883 15.0935 8.00755 14.2999 8.59266 13.7148C9.17777 13.1297 9.97136 12.801 10.7988 12.801H14.9588C15.7863 12.801 16.5799 13.1297 17.165 13.7148C17.7501 14.2999 18.0788 15.0935 18.0788 15.921H17.0388C17.0388 15.3693 16.8197 14.8403 16.4296 14.4502C16.0395 14.0601 15.5105 13.841 14.9588 13.841H10.7988C10.2472 13.841 9.71813 14.0601 9.32805 14.4502C8.93797 14.8403 8.71883 15.3693 8.71883 15.921C8.71883 16.4726 8.93797 17.0017 9.32805 17.3917C9.71813 17.7818 10.2472 18.001 10.7988 18.001H13.3988V19.041Z" fill="#7860FF" stroke="#7860FF" stroke-width="0.3"/>
<path d="M21.1998 19.0396H17.0398C16.2123 19.0396 15.4187 18.7109 14.8336 18.1258C14.2485 17.5407 13.9198 16.7471 13.9198 15.9196H14.9598C14.9598 16.4712 15.1789 17.0003 15.569 17.3904C15.9591 17.7804 16.4881 17.9996 17.0398 17.9996H21.1998C21.7514 17.9996 22.2805 17.7804 22.6706 17.3904C23.0607 17.0003 23.2798 16.4712 23.2798 15.9196C23.2798 15.3679 23.0607 14.8389 22.6706 14.4488C22.2805 14.0587 21.7514 13.8396 21.1998 13.8396H18.5998V12.7996H21.1998C22.0273 12.7996 22.8209 13.1283 23.406 13.7134C23.9911 14.2985 24.3198 15.0921 24.3198 15.9196C24.3198 16.7471 23.9911 17.5407 23.406 18.1258C22.8209 18.7109 22.0273 19.0396 21.1998 19.0396Z" fill="#7860FF" stroke="#7860FF" stroke-width="0.3"/>
<circle cx="16" cy="16" r="16" fill="#EAEAEF"/>
<path d="M22.0649 10.6667L21.3913 11.3329C19.0401 13.6892 16.5233 16.3892 14.1741 18.7721L10.8209 16.0111L10.0955 15.4041L8.88892 16.8697L9.62174 17.4693L13.6486 20.7856L14.3074 21.3333L14.9218 20.7263C17.4678 18.1748 20.2313 15.1853 22.7386 12.6727L23.4048 11.9991L22.0649 10.6667Z" fill="#505060"/>
</svg>
