<svg width="32" height="32" viewBox="0 0 32 32" fill="none" xmlns="http://www.w3.org/2000/svg">
<circle cx="16" cy="16" r="16" fill="#E9E9F7"/>
<path d="M13.3988 19.041H10.7988C9.97136 19.041 9.17777 18.7123 8.59266 18.1271C8.00755 17.542 7.67883 16.7484 7.67883 15.921C7.67883 15.0935 8.00755 14.2999 8.59266 13.7148C9.17777 13.1297 9.97136 12.801 10.7988 12.801H14.9588C15.7863 12.801 16.5799 13.1297 17.165 13.7148C17.7501 14.2999 18.0788 15.0935 18.0788 15.921H17.0388C17.0388 15.3693 16.8197 14.8403 16.4296 14.4502C16.0395 14.0601 15.5105 13.841 14.9588 13.841H10.7988C10.2472 13.841 9.71813 14.0601 9.32805 14.4502C8.93797 14.8403 8.71883 15.3693 8.71883 15.921C8.71883 16.4726 8.93797 17.0017 9.32805 17.3917C9.71813 17.7818 10.2472 18.001 10.7988 18.001H13.3988V19.041Z" fill="#7860FF" stroke="#7860FF" stroke-width="0.3"/>
<path d="M21.1998 19.0396H17.0398C16.2123 19.0396 15.4187 18.7109 14.8336 18.1258C14.2485 17.5407 13.9198 16.7471 13.9198 15.9196H14.9598C14.9598 16.4712 15.1789 17.0003 15.569 17.3904C15.9591 17.7804 16.4881 17.9996 17.0398 17.9996H21.1998C21.7514 17.9996 22.2805 17.7804 22.6706 17.3904C23.0607 17.0003 23.2798 16.4712 23.2798 15.9196C23.2798 15.3679 23.0607 14.8389 22.6706 14.4488C22.2805 14.0587 21.7514 13.8396 21.1998 13.8396H18.5998V12.7996H21.1998C22.0273 12.7996 22.8209 13.1283 23.406 13.7134C23.9911 14.2985 24.3198 15.0921 24.3198 15.9196C24.3198 16.7471 23.9911 17.5407 23.406 18.1258C22.8209 18.7109 22.0273 19.0396 21.1998 19.0396Z" fill="#7860FF" stroke="#7860FF" stroke-width="0.3"/>
<circle cx="16" cy="16" r="16" fill="#EAEAEF"/>
<path d="M9.45455 14.0482L9.45455 14.3838C8.65122 14.3838 8 15.1979 8 16.202C8 17.2062 8.65122 18.0202 9.45455 18.0202L9.46491 18.0202C9.65728 21.6454 12.5032 24.5657 16 24.5657C19.4968 24.5657 22.3427 21.6454 22.5351 18.0202C22.5385 18.0202 22.542 18.0202 22.5455 18.0202C23.3488 18.0202 24 17.2062 24 16.202C24 15.1979 23.3488 14.3838 22.5455 14.3838V14.0482C22.5455 10.1992 19.6218 7.11111 16 7.11111C12.3782 7.11111 9.45455 10.1992 9.45455 14.0482Z" fill="#505060"/>
<path d="M15.0746 17.2549H16.4449V17.132C16.4522 16.4269 16.7053 16.0979 17.2765 15.7544C17.9527 15.3531 18.3938 14.8216 18.3938 13.9719C18.3938 12.7064 17.3742 11.9688 15.9387 11.9688C14.6262 11.9688 13.556 12.6558 13.5234 14.102H14.9986C15.0203 13.5127 15.4578 13.1981 15.9315 13.1981C16.4196 13.1981 16.8137 13.5235 16.8137 14.0261C16.8137 14.4998 16.4702 14.8143 16.0255 15.0964C15.4181 15.4796 15.0782 15.8665 15.0746 17.132V17.2549ZM15.7869 19.569C16.2497 19.569 16.651 19.1821 16.6546 18.7012C16.651 18.2276 16.2497 17.8407 15.7869 17.8407C15.3096 17.8407 14.9155 18.2276 14.9191 18.7012C14.9155 19.1821 15.3096 19.569 15.7869 19.569Z" fill="white"/>
</svg>
