<svg width="36" height="36" viewBox="0 0 36 36" fill="none" xmlns="http://www.w3.org/2000/svg">
<circle cx="18" cy="18" r="18" fill="#EAEAEF"/>
<path d="M12.8213 13.0886C14.764 13.0886 16.4467 14.1974 17.2744 15.8159H26.9122L29.1849 17.7619L26.0031 20.3614L24.6395 18.9977L23.2758 20.3614L21.9122 18.9977L20.5486 20.3614H17.2744C16.4467 21.9799 14.764 23.0886 12.8213 23.0886C10.0599 23.0886 7.82129 20.85 7.82129 18.0886C7.82129 15.3272 10.0599 13.0886 12.8213 13.0886V13.0886ZM11.2304 16.725C10.4773 16.725 9.86674 17.3355 9.86674 18.0886C9.86674 18.8417 10.4773 19.4523 11.2304 19.4523C11.9835 19.4523 12.594 18.8417 12.594 18.0886C12.594 17.3355 11.9835 16.725 11.2304 16.725Z" fill="#505060"/>
</svg>
