<svg width="36" height="36" viewBox="0 0 36 36" fill="none" xmlns="http://www.w3.org/2000/svg">
<circle cx="18" cy="18" r="18" fill="#EAEAEF"/>
<path d="M26.3891 22.7738H9.61086C9.27692 22.7738 9 22.4968 9 22.1629V13.6109C9 13.2769 9.27692 13 9.61086 13H26.3891C26.7231 13 27 13.2769 27 13.6109V22.1629C27 22.4968 26.7231 22.7738 26.3891 22.7738ZM10.2217 21.552H25.7783V14.2217H10.2217V21.552Z" fill="#505060" stroke="#505060" stroke-width="0.2"/>
<path d="M21.9747 19.19C21.8769 19.19 21.7873 19.1575 21.7059 19.0923L19.6534 17.3004C19.4824 17.1538 19.4661 16.8932 19.6127 16.7222C19.7593 16.5511 20.0199 16.5348 20.1909 16.6814L21.9747 18.2371L23.7095 16.6814C23.8805 16.5348 24.133 16.543 24.2878 16.714C24.4344 16.8851 24.4262 17.1376 24.2552 17.2923L22.2516 19.0842C22.1701 19.1575 22.0724 19.19 21.9747 19.19Z" fill="#505060" stroke="#505060" stroke-width="0.2"/>
</svg>
