<svg width="32" height="32" viewBox="0 0 32 32" fill="none" xmlns="http://www.w3.org/2000/svg">
<circle cx="16" cy="16" r="16" fill="#EAEAEF"/>
<path d="M23.457 20.2433H8.54299C8.24615 20.2433 8 19.9972 8 19.7003V12.0985C8 11.8017 8.24615 11.5555 8.54299 11.5555H23.457C23.7538 11.5555 24 11.8017 24 12.0985V19.7003C24 19.9972 23.7538 20.2433 23.457 20.2433ZM9.08597 19.1574H22.914V12.6415H9.08597V19.1574Z" fill="#505060" stroke="#505060" stroke-width="0.5"/>
<path d="M18.5332 17.0578C18.4464 17.0578 18.3667 17.0288 18.2943 16.9709L16.4699 15.3781C16.3179 15.2478 16.3034 15.0162 16.4337 14.8641C16.564 14.7121 16.7957 14.6976 16.9477 14.8279L18.5332 16.2107L20.0753 14.8279C20.2274 14.6976 20.4518 14.7048 20.5893 14.8569C20.7197 15.0089 20.7124 15.2334 20.5604 15.3709L18.7794 16.9637C18.707 17.0288 18.6201 17.0578 18.5332 17.0578Z" fill="#505060" stroke="#505060"/>
</svg>
