<svg width="32" height="32" viewBox="0 0 32 32" fill="none" xmlns="http://www.w3.org/2000/svg">
<circle cx="16" cy="16" r="16" fill="#EAEAEF"/>
<path d="M11.3967 11.6343C13.1235 11.6343 14.6192 12.6198 15.355 14.0585H23.922L25.9422 15.7883L23.1139 18.0989L21.9018 16.8868L20.6896 18.0989L19.4775 16.8868L18.2654 18.0989H15.355C14.6192 19.5376 13.1235 20.5232 11.3967 20.5232C8.94211 20.5232 6.95226 18.5333 6.95226 16.0787C6.95226 13.6241 8.94211 11.6343 11.3967 11.6343ZM9.98256 14.8666C9.31312 14.8666 8.77044 15.4093 8.77044 16.0787C8.77044 16.7482 9.31312 17.2908 9.98256 17.2908C10.652 17.2908 11.1947 16.7482 11.1947 16.0787C11.1947 15.4093 10.652 14.8666 9.98256 14.8666Z" fill="#505060"/>
</svg>
