<svg width="32" height="32" viewBox="0 0 32 32" fill="none" xmlns="http://www.w3.org/2000/svg">
<circle cx="16" cy="16" r="16" fill="#EAEAEF"/>
<path d="M19.8904 12.1236C19.8413 12.1236 19.7922 12.1236 19.7432 12.1236C19.3995 12.1236 19.0559 12.0009 18.7859 11.7554C18.4913 11.4854 18.3195 11.0927 18.3195 10.7V8H10.5632C10.1214 8 9.77778 8.34363 9.77778 8.78545V22.5799C9.77778 23.0217 10.1214 23.3653 10.5632 23.3653H21.4368C21.8786 23.3653 22.2222 23.0217 22.2222 22.5799V11.8782L19.8904 12.1236Z" fill="#505060" stroke="#EAEAEF"/>
<path d="M19.8165 11.4609L21.8047 11.2646L18.9574 8.41731V10.6755C18.9574 10.8964 19.0556 11.1173 19.2029 11.2646C19.3747 11.4118 19.5956 11.4855 19.8165 11.4609Z" fill="#505060"/>
<rect x="12.4444" y="18.6667" width="7.11111" height="1.24444" fill="#EAEAEF"/>
<rect x="12.4444" y="16" width="7.11111" height="1.24444" fill="#EAEAEF"/>
</svg>
