<svg width="35" height="46" viewBox="0 0 35 46" fill="none" xmlns="http://www.w3.org/2000/svg">
<path d="M1.05425 4.3125C0.47925 4.3125 0.0959167 4.69583 0.0959167 5.27083V8.9125C0.0959167 9.4875 0.47925 9.87083 1.05425 9.87083H4.69592C5.27092 9.87083 5.65425 9.4875 5.65425 8.9125C5.65425 8.3375 5.27092 7.95417 4.69592 7.95417H3.45008C7.28342 4.025 12.5542 1.91667 18.1126 1.91667C23.7668 1.91667 29.0376 4.12083 33.0626 8.05C33.4459 8.43333 34.0209 8.43333 34.4043 8.05C34.7876 7.66667 34.7876 7.09167 34.4043 6.70833C30.0918 2.39583 24.2459 0 18.1126 0C11.9792 0 6.32508 2.3 2.01258 6.6125V5.27083C2.01258 4.79167 1.53342 4.3125 1.05425 4.3125Z" fill="#BEBECB"/>
<path d="M0.2875 39.2916C4.79167 43.7958 10.6375 46 16.5792 46C22.425 46 28.2708 43.7958 32.775 39.3875V40.7291C32.775 41.3041 33.1583 41.6875 33.7333 41.6875C34.3083 41.6875 34.6917 41.3041 34.6917 40.7291V37.0875C34.6917 36.5125 34.3083 36.1292 33.7333 36.1292H30.0917C29.5167 36.1292 29.1333 36.5125 29.1333 37.0875C29.1333 37.6625 29.5167 38.0458 30.0917 38.0458H31.2417C23 46.0958 9.775 46.0958 1.62917 37.95C1.24583 37.5666 0.670833 37.5666 0.2875 37.95C-0.0958333 38.3333 -0.0958333 38.9083 0.2875 39.2916Z" fill="#BEBECB"/>
<path d="M32.5833 26.2583C32.9667 26.1625 33.35 25.7792 33.35 25.3V20.5083C33.35 20.0292 33.0625 19.6458 32.5833 19.55L28.6542 18.5917C28.5583 18.3042 28.4625 18.1125 28.3667 17.825L30.475 14.375C30.6667 13.9917 30.6667 13.5125 30.3792 13.225L26.9292 9.96668C26.6417 9.67918 26.1625 9.58335 25.7792 9.87085L22.3292 11.9792C22.0417 11.8833 21.85 11.7875 21.5625 11.6917L20.6042 7.76252C20.5083 7.37918 20.125 6.99585 19.6458 6.99585H14.8542C14.375 6.99585 13.9917 7.28335 13.8958 7.76252L12.9375 11.6917C12.65 11.7875 12.4583 11.8833 12.1708 11.9792L8.72083 9.87085C8.3375 9.67918 7.85833 9.67918 7.57083 10.0625L4.3125 13.4167C4.025 13.7042 3.92917 14.1834 4.21667 14.5667L6.325 18.0167C6.22917 18.3042 6.13333 18.4958 6.0375 18.7833L2.20417 19.7417C1.725 19.8375 1.4375 20.2208 1.4375 20.7V25.4917C1.4375 25.9708 1.725 26.3542 2.20417 26.45L6.13333 27.4083C6.22917 27.6958 6.325 27.8875 6.42083 28.175L4.3125 31.625C4.12083 32.0083 4.12083 32.4875 4.40833 32.775L7.7625 36.225C8.05 36.5125 8.52917 36.6084 8.9125 36.3209L12.3625 34.2125C12.65 34.3084 12.8417 34.4042 13.1292 34.5L14.0875 38.4292C14.1833 38.8125 14.5667 39.1959 15.0458 39.1959H19.8375C20.3167 39.1959 20.7 38.9083 20.7958 38.4292L21.7542 34.5C22.0417 34.4042 22.2333 34.3084 22.5208 34.2125L25.9708 36.3209C26.3542 36.6084 26.8333 36.5125 27.1208 36.225L30.475 32.8708C30.7625 32.5833 30.8583 32.1042 30.5708 31.7208L28.4625 28.2708C28.5583 27.9833 28.6542 27.7917 28.75 27.5042L32.5833 26.2583ZM17.3458 30.475C13.225 30.475 9.87083 27.1209 9.87083 23C9.87083 18.8792 13.225 15.525 17.3458 15.525C21.4667 15.525 24.8208 18.8792 24.8208 23C24.8208 27.1209 21.4667 30.475 17.3458 30.475Z" fill="#505060"/>
</svg>
