<svg width="36" height="36" viewBox="0 0 36 36" fill="none" xmlns="http://www.w3.org/2000/svg">
<circle cx="18" cy="18" r="18" fill="#EAEAEF"/>
<path d="M22.3767 13.6391C22.3215 13.6391 22.2663 13.6391 22.211 13.6391C21.8245 13.6391 21.4379 13.501 21.1341 13.2249C20.8028 12.9211 20.6095 12.4793 20.6095 12.0375V9H11.8836C11.3866 9 11 9.38659 11 9.88363V25.4024C11 25.8994 11.3866 26.286 11.8836 26.286H24.1164C24.6134 26.286 25 25.8994 25 25.4024V13.3629L22.3767 13.6391Z" fill="#505060" stroke="#EAEAEF"/>
<path d="M22.2939 12.8935L24.5305 12.6726L21.3274 9.46941V12.0098C21.3274 12.2584 21.4378 12.5069 21.6035 12.6726C21.7968 12.8382 22.0453 12.9211 22.2939 12.8935Z" fill="#505060"/>
<rect x="14" y="21" width="8" height="1.4" fill="#EAEAEF"/>
<rect x="14" y="18" width="8" height="1.4" fill="#EAEAEF"/>
</svg>
