<svg width="36" height="36" viewBox="0 0 36 36" fill="none" xmlns="http://www.w3.org/2000/svg">
<circle cx="18" cy="18" r="18" fill="#EAEAEF"/>
<path d="M24.9769 12.2003C24.9769 12.2042 24.9769 12.2079 24.9767 12.2118C24.9572 13.4217 21.8359 14.4006 17.9884 14.4006C14.141 14.4006 11.0197 13.4217 11.0002 12.2118C11 12.2079 11 12.2042 11 12.2003C11 10.9851 14.1288 10 17.9884 10C21.8481 10 24.9769 10.9851 24.9769 12.2003Z" fill="#505060" stroke="#EAEAEF" stroke-width="0.4"/>
<path d="M24.9998 24.0478C24.9998 24.0517 24.9998 24.0554 24.9996 24.0593C24.9802 25.2692 21.8588 26.2481 18.0114 26.2481C14.1639 26.2481 11.0426 25.2692 11.0231 24.0592C11.0229 24.0554 11.0229 24.0517 11.0229 24.0478L11.0184 20.9479C11.0184 20.9518 11.0184 20.9554 11.0186 20.9593C11.038 22.1693 14.1594 23.1482 18.0068 23.1482C21.8543 23.1482 24.9756 22.1693 24.9951 20.9593C24.9953 20.9554 24.9953 20.9518 24.9953 20.9479L24.9998 24.0478Z" fill="#505060" stroke="#EAEAEF" stroke-width="0.4"/>
<path d="M24.984 20.1169C24.984 20.1208 24.984 20.1244 24.9838 20.1283C24.9644 21.3383 21.843 22.3172 17.9956 22.3172C14.1481 22.3172 11.0268 21.3383 11.0073 20.1283C11.0071 20.1244 11.0071 20.1208 11.0071 20.1169L11.0026 17.017C11.0026 17.0209 11.0026 17.0245 11.0027 17.0284C11.0222 18.2384 14.1435 19.2173 17.991 19.2173C21.8385 19.2173 24.9598 18.2384 24.9793 17.0284C24.9795 17.0245 24.9795 17.0209 24.9795 17.017L24.984 20.1169Z" fill="#505060" stroke="#EAEAEF" stroke-width="0.4"/>
<path d="M24.9853 16.1496C24.9853 16.1535 24.9853 16.1572 24.9851 16.1611C24.9656 17.371 21.8443 18.3499 17.9968 18.3499C14.1494 18.3499 11.028 17.371 11.0086 16.1611C11.0084 16.1572 11.0084 16.1535 11.0084 16.1496L11.0038 13.0497C11.0038 13.0536 11.0038 13.0573 11.004 13.0611C11.0235 14.2711 14.1448 15.25 17.9923 15.25C21.8398 15.25 24.9611 14.2711 24.9806 13.0611C24.9807 13.0573 24.9807 13.0536 24.9807 13.0497L24.9853 16.1496Z" fill="#505060" stroke="#EAEAEF" stroke-width="0.4"/>
</svg>
