<svg width="36" height="36" viewBox="0 0 36 36" fill="none" xmlns="http://www.w3.org/2000/svg">
<circle cx="18" cy="18" r="18" fill="#EAEAEF"/>
<path d="M13.2887 14.7828L11.2788 15.7771C11.7096 14.2834 12.6242 12.975 13.8792 12.0573C15.1341 11.1397 16.6583 10.6648 18.2124 10.7073C19.7664 10.7497 21.2624 11.307 22.4654 12.2918C23.6684 13.2765 24.5103 14.6329 24.859 16.1479C24.8649 16.1972 24.8811 16.2447 24.9065 16.2873C24.9319 16.3299 24.966 16.3667 25.0065 16.3953C25.0471 16.4239 25.0932 16.4436 25.1419 16.4533C25.1905 16.4629 25.2407 16.4622 25.2891 16.4512C25.3374 16.4403 25.383 16.4192 25.4227 16.3895C25.4625 16.3599 25.4955 16.3221 25.5198 16.2789C25.544 16.2356 25.5589 16.1877 25.5635 16.1383C25.568 16.0889 25.5622 16.0391 25.5462 15.9921C25.1631 14.3297 24.2406 12.8408 22.9226 11.7576C21.6047 10.6744 19.9653 10.0578 18.2602 10.0039C16.5551 9.94994 14.8801 10.4618 13.4963 11.4595C12.1126 12.4573 11.0979 13.8849 10.6104 15.5197L9.64209 13.5618C9.5934 13.494 9.52231 13.4455 9.44136 13.425C9.36042 13.4044 9.27482 13.4132 9.19968 13.4496C9.12454 13.486 9.06469 13.5478 9.03069 13.6241C8.99669 13.7004 8.99073 13.7862 9.01386 13.8665L10.3719 16.6203C10.4135 16.7039 10.4865 16.7678 10.575 16.7978C10.6635 16.8279 10.7602 16.8218 10.8442 16.7809L13.6028 15.4182C13.6445 15.3975 13.6817 15.3689 13.7124 15.3339C13.743 15.2989 13.7665 15.2581 13.7814 15.2141C13.7963 15.17 13.8024 15.1234 13.7993 15.077C13.7962 15.0305 13.784 14.9852 13.7634 14.9434C13.7427 14.9017 13.7141 14.8645 13.6791 14.8338C13.6441 14.8032 13.6034 14.7797 13.5593 14.7648C13.5152 14.7499 13.4686 14.7438 13.4222 14.7469C13.3757 14.75 13.3304 14.7622 13.2887 14.7828V14.7828ZM26.9633 21.3911C27.0049 21.4753 27.0114 21.5727 26.9813 21.6617C26.9512 21.7507 26.8869 21.8241 26.8027 21.8658C26.7184 21.9074 26.6211 21.9139 26.5321 21.8838C26.443 21.8537 26.3696 21.7894 26.328 21.7052L25.4281 19.889C24.9493 21.5309 23.9393 22.9676 22.5564 23.974C21.1735 24.9803 19.4958 25.4995 17.7861 25.4501C16.0765 25.4006 14.4316 24.7854 13.1091 23.7009C11.7866 22.6163 10.8613 21.1236 10.4782 19.4568C10.465 19.4105 10.4613 19.3621 10.4675 19.3144C10.4736 19.2667 10.4894 19.2208 10.5138 19.1794C10.5383 19.138 10.5709 19.102 10.6097 19.0736C10.6485 19.0452 10.6927 19.025 10.7396 19.0143C10.7865 19.0035 10.835 19.0024 10.8823 19.011C10.9296 19.0197 10.9747 19.0378 11.0148 19.0644C11.0548 19.091 11.0891 19.1255 11.1154 19.1657C11.1417 19.206 11.1595 19.2512 11.1678 19.2985C11.5209 20.8358 12.3817 22.2093 13.6112 23.1973C14.8408 24.1854 16.3673 24.7303 17.9446 24.7442C19.5219 24.7582 21.0578 24.2402 22.3046 23.2741C23.5514 22.3079 24.4363 20.9498 24.8164 19.419L22.6909 20.4747C22.6493 20.5038 22.6019 20.5237 22.552 20.5329C22.502 20.5421 22.4507 20.5405 22.4014 20.5281C22.3522 20.5157 22.3062 20.4929 22.2665 20.4612C22.2268 20.4295 22.1944 20.3897 22.1715 20.3444C22.1486 20.299 22.1357 20.2493 22.1337 20.1986C22.1317 20.1479 22.1406 20.0973 22.1598 20.0503C22.1791 20.0033 22.2082 19.961 22.2452 19.9262C22.2822 19.8915 22.3263 19.8651 22.3744 19.8488L25.1306 18.4743C25.2146 18.4333 25.3113 18.4273 25.3998 18.4573C25.4883 18.4874 25.5613 18.5512 25.6029 18.6349L26.9633 21.3911Z" fill="#505060" stroke="#505060" stroke-width="0.8"/>
</svg>
