<svg width="36" height="36" viewBox="0 0 36 36" fill="none" xmlns="http://www.w3.org/2000/svg">
<circle cx="18" cy="18" r="18" fill="#EAEAEF"/>
<path d="M21.6334 20.5883C21.3232 20.7434 19.7945 21.5189 18.3988 22.6709C18.1329 22.8703 18 23.2026 18 23.5349V25.1079H23.5387H29.0775V23.5349C29.0775 23.2026 28.9224 22.8925 28.6787 22.6709C27.2608 21.5189 25.7542 20.7434 25.4441 20.5883C25.3997 20.5662 25.3776 20.544 25.3776 20.4997V18.3064C25.6434 18.1291 25.8428 17.819 25.8428 17.4423V15.1604C25.8428 14.0305 24.9123 13.1 23.7824 13.1H23.5387H23.295C22.1651 13.1 21.2346 14.0305 21.2346 15.1604V17.4423C21.2346 17.7968 21.4119 18.107 21.6999 18.3064V20.4997C21.6999 20.544 21.6777 20.5883 21.6334 20.5883Z" fill="#505060"/>
<path d="M11.976 16.9034V18.9926C11.2527 19.3697 9.60496 20.2818 8.06964 21.5469C7.53144 21.9587 7.3 22.6024 7.3 23.188V25.176V25.876H8H15H22H22.7V25.176V23.188C22.7 22.5467 22.402 21.9736 21.9669 21.578L21.9525 21.565L21.9374 21.5527C20.379 20.2865 18.7451 19.3726 18.024 18.9936V16.9061C18.3726 16.5563 18.612 16.0633 18.612 15.488V12.604C18.612 10.7894 17.1226 9.3 15.308 9.3H15H14.692C12.8774 9.3 11.388 10.7894 11.388 12.604V15.488C11.388 16.0437 11.6125 16.5376 11.976 16.9034Z" fill="#505060" stroke="#EAEAEF" stroke-width="1.4"/>
</svg>
