<svg width="32" height="32" viewBox="0 0 32 32" fill="none" xmlns="http://www.w3.org/2000/svg">
<circle cx="16" cy="16" r="16" fill="#F2F2F7"/>
<path d="M19.2295 18.3007C18.9537 18.4386 17.5949 19.1279 16.3542 20.1519C16.1179 20.3291 15.9998 20.6245 15.9998 20.9199V22.3182H20.9231H25.8464V20.9199C25.8464 20.6245 25.7085 20.3488 25.4919 20.1519C24.2315 19.1279 22.8924 18.4386 22.6167 18.3007C22.5773 18.281 22.5576 18.2613 22.5576 18.222V16.2723C22.7939 16.1148 22.9712 15.8391 22.9712 15.5043V13.4759C22.9712 12.4715 22.1441 11.6444 21.1397 11.6444H20.9231H20.7064C19.7021 11.6444 18.875 12.4715 18.875 13.4759V15.5043C18.875 15.8194 19.0325 16.0951 19.2885 16.2723V18.222C19.2885 18.2613 19.2688 18.3007 19.2295 18.3007Z" fill="#505060"/>
<path d="M10.5675 15.0569V16.8353C9.90233 17.1842 8.46593 17.9869 7.1246 19.0919C6.62387 19.4757 6.41108 20.0726 6.41108 20.6116V22.3787V23.0787H7.11108H13.3333H19.5555H20.2555V22.3787V20.6116C20.2555 20.017 19.9793 19.4874 19.5784 19.123L19.564 19.1099L19.5489 19.0976C18.1875 17.9915 16.7623 17.187 16.0991 16.8363V15.0594C16.4099 14.7366 16.6217 14.2884 16.6217 13.7671V11.2036C16.6217 9.54765 15.263 8.18892 13.6071 8.18892H13.3333H13.0595C11.4036 8.18892 10.0449 9.54765 10.0449 11.2036V13.7671C10.0449 14.2715 10.2442 14.7206 10.5675 15.0569ZM15.7873 16.6755C15.7881 16.6759 15.7898 16.6767 15.7922 16.678C15.7904 16.6771 15.7886 16.6761 15.7868 16.6753L15.7873 16.6755Z" fill="#505060" stroke="#F2F2F6" stroke-width="1.4"/>
</svg>
