<svg width="32" height="32" viewBox="0 0 32 32" fill="none" xmlns="http://www.w3.org/2000/svg">
<circle cx="16" cy="16" r="16" fill="#F2F2F7"/>
<path d="M11.8121 13.1403L10.0256 14.0242C10.4085 12.6964 11.2216 11.5333 12.3371 10.7176C13.4526 9.90198 14.8074 9.47987 16.1888 9.51758C17.5702 9.5553 18.8999 10.0507 19.9693 10.926C21.0386 11.8014 21.787 13.007 22.0969 14.3538C22.1021 14.3975 22.1165 14.4397 22.1391 14.4776C22.1617 14.5155 22.192 14.5482 22.228 14.5736C22.2641 14.599 22.3051 14.6166 22.3483 14.6251C22.3916 14.6337 22.4362 14.6331 22.4792 14.6233C22.5222 14.6136 22.5627 14.5949 22.598 14.5685C22.6333 14.5421 22.6627 14.5086 22.6843 14.4701C22.7058 14.4316 22.719 14.3891 22.7231 14.3452C22.7271 14.3012 22.7219 14.257 22.7078 14.2152C22.3672 12.7375 21.5472 11.4141 20.3757 10.4512C19.2042 9.48841 17.747 8.94028 16.2313 8.89235C14.7157 8.84442 13.2267 9.29937 11.9967 10.1863C10.7667 11.0731 9.86476 12.3421 9.43148 13.7953L8.57075 12.055C8.52747 11.9947 8.46428 11.9516 8.39232 11.9333C8.32037 11.9151 8.24428 11.9228 8.17749 11.9552C8.1107 11.9876 8.0575 12.0426 8.02728 12.1104C7.99706 12.1782 7.99176 12.2545 8.01232 12.3258L9.21945 14.7736C9.25646 14.848 9.32135 14.9047 9.39999 14.9314C9.47863 14.9582 9.56465 14.9528 9.63932 14.9164L12.0914 13.7051C12.1284 13.6867 12.1615 13.6613 12.1888 13.6301C12.216 13.599 12.2369 13.5628 12.2501 13.5236C12.2634 13.4845 12.2688 13.443 12.266 13.4018C12.2633 13.3605 12.2524 13.3202 12.2341 13.2831C12.2158 13.246 12.1903 13.2129 12.1592 13.1857C12.1281 13.1584 12.0919 13.1376 12.0527 13.1243C12.0135 13.1111 11.9721 13.1056 11.9308 13.1084C11.8896 13.1111 11.8492 13.122 11.8121 13.1403ZM23.9674 19.0143C24.0044 19.0892 24.0102 19.1757 23.9834 19.2549C23.9566 19.334 23.8995 19.3993 23.8246 19.4363C23.7497 19.4733 23.6632 19.4791 23.5841 19.4523C23.5049 19.4255 23.4397 19.3684 23.4026 19.2935L22.6028 17.6791C22.1772 19.1386 21.2794 20.4157 20.0501 21.3102C18.8209 22.2048 17.3296 22.6662 15.8099 22.6223C14.2902 22.5784 12.8281 22.0315 11.6525 21.0675C10.477 20.1034 9.6545 18.7766 9.31392 17.2949C9.30219 17.2538 9.29895 17.2108 9.3044 17.1684C9.30985 17.126 9.32387 17.0851 9.34562 17.0483C9.36736 17.0115 9.39636 16.9796 9.43087 16.9543C9.46537 16.9291 9.50465 16.9112 9.54631 16.9016C9.58797 16.892 9.63114 16.8911 9.67319 16.8987C9.71524 16.9064 9.75529 16.9225 9.7909 16.9462C9.82651 16.9698 9.85693 17.0005 9.88032 17.0362C9.90371 17.072 9.91956 17.1122 9.92693 17.1543C10.2408 18.5208 11.0059 19.7416 12.0989 20.6199C13.1918 21.4981 14.5487 21.9825 15.9507 21.9949C17.3528 22.0073 18.7181 21.5469 19.8263 20.6881C20.9346 19.8293 21.7211 18.6221 22.0591 17.2614L20.1697 18.1998C20.1327 18.2256 20.0906 18.2433 20.0462 18.2515C20.0018 18.2597 19.9562 18.2582 19.9124 18.2472C19.8686 18.2362 19.8277 18.216 19.7924 18.1878C19.7572 18.1596 19.7284 18.1242 19.708 18.0839C19.6877 18.0436 19.6762 17.9994 19.6744 17.9543C19.6726 17.9092 19.6805 17.8643 19.6976 17.8225C19.7147 17.7807 19.7406 17.7431 19.7735 17.7122C19.8064 17.6813 19.8456 17.6579 19.8883 17.6434L22.3383 16.4216C22.4129 16.3852 22.499 16.3798 22.5776 16.4065C22.6562 16.4333 22.7211 16.49 22.7581 16.5644L23.9674 19.0143Z" fill="#505060" stroke="#505060"/>
</svg>
