<svg width="35" height="37" viewBox="0 0 35 37" fill="none" xmlns="http://www.w3.org/2000/svg">
<path d="M27.5267 4.33342C27.5267 4.34112 27.5267 4.34833 27.5264 4.356C27.488 6.73892 21.3407 8.66683 13.7634 8.66683C6.18599 8.66683 0.0387093 6.73892 0.000358224 4.35596C-1.96878e-07 4.34829 0 4.34109 0 4.33338C0 1.9401 6.16197 0 13.7634 0C21.3648 0 27.5267 1.9401 27.5267 4.33342Z" fill="#BEBECB"/>
<path d="M27.5716 27.6666C27.5716 27.6744 27.5716 27.6816 27.5713 27.6892C27.5329 30.0721 21.3856 32 13.8083 32C6.2309 32 0.0836195 30.0721 0.0452685 27.6892C0.04491 27.6815 0.0449102 27.6743 0.0449102 27.6666L0.0359497 21.5615C0.0359497 21.5692 0.0359495 21.5764 0.0363079 21.5841C0.0746231 23.967 6.22194 25.8949 13.7993 25.8949C21.3767 25.8949 27.524 23.967 27.5623 21.5841C27.5627 21.5764 27.5627 21.5692 27.5627 21.5615L27.5716 27.6666Z" fill="#BEBECB"/>
<path d="M27.5404 19.9247C27.5404 19.9324 27.5404 19.9396 27.5401 19.9473C27.5017 22.3301 21.3544 24.2581 13.777 24.2581C6.19965 24.2581 0.0523698 22.3301 0.0140187 19.9473C0.0136603 19.9396 0.0136602 19.9324 0.0136602 19.9247L0.00469971 13.8196C0.00469971 13.8273 0.00469978 13.8345 0.0050582 13.8422C0.0433734 16.2251 6.19069 18.153 13.7681 18.153C21.3455 18.153 27.4928 16.2251 27.5311 13.8422C27.5315 13.8345 27.5315 13.8273 27.5315 13.8196L27.5404 19.9247Z" fill="#BEBECB"/>
<path d="M27.5427 12.1112C27.5427 12.1189 27.5427 12.1261 27.5423 12.1338C27.504 14.5167 21.3567 16.4446 13.7793 16.4446C6.20197 16.4446 0.0546533 14.5167 0.0163381 12.1338C0.0159796 12.1261 0.0159796 12.1189 0.0159796 12.1112L0.00701904 6.0061C0.00701904 6.01381 0.00701912 6.02101 0.00737754 6.02868C0.0456927 8.41157 6.19301 10.3395 13.7703 10.3395C21.3478 10.3395 27.495 8.41157 27.5334 6.02868C27.5337 6.02101 27.5337 6.01381 27.5337 6.0061L27.5427 12.1112Z" fill="#BEBECB"/>
<path d="M24.8844 14.0044L24.8827 14.0043C21.1934 13.8713 18.1374 16.8293 18.1374 20.516V22.5253H17.7594C16.7852 22.5253 16 23.3105 16 24.2847V34.2406C16 35.2148 16.7852 36 17.7594 36H31.484C32.4581 36 33.2433 35.2148 33.2433 34.2406V24.2833C33.2889 23.2648 32.4602 22.4972 31.5121 22.4972H31.134V20.6285C31.134 17.1412 28.4337 14.1383 24.8844 14.0044ZM21.853 20.516C21.853 18.917 23.1788 17.636 24.7937 17.7178C26.2901 17.8008 27.4747 19.0811 27.4747 20.6285V22.5253H21.8249V21.516H21.853V20.516Z" fill="#505060" stroke="white" stroke-width="2"/>
</svg>
