<svg width="28" height="36" viewBox="0 0 28 36" fill="none" xmlns="http://www.w3.org/2000/svg">
<path d="M13.968 0C13.968 0 10.961 5.12728 0 5.12728V19.5273C0 30.1091 13.968 36 13.968 36C13.968 36 27.936 30.1091 27.936 19.5273V5.12728C16.975 5.12728 13.968 0 13.968 0Z" fill="#6EADFF"/>
<path d="M13.875 3.75C13.875 3.75 11.5339 7.8091 3 7.8091V19.2091C3 27.5864 13.875 32.25 13.875 32.25C13.875 32.25 24.75 27.5864 24.75 19.2091V7.8091C16.2161 7.8091 13.875 3.75 13.875 3.75Z" fill="#D3E6FF"/>
<circle cx="13.875" cy="15.375" r="4.125" fill="#F4899E"/>
<path fill-rule="evenodd" clip-rule="evenodd" d="M21.1686 27.166C19.64 23.9111 16.945 21.75 13.8756 21.75C10.8061 21.75 8.11111 23.9111 6.58252 27.166C9.75137 30.4814 13.8756 32.25 13.8756 32.25C13.8756 32.25 17.9997 30.4814 21.1686 27.166Z" fill="#318AFF"/>
</svg>
