<svg width="36" height="36" viewBox="0 0 36 36" fill="none" xmlns="http://www.w3.org/2000/svg">
<circle cx="18" cy="18" r="18" fill="#EEEEFF"/>
<path d="M19.2078 6.85771C20.3514 5.7141 22.2056 5.7141 23.3492 6.85771C24.4929 8.00132 24.4928 9.85548 23.3492 10.9991L16.9991 17.3492C15.8555 18.4928 14.0013 18.4928 12.8577 17.3492C11.7141 16.2056 11.7141 14.3514 12.8577 13.2078L19.2078 6.85771Z" fill="#A192FF"/>
<path d="M19.2078 12.794C20.3514 11.6504 22.2056 11.6504 23.3492 12.794C24.4929 13.9376 24.4928 15.7918 23.3492 16.9354L16.9991 23.2855C15.8555 24.4291 14.0013 24.4291 12.8577 23.2855C11.7141 22.1419 11.7141 20.2877 12.8577 19.1441L19.2078 12.794Z" fill="#A192FF"/>
<path fill-rule="evenodd" clip-rule="evenodd" d="M22.248 12.1007L16.9991 17.3495C16.177 18.1717 14.9876 18.4028 13.959 18.0428L19.2078 12.794C20.03 11.9719 21.2194 11.7407 22.248 12.1007Z" fill="#7860FF"/>
<path d="M19.2078 18.6507C20.3514 17.5071 22.2056 17.5071 23.3492 18.6507C24.4929 19.7943 24.4928 21.6485 23.3492 22.7921L16.9991 29.1422C15.8555 30.2858 14.0013 30.2858 12.8577 29.1422C11.7141 27.9986 11.7141 26.1444 12.8577 25.0008L19.2078 18.6507Z" fill="#A192FF"/>
<path fill-rule="evenodd" clip-rule="evenodd" d="M22.3061 17.9784L16.9991 23.2854C16.1615 24.1231 14.9425 24.3472 13.9009 23.9577L19.2079 18.6507C20.0455 17.813 21.2644 17.5889 22.3061 17.9784Z" fill="#7860FF"/>
</svg>
