<svg width="50" height="50" viewBox="0 0 50 50" fill="none" xmlns="http://www.w3.org/2000/svg">
<circle cx="25" cy="25" r="25" fill="#F0F0F7"/>
<path d="M33.5263 22.7433V22.1053C33.5263 17.9392 29.5872 14 25.4211 14C21.2549 14 17.3158 17.9392 17.3158 22.1053V22.7433C15.9958 23.0119 15 24.1802 15 25.5789V27.8947C15 29.4915 16.2992 30.7895 17.8947 30.7895C19.4903 30.7895 20.7895 29.4915 20.7895 27.8947V25.5789C20.7895 24.1802 19.7937 23.0119 18.4737 22.7433V22.1053C18.4737 18.5992 21.9149 15.1579 25.4211 15.1579C28.9272 15.1579 32.3684 18.5992 32.3684 22.1053V22.7433C31.0484 23.0119 30.0526 24.1802 30.0526 25.5789V27.8947C30.0526 29.2935 31.0484 30.4618 32.3684 30.7304V32.0087L28.2394 32.4673C27.9476 31.1774 26.7966 30.2105 25.4211 30.2105C23.8255 30.2105 22.5263 31.5085 22.5263 33.1053C22.5263 34.702 23.8255 36 25.4211 36C26.8383 36 28.0147 34.9753 28.2625 33.6298L33.0111 33.1018C33.3052 33.0694 33.5263 32.8216 33.5263 32.5263V30.7304C34.8463 30.4618 35.8421 29.2935 35.8421 27.8947V25.5789C35.8421 24.1802 34.8463 23.0119 33.5263 22.7433ZM19.6316 25.5789V27.8947C19.6316 28.8523 18.8523 29.6316 17.8947 29.6316C16.9372 29.6316 16.1579 28.8523 16.1579 27.8947V25.5789C16.1579 24.6214 16.9372 23.8421 17.8947 23.8421C18.8523 23.8421 19.6316 24.6214 19.6316 25.5789ZM25.4211 34.8421C24.4635 34.8421 23.6842 34.0628 23.6842 33.1053C23.6842 32.1477 24.4635 31.3684 25.4211 31.3684C26.3786 31.3684 27.1579 32.1477 27.1579 33.1053C27.1579 34.0628 26.3786 34.8421 25.4211 34.8421ZM34.6842 27.8947C34.6842 28.8523 33.9049 29.6316 32.9474 29.6316C31.9898 29.6316 31.2105 28.8523 31.2105 27.8947V25.5789C31.2105 24.6214 31.9898 23.8421 32.9474 23.8421C33.9049 23.8421 34.6842 24.6214 34.6842 25.5789V27.8947Z" fill="#4E4E56" stroke="#4E4E56" stroke-width="0.6"/>
</svg>
