<svg width="605" height="433" viewBox="0 0 605 433" fill="none" xmlns="http://www.w3.org/2000/svg">
<g opacity="0.9" filter="url(#filter0_d)">
<path d="M34.2388 317.827C29.1363 315.713 29.1363 312.287 34.2388 310.173L209.776 237.463C214.878 235.35 223.151 235.35 228.254 237.463L403.791 310.173C408.893 312.287 408.893 315.713 403.791 317.827L228.253 390.537C223.151 392.65 214.878 392.65 209.776 390.537L34.2388 317.827Z" fill="#7860FF"/>
</g>
<path d="M497.801 348.364H498.994C498.94 346.827 497.523 345.679 495.554 345.679C493.605 345.679 492.074 346.812 492.074 348.523C492.074 349.895 493.068 350.71 494.659 351.168L495.912 351.526C496.986 351.824 497.94 352.202 497.94 353.216C497.94 354.33 496.866 355.065 495.455 355.065C494.241 355.065 493.168 354.528 493.068 353.375H491.795C491.915 355.045 493.267 356.179 495.455 356.179C497.801 356.179 499.134 354.886 499.134 353.236C499.134 351.327 497.324 350.71 496.27 350.432L495.236 350.153C494.48 349.955 493.267 349.557 493.267 348.463C493.267 347.489 494.162 346.773 495.514 346.773C496.747 346.773 497.682 347.359 497.801 348.364ZM504.203 356.159C505.754 356.159 506.888 355.384 507.246 354.23L506.112 353.912C505.814 354.707 505.123 355.105 504.203 355.105C502.826 355.105 501.877 354.215 501.822 352.58H507.365V352.082C507.365 349.239 505.675 348.264 504.084 348.264C502.016 348.264 500.644 349.895 500.644 352.241C500.644 354.588 501.996 356.159 504.203 356.159ZM501.822 351.565C501.901 350.377 502.742 349.318 504.084 349.318C505.357 349.318 506.172 350.273 506.172 351.565H501.822ZM512.252 356.159C513.943 356.159 515.056 355.125 515.255 353.773H514.082C513.863 354.608 513.167 355.105 512.252 355.105C510.86 355.105 509.965 353.952 509.965 352.182C509.965 350.452 510.88 349.318 512.252 349.318C513.286 349.318 513.903 349.955 514.082 350.651H515.255C515.056 349.219 513.843 348.264 512.232 348.264C510.164 348.264 508.792 349.895 508.792 352.222C508.792 354.509 510.105 356.159 512.252 356.159ZM521.783 352.878C521.783 354.31 520.689 354.966 519.814 354.966C518.84 354.966 518.144 354.25 518.144 353.136V348.364H516.97V353.216C516.97 355.165 518.004 356.099 519.436 356.099C520.59 356.099 521.345 355.483 521.703 354.707H521.783V356H522.956V348.364H521.783V352.878ZM525.105 356H526.278V351.168C526.278 350.134 527.094 349.378 528.207 349.378C528.521 349.378 528.844 349.438 528.923 349.457V348.264C528.789 348.254 528.481 348.244 528.307 348.244C527.392 348.244 526.597 348.761 526.318 349.517H526.239V348.364H525.105V356ZM533.283 356.159C534.835 356.159 535.968 355.384 536.326 354.23L535.192 353.912C534.894 354.707 534.203 355.105 533.283 355.105C531.906 355.105 530.957 354.215 530.902 352.58H536.445V352.082C536.445 349.239 534.755 348.264 533.164 348.264C531.096 348.264 529.724 349.895 529.724 352.241C529.724 354.588 531.076 356.159 533.283 356.159ZM530.902 351.565C530.982 350.377 531.822 349.318 533.164 349.318C534.437 349.318 535.252 350.273 535.252 351.565H530.902ZM545.051 356.159C546.523 356.159 547.02 355.244 547.278 354.827H547.418V356H548.551V345.818H547.378V349.577H547.278C547.02 349.179 546.562 348.264 545.071 348.264C543.142 348.264 541.81 349.795 541.81 352.202C541.81 354.628 543.142 356.159 545.051 356.159ZM545.21 355.105C543.739 355.105 542.983 353.812 542.983 352.182C542.983 350.571 543.719 349.318 545.21 349.318C546.642 349.318 547.398 350.472 547.398 352.182C547.398 353.912 546.622 355.105 545.21 355.105ZM553.11 356.179C554.442 356.179 555.138 355.463 555.377 354.966H555.437V356H556.61V350.969C556.61 348.543 554.761 348.264 553.786 348.264C552.633 348.264 551.32 348.662 550.724 350.054L551.837 350.452C552.096 349.895 552.707 349.298 553.826 349.298C554.905 349.298 555.437 349.87 555.437 350.849V350.889C555.437 351.456 554.86 351.406 553.468 351.585C552.051 351.769 550.505 352.082 550.505 353.832C550.505 355.324 551.658 356.179 553.11 356.179ZM553.289 355.125C552.354 355.125 551.678 354.707 551.678 353.892C551.678 352.997 552.494 352.719 553.408 352.599C553.906 352.54 555.238 352.401 555.437 352.162V353.236C555.437 354.19 554.681 355.125 553.289 355.125ZM562.073 348.364H560.442V346.534H559.269V348.364H558.115V349.358H559.269V354.131C559.269 355.463 560.343 356.099 561.337 356.099C561.774 356.099 562.053 356.02 562.212 355.96L561.973 354.906C561.874 354.926 561.715 354.966 561.456 354.966C560.939 354.966 560.442 354.807 560.442 353.812V349.358H562.073V348.364ZM566.085 356.179C567.417 356.179 568.113 355.463 568.352 354.966H568.411V356H569.585V350.969C569.585 348.543 567.735 348.264 566.761 348.264C565.607 348.264 564.295 348.662 563.698 350.054L564.812 350.452C565.07 349.895 565.682 349.298 566.801 349.298C567.879 349.298 568.411 349.87 568.411 350.849V350.889C568.411 351.456 567.835 351.406 566.443 351.585C565.026 351.769 563.48 352.082 563.48 353.832C563.48 355.324 564.633 356.179 566.085 356.179ZM566.264 355.125C565.329 355.125 564.653 354.707 564.653 353.892C564.653 352.997 565.468 352.719 566.383 352.599C566.88 352.54 568.213 352.401 568.411 352.162V353.236C568.411 354.19 567.656 355.125 566.264 355.125ZM575.664 356H576.837V348.364H575.664V356ZM576.26 347.091C576.718 347.091 577.096 346.733 577.096 346.295C577.096 345.858 576.718 345.5 576.26 345.5C575.803 345.5 575.425 345.858 575.425 346.295C575.425 346.733 575.803 347.091 576.26 347.091ZM580.159 351.406C580.159 350.074 580.985 349.318 582.108 349.318C583.197 349.318 583.858 350.029 583.858 351.227V356H585.031V351.148C585.031 349.199 583.992 348.264 582.446 348.264C581.293 348.264 580.577 348.781 580.219 349.557H580.119V348.364H578.986V356H580.159V351.406ZM495.395 369.364H493.764V367.534H492.591V369.364H491.438V370.358H492.591V375.131C492.591 376.463 493.665 377.099 494.659 377.099C495.097 377.099 495.375 377.02 495.534 376.96L495.295 375.906C495.196 375.926 495.037 375.966 494.778 375.966C494.261 375.966 493.764 375.807 493.764 374.812V370.358H495.395V369.364ZM497.16 377H498.333V372.168C498.333 371.134 499.148 370.378 500.262 370.378C500.575 370.378 500.898 370.438 500.978 370.457V369.264C500.844 369.254 500.536 369.244 500.362 369.244C499.447 369.244 498.651 369.761 498.373 370.517H498.293V369.364H497.16V377ZM504.616 377.179C505.948 377.179 506.644 376.463 506.883 375.966H506.943V377H508.116V371.969C508.116 369.543 506.267 369.264 505.292 369.264C504.139 369.264 502.826 369.662 502.23 371.054L503.343 371.452C503.602 370.895 504.213 370.298 505.332 370.298C506.411 370.298 506.943 370.87 506.943 371.849V371.889C506.943 372.456 506.366 372.406 504.974 372.585C503.557 372.769 502.011 373.082 502.011 374.832C502.011 376.324 503.164 377.179 504.616 377.179ZM504.795 376.125C503.86 376.125 503.184 375.707 503.184 374.892C503.184 373.997 503.999 373.719 504.914 373.599C505.411 373.54 506.744 373.401 506.943 373.162V374.236C506.943 375.19 506.187 376.125 504.795 376.125ZM511.431 372.406C511.431 371.074 512.256 370.318 513.38 370.318C514.468 370.318 515.13 371.029 515.13 372.227V377H516.303V372.148C516.303 370.199 515.264 369.264 513.718 369.264C512.564 369.264 511.848 369.781 511.49 370.557H511.391V369.364H510.257V377H511.431V372.406ZM523.856 371.074C523.488 369.99 522.663 369.264 521.151 369.264C519.541 369.264 518.347 370.179 518.347 371.472C518.347 372.526 518.974 373.232 520.376 373.56L521.649 373.858C522.419 374.037 522.782 374.405 522.782 374.932C522.782 375.588 522.086 376.125 520.992 376.125C520.033 376.125 519.431 375.712 519.222 374.892L518.109 375.17C518.382 376.468 519.451 377.159 521.012 377.159C522.787 377.159 523.995 376.19 523.995 374.872C523.995 373.808 523.329 373.137 521.967 372.804L520.833 372.526C519.928 372.302 519.521 371.999 519.521 371.412C519.521 370.756 520.217 370.278 521.151 370.278C522.176 370.278 522.598 370.845 522.802 371.372L523.856 371.074ZM525.761 377H526.935V369.364H525.761V377ZM526.358 368.091C526.815 368.091 527.193 367.733 527.193 367.295C527.193 366.858 526.815 366.5 526.358 366.5C525.901 366.5 525.523 366.858 525.523 367.295C525.523 367.733 525.901 368.091 526.358 368.091ZM532.405 369.364H530.774V367.534H529.601V369.364H528.447V370.358H529.601V375.131C529.601 376.463 530.675 377.099 531.669 377.099C532.106 377.099 532.385 377.02 532.544 376.96L532.305 375.906C532.206 375.926 532.047 375.966 531.788 375.966C531.271 375.966 530.774 375.807 530.774 374.812V370.358H532.405V369.364ZM540.991 377.139C541.925 377.139 542.969 376.811 543.631 376.135L544.351 377H545.763L544.356 375.285C544.739 374.793 545.167 373.967 545.167 372.545H544.033C544.033 373.241 543.874 373.858 543.611 374.37L541.398 371.67L542.144 371.114C542.979 370.497 543.496 369.821 543.496 368.847C543.496 367.713 542.562 366.719 541.03 366.719C539.539 366.719 538.564 367.653 538.564 369.026C538.564 369.93 539.057 370.626 539.758 371.472C538.569 372.297 537.749 373.062 537.749 374.295C537.749 375.946 538.982 377.139 540.991 377.139ZM542.93 375.285C542.368 375.812 541.657 376.105 540.951 376.105C539.738 376.105 538.942 375.25 538.942 374.295C538.942 374.017 539.201 373.301 540.116 372.625L540.493 372.347L542.93 375.285ZM540.677 370.795C540.18 370.189 539.758 369.612 539.758 369.045C539.758 368.409 540.295 367.733 541.07 367.733C541.806 367.733 542.303 368.33 542.303 368.847C542.303 369.543 541.925 369.92 541.349 370.298L540.677 370.795ZM556.409 371.074C556.041 369.99 555.216 369.264 553.704 369.264C552.093 369.264 550.9 370.179 550.9 371.472C550.9 372.526 551.527 373.232 552.929 373.56L554.201 373.858C554.972 374.037 555.335 374.405 555.335 374.932C555.335 375.588 554.639 376.125 553.545 376.125C552.586 376.125 551.984 375.712 551.775 374.892L550.662 375.17C550.935 376.468 552.004 377.159 553.565 377.159C555.34 377.159 556.548 376.19 556.548 374.872C556.548 373.808 555.882 373.137 554.52 372.804L553.386 372.526C552.481 372.302 552.074 371.999 552.074 371.412C552.074 370.756 552.77 370.278 553.704 370.278C554.728 370.278 555.151 370.845 555.355 371.372L556.409 371.074ZM561.635 369.364H560.004V367.534H558.831V369.364H557.678V370.358H558.831V375.131C558.831 376.463 559.905 377.099 560.899 377.099C561.337 377.099 561.615 377.02 561.774 376.96L561.536 375.906C561.436 375.926 561.277 375.966 561.019 375.966C560.502 375.966 560.004 375.807 560.004 374.812V370.358H561.635V369.364ZM566.42 377.159C568.488 377.159 569.881 375.588 569.881 373.222C569.881 370.835 568.488 369.264 566.42 369.264C564.352 369.264 562.96 370.835 562.96 373.222C562.96 375.588 564.352 377.159 566.42 377.159ZM566.42 376.105C564.849 376.105 564.133 374.753 564.133 373.222C564.133 371.69 564.849 370.318 566.42 370.318C567.991 370.318 568.707 371.69 568.707 373.222C568.707 374.753 567.991 376.105 566.42 376.105ZM571.672 377H572.845V372.168C572.845 371.134 573.66 370.378 574.774 370.378C575.087 370.378 575.41 370.438 575.49 370.457V369.264C575.355 369.254 575.047 369.244 574.873 369.244C573.958 369.244 573.163 369.761 572.885 370.517H572.805V369.364H571.672V377ZM579.128 377.179C580.46 377.179 581.156 376.463 581.395 375.966H581.454V377H582.628V371.969C582.628 369.543 580.778 369.264 579.804 369.264C578.65 369.264 577.338 369.662 576.741 371.054L577.855 371.452C578.113 370.895 578.725 370.298 579.844 370.298C580.922 370.298 581.454 370.87 581.454 371.849V371.889C581.454 372.456 580.878 372.406 579.486 372.585C578.069 372.769 576.523 373.082 576.523 374.832C576.523 376.324 577.676 377.179 579.128 377.179ZM579.307 376.125C578.372 376.125 577.696 375.707 577.696 374.892C577.696 373.997 578.511 373.719 579.426 373.599C579.923 373.54 581.256 373.401 581.454 373.162V374.236C581.454 375.19 580.699 376.125 579.307 376.125ZM587.852 380.023C589.681 380.023 591.153 379.188 591.153 377.219V369.364H590.019V370.577H589.9C589.641 370.179 589.164 369.264 587.673 369.264C585.744 369.264 584.411 370.795 584.411 373.142C584.411 375.528 585.803 376.881 587.653 376.881C589.144 376.881 589.621 376.006 589.88 375.588H589.979V377.139C589.979 378.412 589.085 378.989 587.852 378.989C586.464 378.989 585.977 378.258 585.664 377.835L584.729 378.491C585.207 379.292 586.146 380.023 587.852 380.023ZM587.812 375.827C586.34 375.827 585.585 374.713 585.585 373.122C585.585 371.571 586.32 370.318 587.812 370.318C589.244 370.318 589.999 371.472 589.999 373.122C589.999 374.812 589.224 375.827 587.812 375.827ZM596.502 377.159C598.053 377.159 599.187 376.384 599.545 375.23L598.411 374.912C598.113 375.707 597.422 376.105 596.502 376.105C595.125 376.105 594.175 375.215 594.121 373.58H599.664V373.082C599.664 370.239 597.974 369.264 596.383 369.264C594.315 369.264 592.942 370.895 592.942 373.241C592.942 375.588 594.295 377.159 596.502 377.159ZM594.121 372.565C594.2 371.377 595.04 370.318 596.383 370.318C597.656 370.318 598.471 371.273 598.471 372.565H594.121Z" fill="#9999AF"/>
<path d="M500.426 277C500.048 274.912 498.378 273.679 496.33 273.679C493.724 273.679 491.835 275.688 491.835 278.909C491.835 282.131 493.724 284.139 496.33 284.139C498.378 284.139 500.048 282.906 500.426 280.818H499.193C498.895 282.23 497.682 282.986 496.33 282.986C494.48 282.986 493.028 281.554 493.028 278.909C493.028 276.264 494.48 274.832 496.33 274.832C497.682 274.832 498.895 275.588 499.193 277H500.426ZM505.362 284.159C507.43 284.159 508.822 282.588 508.822 280.222C508.822 277.835 507.43 276.264 505.362 276.264C503.294 276.264 501.901 277.835 501.901 280.222C501.901 282.588 503.294 284.159 505.362 284.159ZM505.362 283.105C503.791 283.105 503.075 281.753 503.075 280.222C503.075 278.69 503.791 277.318 505.362 277.318C506.933 277.318 507.649 278.69 507.649 280.222C507.649 281.753 506.933 283.105 505.362 283.105ZM510.613 284H511.786V279.227C511.786 278.109 512.602 277.318 513.516 277.318C514.406 277.318 515.028 277.9 515.028 278.77V284H516.221V279.028C516.221 278.044 516.837 277.318 517.911 277.318C518.746 277.318 519.462 277.761 519.462 278.889V284H520.636V278.889C520.636 277.094 519.671 276.264 518.309 276.264C517.215 276.264 516.415 276.766 516.022 277.557H515.942C515.565 276.741 514.898 276.264 513.894 276.264C512.9 276.264 512.164 276.741 511.846 277.557H511.746V276.364H510.613V284ZM522.781 286.864H523.954V282.827H524.054C524.312 283.244 524.809 284.159 526.281 284.159C528.19 284.159 529.522 282.628 529.522 280.202C529.522 277.795 528.19 276.264 526.261 276.264C524.77 276.264 524.312 277.179 524.054 277.577H523.914V276.364H522.781V286.864ZM523.934 280.182C523.934 278.472 524.69 277.318 526.122 277.318C527.613 277.318 528.349 278.571 528.349 280.182C528.349 281.812 527.593 283.105 526.122 283.105C524.71 283.105 523.934 281.912 523.934 280.182ZM532.485 273.818H531.312V284H532.485V273.818ZM534.634 284H535.808V276.364H534.634V284ZM535.231 275.091C535.688 275.091 536.066 274.733 536.066 274.295C536.066 273.858 535.688 273.5 535.231 273.5C534.774 273.5 534.396 273.858 534.396 274.295C534.396 274.733 534.774 275.091 535.231 275.091ZM540.204 284.179C541.536 284.179 542.232 283.463 542.471 282.966H542.531V284H543.704V278.969C543.704 276.543 541.854 276.264 540.88 276.264C539.727 276.264 538.414 276.662 537.817 278.054L538.931 278.452C539.19 277.895 539.801 277.298 540.92 277.298C541.999 277.298 542.531 277.87 542.531 278.849V278.889C542.531 279.456 541.954 279.406 540.562 279.585C539.145 279.769 537.599 280.082 537.599 281.832C537.599 283.324 538.752 284.179 540.204 284.179ZM540.383 283.125C539.448 283.125 538.772 282.707 538.772 281.892C538.772 280.997 539.587 280.719 540.502 280.599C540.999 280.54 542.332 280.401 542.531 280.162V281.236C542.531 282.19 541.775 283.125 540.383 283.125ZM547.019 279.406C547.019 278.074 547.844 277.318 548.968 277.318C550.056 277.318 550.718 278.029 550.718 279.227V284H551.891V279.148C551.891 277.199 550.852 276.264 549.306 276.264C548.152 276.264 547.436 276.781 547.078 277.557H546.979V276.364H545.845V284H547.019V279.406ZM557.356 276.364H555.725V274.534H554.552V276.364H553.398V277.358H554.552V282.131C554.552 283.463 555.626 284.099 556.62 284.099C557.058 284.099 557.336 284.02 557.495 283.96L557.256 282.906C557.157 282.926 556.998 282.966 556.739 282.966C556.222 282.966 555.725 282.807 555.725 281.812V277.358H557.356V276.364ZM565.942 284.159C567.413 284.159 567.911 283.244 568.169 282.827H568.308V284H569.442V273.818H568.268V277.577H568.169C567.911 277.179 567.453 276.264 565.962 276.264C564.033 276.264 562.7 277.795 562.7 280.202C562.7 282.628 564.033 284.159 565.942 284.159ZM566.101 283.105C564.629 283.105 563.874 281.812 563.874 280.182C563.874 278.571 564.609 277.318 566.101 277.318C567.533 277.318 568.288 278.472 568.288 280.182C568.288 281.912 567.513 283.105 566.101 283.105ZM574.001 284.179C575.333 284.179 576.029 283.463 576.268 282.966H576.327V284H577.501V278.969C577.501 276.543 575.651 276.264 574.677 276.264C573.523 276.264 572.211 276.662 571.614 278.054L572.728 278.452C572.987 277.895 573.598 277.298 574.717 277.298C575.795 277.298 576.327 277.87 576.327 278.849V278.889C576.327 279.456 575.751 279.406 574.359 279.585C572.942 279.769 571.396 280.082 571.396 281.832C571.396 283.324 572.549 284.179 574.001 284.179ZM574.18 283.125C573.245 283.125 572.569 282.707 572.569 281.892C572.569 280.997 573.384 280.719 574.299 280.599C574.796 280.54 576.129 280.401 576.327 280.162V281.236C576.327 282.19 575.572 283.125 574.18 283.125ZM582.963 276.364H581.333V274.534H580.159V276.364H579.006V277.358H580.159V282.131C580.159 283.463 581.233 284.099 582.227 284.099C582.665 284.099 582.943 284.02 583.102 283.96L582.864 282.906C582.764 282.926 582.605 282.966 582.347 282.966C581.83 282.966 581.333 282.807 581.333 281.812V277.358H582.963V276.364ZM586.975 284.179C588.308 284.179 589.004 283.463 589.242 282.966H589.302V284H590.475V278.969C590.475 276.543 588.626 276.264 587.651 276.264C586.498 276.264 585.186 276.662 584.589 278.054L585.703 278.452C585.961 277.895 586.573 277.298 587.691 277.298C588.77 277.298 589.302 277.87 589.302 278.849V278.889C589.302 279.456 588.725 279.406 587.333 279.585C585.916 279.769 584.37 280.082 584.37 281.832C584.37 283.324 585.524 284.179 586.975 284.179ZM587.154 283.125C586.22 283.125 585.544 282.707 585.544 281.892C585.544 280.997 586.359 280.719 587.274 280.599C587.771 280.54 589.103 280.401 589.302 280.162V281.236C589.302 282.19 588.546 283.125 587.154 283.125ZM492.074 305H493.247V297.364H492.074V305ZM492.67 296.091C493.128 296.091 493.506 295.733 493.506 295.295C493.506 294.858 493.128 294.5 492.67 294.5C492.213 294.5 491.835 294.858 491.835 295.295C491.835 295.733 492.213 296.091 492.67 296.091ZM496.569 300.406C496.569 299.074 497.395 298.318 498.518 298.318C499.607 298.318 500.268 299.029 500.268 300.227V305H501.442V300.148C501.442 298.199 500.403 297.264 498.856 297.264C497.703 297.264 496.987 297.781 496.629 298.557H496.53V297.364H495.396V305H496.569V300.406ZM506.986 297.364H505.276V296.588C505.276 295.832 505.594 295.435 506.37 295.435C506.708 295.435 506.907 295.514 507.026 295.554L507.364 294.54C507.185 294.46 506.827 294.341 506.25 294.341C505.157 294.341 504.103 294.997 504.103 296.31V297.364H502.87V298.358H504.103V305H505.276V298.358H506.986V297.364ZM508.631 305H509.804V300.168C509.804 299.134 510.619 298.378 511.733 298.378C512.046 298.378 512.369 298.438 512.449 298.457V297.264C512.314 297.254 512.006 297.244 511.832 297.244C510.917 297.244 510.122 297.761 509.844 298.517H509.764V297.364H508.631V305ZM516.087 305.179C517.419 305.179 518.115 304.463 518.354 303.966H518.413V305H519.587V299.969C519.587 297.543 517.737 297.264 516.763 297.264C515.609 297.264 514.297 297.662 513.7 299.054L514.814 299.452C515.072 298.895 515.684 298.298 516.803 298.298C517.881 298.298 518.413 298.87 518.413 299.849V299.889C518.413 300.456 517.837 300.406 516.445 300.585C515.028 300.769 513.482 301.082 513.482 302.832C513.482 304.324 514.635 305.179 516.087 305.179ZM516.266 304.125C515.331 304.125 514.655 303.707 514.655 302.892C514.655 301.997 515.47 301.719 516.385 301.599C516.882 301.54 518.214 301.401 518.413 301.162V302.236C518.413 303.19 517.658 304.125 516.266 304.125ZM527.137 299.074C526.769 297.99 525.944 297.264 524.433 297.264C522.822 297.264 521.629 298.179 521.629 299.472C521.629 300.526 522.255 301.232 523.657 301.56L524.93 301.858C525.7 302.037 526.063 302.405 526.063 302.932C526.063 303.588 525.367 304.125 524.274 304.125C523.314 304.125 522.713 303.712 522.504 302.892L521.39 303.17C521.664 304.468 522.732 305.159 524.294 305.159C526.068 305.159 527.276 304.19 527.276 302.872C527.276 301.808 526.61 301.137 525.248 300.804L524.115 300.526C523.21 300.302 522.802 299.999 522.802 299.412C522.802 298.756 523.498 298.278 524.433 298.278C525.457 298.278 525.879 298.845 526.083 299.372L527.137 299.074ZM532.364 297.364H530.733V295.534H529.56V297.364H528.406V298.358H529.56V303.131C529.56 304.463 530.634 305.099 531.628 305.099C532.065 305.099 532.344 305.02 532.503 304.96L532.264 303.906C532.165 303.926 532.006 303.966 531.747 303.966C531.23 303.966 530.733 303.807 530.733 302.812V298.358H532.364V297.364ZM534.129 305H535.302V300.168C535.302 299.134 536.117 298.378 537.231 298.378C537.544 298.378 537.867 298.438 537.947 298.457V297.264C537.812 297.254 537.504 297.244 537.33 297.244C536.415 297.244 535.62 297.761 535.342 298.517H535.262V297.364H534.129V305ZM544.15 301.878C544.15 303.31 543.056 303.966 542.181 303.966C541.207 303.966 540.511 303.25 540.511 302.136V297.364H539.338V302.216C539.338 304.165 540.372 305.099 541.803 305.099C542.957 305.099 543.713 304.483 544.07 303.707H544.15V305H545.323V297.364H544.15V301.878ZM550.575 305.159C552.265 305.159 553.379 304.125 553.577 302.773H552.404C552.185 303.608 551.489 304.105 550.575 304.105C549.183 304.105 548.288 302.952 548.288 301.182C548.288 299.452 549.202 298.318 550.575 298.318C551.609 298.318 552.225 298.955 552.404 299.651H553.577C553.379 298.219 552.165 297.264 550.555 297.264C548.487 297.264 547.114 298.895 547.114 301.222C547.114 303.509 548.427 305.159 550.575 305.159ZM558.614 297.364H556.983V295.534H555.81V297.364H554.656V298.358H555.81V303.131C555.81 304.463 556.884 305.099 557.878 305.099C558.315 305.099 558.594 305.02 558.753 304.96L558.514 303.906C558.415 303.926 558.256 303.966 557.997 303.966C557.48 303.966 556.983 303.807 556.983 302.812V298.358H558.614V297.364ZM565.191 301.878C565.191 303.31 564.097 303.966 563.222 303.966C562.248 303.966 561.552 303.25 561.552 302.136V297.364H560.379V302.216C560.379 304.165 561.413 305.099 562.844 305.099C563.998 305.099 564.754 304.483 565.112 303.707H565.191V305H566.364V297.364H565.191V301.878ZM568.513 305H569.687V300.168C569.687 299.134 570.502 298.378 571.616 298.378C571.929 298.378 572.252 298.438 572.331 298.457V297.264C572.197 297.254 571.889 297.244 571.715 297.244C570.8 297.244 570.005 297.761 569.726 298.517H569.647V297.364H568.513V305ZM576.692 305.159C578.243 305.159 579.376 304.384 579.734 303.23L578.601 302.912C578.302 303.707 577.611 304.105 576.692 304.105C575.314 304.105 574.365 303.215 574.31 301.58H579.854V301.082C579.854 298.239 578.163 297.264 576.572 297.264C574.504 297.264 573.132 298.895 573.132 301.241C573.132 303.588 574.484 305.159 576.692 305.159ZM574.31 300.565C574.39 299.377 575.23 298.318 576.572 298.318C577.845 298.318 578.66 299.273 578.66 300.565H574.31Z" fill="#9999AF"/>
<path d="M217.284 363.778L219.626 362.808C217.31 361.887 213.767 362.022 210.906 363.207C208.084 364.376 207.553 365.912 209.935 366.893C211.864 367.692 214.344 367.583 217.126 366.904L219.049 366.434C220.867 365.985 222.277 365.776 223.327 366.205C224.469 366.684 224.147 367.453 222.559 368.111C221.037 368.741 219.174 368.948 217.664 368.404L215.269 369.396C218.038 370.462 221.529 370.26 224.659 368.964C227.881 367.63 228.143 366.189 225.781 365.205C223.445 364.243 220.46 364.599 217.96 365.238L216.385 365.629C215.02 365.977 213.36 366.279 212.251 365.808C211.247 365.387 211.411 364.705 212.933 364.074C214.384 363.474 216.017 363.357 217.284 363.778ZM236.278 364.146C238.627 363.173 239.093 362.029 237.761 361.129L235.294 361.944C235.825 362.431 235.484 362.942 234.461 363.366C232.925 364.002 230.898 364.004 229.152 363.298L236.173 360.39L235.445 360.088C231.908 358.623 228.227 358.859 225.747 359.887C222.86 361.083 223.096 362.741 226.206 364.029C229.369 365.339 233.24 365.404 236.278 364.146ZM227.558 362.632C226.344 362.069 226.213 361.227 227.63 360.64C228.995 360.074 230.911 360.107 232.295 360.67L227.558 362.632ZM247.166 359.636C249.698 358.587 249.81 357.296 247.841 356.339L245.571 357.28C246.45 357.812 246.293 358.394 245.25 358.826C243.767 359.44 241.568 359.324 239.508 358.47C237.474 357.628 237.231 356.717 238.694 356.111C239.836 355.638 241.273 355.652 242.428 355.978L244.698 355.037C242.349 354.2 239.206 354.312 236.746 355.331C233.793 356.554 234.062 358.209 237.139 359.484C240.191 360.748 244.154 360.884 247.166 359.636ZM255.422 352.542C256.957 353.178 256.623 353.947 255.573 354.382C254.431 354.855 252.863 354.836 251.583 354.306L245.533 351.8L243.158 352.784L249.575 355.442C251.997 356.445 254.746 356.442 256.728 355.621C258.237 354.996 258.506 354.227 257.836 353.569L257.941 353.526L259.733 354.268L262.036 353.314L251.957 349.139L249.582 350.123L255.422 352.542ZM264.478 352.302L266.854 351.318L260.929 348.864C259.649 348.334 259.708 347.559 261.014 347.018C261.414 346.852 261.985 346.676 262.254 346.619L260.069 345.714C259.813 345.787 259.413 345.931 259.15 346.04C257.996 346.518 257.687 347.189 258.488 347.825L258.383 347.869L256.703 347.173L254.4 348.127L264.478 352.302ZM271.805 349.267L274.18 348.283L264.101 344.109L261.726 345.092L271.805 349.267ZM261.49 344.005C262.244 343.693 262.284 343.198 261.575 342.905C260.86 342.608 259.666 342.625 258.911 342.937C258.15 343.252 258.11 343.747 258.826 344.043C259.534 344.337 260.728 344.321 261.49 344.005ZM271.577 341.012L269.588 341.836L267.174 340.836L264.798 341.819L267.213 342.82L265.783 343.412L267.62 344.173L269.05 343.581L274.654 345.902C276.537 346.693 278.847 346.508 280.579 345.747C281.235 345.459 281.57 345.211 281.741 345.07L279.483 344.467C279.385 344.535 279.175 344.671 278.88 344.793C278.283 345.04 277.594 345.152 276.636 344.755L271.426 342.597L273.414 341.773L271.577 341.012ZM288.878 345.31C290.728 344.543 290.84 343.704 289.829 342.812L282.592 336.46L280.039 337.507L285.322 341.624L285.217 341.668L275.282 339.477L272.763 340.521L286.706 343.269L287.047 343.579C287.71 344.228 287.113 344.546 285.781 344.853L287.073 345.845C287.533 345.769 288.228 345.579 288.878 345.31Z" fill="white"/>
<path d="M491.676 202.912H494.878V212H496.111V202.912H499.312V201.818H491.676V202.912ZM502.264 212.179C503.597 212.179 504.293 211.463 504.531 210.966H504.591V212H505.764V206.969C505.764 204.543 503.915 204.264 502.941 204.264C501.787 204.264 500.475 204.662 499.878 206.054L500.992 206.452C501.25 205.895 501.862 205.298 502.98 205.298C504.059 205.298 504.591 205.87 504.591 206.849V206.889C504.591 207.456 504.014 207.406 502.622 207.585C501.205 207.769 499.659 208.082 499.659 209.832C499.659 211.324 500.813 212.179 502.264 212.179ZM502.443 211.125C501.509 211.125 500.833 210.707 500.833 209.892C500.833 208.997 501.648 208.719 502.563 208.599C503.06 208.54 504.392 208.401 504.591 208.162V209.236C504.591 210.19 503.835 211.125 502.443 211.125ZM507.906 212H509.079V207.227C509.079 206.109 509.895 205.318 510.809 205.318C511.699 205.318 512.321 205.9 512.321 206.77V212H513.514V207.028C513.514 206.044 514.13 205.318 515.204 205.318C516.039 205.318 516.755 205.761 516.755 206.889V212H517.929V206.889C517.929 205.094 516.964 204.264 515.602 204.264C514.508 204.264 513.708 204.766 513.315 205.557H513.235C512.858 204.741 512.191 204.264 511.187 204.264C510.193 204.264 509.457 204.741 509.139 205.557H509.039V204.364H507.906V212ZM520.074 214.864H521.247V210.827H521.347C521.605 211.244 522.102 212.159 523.574 212.159C525.483 212.159 526.815 210.628 526.815 208.202C526.815 205.795 525.483 204.264 523.554 204.264C522.062 204.264 521.605 205.179 521.347 205.577H521.207V204.364H520.074V214.864ZM521.227 208.182C521.227 206.472 521.983 205.318 523.415 205.318C524.906 205.318 525.642 206.571 525.642 208.182C525.642 209.812 524.886 211.105 523.415 211.105C522.003 211.105 521.227 209.912 521.227 208.182ZM531.807 212.159C533.358 212.159 534.491 211.384 534.849 210.23L533.716 209.912C533.418 210.707 532.727 211.105 531.807 211.105C530.43 211.105 529.48 210.215 529.425 208.58H534.969V208.082C534.969 205.239 533.278 204.264 531.688 204.264C529.619 204.264 528.247 205.895 528.247 208.241C528.247 210.588 529.599 212.159 531.807 212.159ZM529.425 207.565C529.505 206.377 530.345 205.318 531.688 205.318C532.96 205.318 533.776 206.273 533.776 207.565H529.425ZM536.754 212H537.927V207.168C537.927 206.134 538.742 205.378 539.856 205.378C540.169 205.378 540.492 205.438 540.572 205.457V204.264C540.438 204.254 540.129 204.244 539.955 204.244C539.04 204.244 538.245 204.761 537.967 205.517H537.887V204.364H536.754V212ZM545.777 207.088H541.322V208.182H545.777V207.088ZM547.841 212H549.015V207.168C549.015 206.134 549.83 205.378 550.944 205.378C551.257 205.378 551.58 205.438 551.66 205.457V204.264C551.525 204.254 551.217 204.244 551.043 204.244C550.128 204.244 549.333 204.761 549.055 205.517H548.975V204.364H547.841V212ZM556.02 212.159C557.571 212.159 558.704 211.384 559.062 210.23L557.929 209.912C557.631 210.707 556.939 211.105 556.02 211.105C554.643 211.105 553.693 210.215 553.638 208.58H559.182V208.082C559.182 205.239 557.491 204.264 555.9 204.264C553.832 204.264 552.46 205.895 552.46 208.241C552.46 210.588 553.812 212.159 556.02 212.159ZM553.638 207.565C553.718 206.377 554.558 205.318 555.9 205.318C557.173 205.318 557.988 206.273 557.988 207.565H553.638ZM566.376 206.074C566.008 204.99 565.182 204.264 563.671 204.264C562.06 204.264 560.867 205.179 560.867 206.472C560.867 207.526 561.493 208.232 562.895 208.56L564.168 208.858C564.939 209.037 565.302 209.405 565.302 209.932C565.302 210.588 564.606 211.125 563.512 211.125C562.552 211.125 561.951 210.712 561.742 209.892L560.628 210.17C560.902 211.468 561.971 212.159 563.532 212.159C565.307 212.159 566.515 211.19 566.515 209.872C566.515 208.808 565.849 208.137 564.486 207.804L563.353 207.526C562.448 207.302 562.04 206.999 562.04 206.412C562.04 205.756 562.736 205.278 563.671 205.278C564.695 205.278 565.118 205.845 565.322 206.372L566.376 206.074ZM568.281 212H569.454V204.364H568.281V212ZM568.877 203.091C569.335 203.091 569.713 202.733 569.713 202.295C569.713 201.858 569.335 201.5 568.877 201.5C568.42 201.5 568.042 201.858 568.042 202.295C568.042 202.733 568.42 203.091 568.877 203.091ZM577.012 206.074C576.644 204.99 575.819 204.264 574.308 204.264C572.697 204.264 571.504 205.179 571.504 206.472C571.504 207.526 572.13 208.232 573.532 208.56L574.805 208.858C575.575 209.037 575.938 209.405 575.938 209.932C575.938 210.588 575.242 211.125 574.149 211.125C573.189 211.125 572.588 210.712 572.379 209.892L571.265 210.17C571.539 211.468 572.607 212.159 574.169 212.159C575.943 212.159 577.151 211.19 577.151 209.872C577.151 208.808 576.485 208.137 575.123 207.804L573.99 207.526C573.085 207.302 572.677 206.999 572.677 206.412C572.677 205.756 573.373 205.278 574.308 205.278C575.332 205.278 575.754 205.845 575.958 206.372L577.012 206.074ZM582.239 204.364H580.608V202.534H579.435V204.364H578.281V205.358H579.435V210.131C579.435 211.463 580.509 212.099 581.503 212.099C581.94 212.099 582.219 212.02 582.378 211.96L582.139 210.906C582.04 210.926 581.881 210.966 581.622 210.966C581.105 210.966 580.608 210.807 580.608 209.812V205.358H582.239V204.364ZM586.251 212.179C587.583 212.179 588.279 211.463 588.518 210.966H588.577V212H589.751V206.969C589.751 204.543 587.901 204.264 586.927 204.264C585.773 204.264 584.461 204.662 583.864 206.054L584.978 206.452C585.237 205.895 585.848 205.298 586.967 205.298C588.045 205.298 588.577 205.87 588.577 206.849V206.889C588.577 207.456 588.001 207.406 586.609 207.585C585.192 207.769 583.646 208.082 583.646 209.832C583.646 211.324 584.799 212.179 586.251 212.179ZM586.43 211.125C585.495 211.125 584.819 210.707 584.819 209.892C584.819 208.997 585.634 208.719 586.549 208.599C587.046 208.54 588.379 208.401 588.577 208.162V209.236C588.577 210.19 587.822 211.125 586.43 211.125ZM593.066 207.406C593.066 206.074 593.891 205.318 595.014 205.318C596.103 205.318 596.764 206.029 596.764 207.227V212H597.938V207.148C597.938 205.199 596.899 204.264 595.352 204.264C594.199 204.264 593.483 204.781 593.125 205.557H593.026V204.364H591.892V212H593.066V207.406ZM603.403 204.364H601.772V202.534H600.599V204.364H599.445V205.358H600.599V210.131C600.599 211.463 601.673 212.099 602.667 212.099C603.104 212.099 603.383 212.02 603.542 211.96L603.303 210.906C603.204 210.926 603.045 210.966 602.786 210.966C602.269 210.966 601.772 210.807 601.772 209.812V205.358H603.403V204.364ZM494.321 233.179C495.653 233.179 496.349 232.463 496.588 231.966H496.648V233H497.821V227.969C497.821 225.543 495.972 225.264 494.997 225.264C493.844 225.264 492.531 225.662 491.935 227.054L493.048 227.452C493.307 226.895 493.918 226.298 495.037 226.298C496.116 226.298 496.648 226.87 496.648 227.849V227.889C496.648 228.456 496.071 228.406 494.679 228.585C493.262 228.769 491.716 229.082 491.716 230.832C491.716 232.324 492.869 233.179 494.321 233.179ZM494.5 232.125C493.565 232.125 492.889 231.707 492.889 230.892C492.889 229.997 493.705 229.719 494.619 229.599C495.116 229.54 496.449 229.401 496.648 229.162V230.236C496.648 231.19 495.892 232.125 494.5 232.125ZM504.775 229.878C504.775 231.31 503.681 231.966 502.806 231.966C501.832 231.966 501.136 231.25 501.136 230.136V225.364H499.963V230.216C499.963 232.165 500.997 233.099 502.428 233.099C503.582 233.099 504.338 232.483 504.695 231.707H504.775V233H505.948V225.364H504.775V229.878ZM510.981 233.159C512.452 233.159 512.95 232.244 513.208 231.827H513.347V233H514.481V222.818H513.308V226.577H513.208C512.95 226.179 512.492 225.264 511.001 225.264C509.072 225.264 507.739 226.795 507.739 229.202C507.739 231.628 509.072 233.159 510.981 233.159ZM511.14 232.105C509.668 232.105 508.913 230.812 508.913 229.182C508.913 227.571 509.648 226.318 511.14 226.318C512.572 226.318 513.327 227.472 513.327 229.182C513.327 230.912 512.552 232.105 511.14 232.105ZM516.793 233H517.966V225.364H516.793V233ZM517.389 224.091C517.847 224.091 518.224 223.733 518.224 223.295C518.224 222.858 517.847 222.5 517.389 222.5C516.932 222.5 516.554 222.858 516.554 223.295C516.554 223.733 516.932 224.091 517.389 224.091ZM523.436 225.364H521.805V223.534H520.632V225.364H519.479V226.358H520.632V231.131C520.632 232.463 521.706 233.099 522.7 233.099C523.138 233.099 523.416 233.02 523.575 232.96L523.336 231.906C523.237 231.926 523.078 231.966 522.819 231.966C522.302 231.966 521.805 231.807 521.805 230.812V226.358H523.436V225.364ZM530.312 222.818H529.138V233H530.312V222.818ZM535.563 233.159C537.631 233.159 539.023 231.588 539.023 229.222C539.023 226.835 537.631 225.264 535.563 225.264C533.495 225.264 532.103 226.835 532.103 229.222C532.103 231.588 533.495 233.159 535.563 233.159ZM535.563 232.105C533.992 232.105 533.276 230.753 533.276 229.222C533.276 227.69 533.992 226.318 535.563 226.318C537.134 226.318 537.85 227.69 537.85 229.222C537.85 230.753 537.134 232.105 535.563 232.105ZM543.896 236.023C545.726 236.023 547.198 235.188 547.198 233.219V225.364H546.064V226.577H545.945C545.686 226.179 545.209 225.264 543.718 225.264C541.789 225.264 540.456 226.795 540.456 229.142C540.456 231.528 541.848 232.881 543.698 232.881C545.189 232.881 545.666 232.006 545.925 231.588H546.024V233.139C546.024 234.412 545.129 234.989 543.896 234.989C542.509 234.989 542.022 234.258 541.709 233.835L540.774 234.491C541.252 235.292 542.191 236.023 543.896 236.023ZM543.857 231.827C542.385 231.827 541.629 230.713 541.629 229.122C541.629 227.571 542.365 226.318 543.857 226.318C545.289 226.318 546.044 227.472 546.044 229.122C546.044 230.812 545.269 231.827 543.857 231.827Z" fill="#9999AF"/>
<path d="M492.233 140H493.466V136.023H495.693C495.783 136.023 495.867 136.023 495.952 136.018L498.099 140H499.531L497.229 135.794C498.527 135.352 499.134 134.293 499.134 132.94C499.134 131.141 498.06 129.818 495.673 129.818H492.233V140ZM493.466 134.909V130.912H495.634C497.284 130.912 497.92 131.717 497.92 132.94C497.92 134.163 497.284 134.909 495.653 134.909H493.466ZM504.049 140.159C506.117 140.159 507.509 138.588 507.509 136.222C507.509 133.835 506.117 132.264 504.049 132.264C501.981 132.264 500.589 133.835 500.589 136.222C500.589 138.588 501.981 140.159 504.049 140.159ZM504.049 139.105C502.478 139.105 501.762 137.753 501.762 136.222C501.762 134.69 502.478 133.318 504.049 133.318C505.62 133.318 506.336 134.69 506.336 136.222C506.336 137.753 505.62 139.105 504.049 139.105ZM510.474 129.818H509.3V140H510.474V129.818ZM515.824 140.159C517.376 140.159 518.509 139.384 518.867 138.23L517.733 137.912C517.435 138.707 516.744 139.105 515.824 139.105C514.447 139.105 513.498 138.215 513.443 136.58H518.986V136.082C518.986 133.239 517.296 132.264 515.705 132.264C513.637 132.264 512.265 133.895 512.265 136.241C512.265 138.588 513.617 140.159 515.824 140.159ZM513.443 135.565C513.523 134.377 514.363 133.318 515.705 133.318C516.978 133.318 517.793 134.273 517.793 135.565H513.443ZM525.146 135.088H520.692V136.182H525.146V135.088ZM527.37 140H528.503V138.827H528.642C528.901 139.244 529.398 140.159 530.87 140.159C532.779 140.159 534.111 138.628 534.111 136.202C534.111 133.795 532.779 132.264 530.85 132.264C529.358 132.264 528.901 133.179 528.642 133.577H528.543V129.818H527.37V140ZM528.523 136.182C528.523 134.472 529.279 133.318 530.711 133.318C532.202 133.318 532.938 134.571 532.938 136.182C532.938 137.812 532.182 139.105 530.711 139.105C529.299 139.105 528.523 137.912 528.523 136.182ZM538.153 140.179C539.485 140.179 540.181 139.463 540.42 138.966H540.48V140H541.653V134.969C541.653 132.543 539.804 132.264 538.829 132.264C537.676 132.264 536.363 132.662 535.767 134.054L536.88 134.452C537.139 133.895 537.75 133.298 538.869 133.298C539.948 133.298 540.48 133.87 540.48 134.849V134.889C540.48 135.456 539.903 135.406 538.511 135.585C537.094 135.769 535.548 136.082 535.548 137.832C535.548 139.324 536.701 140.179 538.153 140.179ZM538.332 139.125C537.397 139.125 536.721 138.707 536.721 137.892C536.721 136.997 537.537 136.719 538.451 136.599C538.949 136.54 540.281 136.401 540.48 136.162V137.236C540.48 138.19 539.724 139.125 538.332 139.125ZM549.204 134.074C548.836 132.99 548.01 132.264 546.499 132.264C544.888 132.264 543.695 133.179 543.695 134.472C543.695 135.526 544.322 136.232 545.724 136.56L546.996 136.858C547.767 137.037 548.13 137.405 548.13 137.932C548.13 138.588 547.434 139.125 546.34 139.125C545.381 139.125 544.779 138.712 544.57 137.892L543.456 138.17C543.73 139.468 544.799 140.159 546.36 140.159C548.135 140.159 549.343 139.19 549.343 137.872C549.343 136.808 548.677 136.137 547.314 135.804L546.181 135.526C545.276 135.302 544.868 134.999 544.868 134.412C544.868 133.756 545.564 133.278 546.499 133.278C547.523 133.278 547.946 133.845 548.15 134.372L549.204 134.074ZM554.311 140.159C555.862 140.159 556.995 139.384 557.353 138.23L556.22 137.912C555.922 138.707 555.23 139.105 554.311 139.105C552.934 139.105 551.984 138.215 551.929 136.58H557.473V136.082C557.473 133.239 555.782 132.264 554.191 132.264C552.123 132.264 550.751 133.895 550.751 136.241C550.751 138.588 552.103 140.159 554.311 140.159ZM551.929 135.565C552.009 134.377 552.849 133.318 554.191 133.318C555.464 133.318 556.279 134.273 556.279 135.565H551.929ZM562.141 140.159C563.613 140.159 564.11 139.244 564.368 138.827H564.507V140H565.641V129.818H564.468V133.577H564.368C564.11 133.179 563.652 132.264 562.161 132.264C560.232 132.264 558.9 133.795 558.9 136.202C558.9 138.628 560.232 140.159 562.141 140.159ZM562.3 139.105C560.828 139.105 560.073 137.812 560.073 136.182C560.073 134.571 560.809 133.318 562.3 133.318C563.732 133.318 564.488 134.472 564.488 136.182C564.488 137.912 563.712 139.105 562.3 139.105ZM494.321 161.179C495.653 161.179 496.349 160.463 496.588 159.966H496.648V161H497.821V155.969C497.821 153.543 495.972 153.264 494.997 153.264C493.844 153.264 492.531 153.662 491.935 155.054L493.048 155.452C493.307 154.895 493.918 154.298 495.037 154.298C496.116 154.298 496.648 154.87 496.648 155.849V155.889C496.648 156.456 496.071 156.406 494.679 156.585C493.262 156.769 491.716 157.082 491.716 158.832C491.716 160.324 492.869 161.179 494.321 161.179ZM494.5 160.125C493.565 160.125 492.889 159.707 492.889 158.892C492.889 157.997 493.705 157.719 494.619 157.599C495.116 157.54 496.449 157.401 496.648 157.162V158.236C496.648 159.19 495.892 160.125 494.5 160.125ZM503.065 161.159C504.755 161.159 505.869 160.125 506.068 158.773H504.894C504.676 159.608 503.98 160.105 503.065 160.105C501.673 160.105 500.778 158.952 500.778 157.182C500.778 155.452 501.693 154.318 503.065 154.318C504.099 154.318 504.715 154.955 504.894 155.651H506.068C505.869 154.219 504.656 153.264 503.045 153.264C500.977 153.264 499.605 154.895 499.605 157.222C499.605 159.509 500.917 161.159 503.065 161.159ZM510.885 161.159C512.575 161.159 513.689 160.125 513.888 158.773H512.715C512.496 159.608 511.8 160.105 510.885 160.105C509.493 160.105 508.598 158.952 508.598 157.182C508.598 155.452 509.513 154.318 510.885 154.318C511.919 154.318 512.536 154.955 512.715 155.651H513.888C513.689 154.219 512.476 153.264 510.865 153.264C508.797 153.264 507.425 154.895 507.425 157.222C507.425 159.509 508.737 161.159 510.885 161.159ZM518.805 161.159C520.356 161.159 521.49 160.384 521.847 159.23L520.714 158.912C520.416 159.707 519.725 160.105 518.805 160.105C517.428 160.105 516.478 159.215 516.423 157.58H521.967V157.082C521.967 154.239 520.276 153.264 518.686 153.264C516.617 153.264 515.245 154.895 515.245 157.241C515.245 159.588 516.597 161.159 518.805 161.159ZM516.423 156.565C516.503 155.377 517.343 154.318 518.686 154.318C519.958 154.318 520.774 155.273 520.774 156.565H516.423ZM529.161 155.074C528.793 153.99 527.968 153.264 526.456 153.264C524.845 153.264 523.652 154.179 523.652 155.472C523.652 156.526 524.279 157.232 525.681 157.56L526.953 157.858C527.724 158.037 528.087 158.405 528.087 158.932C528.087 159.588 527.391 160.125 526.297 160.125C525.338 160.125 524.736 159.712 524.527 158.892L523.414 159.17C523.687 160.468 524.756 161.159 526.317 161.159C528.092 161.159 529.3 160.19 529.3 158.872C529.3 157.808 528.634 157.137 527.271 156.804L526.138 156.526C525.233 156.302 524.825 155.999 524.825 155.412C524.825 154.756 525.521 154.278 526.456 154.278C527.48 154.278 527.903 154.845 528.107 155.372L529.161 155.074ZM536.475 155.074C536.107 153.99 535.282 153.264 533.771 153.264C532.16 153.264 530.967 154.179 530.967 155.472C530.967 156.526 531.593 157.232 532.995 157.56L534.268 157.858C535.038 158.037 535.401 158.405 535.401 158.932C535.401 159.588 534.705 160.125 533.612 160.125C532.652 160.125 532.05 159.712 531.842 158.892L530.728 159.17C531.001 160.468 532.07 161.159 533.631 161.159C535.406 161.159 536.614 160.19 536.614 158.872C536.614 157.808 535.948 157.137 534.586 156.804L533.452 156.526C532.548 156.302 532.14 155.999 532.14 155.412C532.14 154.756 532.836 154.278 533.771 154.278C534.795 154.278 535.217 154.845 535.421 155.372L536.475 155.074ZM545.42 161.159C547.111 161.159 548.224 160.125 548.423 158.773H547.25C547.031 159.608 546.335 160.105 545.42 160.105C544.028 160.105 543.133 158.952 543.133 157.182C543.133 155.452 544.048 154.318 545.42 154.318C546.454 154.318 547.071 154.955 547.25 155.651H548.423C548.224 154.219 547.011 153.264 545.4 153.264C543.332 153.264 541.96 154.895 541.96 157.222C541.96 159.509 543.273 161.159 545.42 161.159ZM553.241 161.159C555.309 161.159 556.701 159.588 556.701 157.222C556.701 154.835 555.309 153.264 553.241 153.264C551.172 153.264 549.78 154.835 549.78 157.222C549.78 159.588 551.172 161.159 553.241 161.159ZM553.241 160.105C551.67 160.105 550.954 158.753 550.954 157.222C550.954 155.69 551.67 154.318 553.241 154.318C554.812 154.318 555.528 155.69 555.528 157.222C555.528 158.753 554.812 160.105 553.241 160.105ZM559.665 156.406C559.665 155.074 560.49 154.318 561.614 154.318C562.703 154.318 563.364 155.029 563.364 156.227V161H564.537V156.148C564.537 154.199 563.498 153.264 561.952 153.264C560.799 153.264 560.083 153.781 559.725 154.557H559.625V153.364H558.492V161H559.665V156.406ZM570.002 153.364H568.372V151.534H567.198V153.364H566.045V154.358H567.198V159.131C567.198 160.463 568.272 161.099 569.267 161.099C569.704 161.099 569.982 161.02 570.142 160.96L569.903 159.906C569.803 159.926 569.644 159.966 569.386 159.966C568.869 159.966 568.372 159.807 568.372 158.812V154.358H570.002V153.364ZM571.767 161H572.941V156.168C572.941 155.134 573.756 154.378 574.869 154.378C575.183 154.378 575.506 154.438 575.585 154.457V153.264C575.451 153.254 575.143 153.244 574.969 153.244C574.054 153.244 573.259 153.761 572.98 154.517H572.901V153.364H571.767V161ZM579.846 161.159C581.914 161.159 583.306 159.588 583.306 157.222C583.306 154.835 581.914 153.264 579.846 153.264C577.778 153.264 576.386 154.835 576.386 157.222C576.386 159.588 577.778 161.159 579.846 161.159ZM579.846 160.105C578.275 160.105 577.559 158.753 577.559 157.222C577.559 155.69 578.275 154.318 579.846 154.318C581.417 154.318 582.133 155.69 582.133 157.222C582.133 158.753 581.417 160.105 579.846 160.105ZM586.271 150.818H585.097V161H586.271V150.818Z" fill="#9999AF"/>
<rect x="393" y="135" width="82" height="1" fill="#DFDFE9"/>
<rect x="393" y="207" width="82" height="1" fill="#DFDFE9"/>
<rect x="393" y="279" width="82" height="1" fill="#DFDFE9"/>
<rect x="393" y="351" width="82" height="1" fill="#DFDFE9"/>
<g opacity="0.9" filter="url(#filter1_d)">
<path d="M34.2388 246.19C29.1363 244.077 29.1363 240.65 34.2388 238.536L209.776 165.827C214.878 163.713 223.151 163.713 228.254 165.827L403.791 238.536C408.893 240.65 408.893 244.077 403.791 246.19L228.253 318.9C223.151 321.013 214.878 321.013 209.776 318.9L34.2388 246.19Z" fill="#75AEF9"/>
</g>
<path d="M222.258 291.414C218.859 290.348 214.83 290.582 211.851 291.816C208.341 293.27 208.256 295.425 212.599 297.224C216.937 299.021 222.114 299.002 225.657 297.534C228.853 296.211 228.905 294.477 226.714 293.259L224.246 294.27C225.513 295.05 225.113 295.95 223.505 296.616C221.326 297.518 218.131 297.488 215.047 296.211C212.016 294.955 211.878 293.615 214.076 292.705C215.71 292.028 217.914 291.881 219.804 292.43L222.258 291.414ZM237.88 292.482C240.833 291.259 240.629 289.62 237.512 288.329C234.389 287.036 230.426 286.949 227.473 288.172C224.52 289.395 224.73 291.036 227.854 292.33C230.97 293.621 234.927 293.705 237.88 292.482ZM235.99 291.689C234.356 292.365 232.099 292.094 230.255 291.33C228.411 290.566 227.736 289.623 229.369 288.946C230.977 288.28 233.254 288.56 235.098 289.324C236.942 290.088 237.598 291.023 235.99 291.689ZM244.528 289.565L246.904 288.581L240.775 286.043C239.535 285.529 239.522 284.839 240.546 284.415C241.549 283.999 242.914 283.994 243.951 284.423L250.447 287.114L252.776 286.149L246.49 283.545C245.355 283.075 245.244 282.469 246.392 281.993C247.35 281.596 248.675 281.515 249.922 282.031L256.32 284.681L258.702 283.695L251.937 280.892C249.686 279.96 247.192 280.004 245.342 280.77C243.879 281.376 243.485 282.137 244.161 282.787L244.056 282.83C242.527 282.518 240.847 282.632 239.489 283.195C238.137 283.754 237.822 284.461 238.551 285.111L238.433 285.16L236.72 284.45L234.45 285.391L244.528 289.565ZM264.891 284.262L267.266 283.278L261.899 281.055L261.997 281.014C263.106 281.164 264.917 281.267 266.649 280.549C269.025 279.565 268.92 278.049 265.6 276.674C262.24 275.282 258.585 275.285 256.256 276.25C254.478 276.986 254.806 277.736 255.173 278.187L255.035 278.245L253.369 277.554L251.033 278.522L264.891 284.262ZM258.401 279.644C256.446 278.834 256.02 277.962 257.548 277.329C259.13 276.674 261.289 276.894 263.165 277.671C265.055 278.454 265.606 279.367 264.038 280.017C262.522 280.644 260.357 280.454 258.401 279.644ZM261.597 271.363L259.222 272.347L272.66 277.913L275.035 276.929L261.597 271.363ZM277.478 275.917L279.853 274.933L269.774 270.759L267.399 271.743L277.478 275.917ZM267.163 270.655C267.917 270.343 267.957 269.848 267.248 269.555C266.533 269.258 265.339 269.275 264.584 269.587C263.823 269.903 263.784 270.397 264.499 270.693C265.207 270.987 266.402 270.971 267.163 270.655ZM285.399 272.805C286.981 272.15 287.184 271.451 286.771 270.921L286.849 270.888L288.234 271.462L290.517 270.516L283.772 267.722C281.108 266.619 278.136 267.187 276.213 267.983C274.094 268.861 273.411 269.926 274.724 270.905L277.256 270.117C276.804 269.733 276.882 269.212 278.044 268.73C279.146 268.274 280.314 268.258 281.305 268.668L281.344 268.684C282.027 268.967 281.344 269.277 279.756 270.092C278.011 270.989 276.725 272.006 278.995 272.946C280.977 273.767 283.477 273.601 285.399 272.805ZM284.271 271.826C283.28 272.237 282.118 272.343 281.246 271.981C280.334 271.603 280.747 271.117 281.659 270.614C282.197 270.32 283.286 269.739 283.346 269.508L284.533 270C285.655 270.464 285.701 271.234 284.271 271.826ZM289.376 266.097C287.919 265.493 287.958 264.781 289.212 264.262C290.439 263.754 291.981 263.784 293.326 264.341L299.376 266.847L301.751 265.863L295.334 263.205C292.926 262.202 290.17 262.202 288.09 263.064C286.58 263.689 286.265 264.417 286.928 265.072L286.81 265.121L285.097 264.412L282.827 265.352L292.906 269.527L295.281 268.543L289.376 266.097ZM308.759 263.123C311.292 262.074 311.403 260.783 309.435 259.827L307.164 260.767C308.044 261.3 307.886 261.881 306.843 262.313C305.36 262.928 303.162 262.811 301.101 261.957C299.067 261.115 298.824 260.204 300.288 259.598C301.429 259.125 302.866 259.139 304.021 259.465L306.292 258.525C303.943 257.688 300.799 257.799 298.339 258.818C295.386 260.041 295.655 261.696 298.733 262.971C301.784 264.235 305.747 264.371 308.759 263.123ZM319.489 258.679C321.838 257.706 322.304 256.562 320.972 255.662L318.504 256.477C319.036 256.964 318.695 257.475 317.671 257.899C316.136 258.535 314.108 258.538 312.363 257.831L319.384 254.923L318.655 254.621C315.119 253.156 311.438 253.393 308.957 254.42C306.07 255.616 306.306 257.274 309.417 258.562C312.579 259.872 316.451 259.937 319.489 258.679ZM310.768 257.165C309.554 256.602 309.423 255.76 310.84 255.173C312.205 254.607 314.121 254.64 315.506 255.203L310.768 257.165Z" fill="white"/>
<g opacity="0.9" filter="url(#filter2_d)">
<path d="M34.2388 174.19C29.1363 172.077 29.1363 168.65 34.2388 166.536L209.776 93.8266C214.878 91.7131 223.151 91.7131 228.254 93.8266L403.791 166.536C408.893 168.65 408.893 172.077 403.791 174.19L228.253 246.9C223.151 249.013 214.878 249.013 209.776 246.9L34.2388 174.19Z" fill="#F4899E"/>
</g>
<path d="M221.377 227.155L219.172 225.323L224.224 223.231L228.653 224.141L231.252 223.065L213.076 219.461L210.071 220.706L218.778 228.231L221.377 227.155ZM217.873 224.242L214.277 221.246L214.382 221.203L221.613 222.692L217.873 224.242ZM235.102 217.958C236.637 218.594 236.303 219.364 235.253 219.798C234.111 220.271 232.543 220.252 231.263 219.722L225.213 217.216L222.838 218.2L229.255 220.858C231.677 221.861 234.426 221.859 236.408 221.038C237.917 220.413 238.186 219.644 237.517 218.986L237.622 218.942L239.413 219.684L241.716 218.73L231.637 214.556L229.262 215.539L235.102 217.958ZM248.076 216.243C249.808 215.525 249.559 214.775 249.198 214.316L249.342 214.256L250.93 214.914L253.266 213.946L239.828 208.38L237.446 209.366L242.472 211.448L242.374 211.489C241.285 211.337 239.474 211.201 237.695 211.938C235.366 212.902 235.359 214.416 238.719 215.808C242.039 217.183 245.701 217.227 248.076 216.243ZM246.79 215.161C245.222 215.811 243.017 215.582 241.127 214.8C239.25 214.022 238.719 213.128 240.3 212.473C241.829 211.84 243.935 212.016 245.891 212.826C247.846 213.636 248.306 214.533 246.79 215.161ZM255.797 212.898L258.173 211.914L248.094 207.739L245.719 208.723L255.797 212.898ZM245.482 207.636C246.237 207.323 246.276 206.829 245.568 206.535C244.852 206.239 243.658 206.255 242.904 206.568C242.142 206.883 242.103 207.378 242.818 207.674C243.527 207.967 244.721 207.951 245.482 207.636ZM255.569 204.643L253.581 205.466L251.166 204.466L248.791 205.45L251.206 206.45L249.775 207.043L251.613 207.804L253.043 207.211L258.647 209.532C260.53 210.323 262.84 210.138 264.572 209.377C265.228 209.089 265.563 208.842 265.733 208.701L263.476 208.097C263.378 208.165 263.168 208.301 262.872 208.423C262.275 208.671 261.586 208.782 260.628 208.385L255.418 206.227L257.407 205.404L255.569 204.643Z" fill="white"/>
<g opacity="0.9" filter="url(#filter3_d)">
<path d="M34.2388 102.19C29.1363 100.077 29.1363 96.6499 34.2388 94.5364L209.776 21.8266C214.878 19.7131 223.151 19.7131 228.254 21.8266L403.791 94.5364C408.893 96.6499 408.893 100.077 403.791 102.19L228.253 174.9C223.151 177.013 214.878 177.013 209.776 174.9L34.2388 102.19Z" fill="#FFD25F"/>
</g>
<path d="M221.822 154.971L219.618 153.139L224.67 151.046L229.099 151.956L231.697 150.88L213.522 147.276L210.517 148.521L219.224 156.047L221.822 154.971ZM218.318 152.057L214.723 149.062L214.828 149.018L222.058 150.508L218.318 152.057ZM237.649 148.578C240.182 147.529 240.293 146.238 238.325 145.281L236.054 146.222C236.934 146.754 236.776 147.336 235.733 147.768C234.25 148.382 232.052 148.265 229.991 147.412C227.957 146.569 227.715 145.659 229.178 145.053C230.32 144.58 231.757 144.594 232.911 144.92L235.182 143.979C232.833 143.142 229.69 143.254 227.229 144.273C224.276 145.496 224.545 147.151 227.623 148.426C230.674 149.69 234.637 149.826 237.649 148.578ZM248.313 144.161C250.846 143.112 250.958 141.821 248.989 140.864L246.719 141.804C247.598 142.337 247.441 142.919 246.397 143.351C244.914 143.965 242.716 143.848 240.656 142.995C238.622 142.152 238.379 141.242 239.842 140.636C240.984 140.163 242.421 140.176 243.576 140.502L245.846 139.562C243.497 138.725 240.354 138.836 237.893 139.856C234.941 141.079 235.21 142.734 238.287 144.009C241.338 145.272 245.301 145.408 248.313 144.161ZM259.043 139.716C261.392 138.743 261.858 137.599 260.526 136.699L258.059 137.515C258.59 138.001 258.249 138.512 257.226 138.936C255.69 139.572 253.663 139.575 251.917 138.868L258.938 135.96L258.21 135.658C254.673 134.193 250.992 134.43 248.512 135.457C245.625 136.653 245.861 138.311 248.971 139.599C252.134 140.909 256.005 140.975 259.043 139.716ZM250.323 138.202C249.109 137.64 248.978 136.797 250.395 136.21C251.76 135.645 253.676 135.677 255.06 136.24L250.323 138.202ZM265.889 130.575C263.854 130.004 261.4 130.119 259.038 131.097C256.61 132.103 256.151 133.282 258.021 134.051C259.484 134.663 261.361 134.69 263.697 134.054L265.777 133.492C266.906 133.193 267.713 133.168 268.284 133.405C268.973 133.69 268.743 134.214 267.614 134.682C266.525 135.133 265.344 135.231 264.235 134.94L262.142 135.992C264.288 136.636 266.938 136.446 269.412 135.421C271.932 134.378 272.404 133.1 270.501 132.307C269.058 131.714 267.253 131.733 264.937 132.35L262.851 132.91C261.597 133.239 260.836 133.261 260.259 133.016C259.57 132.736 259.852 132.228 260.843 131.817C261.938 131.363 263.113 131.372 263.959 131.57L265.889 130.575ZM276.03 126.375C273.995 125.804 271.541 125.918 269.179 126.896C266.751 127.902 266.292 129.082 268.162 129.851C269.625 130.462 271.502 130.49 273.838 129.854L275.918 129.291C277.047 128.992 277.854 128.968 278.425 129.204C279.114 129.489 278.884 130.014 277.755 130.481C276.666 130.933 275.485 131.03 274.376 130.74L272.283 131.791C274.429 132.436 277.079 132.245 279.553 131.221C282.073 130.177 282.545 128.9 280.642 128.106C279.199 127.513 277.394 127.532 275.078 128.149L272.992 128.709C271.738 129.038 270.977 129.06 270.4 128.815C269.711 128.535 269.993 128.027 270.984 127.617C272.079 127.163 273.254 127.171 274.1 127.369L276.03 126.375Z" fill="white"/>
<defs>
<filter id="filter0_d" x="0.411987" y="215.878" width="437.205" height="216.244" filterUnits="userSpaceOnUse" color-interpolation-filters="sRGB">
<feFlood flood-opacity="0" result="BackgroundImageFix"/>
<feColorMatrix in="SourceAlpha" type="matrix" values="0 0 0 0 0 0 0 0 0 0 0 0 0 0 0 0 0 0 127 0"/>
<feOffset dy="10"/>
<feGaussianBlur stdDeviation="15"/>
<feColorMatrix type="matrix" values="0 0 0 0 0.188235 0 0 0 0 0.184314 0 0 0 0 0.223529 0 0 0 0.05 0"/>
<feBlend mode="normal" in2="BackgroundImageFix" result="effect1_dropShadow"/>
<feBlend mode="normal" in="SourceGraphic" in2="effect1_dropShadow" result="shape"/>
</filter>
<filter id="filter1_d" x="0.411987" y="144.242" width="437.205" height="216.244" filterUnits="userSpaceOnUse" color-interpolation-filters="sRGB">
<feFlood flood-opacity="0" result="BackgroundImageFix"/>
<feColorMatrix in="SourceAlpha" type="matrix" values="0 0 0 0 0 0 0 0 0 0 0 0 0 0 0 0 0 0 127 0"/>
<feOffset dy="10"/>
<feGaussianBlur stdDeviation="15"/>
<feColorMatrix type="matrix" values="0 0 0 0 0.188235 0 0 0 0 0.184314 0 0 0 0 0.223529 0 0 0 0.05 0"/>
<feBlend mode="normal" in2="BackgroundImageFix" result="effect1_dropShadow"/>
<feBlend mode="normal" in="SourceGraphic" in2="effect1_dropShadow" result="shape"/>
</filter>
<filter id="filter2_d" x="0.411987" y="72.2417" width="437.205" height="216.244" filterUnits="userSpaceOnUse" color-interpolation-filters="sRGB">
<feFlood flood-opacity="0" result="BackgroundImageFix"/>
<feColorMatrix in="SourceAlpha" type="matrix" values="0 0 0 0 0 0 0 0 0 0 0 0 0 0 0 0 0 0 127 0"/>
<feOffset dy="10"/>
<feGaussianBlur stdDeviation="15"/>
<feColorMatrix type="matrix" values="0 0 0 0 0.188235 0 0 0 0 0.184314 0 0 0 0 0.223529 0 0 0 0.05 0"/>
<feBlend mode="normal" in2="BackgroundImageFix" result="effect1_dropShadow"/>
<feBlend mode="normal" in="SourceGraphic" in2="effect1_dropShadow" result="shape"/>
</filter>
<filter id="filter3_d" x="0.411987" y="0.241699" width="437.205" height="216.244" filterUnits="userSpaceOnUse" color-interpolation-filters="sRGB">
<feFlood flood-opacity="0" result="BackgroundImageFix"/>
<feColorMatrix in="SourceAlpha" type="matrix" values="0 0 0 0 0 0 0 0 0 0 0 0 0 0 0 0 0 0 127 0"/>
<feOffset dy="10"/>
<feGaussianBlur stdDeviation="15"/>
<feColorMatrix type="matrix" values="0 0 0 0 0.188235 0 0 0 0 0.184314 0 0 0 0 0.223529 0 0 0 0.05 0"/>
<feBlend mode="normal" in2="BackgroundImageFix" result="effect1_dropShadow"/>
<feBlend mode="normal" in="SourceGraphic" in2="effect1_dropShadow" result="shape"/>
</filter>
</defs>
</svg>
