<svg width="240" height="320" viewBox="0 0 240 320" fill="none" xmlns="http://www.w3.org/2000/svg">
<rect width="240" height="320" fill="#F1F1F8"/>
<mask id="mask0" mask-type="alpha" maskUnits="userSpaceOnUse" x="0" y="0" width="240" height="320">
<rect width="240" height="320" fill="#D2D2D9"/>
</mask>
<g mask="url(#mask0)">
<path d="M119.881 188.787C147.193 188.787 169.539 166.441 169.539 139.129V103.658C169.539 76.3462 147.193 54 119.881 54C92.5689 54 70.2227 76.3462 70.2227 103.658V139.129C70.2227 166.441 92.5689 188.787 119.881 188.787Z" fill="#E0E0EA"/>
<path d="M-22 310.095C-22 315.77 -17.3889 320.026 -12.0683 320.026H251.475C257.151 320.026 261.407 315.415 261.407 310.095C261.762 258.663 210.262 217.163 158.83 217.163H80.932C29.5001 217.163 -22 258.663 -22 310.095Z" fill="#E0E0EA"/>
</g>
</svg>
