<svg width="433" height="231" viewBox="0 0 433 231" fill="none" xmlns="http://www.w3.org/2000/svg">
<path d="M61.7705 219.302C63.3217 219.302 64.4552 218.527 64.8132 217.373L63.6796 217.055C63.3813 217.85 62.6903 218.248 61.7705 218.248C60.3934 218.248 59.4438 217.358 59.3892 215.723H64.9325V215.225C64.9325 212.382 63.2421 211.407 61.6512 211.407C59.583 211.407 58.2109 213.038 58.2109 215.385C58.2109 217.731 59.5632 219.302 61.7705 219.302ZM59.3892 214.708C59.4687 213.52 60.3089 212.461 61.6512 212.461C62.924 212.461 63.7393 213.416 63.7393 214.708H59.3892ZM67.5724 219.223C68.0646 219.223 68.4673 218.82 68.4673 218.328C68.4673 217.836 68.0646 217.433 67.5724 217.433C67.0802 217.433 66.6775 217.836 66.6775 218.328C66.6775 218.82 67.0802 219.223 67.5724 219.223ZM73.6551 222.166C75.4847 222.166 76.9563 221.331 76.9563 219.362V211.507H75.8227V212.72H75.7034C75.4449 212.322 74.9676 211.407 73.4762 211.407C71.5472 211.407 70.2148 212.939 70.2148 215.285C70.2148 217.671 71.6068 219.024 73.4563 219.024C74.9477 219.024 75.425 218.149 75.6835 217.731H75.783V219.282C75.783 220.555 74.8881 221.132 73.6551 221.132C72.2681 221.132 71.7808 220.401 71.4676 219.978L70.533 220.635C71.0102 221.435 71.9499 222.166 73.6551 222.166ZM73.6154 217.97C72.1438 217.97 71.3881 216.856 71.3881 215.265C71.3881 213.714 72.1239 212.461 73.6154 212.461C75.0472 212.461 75.8029 213.615 75.8029 215.265C75.8029 216.956 75.0273 217.97 73.6154 217.97ZM79.9591 219.223C80.4513 219.223 80.854 218.82 80.854 218.328C80.854 217.836 80.4513 217.433 79.9591 217.433C79.4669 217.433 79.0642 217.836 79.0642 218.328C79.0642 218.82 79.4669 219.223 79.9591 219.223ZM86.4992 210.055H89.7009V219.143H90.9339V210.055H94.1356V208.961H86.4992V210.055ZM95.8794 219.143H97.0527V211.507H95.8794V219.143ZM96.476 210.234C96.9334 210.234 97.3112 209.876 97.3112 209.439C97.3112 209.001 96.9334 208.643 96.476 208.643C96.0186 208.643 95.6408 209.001 95.6408 209.439C95.6408 209.876 96.0186 210.234 96.476 210.234ZM99.2017 219.143H100.375V214.37C100.375 213.252 101.19 212.461 102.105 212.461C102.995 212.461 103.616 213.043 103.616 213.913V219.143H104.81V214.171C104.81 213.187 105.426 212.461 106.5 212.461C107.335 212.461 108.051 212.904 108.051 214.032V219.143H109.224V214.032C109.224 212.238 108.26 211.407 106.898 211.407C105.804 211.407 105.004 211.909 104.611 212.7H104.531C104.153 211.885 103.487 211.407 102.483 211.407C101.489 211.407 100.753 211.885 100.435 212.7H100.335V211.507H99.2017V219.143ZM114.571 219.302C116.122 219.302 117.256 218.527 117.614 217.373L116.48 217.055C116.182 217.85 115.491 218.248 114.571 218.248C113.194 218.248 112.245 217.358 112.19 215.723H117.733V215.225C117.733 212.382 116.043 211.407 114.452 211.407C112.384 211.407 111.012 213.038 111.012 215.385C111.012 217.731 112.364 219.302 114.571 219.302ZM112.19 214.708C112.269 213.52 113.11 212.461 114.452 212.461C115.725 212.461 116.54 213.416 116.54 214.708H112.19ZM120.691 208.961H119.518V219.143H120.691V208.961ZM122.84 219.143H124.014V211.507H122.84V219.143ZM123.437 210.234C123.894 210.234 124.272 209.876 124.272 209.439C124.272 209.001 123.894 208.643 123.437 208.643C122.98 208.643 122.602 209.001 122.602 209.439C122.602 209.876 122.98 210.234 123.437 210.234ZM127.336 214.549C127.336 213.217 128.161 212.461 129.285 212.461C130.374 212.461 131.035 213.172 131.035 214.37V219.143H132.208V214.291C132.208 212.342 131.169 211.407 129.623 211.407C128.469 211.407 127.754 211.924 127.396 212.7H127.296V211.507H126.163V219.143H127.336V214.549ZM137.554 219.302C139.105 219.302 140.238 218.527 140.596 217.373L139.463 217.055C139.165 217.85 138.473 218.248 137.554 218.248C136.177 218.248 135.227 217.358 135.172 215.723H140.716V215.225C140.716 212.382 139.025 211.407 137.434 211.407C135.366 211.407 133.994 213.038 133.994 215.385C133.994 217.731 135.346 219.302 137.554 219.302ZM135.172 214.708C135.252 213.52 136.092 212.461 137.434 212.461C138.707 212.461 139.523 213.416 139.523 214.708H135.172ZM149.54 219.302C151.608 219.302 153 217.731 153 215.365C153 212.978 151.608 211.407 149.54 211.407C147.472 211.407 146.08 212.978 146.08 215.365C146.08 217.731 147.472 219.302 149.54 219.302ZM149.54 218.248C147.969 218.248 147.253 216.896 147.253 215.365C147.253 213.833 147.969 212.461 149.54 212.461C151.111 212.461 151.827 213.833 151.827 215.365C151.827 216.896 151.111 218.248 149.54 218.248ZM158.192 211.507H156.482V210.731C156.482 209.975 156.8 209.578 157.576 209.578C157.914 209.578 158.113 209.657 158.232 209.697L158.57 208.683C158.391 208.603 158.033 208.484 157.456 208.484C156.363 208.484 155.309 209.14 155.309 210.453V211.507H154.076V212.501H155.309V219.143H156.482V212.501H158.192V211.507ZM166.021 219.322C167.353 219.322 168.049 218.606 168.288 218.109H168.348V219.143H169.521V214.112C169.521 211.686 167.672 211.407 166.697 211.407C165.544 211.407 164.231 211.805 163.635 213.197L164.748 213.595C165.007 213.038 165.618 212.441 166.737 212.441C167.816 212.441 168.348 213.013 168.348 213.992V214.032C168.348 214.599 167.771 214.549 166.379 214.728C164.962 214.912 163.416 215.225 163.416 216.975C163.416 218.467 164.569 219.322 166.021 219.322ZM166.2 218.268C165.265 218.268 164.589 217.85 164.589 217.035C164.589 216.14 165.405 215.862 166.319 215.742C166.817 215.683 168.149 215.544 168.348 215.305V216.379C168.348 217.333 167.592 218.268 166.2 218.268ZM176.773 214.549C176.773 213.217 177.624 212.461 178.782 212.461C179.886 212.461 180.552 213.157 180.552 214.37V219.143H181.725V214.291C181.725 212.327 180.681 211.407 179.12 211.407C177.917 211.407 177.231 211.909 176.873 212.7H176.773V208.961H175.6V219.143H176.773V214.549ZM183.872 219.143H185.045V211.507H183.872V219.143ZM184.468 210.234C184.926 210.234 185.303 209.876 185.303 209.439C185.303 209.001 184.926 208.643 184.468 208.643C184.011 208.643 183.633 209.001 183.633 209.439C183.633 209.876 184.011 210.234 184.468 210.234ZM190.276 222.166C192.106 222.166 193.577 221.331 193.577 219.362V211.507H192.444V212.72H192.325C192.066 212.322 191.589 211.407 190.097 211.407C188.168 211.407 186.836 212.939 186.836 215.285C186.836 217.671 188.228 219.024 190.077 219.024C191.569 219.024 192.046 218.149 192.305 217.731H192.404V219.282C192.404 220.555 191.509 221.132 190.276 221.132C188.889 221.132 188.402 220.401 188.089 219.978L187.154 220.635C187.631 221.435 188.571 222.166 190.276 222.166ZM190.236 217.97C188.765 217.97 188.009 216.856 188.009 215.265C188.009 213.714 188.745 212.461 190.236 212.461C191.668 212.461 192.424 213.615 192.424 215.265C192.424 216.956 191.648 217.97 190.236 217.97ZM196.898 214.549C196.898 213.217 197.749 212.461 198.907 212.461C200.011 212.461 200.677 213.157 200.677 214.37V219.143H201.85V214.291C201.85 212.327 200.806 211.407 199.245 211.407C198.042 211.407 197.356 211.909 196.998 212.7H196.898V208.961H195.725V219.143H196.898V214.549ZM212.747 216.021C212.747 217.453 211.653 218.109 210.778 218.109C209.803 218.109 209.107 217.393 209.107 216.279V211.507H207.934V216.359C207.934 218.308 208.968 219.242 210.4 219.242C211.553 219.242 212.309 218.626 212.667 217.85H212.747V219.143H213.92V211.507H212.747V216.021ZM219.39 211.507H217.759V209.677H216.586V211.507H215.432V212.501H216.586V217.274C216.586 218.606 217.66 219.242 218.654 219.242C219.092 219.242 219.37 219.163 219.529 219.103L219.29 218.049C219.191 218.069 219.032 218.109 218.773 218.109C218.256 218.109 217.759 217.95 217.759 216.956V212.501H219.39V211.507ZM221.155 219.143H222.328V211.507H221.155V219.143ZM221.751 210.234C222.209 210.234 222.587 209.876 222.587 209.439C222.587 209.001 222.209 208.643 221.751 208.643C221.294 208.643 220.916 209.001 220.916 209.439C220.916 209.876 221.294 210.234 221.751 210.234ZM225.65 208.961H224.477V219.143H225.65V208.961ZM227.799 219.143H228.973V211.507H227.799V219.143ZM228.396 210.234C228.853 210.234 229.231 209.876 229.231 209.439C229.231 209.001 228.853 208.643 228.396 208.643C227.939 208.643 227.561 209.001 227.561 209.439C227.561 209.876 227.939 210.234 228.396 210.234ZM230.903 219.143H236.889V218.049H232.534V217.97L236.749 212.441V211.507H231.042V212.6H235.238V212.68L230.903 218.248V219.143ZM241.679 219.302C243.23 219.302 244.363 218.527 244.721 217.373L243.588 217.055C243.29 217.85 242.598 218.248 241.679 218.248C240.302 218.248 239.352 217.358 239.297 215.723H244.841V215.225C244.841 212.382 243.15 211.407 241.559 211.407C239.491 211.407 238.119 213.038 238.119 215.385C238.119 217.731 239.471 219.302 241.679 219.302ZM239.297 214.708C239.377 213.52 240.217 212.461 241.559 212.461C242.832 212.461 243.648 213.416 243.648 214.708H239.297ZM246.625 219.143H247.799V214.311C247.799 213.277 248.614 212.521 249.728 212.521C250.041 212.521 250.364 212.581 250.444 212.6V211.407C250.309 211.397 250.001 211.387 249.827 211.387C248.912 211.387 248.117 211.904 247.839 212.66H247.759V211.507H246.625V219.143ZM256.19 214.848C256.19 217.353 256.866 219.441 258.079 221.211H259.113C258.158 219.899 257.403 217.214 257.403 214.848C257.403 212.481 258.158 209.796 259.113 208.484H258.079C256.866 210.254 256.19 212.342 256.19 214.848ZM263.882 219.302C265.433 219.302 266.567 218.527 266.924 217.373L265.791 217.055C265.493 217.85 264.802 218.248 263.882 218.248C262.505 218.248 261.555 217.358 261.5 215.723H267.044V215.225C267.044 212.382 265.353 211.407 263.763 211.407C261.694 211.407 260.322 213.038 260.322 215.385C260.322 217.731 261.674 219.302 263.882 219.302ZM261.5 214.708C261.58 213.52 262.42 212.461 263.763 212.461C265.035 212.461 265.851 213.416 265.851 214.708H261.5ZM275.073 211.507H273.8L271.692 217.592H271.613L269.505 211.507H268.232L271.056 219.143H272.249L275.073 211.507ZM279.55 219.302C281.101 219.302 282.235 218.527 282.592 217.373L281.459 217.055C281.161 217.85 280.47 218.248 279.55 218.248C278.173 218.248 277.223 217.358 277.168 215.723H282.712V215.225C282.712 212.382 281.021 211.407 279.431 211.407C277.362 211.407 275.99 213.038 275.99 215.385C275.99 217.731 277.342 219.302 279.55 219.302ZM277.168 214.708C277.248 213.52 278.088 212.461 279.431 212.461C280.703 212.461 281.519 213.416 281.519 214.708H277.168ZM285.67 214.549C285.67 213.217 286.495 212.461 287.619 212.461C288.708 212.461 289.369 213.172 289.369 214.37V219.143H290.542V214.291C290.542 212.342 289.503 211.407 287.957 211.407C286.803 211.407 286.088 211.924 285.73 212.7H285.63V211.507H284.497V219.143H285.67V214.549ZM296.007 211.507H294.376V209.677H293.203V211.507H292.05V212.501H293.203V217.274C293.203 218.606 294.277 219.242 295.271 219.242C295.709 219.242 295.987 219.163 296.146 219.103L295.908 218.049C295.808 218.069 295.649 218.109 295.391 218.109C294.874 218.109 294.376 217.95 294.376 216.956V212.501H296.007V211.507ZM303.044 213.217C302.676 212.133 301.851 211.407 300.34 211.407C298.729 211.407 297.536 212.322 297.536 213.615C297.536 214.669 298.162 215.375 299.564 215.703L300.837 216.001C301.608 216.18 301.97 216.548 301.97 217.075C301.97 217.731 301.274 218.268 300.181 218.268C299.221 218.268 298.62 217.855 298.411 217.035L297.297 217.314C297.571 218.611 298.64 219.302 300.201 219.302C301.975 219.302 303.184 218.333 303.184 217.015C303.184 215.951 302.517 215.28 301.155 214.947L300.022 214.669C299.117 214.445 298.709 214.142 298.709 213.555C298.709 212.899 299.405 212.421 300.34 212.421C301.364 212.421 301.787 212.988 301.99 213.515L303.044 213.217ZM311.989 219.302C314.058 219.302 315.45 217.731 315.45 215.365C315.45 212.978 314.058 211.407 311.989 211.407C309.921 211.407 308.529 212.978 308.529 215.365C308.529 217.731 309.921 219.302 311.989 219.302ZM311.989 218.248C310.418 218.248 309.703 216.896 309.703 215.365C309.703 213.833 310.418 212.461 311.989 212.461C313.561 212.461 314.276 213.833 314.276 215.365C314.276 216.896 313.561 218.248 311.989 218.248ZM323.212 211.507H321.939L319.831 217.592H319.751L317.643 211.507H316.371L319.195 219.143H320.388L323.212 211.507ZM327.689 219.302C329.24 219.302 330.373 218.527 330.731 217.373L329.598 217.055C329.299 217.85 328.608 218.248 327.689 218.248C326.311 218.248 325.362 217.358 325.307 215.723H330.85V215.225C330.85 212.382 329.16 211.407 327.569 211.407C325.501 211.407 324.129 213.038 324.129 215.385C324.129 217.731 325.481 219.302 327.689 219.302ZM325.307 214.708C325.387 213.52 326.227 212.461 327.569 212.461C328.842 212.461 329.657 213.416 329.657 214.708H325.307ZM332.635 219.143H333.809V214.311C333.809 213.277 334.624 212.521 335.738 212.521C336.051 212.521 336.374 212.581 336.453 212.6V211.407C336.319 211.397 336.011 211.387 335.837 211.387C334.922 211.387 334.127 211.904 333.848 212.66H333.769V211.507H332.635V219.143ZM345.103 211.507H343.472V209.677H342.299V211.507H341.145V212.501H342.299V217.274C342.299 218.606 343.373 219.242 344.367 219.242C344.804 219.242 345.083 219.163 345.242 219.103L345.003 218.049C344.904 218.069 344.745 218.109 344.486 218.109C343.969 218.109 343.472 217.95 343.472 216.956V212.501H345.103V211.507ZM346.868 219.143H348.041V211.507H346.868V219.143ZM347.464 210.234C347.922 210.234 348.3 209.876 348.3 209.439C348.3 209.001 347.922 208.643 347.464 208.643C347.007 208.643 346.629 209.001 346.629 209.439C346.629 209.876 347.007 210.234 347.464 210.234ZM350.19 219.143H351.363V214.37C351.363 213.252 352.179 212.461 353.093 212.461C353.983 212.461 354.605 213.043 354.605 213.913V219.143H355.798V214.171C355.798 213.187 356.414 212.461 357.488 212.461C358.323 212.461 359.039 212.904 359.039 214.032V219.143H360.213V214.032C360.213 212.238 359.248 211.407 357.886 211.407C356.792 211.407 355.992 211.909 355.599 212.7H355.519C355.142 211.885 354.475 211.407 353.471 211.407C352.477 211.407 351.741 211.885 351.423 212.7H351.323V211.507H350.19V219.143ZM365.56 219.302C367.111 219.302 368.244 218.527 368.602 217.373L367.469 217.055C367.17 217.85 366.479 218.248 365.56 218.248C364.182 218.248 363.233 217.358 363.178 215.723H368.722V215.225C368.722 212.382 367.031 211.407 365.44 211.407C363.372 211.407 362 213.038 362 215.385C362 217.731 363.352 219.302 365.56 219.302ZM363.178 214.708C363.258 213.52 364.098 212.461 365.44 212.461C366.713 212.461 367.528 213.416 367.528 214.708H363.178ZM373.012 214.848C373.012 212.342 372.336 210.254 371.123 208.484H370.089C371.043 209.796 371.799 212.481 371.799 214.848C371.799 217.214 371.043 219.899 370.089 221.211H371.123C372.336 219.441 373.012 217.353 373.012 214.848Z" fill="#A1A1AA"/>
<path d="M347.057 13H352.392V12.0625H348.114V9.09659H352.051V8.15909H348.114V5.21023H352.324V4.27273H347.057V13ZM359.445 6.45455H358.354L356.547 11.6705H356.479L354.672 6.45455H353.581L356.001 13H357.024L359.445 6.45455ZM363.282 13.1364C364.612 13.1364 365.583 12.4716 365.89 11.483L364.918 11.2102C364.663 11.892 364.07 12.233 363.282 12.233C362.102 12.233 361.288 11.4702 361.241 10.0682H365.992V9.64205C365.992 7.20455 364.543 6.36932 363.18 6.36932C361.407 6.36932 360.231 7.76705 360.231 9.77841C360.231 11.7898 361.39 13.1364 363.282 13.1364ZM361.241 9.19886C361.309 8.1804 362.029 7.27273 363.18 7.27273C364.271 7.27273 364.969 8.09091 364.969 9.19886H361.241ZM368.528 9.0625C368.528 7.92045 369.235 7.27273 370.198 7.27273C371.131 7.27273 371.698 7.8821 371.698 8.90909V13H372.704V8.84091C372.704 7.17045 371.813 6.36932 370.488 6.36932C369.499 6.36932 368.886 6.8125 368.579 7.47727H368.494V6.45455H367.522V13H368.528V9.0625ZM377.388 6.45455H375.99V4.88636H374.985V6.45455H373.996V7.30682H374.985V11.3977C374.985 12.5398 375.905 13.0852 376.757 13.0852C377.132 13.0852 377.371 13.017 377.507 12.9659L377.303 12.0625C377.218 12.0795 377.081 12.1136 376.86 12.1136C376.417 12.1136 375.99 11.9773 375.99 11.125V7.30682H377.388V6.45455ZM384.935 13.1364C386.384 13.1364 387.338 12.25 387.509 11.0909H386.503C386.316 11.8068 385.719 12.233 384.935 12.233C383.742 12.233 382.975 11.2443 382.975 9.72727C382.975 8.24432 383.759 7.27273 384.935 7.27273C385.821 7.27273 386.35 7.81818 386.503 8.41477H387.509C387.338 7.1875 386.299 6.36932 384.918 6.36932C383.145 6.36932 381.969 7.76705 381.969 9.76136C381.969 11.7216 383.094 13.1364 384.935 13.1364ZM391.638 13.1364C393.411 13.1364 394.604 11.7898 394.604 9.76136C394.604 7.71591 393.411 6.36932 391.638 6.36932C389.865 6.36932 388.672 7.71591 388.672 9.76136C388.672 11.7898 389.865 13.1364 391.638 13.1364ZM391.638 12.233C390.292 12.233 389.678 11.0739 389.678 9.76136C389.678 8.44886 390.292 7.27273 391.638 7.27273C392.985 7.27273 393.598 8.44886 393.598 9.76136C393.598 11.0739 392.985 12.233 391.638 12.233ZM400.264 10.3239C400.264 11.5511 399.327 12.1136 398.577 12.1136C397.741 12.1136 397.145 11.5 397.145 10.5455V6.45455H396.139V10.6136C396.139 12.2841 397.026 13.0852 398.253 13.0852C399.241 13.0852 399.889 12.5568 400.196 11.892H400.264V13H401.27V6.45455H400.264V10.3239ZM404.118 9.0625C404.118 7.92045 404.825 7.27273 405.788 7.27273C406.721 7.27273 407.288 7.8821 407.288 8.90909V13H408.294V8.84091C408.294 7.17045 407.403 6.36932 406.078 6.36932C405.089 6.36932 404.475 6.8125 404.169 7.47727H404.083V6.45455H403.112V13H404.118V9.0625ZM412.978 6.45455H411.58V4.88636H410.575V6.45455H409.586V7.30682H410.575V11.3977C410.575 12.5398 411.495 13.0852 412.347 13.0852C412.722 13.0852 412.961 13.017 413.097 12.9659L412.893 12.0625C412.808 12.0795 412.671 12.1136 412.45 12.1136C412.006 12.1136 411.58 11.9773 411.58 11.125V7.30682H412.978V6.45455Z" fill="#A1A1AA"/>
<path d="M420.917 4.27273H419.86L417.678 5.72159V6.79545L419.809 5.38068H419.86V13H420.917V4.27273ZM423.222 11.2102H427.33V13H428.336V11.2102H429.529V10.2727H428.336V4.27273H427.058L423.222 10.3409V11.2102ZM427.33 10.2727H424.364V10.2045L427.262 5.61932H427.33V10.2727Z" fill="#3B3B49"/>
<rect y="190.286" width="432" height="1" fill="#E1E1EB"/>
<rect x="310" y="8.57129" width="25.7143" height="3" fill="#F4899E"/>
<path d="M347.057 38.2856H348.114V34.3822H352.767V38.2856H353.824V29.5584H352.767V33.4447H348.114V29.5584H347.057V38.2856ZM358.462 38.422C360.235 38.422 361.428 37.0754 361.428 35.047C361.428 33.0016 360.235 31.655 358.462 31.655C356.69 31.655 355.496 33.0016 355.496 35.047C355.496 37.0754 356.69 38.422 358.462 38.422ZM358.462 37.5186C357.116 37.5186 356.502 36.3595 356.502 35.047C356.502 33.7345 357.116 32.5584 358.462 32.5584C359.809 32.5584 360.423 33.7345 360.423 35.047C360.423 36.3595 359.809 37.5186 358.462 37.5186ZM367.088 35.6095C367.088 36.8368 366.151 37.3993 365.401 37.3993C364.566 37.3993 363.969 36.7856 363.969 35.8311V31.7402H362.963V35.8993C362.963 37.5697 363.85 38.3709 365.077 38.3709C366.066 38.3709 366.713 37.8425 367.02 37.1777H367.088V38.2856H368.094V31.7402H367.088V35.6095ZM369.936 38.2856H370.942V34.1436C370.942 33.2572 371.641 32.6095 372.595 32.6095C372.864 32.6095 373.141 32.6606 373.209 32.6777V31.655C373.094 31.6464 372.83 31.6379 372.68 31.6379C371.896 31.6379 371.214 32.0811 370.976 32.7288H370.908V31.7402H369.936V38.2856ZM379.037 33.2061C378.722 32.2771 378.015 31.655 376.719 31.655C375.338 31.655 374.316 32.4391 374.316 33.547C374.316 34.4504 374.853 35.0555 376.054 35.3368L377.145 35.5925C377.806 35.7459 378.117 36.0612 378.117 36.5129C378.117 37.0754 377.52 37.5356 376.583 37.5356C375.76 37.5356 375.245 37.182 375.066 36.4788L374.111 36.7175C374.346 37.8297 375.262 38.422 376.6 38.422C378.121 38.422 379.157 37.591 379.157 36.4618C379.157 35.5498 378.586 34.9746 377.418 34.6891L376.446 34.4504C375.671 34.2587 375.321 33.9987 375.321 33.4959C375.321 32.9334 375.918 32.5243 376.719 32.5243C377.597 32.5243 377.959 33.0101 378.134 33.4618L379.037 33.2061Z" fill="#A1A1AA"/>
<path d="M386.756 38.405C388.418 38.405 389.636 37.1777 389.636 35.5072C389.636 33.8155 388.46 32.5754 386.858 32.5754C386.27 32.5754 385.699 32.7842 385.341 33.0697H385.29L385.597 30.4959H389.244V29.5584H384.71L384.182 33.8538L385.17 33.9731C385.533 33.7132 386.151 33.5257 386.688 33.53C387.8 33.5385 388.614 34.3822 388.614 35.5243C388.614 36.645 387.83 37.4675 386.756 37.4675C385.861 37.4675 385.149 36.8922 385.068 36.1038H384.045C384.109 37.4334 385.256 38.405 386.756 38.405ZM391.669 38.3538C392.091 38.3538 392.436 38.0087 392.436 37.5868C392.436 37.1649 392.091 36.8197 391.669 36.8197C391.247 36.8197 390.902 37.1649 390.902 37.5868C390.902 38.0087 391.247 38.3538 391.669 38.3538ZM396.609 38.405C398.352 38.405 399.566 37.3865 399.575 35.9675C399.566 34.8638 398.829 33.9263 397.887 33.7516V33.7004C398.706 33.4873 399.243 32.6862 399.251 31.7572C399.243 30.4277 398.126 29.4391 396.609 29.4391C395.075 29.4391 393.958 30.4277 393.967 31.7572C393.958 32.6862 394.495 33.4873 395.331 33.7004V33.7516C394.372 33.9263 393.635 34.8638 393.643 35.9675C393.635 37.3865 394.849 38.405 396.609 38.405ZM396.609 37.4675C395.412 37.4675 394.674 36.8538 394.683 35.9163C394.674 34.932 395.488 34.2288 396.609 34.2288C397.713 34.2288 398.527 34.932 398.535 35.9163C398.527 36.8538 397.789 37.4675 396.609 37.4675ZM396.609 33.3254C395.654 33.3254 394.981 32.7288 394.99 31.8254C394.981 30.9391 395.629 30.3595 396.609 30.3595C397.572 30.3595 398.22 30.9391 398.228 31.8254C398.22 32.7288 397.547 33.3254 396.609 33.3254ZM401.481 38.2856H402.589L406.475 30.547V29.5584H400.884V30.4959H405.384V30.5641L401.481 38.2856Z" fill="#3B3B49"/>
<rect x="310" y="33.8574" width="25.7143" height="3" fill="#7860FF"/>
<rect x="150" y="4" width="1" height="186" fill="#E1E1EB"/>
<path d="M1.28613 156.214H14.7861L24.429 134.357L34.7147 142.071L55.929 144L66.8576 158.143L76.5004 156.214L87.429 148.5L97.0718 151.714L108.643 138.214L119.572 151.714L139.5 104.143L149.786 122.143L162 134.357L171.643 158.143L181.929 140.143L202.5 151.714L214.072 131.143L223.072 118.286L234.643 127.929L244.929 108.643L254.572 153.643H264.858L275.786 134.357L285.429 109.929L292.5 136.286L296.358 156.214L307.286 153.643L317.572 134.357L327.858 153.643L359.358 156.214L372.215 148.5L379.286 140.143L385.072 104.143L390.215 63L396.643 104.143L401.143 140.143H421.715L431.358 158.143" stroke="#7860FF" stroke-width="3"/>
<path d="M2.57129 149.143H15.4284L33.4284 134.357L55.9284 130.5L66.857 149.143H77.1427L88.7141 141.429L108.643 134.357L118.286 136.929L129.214 106.714L139.5 97.0716L149.786 88.7145L162.643 136.929L171 149.143L181.286 119.572L194.143 132.429L201.214 145.286L215.357 126.643L223.714 108L234.643 122.786L244.286 119.572L251.357 138.857L264.857 149.143L277.071 134.357L286.071 118.286L295.071 144H307.928L317.571 119.572L327.857 144L359.357 149.143H369.643L383.143 104.786L390.214 63.6431L398.571 126.643L412.071 145.286L421.714 136.929L430.714 145.286" stroke="#F4899E" stroke-width="3"/>
<circle cx="150.428" cy="88.7141" r="4.85714" fill="#F4899E" stroke="white" stroke-width="2"/>
<circle cx="150.428" cy="122.143" r="4.85714" fill="#7860FF" stroke="white" stroke-width="2"/>
</svg>
