<svg width="432" height="267" viewBox="0 0 432 267" fill="none" xmlns="http://www.w3.org/2000/svg">
<rect y="111.125" width="134.74" height="44.4502" rx="22.2251" fill="#75AEF9"/>
<path d="M29.3284 126.136V136.449C29.3213 138.125 28.54 139.02 27.148 139.02C25.8625 139.02 24.9676 138.253 24.9605 137.045H22.7801C22.7801 139.503 24.6267 140.881 27.0911 140.881C29.7616 140.881 31.5088 139.247 31.5159 136.449V126.136H29.3284ZM39.1348 140.902C42.2101 140.902 44.2201 138.65 44.2201 135.277C44.2201 131.882 42.2101 129.631 39.1348 129.631C36.0595 129.631 34.0496 131.882 34.0496 135.277C34.0496 138.65 36.0595 140.902 39.1348 140.902ZM39.1419 139.119C37.132 139.119 36.1945 137.365 36.1945 135.27C36.1945 133.182 37.132 131.406 39.1419 131.406C41.1377 131.406 42.0752 133.182 42.0752 135.27C42.0752 137.365 41.1377 139.119 39.1419 139.119ZM48.714 134.204C48.714 132.464 49.8149 131.47 51.3277 131.47C52.7907 131.47 53.6643 132.4 53.6643 133.998V140.682H55.7879V133.743C55.7879 131.023 54.2964 129.631 52.0521 129.631C50.3546 129.631 49.3319 130.369 48.8206 131.548H48.6856V126.136H46.5904V140.682H48.714V134.204ZM60.7453 134.204C60.7453 132.464 61.8106 131.47 63.2879 131.47C64.7296 131.47 65.6032 132.415 65.6032 133.998V140.682H67.7268V133.743C67.7268 131.044 66.2424 129.631 64.0123 129.631C62.3717 129.631 61.2992 130.39 60.795 131.548H60.66V129.773H58.6217V140.682H60.7453V134.204ZM80.747 140.682C85.1789 140.682 87.7428 137.933 87.7428 133.388C87.7428 128.863 85.1789 126.136 80.8962 126.136H76.0382V140.682H80.747ZM78.2328 138.764V128.054H80.7612C83.9431 128.054 85.5837 129.957 85.5837 133.388C85.5837 136.832 83.9431 138.764 80.6263 138.764H78.2328ZM94.8965 140.902C97.9718 140.902 99.9818 138.65 99.9818 135.277C99.9818 131.882 97.9718 129.631 94.8965 129.631C91.8213 129.631 89.8113 131.882 89.8113 135.277C89.8113 138.65 91.8213 140.902 94.8965 140.902ZM94.9036 139.119C92.8937 139.119 91.9562 137.365 91.9562 135.27C91.9562 133.182 92.8937 131.406 94.9036 131.406C96.8994 131.406 97.8369 133.182 97.8369 135.27C97.8369 137.365 96.8994 139.119 94.9036 139.119ZM107.054 140.902C109.433 140.902 111.116 139.73 111.599 137.954L109.589 137.592C109.206 138.622 108.283 139.148 107.075 139.148C105.257 139.148 104.035 137.969 103.979 135.866H111.734V135.113C111.734 131.172 109.376 129.631 106.905 129.631C103.865 129.631 101.862 131.946 101.862 135.298C101.862 138.686 103.837 140.902 107.054 140.902ZM103.986 134.275C104.071 132.727 105.193 131.385 106.919 131.385C108.567 131.385 109.646 132.606 109.653 134.275H103.986Z" fill="white"/>
<g opacity="0.6">
<rect x="163.021" y="56.0625" width="114.293" height="43.4502" rx="21.7251" stroke="#E1E1EB"/>
<path d="M185.435 85.1187H193.958V83.5562H187.197V70.5732H185.435V85.1187ZM196.458 85.1187H198.134V74.2096H196.458V85.1187ZM197.31 72.3914C197.964 72.3914 198.503 71.88 198.503 71.255C198.503 70.63 197.964 70.1187 197.31 70.1187C196.657 70.1187 196.117 70.63 196.117 71.255C196.117 71.88 196.657 72.3914 197.31 72.3914ZM210.124 74.2096H208.306L205.295 82.9027H205.181L202.17 74.2096H200.352L204.386 85.1187H206.09L210.124 74.2096ZM216.52 85.3459C218.736 85.3459 220.355 84.238 220.867 82.5902L219.247 82.1357C218.821 83.2721 217.834 83.8402 216.52 83.8402C214.553 83.8402 213.196 82.5689 213.118 80.2323H221.037V79.5221C221.037 75.4596 218.622 74.0675 216.35 74.0675C213.395 74.0675 211.435 76.3971 211.435 79.7493C211.435 83.1016 213.367 85.3459 216.52 85.3459ZM213.118 78.7834C213.232 77.086 214.432 75.5732 216.35 75.5732C218.168 75.5732 219.333 76.9368 219.333 78.7834H213.118ZM231.314 76.6527C230.788 75.1044 229.61 74.0675 227.45 74.0675C225.149 74.0675 223.445 75.3743 223.445 77.2209C223.445 78.7266 224.34 79.7351 226.342 80.2039L228.161 80.63C229.261 80.8857 229.78 81.4113 229.78 82.1641C229.78 83.1016 228.786 83.8687 227.223 83.8687C225.852 83.8687 224.993 83.2792 224.695 82.1073L223.104 82.505C223.494 84.3587 225.021 85.3459 227.252 85.3459C229.787 85.3459 231.513 83.961 231.513 82.0789C231.513 80.559 230.561 79.6002 228.615 79.1243L226.996 78.7266C225.703 78.407 225.121 77.9738 225.121 77.1357C225.121 76.1982 226.115 75.5164 227.45 75.5164C228.913 75.5164 229.517 76.326 229.808 77.0789L231.314 76.6527ZM242.871 85.3743C244.775 85.3743 245.769 84.3516 246.11 83.6414H246.195V85.1187H247.871V77.9312C247.871 74.4652 245.229 74.0675 243.837 74.0675C242.189 74.0675 240.314 74.6357 239.462 76.6243L241.053 77.1925C241.422 76.3971 242.296 75.5448 243.894 75.5448C245.435 75.5448 246.195 76.3615 246.195 77.7607V77.8175C246.195 78.6272 245.371 78.5562 243.383 78.8118C241.358 79.0746 239.15 79.5221 239.15 82.0221C239.15 84.1527 240.797 85.3743 242.871 85.3743ZM243.127 83.8687C241.792 83.8687 240.826 83.2721 240.826 82.1073C240.826 80.8289 241.991 80.4312 243.297 80.2607C244.008 80.1755 245.911 79.9766 246.195 79.6357V81.1698C246.195 82.5334 245.116 83.8687 243.127 83.8687ZM255.675 74.2096H253.345V71.5959H251.669V74.2096H250.021V75.63H251.669V82.4482C251.669 84.3516 253.203 85.2607 254.624 85.2607C255.249 85.2607 255.646 85.1471 255.874 85.0618L255.533 83.5562C255.391 83.5846 255.163 83.6414 254.794 83.6414C254.056 83.6414 253.345 83.4141 253.345 81.9937V75.63H255.675V74.2096Z" fill="#4E4E56"/>
</g>
<g opacity="0.6">
<rect x="304.206" y="55.5625" width="120.849" height="44.4502" rx="22.2251" fill="#F4F4F7"/>
<path d="M327.984 85.1187L329.447 80.9993H335.327L336.791 85.1187H338.637L333.296 70.5732H331.478L326.137 85.1187H327.984ZM330.001 79.4368L332.33 72.8743H332.444L334.773 79.4368H330.001ZM344.795 85.3459C346.897 85.3459 347.607 84.0391 347.977 83.4425H348.175V85.1187H349.795V70.5732H348.119V75.9425H347.977C347.607 75.3743 346.954 74.0675 344.823 74.0675C342.068 74.0675 340.164 76.255 340.164 79.6925C340.164 83.1584 342.068 85.3459 344.795 85.3459ZM345.022 83.8402C342.92 83.8402 341.84 81.9937 341.84 79.6641C341.84 77.363 342.891 75.5732 345.022 75.5732C347.068 75.5732 348.147 77.2209 348.147 79.6641C348.147 82.1357 347.039 83.8402 345.022 83.8402ZM357.217 85.3459C359.319 85.3459 360.029 84.0391 360.398 83.4425H360.597V85.1187H362.217V70.5732H360.541V75.9425H360.398C360.029 75.3743 359.376 74.0675 357.245 74.0675C354.489 74.0675 352.586 76.255 352.586 79.6925C352.586 83.1584 354.489 85.3459 357.217 85.3459ZM357.444 83.8402C355.342 83.8402 354.262 81.9937 354.262 79.6641C354.262 77.363 355.313 75.5732 357.444 75.5732C359.489 75.5732 360.569 77.2209 360.569 79.6641C360.569 82.1357 359.461 83.8402 357.444 83.8402ZM365.519 85.1187H367.195V78.2152C367.195 76.738 368.36 75.6584 369.951 75.6584C370.398 75.6584 370.86 75.7437 370.974 75.7721V74.0675C370.782 74.0533 370.342 74.0391 370.093 74.0391C368.786 74.0391 367.65 74.7777 367.252 75.8573H367.139V74.2096H365.519V85.1187ZM377.202 85.3459C379.418 85.3459 381.038 84.238 381.549 82.5902L379.93 82.1357C379.504 83.2721 378.516 83.8402 377.202 83.8402C375.235 83.8402 373.879 82.5689 373.8 80.2323H381.719V79.5221C381.719 75.4596 379.305 74.0675 377.032 74.0675C374.077 74.0675 372.117 76.3971 372.117 79.7493C372.117 83.1016 374.049 85.3459 377.202 85.3459ZM373.8 78.7834C373.914 77.086 375.114 75.5732 377.032 75.5732C378.85 75.5732 380.015 76.9368 380.015 78.7834H373.8ZM391.996 76.6527C391.471 75.1044 390.292 74.0675 388.133 74.0675C385.832 74.0675 384.127 75.3743 384.127 77.2209C384.127 78.7266 385.022 79.7351 387.025 80.2039L388.843 80.63C389.944 80.8857 390.462 81.4113 390.462 82.1641C390.462 83.1016 389.468 83.8687 387.906 83.8687C386.535 83.8687 385.675 83.2792 385.377 82.1073L383.786 82.505C384.177 84.3587 385.704 85.3459 387.934 85.3459C390.469 85.3459 392.195 83.961 392.195 82.0789C392.195 80.559 391.244 79.6002 389.298 79.1243L387.678 78.7266C386.386 78.407 385.803 77.9738 385.803 77.1357C385.803 76.1982 386.798 75.5164 388.133 75.5164C389.596 75.5164 390.2 76.326 390.491 77.0789L391.996 76.6527ZM402.446 76.6527C401.92 75.1044 400.741 74.0675 398.582 74.0675C396.281 74.0675 394.576 75.3743 394.576 77.2209C394.576 78.7266 395.471 79.7351 397.474 80.2039L399.292 80.63C400.393 80.8857 400.912 81.4113 400.912 82.1641C400.912 83.1016 399.917 83.8687 398.355 83.8687C396.984 83.8687 396.125 83.2792 395.826 82.1073L394.235 82.505C394.626 84.3587 396.153 85.3459 398.383 85.3459C400.919 85.3459 402.645 83.961 402.645 82.0789C402.645 80.559 401.693 79.6002 399.747 79.1243L398.128 78.7266C396.835 78.407 396.253 77.9738 396.253 77.1357C396.253 76.1982 397.247 75.5164 398.582 75.5164C400.045 75.5164 400.649 76.326 400.94 77.0789L402.446 76.6527Z" fill="#4E4E56"/>
</g>
<g opacity="0.4">
<rect x="154.687" y="0.5" width="130.961" height="43.4502" rx="21.7251" stroke="#E1E1EB"/>
<path d="M178.042 29.5562H179.803V23.8743H182.985C183.113 23.8743 183.234 23.8743 183.355 23.8672L186.423 29.5562H188.468L185.18 23.5476C187.033 22.9155 187.9 21.4027 187.9 19.4709C187.9 16.8999 186.366 15.0107 182.957 15.0107H178.042V29.5562ZM179.803 22.2834V16.5732H182.9C185.258 16.5732 186.167 17.7238 186.167 19.4709C186.167 21.2181 185.258 22.2834 182.928 22.2834H179.803ZM195.064 29.7834C197.28 29.7834 198.9 28.6755 199.411 27.0277L197.792 26.5732C197.366 27.7096 196.378 28.2777 195.064 28.2777C193.097 28.2777 191.741 27.0064 191.662 24.6698H199.581V23.9596C199.581 19.8971 197.167 18.505 194.894 18.505C191.939 18.505 189.979 20.8346 189.979 24.1868C189.979 27.5391 191.911 29.7834 195.064 29.7834ZM191.662 23.2209C191.776 21.5235 192.976 20.0107 194.894 20.0107C196.712 20.0107 197.877 21.3743 197.877 23.2209H191.662ZM202.131 33.6471H203.807V27.88H203.949C204.319 28.4766 205.029 29.7834 207.131 29.7834C209.858 29.7834 211.762 27.5959 211.762 24.13C211.762 20.6925 209.858 18.505 207.103 18.505C204.972 18.505 204.319 19.8118 203.949 20.38H203.75V18.6471H202.131V33.6471ZM203.779 24.1016C203.779 21.6584 204.858 20.0107 206.904 20.0107C209.035 20.0107 210.086 21.8005 210.086 24.1016C210.086 26.4312 209.006 28.2777 206.904 28.2777C204.887 28.2777 203.779 26.5732 203.779 24.1016ZM218.75 29.7834C221.705 29.7834 223.694 27.5391 223.694 24.1584C223.694 20.7493 221.705 18.505 218.75 18.505C215.796 18.505 213.807 20.7493 213.807 24.1584C213.807 27.5391 215.796 29.7834 218.75 29.7834ZM218.75 28.2777C216.506 28.2777 215.483 26.3459 215.483 24.1584C215.483 21.9709 216.506 20.0107 218.75 20.0107C220.995 20.0107 222.018 21.9709 222.018 24.1584C222.018 26.3459 220.995 28.2777 218.75 28.2777ZM226.252 29.5562H227.928V22.6527C227.928 21.1755 229.093 20.0959 230.684 20.0959C231.131 20.0959 231.593 20.1812 231.707 20.2096V18.505C231.515 18.4908 231.075 18.4766 230.826 18.4766C229.519 18.4766 228.383 19.2152 227.985 20.2948H227.872V18.6471H226.252V29.5562ZM239.122 18.6471H236.792V16.0334H235.116V18.6471H233.468V20.0675H235.116V26.8857C235.116 28.7891 236.65 29.6982 238.07 29.6982C238.695 29.6982 239.093 29.5846 239.32 29.4993L238.98 27.9937C238.837 28.0221 238.61 28.0789 238.241 28.0789C237.502 28.0789 236.792 27.8516 236.792 26.4312V20.0675H239.122V18.6471ZM246.1 29.7834C248.315 29.7834 249.935 28.6755 250.446 27.0277L248.827 26.5732C248.401 27.7096 247.413 28.2777 246.1 28.2777C244.132 28.2777 242.776 27.0064 242.698 24.6698H250.617V23.9596C250.617 19.8971 248.202 18.505 245.929 18.505C242.975 18.505 241.014 20.8346 241.014 24.1868C241.014 27.5391 242.946 29.7834 246.1 29.7834ZM242.698 23.2209C242.811 21.5235 244.011 20.0107 245.929 20.0107C247.747 20.0107 248.912 21.3743 248.912 23.2209H242.698ZM257.286 29.7834C259.388 29.7834 260.098 28.4766 260.467 27.88H260.666V29.5562H262.286V15.0107H260.609V20.38H260.467C260.098 19.8118 259.445 18.505 257.314 18.505C254.558 18.505 252.655 20.6925 252.655 24.13C252.655 27.5959 254.558 29.7834 257.286 29.7834ZM257.513 28.2777C255.411 28.2777 254.331 26.4312 254.331 24.1016C254.331 21.8005 255.382 20.0107 257.513 20.0107C259.558 20.0107 260.638 21.6584 260.638 24.1016C260.638 26.5732 259.53 28.2777 257.513 28.2777Z" fill="#4E4E56"/>
</g>
<g opacity="0.4">
<rect x="295.871" width="136.129" height="44.4502" rx="22.2251" fill="#F4F4F7"/>
<path d="M324.258 29.5562C328.69 29.5562 331.19 26.8005 331.19 22.255C331.19 17.738 328.69 15.0107 324.457 15.0107H319.769V29.5562H324.258ZM321.531 27.9937V16.5732H324.343C327.752 16.5732 329.485 18.7323 329.485 22.255C329.485 25.8062 327.752 27.9937 324.144 27.9937H321.531ZM333.917 29.5562H335.593V18.6471H333.917V29.5562ZM334.769 16.8289C335.423 16.8289 335.962 16.3175 335.962 15.6925C335.962 15.0675 335.423 14.5562 334.769 14.5562C334.116 14.5562 333.576 15.0675 333.576 15.6925C333.576 16.3175 334.116 16.8289 334.769 16.8289ZM341.873 29.8118C343.777 29.8118 344.771 28.7891 345.112 28.0789H345.197V29.5562H346.873V22.3687C346.873 18.9027 344.231 18.505 342.839 18.505C341.191 18.505 339.316 19.0732 338.464 21.0618L340.055 21.63C340.424 20.8346 341.298 19.9823 342.896 19.9823C344.437 19.9823 345.197 20.799 345.197 22.1982V22.255C345.197 23.0647 344.373 22.9937 342.385 23.2493C340.36 23.5121 338.152 23.9596 338.152 26.4596C338.152 28.5902 339.799 29.8118 341.873 29.8118ZM342.129 28.3062C340.794 28.3062 339.828 27.7096 339.828 26.5448C339.828 25.2664 340.993 24.8687 342.299 24.6982C343.01 24.613 344.913 24.4141 345.197 24.0732V25.6073C345.197 26.9709 344.118 28.3062 342.129 28.3062ZM354.336 33.8743C356.95 33.8743 359.052 32.6812 359.052 29.8687V18.6471H357.433V20.38H357.262C356.893 19.8118 356.211 18.505 354.08 18.505C351.325 18.505 349.421 20.6925 349.421 24.0448C349.421 27.4539 351.41 29.3857 354.052 29.3857C356.183 29.3857 356.864 28.1357 357.234 27.5391H357.376V29.755C357.376 31.5732 356.097 32.3971 354.336 32.3971C352.354 32.3971 351.658 31.353 351.211 30.7493L349.876 31.6868C350.558 32.8303 351.9 33.8743 354.336 33.8743ZM354.279 27.88C352.177 27.88 351.097 26.2891 351.097 24.0164C351.097 21.8005 352.148 20.0107 354.279 20.0107C356.325 20.0107 357.404 21.6584 357.404 24.0164C357.404 26.4312 356.296 27.88 354.279 27.88ZM363.796 22.9937C363.796 21.0902 364.975 20.0107 366.58 20.0107C368.136 20.0107 369.08 21.0263 369.08 22.738V29.5562H370.756V22.6243C370.756 19.8402 369.272 18.505 367.063 18.505C365.415 18.505 364.393 19.2437 363.881 20.3516H363.739V18.6471H362.12V29.5562H363.796V22.9937ZM378.251 29.7834C381.206 29.7834 383.194 27.5391 383.194 24.1584C383.194 20.7493 381.206 18.505 378.251 18.505C375.297 18.505 373.308 20.7493 373.308 24.1584C373.308 27.5391 375.297 29.7834 378.251 29.7834ZM378.251 28.2777C376.007 28.2777 374.984 26.3459 374.984 24.1584C374.984 21.9709 376.007 20.0107 378.251 20.0107C380.495 20.0107 381.518 21.9709 381.518 24.1584C381.518 26.3459 380.495 28.2777 378.251 28.2777ZM393.48 21.0902C392.955 19.5419 391.776 18.505 389.616 18.505C387.315 18.505 385.611 19.8118 385.611 21.6584C385.611 23.1641 386.506 24.1726 388.509 24.6414L390.327 25.0675C391.428 25.3232 391.946 25.8488 391.946 26.6016C391.946 27.5391 390.952 28.3062 389.389 28.3062C388.018 28.3062 387.159 27.7167 386.861 26.5448L385.27 26.9425C385.661 28.7962 387.187 29.7834 389.418 29.7834C391.953 29.7834 393.679 28.3985 393.679 26.5164C393.679 24.9965 392.727 24.0377 390.781 23.5618L389.162 23.1641C387.869 22.8445 387.287 22.4113 387.287 21.5732C387.287 20.6357 388.281 19.9539 389.616 19.9539C391.08 19.9539 391.683 20.7635 391.974 21.5164L393.48 21.0902ZM396.202 29.5562H397.878V18.6471H396.202V29.5562ZM397.054 16.8289C397.708 16.8289 398.248 16.3175 398.248 15.6925C398.248 15.0675 397.708 14.5562 397.054 14.5562C396.401 14.5562 395.861 15.0675 395.861 15.6925C395.861 16.3175 396.401 16.8289 397.054 16.8289ZM408.675 21.0902C408.15 19.5419 406.971 18.505 404.812 18.505C402.511 18.505 400.806 19.8118 400.806 21.6584C400.806 23.1641 401.701 24.1726 403.704 24.6414L405.522 25.0675C406.623 25.3232 407.141 25.8488 407.141 26.6016C407.141 27.5391 406.147 28.3062 404.585 28.3062C403.214 28.3062 402.354 27.7167 402.056 26.5448L400.465 26.9425C400.856 28.7962 402.383 29.7834 404.613 29.7834C407.148 29.7834 408.874 28.3985 408.874 26.5164C408.874 24.9965 407.923 24.0377 405.977 23.5618L404.357 23.1641C403.065 22.8445 402.482 22.4113 402.482 21.5732C402.482 20.6357 403.477 19.9539 404.812 19.9539C406.275 19.9539 406.879 20.7635 407.17 21.5164L408.675 21.0902Z" fill="#4E4E56"/>
</g>
<rect x="146.353" y="111.625" width="147.63" height="43.4502" rx="21.7251" stroke="#E1E1EB"/>
<path d="M170.806 140.682L172.269 136.562H178.15L179.613 140.682H181.459L176.119 126.136H174.3L168.959 140.682H170.806ZM172.823 135L175.153 128.437H175.266L177.596 135H172.823ZM183.498 140.682H185.174V133.778C185.174 132.301 186.339 131.221 187.93 131.221C188.377 131.221 188.839 131.307 188.952 131.335V129.631C188.761 129.616 188.32 129.602 188.072 129.602C186.765 129.602 185.628 130.341 185.231 131.42H185.117V129.773H183.498V140.682ZM190.939 140.682H192.615V133.778C192.615 132.301 193.78 131.221 195.371 131.221C195.818 131.221 196.28 131.307 196.394 131.335V129.631C196.202 129.616 195.762 129.602 195.513 129.602C194.206 129.602 193.07 130.341 192.672 131.42H192.558V129.773H190.939V140.682ZM202.622 140.909C204.838 140.909 206.458 139.801 206.969 138.153L205.35 137.699C204.924 138.835 203.936 139.403 202.622 139.403C200.655 139.403 199.299 138.132 199.22 135.795H207.139V135.085C207.139 131.023 204.725 129.631 202.452 129.631C199.497 129.631 197.537 131.96 197.537 135.312C197.537 138.665 199.469 140.909 202.622 140.909ZM199.22 134.346C199.334 132.649 200.534 131.136 202.452 131.136C204.27 131.136 205.435 132.5 205.435 134.346H199.22ZM217.416 132.216C216.891 130.667 215.712 129.631 213.553 129.631C211.252 129.631 209.547 130.937 209.547 132.784C209.547 134.29 210.442 135.298 212.445 135.767L214.263 136.193C215.364 136.449 215.882 136.974 215.882 137.727C215.882 138.665 214.888 139.432 213.326 139.432C211.955 139.432 211.095 138.842 210.797 137.67L209.206 138.068C209.597 139.922 211.124 140.909 213.354 140.909C215.889 140.909 217.615 139.524 217.615 137.642C217.615 136.122 216.664 135.163 214.718 134.687L213.098 134.29C211.806 133.97 211.223 133.537 211.223 132.699C211.223 131.761 212.218 131.079 213.553 131.079C215.016 131.079 215.62 131.889 215.911 132.642L217.416 132.216ZM224.883 129.773H222.553V127.159H220.877V129.773H219.229V131.193H220.877V138.011C220.877 139.915 222.411 140.824 223.832 140.824C224.457 140.824 224.854 140.71 225.082 140.625L224.741 139.119C224.599 139.148 224.371 139.204 224.002 139.204C223.263 139.204 222.553 138.977 222.553 137.557V131.193H224.883V129.773ZM231.861 140.909C234.077 140.909 235.696 139.801 236.207 138.153L234.588 137.699C234.162 138.835 233.175 139.403 231.861 139.403C229.893 139.403 228.537 138.132 228.459 135.795H236.378V135.085C236.378 131.023 233.963 129.631 231.69 129.631C228.736 129.631 226.775 131.96 226.775 135.312C226.775 138.665 228.707 140.909 231.861 140.909ZM228.459 134.346C228.572 132.649 229.773 131.136 231.69 131.136C233.508 131.136 234.673 132.5 234.673 134.346H228.459ZM243.047 140.909C245.149 140.909 245.859 139.602 246.229 139.006H246.427V140.682H248.047V126.136H246.371V131.506H246.229C245.859 130.937 245.206 129.631 243.075 129.631C240.32 129.631 238.416 131.818 238.416 135.256C238.416 138.721 240.32 140.909 243.047 140.909ZM243.274 139.403C241.172 139.403 240.092 137.557 240.092 135.227C240.092 132.926 241.143 131.136 243.274 131.136C245.32 131.136 246.399 132.784 246.399 135.227C246.399 137.699 245.291 139.403 243.274 139.403ZM256.974 140.682H258.65V129.773H256.974V140.682ZM257.827 127.954C258.48 127.954 259.02 127.443 259.02 126.818C259.02 126.193 258.48 125.682 257.827 125.682C257.173 125.682 256.633 126.193 256.633 126.818C256.633 127.443 257.173 127.954 257.827 127.954ZM263.397 134.119C263.397 132.216 264.576 131.136 266.181 131.136C267.736 131.136 268.681 132.152 268.681 133.863V140.682H270.357V133.75C270.357 130.966 268.872 129.631 266.664 129.631C265.016 129.631 263.993 130.369 263.482 131.477H263.34V129.773H261.72V140.682H263.397V134.119Z" fill="#4E4E56"/>
<rect x="305.595" y="111.125" width="118.071" height="44.4502" rx="22.2251" fill="#F4F4F7"/>
<path d="M330.184 126.136H328.423V140.682H330.184V126.136ZM335.165 134.119C335.165 132.216 336.344 131.136 337.949 131.136C339.504 131.136 340.449 132.152 340.449 133.863V140.682H342.125V133.75C342.125 130.966 340.641 129.631 338.432 129.631C336.784 129.631 335.761 130.369 335.25 131.477H335.108V129.773H333.489V140.682H335.165V134.119ZM349.62 140.909C352.034 140.909 353.625 139.432 353.909 137.5H352.233C351.921 138.693 350.926 139.403 349.62 139.403C347.631 139.403 346.353 137.756 346.353 135.227C346.353 132.756 347.659 131.136 349.62 131.136C351.097 131.136 351.978 132.045 352.233 133.04H353.909C353.625 130.994 351.892 129.631 349.591 129.631C346.637 129.631 344.676 131.96 344.676 135.284C344.676 138.551 346.551 140.909 349.62 140.909ZM356.36 140.682H358.036V129.773H356.36V140.682ZM357.212 127.954C357.865 127.954 358.405 127.443 358.405 126.818C358.405 126.193 357.865 125.682 357.212 125.682C356.558 125.682 356.019 126.193 356.019 126.818C356.019 127.443 356.558 127.954 357.212 127.954ZM365.225 140.909C367.327 140.909 368.038 139.602 368.407 139.006H368.606V140.682H370.225V126.136H368.549V131.506H368.407C368.038 130.937 367.384 129.631 365.253 129.631C362.498 129.631 360.594 131.818 360.594 135.256C360.594 138.721 362.498 140.909 365.225 140.909ZM365.452 139.403C363.35 139.403 362.27 137.557 362.27 135.227C362.27 132.926 363.322 131.136 365.452 131.136C367.498 131.136 368.577 132.784 368.577 135.227C368.577 137.699 367.469 139.403 365.452 139.403ZM378.101 140.909C380.317 140.909 381.937 139.801 382.448 138.153L380.829 137.699C380.403 138.835 379.415 139.403 378.101 139.403C376.134 139.403 374.778 138.132 374.699 135.795H382.619V135.085C382.619 131.023 380.204 129.631 377.931 129.631C374.976 129.631 373.016 131.96 373.016 135.312C373.016 138.665 374.948 140.909 378.101 140.909ZM374.699 134.346C374.813 132.649 376.013 131.136 377.931 131.136C379.749 131.136 380.914 132.5 380.914 134.346H374.699ZM386.844 134.119C386.844 132.216 388.023 131.136 389.628 131.136C391.184 131.136 392.128 132.152 392.128 133.863V140.682H393.805V133.75C393.805 130.966 392.32 129.631 390.111 129.631C388.464 129.631 387.441 130.369 386.93 131.477H386.788V129.773H385.168V140.682H386.844V134.119ZM401.612 129.773H399.282V127.159H397.606V129.773H395.958V131.193H397.606V138.011C397.606 139.915 399.14 140.824 400.561 140.824C401.186 140.824 401.583 140.71 401.811 140.625L401.47 139.119C401.328 139.148 401.1 139.204 400.731 139.204C399.992 139.204 399.282 138.977 399.282 137.557V131.193H401.612V129.773Z" fill="#4E4E56"/>
<g opacity="0.6">
<rect x="142.185" y="167.188" width="155.965" height="43.4502" rx="21.7251" stroke="#E1E1EB"/>
<path d="M166.9 196.244L168.363 192.125H174.244L175.707 196.244H177.553L172.212 181.699H170.394L165.053 196.244H166.9ZM168.917 190.562L171.247 184H171.36L173.69 190.562H168.917ZM183.711 196.471C185.813 196.471 186.524 195.165 186.893 194.568H187.092V196.244H188.711V181.699H187.035V187.068H186.893C186.524 186.5 185.87 185.193 183.739 185.193C180.984 185.193 179.08 187.381 179.08 190.818C179.08 194.284 180.984 196.471 183.711 196.471ZM183.938 194.966C181.836 194.966 180.757 193.119 180.757 190.79C180.757 188.488 181.808 186.699 183.938 186.699C185.984 186.699 187.063 188.346 187.063 190.79C187.063 193.261 185.955 194.966 183.938 194.966ZM192.014 196.244H193.69V189.426C193.69 187.828 194.855 186.699 196.161 186.699C197.433 186.699 198.32 187.53 198.32 188.773V196.244H200.025V189.142C200.025 187.736 200.906 186.699 202.44 186.699C203.633 186.699 204.656 187.331 204.656 188.943V196.244H206.332V188.943C206.332 186.379 204.954 185.193 203.008 185.193C201.445 185.193 200.302 185.91 199.741 187.04H199.627C199.087 185.875 198.136 185.193 196.701 185.193C195.281 185.193 194.23 185.875 193.775 187.04H193.633V185.335H192.014V196.244ZM209.396 196.244H211.073V185.335H209.396V196.244ZM210.249 183.517C210.902 183.517 211.442 183.006 211.442 182.381C211.442 181.756 210.902 181.244 210.249 181.244C209.595 181.244 209.056 181.756 209.056 182.381C209.056 183.006 209.595 183.517 210.249 183.517ZM218.887 185.335H216.557V182.721H214.881V185.335H213.233V186.756H214.881V193.574C214.881 195.477 216.415 196.386 217.836 196.386C218.461 196.386 218.858 196.273 219.086 196.187L218.745 194.682C218.603 194.71 218.375 194.767 218.006 194.767C217.268 194.767 216.557 194.54 216.557 193.119V186.756H218.887V185.335ZM226.152 185.335H223.823V182.721H222.147V185.335H220.499V186.756H222.147V193.574C222.147 195.477 223.681 196.386 225.101 196.386C225.726 196.386 226.124 196.273 226.351 196.187L226.01 194.682C225.868 194.71 225.641 194.767 225.272 194.767C224.533 194.767 223.823 194.54 223.823 193.119V186.756H226.152V185.335ZM233.13 196.471C235.346 196.471 236.966 195.363 237.477 193.716L235.858 193.261C235.432 194.398 234.444 194.966 233.13 194.966C231.163 194.966 229.807 193.694 229.728 191.358H237.647V190.648C237.647 186.585 235.233 185.193 232.96 185.193C230.005 185.193 228.045 187.523 228.045 190.875C228.045 194.227 229.977 196.471 233.13 196.471ZM229.728 189.909C229.842 188.211 231.042 186.699 232.96 186.699C234.778 186.699 235.943 188.062 235.943 189.909H229.728ZM244.317 196.471C246.419 196.471 247.129 195.165 247.498 194.568H247.697V196.244H249.317V181.699H247.64V187.068H247.498C247.129 186.5 246.476 185.193 244.345 185.193C241.589 185.193 239.686 187.381 239.686 190.818C239.686 194.284 241.589 196.471 244.317 196.471ZM244.544 194.966C242.442 194.966 241.362 193.119 241.362 190.79C241.362 188.488 242.413 186.699 244.544 186.699C246.589 186.699 247.669 188.346 247.669 190.79C247.669 193.261 246.561 194.966 244.544 194.966ZM262.988 185.335H260.659V182.721H258.983V185.335H257.335V186.756H258.983V193.574C258.983 195.477 260.517 196.386 261.937 196.386C262.562 196.386 262.96 196.273 263.187 196.187L262.846 194.682C262.704 194.71 262.477 194.767 262.108 194.767C261.369 194.767 260.659 194.54 260.659 193.119V186.756H262.988V185.335ZM269.824 196.471C272.779 196.471 274.768 194.227 274.768 190.846C274.768 187.437 272.779 185.193 269.824 185.193C266.87 185.193 264.881 187.437 264.881 190.846C264.881 194.227 266.87 196.471 269.824 196.471ZM269.824 194.966C267.58 194.966 266.557 193.034 266.557 190.846C266.557 188.659 267.58 186.699 269.824 186.699C272.069 186.699 273.091 188.659 273.091 190.846C273.091 193.034 272.069 194.966 269.824 194.966Z" fill="#4E4E56"/>
</g>
<g opacity="0.6">
<rect x="315.318" y="166.688" width="100.013" height="44.4502" rx="22.2251" fill="#F4F4F7"/>
<path d="M337.174 196.244H338.936V190.562H342.117C342.245 190.562 342.366 190.562 342.487 190.555L345.555 196.244H347.6L344.312 190.236C346.166 189.604 347.032 188.091 347.032 186.159C347.032 183.588 345.498 181.699 342.089 181.699H337.174V196.244ZM338.936 188.971V183.261H342.032C344.39 183.261 345.299 184.412 345.299 186.159C345.299 187.906 344.39 188.971 342.061 188.971H338.936ZM354.197 196.471C356.412 196.471 358.032 195.363 358.543 193.716L356.924 193.261C356.498 194.398 355.51 194.966 354.197 194.966C352.229 194.966 350.873 193.694 350.795 191.358H358.714V190.648C358.714 186.585 356.299 185.193 354.026 185.193C351.072 185.193 349.111 187.523 349.111 190.875C349.111 194.227 351.043 196.471 354.197 196.471ZM350.795 189.909C350.908 188.211 352.108 186.699 354.026 186.699C355.844 186.699 357.009 188.062 357.009 189.909H350.795ZM362.939 189.682C362.939 187.778 364.154 186.699 365.809 186.699C367.385 186.699 368.337 187.693 368.337 189.426V196.244H370.013V189.312C370.013 186.507 368.522 185.193 366.292 185.193C364.573 185.193 363.593 185.91 363.081 187.04H362.939V181.699H361.263V196.244H362.939V189.682ZM376.29 196.5C378.193 196.5 379.188 195.477 379.529 194.767H379.614V196.244H381.29V189.057C381.29 185.591 378.648 185.193 377.256 185.193C375.608 185.193 373.733 185.761 372.881 187.75L374.472 188.318C374.841 187.523 375.715 186.67 377.313 186.67C378.854 186.67 379.614 187.487 379.614 188.886V188.943C379.614 189.753 378.79 189.682 376.801 189.937C374.777 190.2 372.568 190.648 372.568 193.148C372.568 195.278 374.216 196.5 376.29 196.5ZM376.546 194.994C375.21 194.994 374.244 194.398 374.244 193.233C374.244 191.954 375.409 191.557 376.716 191.386C377.426 191.301 379.33 191.102 379.614 190.761V192.295C379.614 193.659 378.534 194.994 376.546 194.994ZM384.577 196.244H386.196V194.568H386.395C386.764 195.165 387.474 196.471 389.577 196.471C392.304 196.471 394.207 194.284 394.207 190.818C394.207 187.381 392.304 185.193 389.548 185.193C387.417 185.193 386.764 186.5 386.395 187.068H386.253V181.699H384.577V196.244ZM386.224 190.79C386.224 188.346 387.304 186.699 389.349 186.699C391.48 186.699 392.531 188.488 392.531 190.79C392.531 193.119 391.452 194.966 389.349 194.966C387.332 194.966 386.224 193.261 386.224 190.79Z" fill="#4E4E56"/>
</g>
<g opacity="0.4">
<rect x="151.908" y="222.751" width="136.518" height="43.4502" rx="21.7251" stroke="#E1E1EB"/>
<path d="M175.21 251.807H180.465C183.903 251.807 185.323 250.131 185.323 247.943C185.323 245.642 183.733 244.392 182.397 244.307V244.165C183.647 243.824 184.755 243 184.755 241.125C184.755 238.995 183.335 237.262 180.295 237.262H175.21V251.807ZM176.971 250.245V245.188H180.551C182.454 245.188 183.647 246.466 183.647 247.943C183.647 249.222 182.767 250.245 180.465 250.245H176.971ZM176.971 243.654V238.824H180.295C182.227 238.824 183.079 239.847 183.079 241.125C183.079 242.659 181.829 243.654 180.238 243.654H176.971ZM192.422 252.034C195.377 252.034 197.365 249.79 197.365 246.409C197.365 243 195.377 240.756 192.422 240.756C189.468 240.756 187.479 243 187.479 246.409C187.479 249.79 189.468 252.034 192.422 252.034ZM192.422 250.529C190.178 250.529 189.155 248.597 189.155 246.409C189.155 244.222 190.178 242.262 192.422 242.262C194.666 242.262 195.689 244.222 195.689 246.409C195.689 248.597 194.666 250.529 192.422 250.529ZM204.356 252.034C207.31 252.034 209.299 249.79 209.299 246.409C209.299 243 207.31 240.756 204.356 240.756C201.401 240.756 199.413 243 199.413 246.409C199.413 249.79 201.401 252.034 204.356 252.034ZM204.356 250.529C202.111 250.529 201.089 248.597 201.089 246.409C201.089 244.222 202.111 242.262 204.356 242.262C206.6 242.262 207.623 244.222 207.623 246.409C207.623 248.597 206.6 250.529 204.356 250.529ZM211.858 251.807H213.534V247.723L214.706 246.637L218.789 251.807H220.92L215.97 245.557L220.579 240.898H218.505L213.733 245.756H213.534V237.262H211.858V251.807ZM226.861 252.034C229.077 252.034 230.696 250.926 231.208 249.279L229.588 248.824C229.162 249.961 228.175 250.529 226.861 250.529C224.894 250.529 223.537 249.257 223.459 246.921H231.378V246.211C231.378 242.148 228.963 240.756 226.691 240.756C223.736 240.756 221.776 243.086 221.776 246.438C221.776 249.79 223.708 252.034 226.861 252.034ZM223.459 245.472C223.573 243.774 224.773 242.262 226.691 242.262C228.509 242.262 229.674 243.625 229.674 245.472H223.459ZM238.047 252.034C240.149 252.034 240.86 250.728 241.229 250.131H241.428V251.807H243.047V237.262H241.371V242.631H241.229C240.86 242.063 240.206 240.756 238.076 240.756C235.32 240.756 233.416 242.943 233.416 246.381C233.416 249.847 235.32 252.034 238.047 252.034ZM238.274 250.529C236.172 250.529 235.093 248.682 235.093 246.353C235.093 244.051 236.144 242.262 238.274 242.262C240.32 242.262 241.399 243.909 241.399 246.353C241.399 248.824 240.291 250.529 238.274 250.529ZM251.975 251.807H253.651V240.898H251.975V251.807ZM252.827 239.08C253.48 239.08 254.02 238.568 254.02 237.943C254.02 237.318 253.48 236.807 252.827 236.807C252.174 236.807 251.634 237.318 251.634 237.943C251.634 238.568 252.174 239.08 252.827 239.08ZM258.397 245.245C258.397 243.341 259.576 242.262 261.181 242.262C262.736 242.262 263.681 243.277 263.681 244.989V251.807H265.357V244.875C265.357 242.091 263.873 240.756 261.664 240.756C260.016 240.756 258.994 241.495 258.482 242.603H258.34V240.898H256.721V251.807H258.397V245.245Z" fill="#4E4E56"/>
</g>
<g opacity="0.4">
<rect x="309.762" y="222.251" width="108.347" height="44.4502" rx="22.2251" fill="#F4F4F7"/>
<path d="M332.28 251.807H334.041V245.301H340.348V243.739H334.041V238.824H341.001V237.262H332.28V251.807ZM347.001 252.063C348.905 252.063 349.899 251.04 350.24 250.33H350.325V251.807H352.001V244.62C352.001 241.154 349.359 240.756 347.967 240.756C346.319 240.756 344.444 241.324 343.592 243.313L345.183 243.881C345.552 243.086 346.426 242.233 348.024 242.233C349.565 242.233 350.325 243.05 350.325 244.449V244.506C350.325 245.316 349.501 245.245 347.512 245.5C345.488 245.763 343.28 246.211 343.28 248.711C343.28 250.841 344.927 252.063 347.001 252.063ZM347.257 250.557C345.922 250.557 344.956 249.961 344.956 248.796C344.956 247.517 346.12 247.12 347.427 246.949C348.137 246.864 350.041 246.665 350.325 246.324V247.858C350.325 249.222 349.245 250.557 347.257 250.557ZM359.492 252.034C361.907 252.034 363.498 250.557 363.782 248.625H362.106C361.793 249.818 360.799 250.529 359.492 250.529C357.504 250.529 356.225 248.881 356.225 246.353C356.225 243.881 357.532 242.262 359.492 242.262C360.969 242.262 361.85 243.171 362.106 244.165H363.782C363.498 242.12 361.765 240.756 359.464 240.756C356.509 240.756 354.549 243.086 354.549 246.409C354.549 249.676 356.424 252.034 359.492 252.034ZM366.232 251.807H367.908V240.898H366.232V251.807ZM367.085 239.08C367.738 239.08 368.278 238.568 368.278 237.943C368.278 237.318 367.738 236.807 367.085 236.807C366.431 236.807 365.891 237.318 365.891 237.943C365.891 238.568 366.431 239.08 367.085 239.08ZM372.655 237.262H370.978V251.807H372.655V237.262ZM375.724 251.807H377.401V240.898H375.724V251.807ZM376.577 239.08C377.23 239.08 377.77 238.568 377.77 237.943C377.77 237.318 377.23 236.807 376.577 236.807C375.923 236.807 375.384 237.318 375.384 237.943C375.384 238.568 375.923 239.08 376.577 239.08ZM385.215 240.898H382.885V238.284H381.209V240.898H379.561V242.318H381.209V249.137C381.209 251.04 382.743 251.949 384.164 251.949C384.789 251.949 385.186 251.836 385.414 251.75L385.073 250.245C384.931 250.273 384.704 250.33 384.334 250.33C383.596 250.33 382.885 250.103 382.885 248.682V242.318H385.215V240.898ZM388.816 255.87C390.329 255.87 391.401 255.067 392.026 253.398L396.671 240.926L394.838 240.898L391.827 249.591H391.713L388.702 240.898H386.884L390.918 251.864L390.605 252.716C390.009 254.35 389.242 254.506 388.02 254.193L387.594 255.671C387.765 255.756 388.248 255.87 388.816 255.87Z" fill="#4E4E56"/>
</g>
</svg>
