<svg width="432" height="282" viewBox="0 0 432 282" fill="none" xmlns="http://www.w3.org/2000/svg">
<path d="M67.7721 270.945C69.3232 270.945 70.4567 270.169 70.8147 269.016L69.6812 268.698C69.3829 269.493 68.6918 269.891 67.7721 269.891C66.395 269.891 65.4454 269.001 65.3907 267.365H70.934V266.868C70.934 264.024 69.2437 263.05 67.6528 263.05C65.5846 263.05 64.2124 264.681 64.2124 267.027C64.2124 269.374 65.5647 270.945 67.7721 270.945ZM65.3907 266.351C65.4702 265.163 66.3104 264.104 67.6528 264.104C68.9255 264.104 69.7408 265.058 69.7408 266.351H65.3907ZM73.5739 270.865C74.0661 270.865 74.4688 270.462 74.4688 269.97C74.4688 269.478 74.0661 269.075 73.5739 269.075C73.0817 269.075 72.679 269.478 72.679 269.97C72.679 270.462 73.0817 270.865 73.5739 270.865ZM79.6567 273.808C81.4862 273.808 82.9578 272.973 82.9578 271.004V263.149H81.8243V264.362H81.705C81.4465 263.965 80.9692 263.05 79.4777 263.05C77.5487 263.05 76.2163 264.581 76.2163 266.928C76.2163 269.314 77.6084 270.666 79.4578 270.666C80.9493 270.666 81.4266 269.791 81.6851 269.374H81.7845V270.925C81.7845 272.198 80.8896 272.774 79.6567 272.774C78.2696 272.774 77.7824 272.043 77.4692 271.621L76.5345 272.277C77.0118 273.078 77.9514 273.808 79.6567 273.808ZM79.6169 269.612C78.1453 269.612 77.3896 268.499 77.3896 266.908C77.3896 265.357 78.1254 264.104 79.6169 264.104C81.0487 264.104 81.8044 265.257 81.8044 266.908C81.8044 268.598 81.0288 269.612 79.6169 269.612ZM85.9607 270.865C86.4528 270.865 86.8555 270.462 86.8555 269.97C86.8555 269.478 86.4528 269.075 85.9607 269.075C85.4685 269.075 85.0658 269.478 85.0658 269.97C85.0658 270.462 85.4685 270.865 85.9607 270.865ZM101.131 260.604H99.9184V268.618H99.819L94.2508 260.604H93.0576V270.786H94.2906V262.791H94.39L99.9383 270.786H101.131V260.604ZM105.687 270.965C107.019 270.965 107.715 270.249 107.954 269.752H108.013V270.786H109.187V265.754C109.187 263.328 107.337 263.05 106.363 263.05C105.209 263.05 103.897 263.448 103.3 264.84L104.414 265.237C104.672 264.681 105.284 264.084 106.403 264.084C107.481 264.084 108.013 264.656 108.013 265.635V265.675C108.013 266.242 107.437 266.192 106.045 266.371C104.628 266.555 103.082 266.868 103.082 268.618C103.082 270.11 104.235 270.965 105.687 270.965ZM105.866 269.911C104.931 269.911 104.255 269.493 104.255 268.678C104.255 267.783 105.07 267.504 105.985 267.385C106.482 267.325 107.815 267.186 108.013 266.948V268.021C108.013 268.976 107.258 269.911 105.866 269.911ZM114.649 263.149H113.019V261.32H111.845V263.149H110.692V264.144H111.845V268.916C111.845 270.249 112.919 270.885 113.913 270.885C114.351 270.885 114.629 270.806 114.788 270.746L114.55 269.692C114.45 269.712 114.291 269.752 114.033 269.752C113.516 269.752 113.019 269.592 113.019 268.598V264.144H114.649V263.149ZM116.414 270.786H117.587V263.149H116.414V270.786ZM117.011 261.877C117.468 261.877 117.846 261.519 117.846 261.081C117.846 260.644 117.468 260.286 117.011 260.286C116.553 260.286 116.175 260.644 116.175 261.081C116.175 261.519 116.553 261.877 117.011 261.877ZM122.839 270.945C124.907 270.945 126.299 269.374 126.299 267.007C126.299 264.621 124.907 263.05 122.839 263.05C120.77 263.05 119.378 264.621 119.378 267.007C119.378 269.374 120.77 270.945 122.839 270.945ZM122.839 269.891C121.268 269.891 120.552 268.538 120.552 267.007C120.552 265.476 121.268 264.104 122.839 264.104C124.41 264.104 125.126 265.476 125.126 267.007C125.126 268.538 124.41 269.891 122.839 269.891ZM129.263 266.192C129.263 264.86 130.088 264.104 131.212 264.104C132.301 264.104 132.962 264.815 132.962 266.013V270.786H134.135V265.933C134.135 263.985 133.096 263.05 131.55 263.05C130.397 263.05 129.681 263.567 129.323 264.342H129.223V263.149H128.09V270.786H129.263V266.192ZM138.527 270.965C139.859 270.965 140.555 270.249 140.794 269.752H140.853V270.786H142.027V265.754C142.027 263.328 140.177 263.05 139.203 263.05C138.049 263.05 136.737 263.448 136.14 264.84L137.254 265.237C137.512 264.681 138.124 264.084 139.242 264.084C140.321 264.084 140.853 264.656 140.853 265.635V265.675C140.853 266.242 140.277 266.192 138.884 266.371C137.468 266.555 135.921 266.868 135.921 268.618C135.921 270.11 137.075 270.965 138.527 270.965ZM138.706 269.911C137.771 269.911 137.095 269.493 137.095 268.678C137.095 267.783 137.91 267.504 138.825 267.385C139.322 267.325 140.654 267.186 140.853 266.948V268.021C140.853 268.976 140.098 269.911 138.706 269.911ZM145.341 260.604H144.168V270.786H145.341V260.604ZM154.53 270.945C156.598 270.945 157.99 269.374 157.99 267.007C157.99 264.621 156.598 263.05 154.53 263.05C152.462 263.05 151.07 264.621 151.07 267.007C151.07 269.374 152.462 270.945 154.53 270.945ZM154.53 269.891C152.959 269.891 152.243 268.538 152.243 267.007C152.243 265.476 152.959 264.104 154.53 264.104C156.101 264.104 156.817 265.476 156.817 267.007C156.817 268.538 156.101 269.891 154.53 269.891ZM165.752 263.149H164.479L162.372 269.235H162.292L160.184 263.149H158.911L161.735 270.786H162.928L165.752 263.149ZM170.229 270.945C171.78 270.945 172.914 270.169 173.272 269.016L172.138 268.698C171.84 269.493 171.149 269.891 170.229 269.891C168.852 269.891 167.902 269.001 167.848 267.365H173.391V266.868C173.391 264.024 171.701 263.05 170.11 263.05C168.042 263.05 166.669 264.681 166.669 267.027C166.669 269.374 168.022 270.945 170.229 270.945ZM167.848 266.351C167.927 265.163 168.767 264.104 170.11 264.104C171.383 264.104 172.198 265.058 172.198 266.351H167.848ZM175.176 270.786H176.349V265.953C176.349 264.919 177.164 264.163 178.278 264.163C178.591 264.163 178.914 264.223 178.994 264.243V263.05C178.86 263.04 178.552 263.03 178.378 263.03C177.463 263.03 176.667 263.547 176.389 264.303H176.309V263.149H175.176V270.786ZM183.036 270.945C184.508 270.945 185.005 270.03 185.263 269.612H185.402V270.786H186.536V260.604H185.363V264.362H185.263C185.005 263.965 184.547 263.05 183.056 263.05C181.127 263.05 179.794 264.581 179.794 266.987C179.794 269.413 181.127 270.945 183.036 270.945ZM183.195 269.891C181.723 269.891 180.968 268.598 180.968 266.967C180.968 265.357 181.704 264.104 183.195 264.104C184.627 264.104 185.383 265.257 185.383 266.967C185.383 268.698 184.607 269.891 183.195 269.891ZM191.95 270.945C194.018 270.945 195.41 269.374 195.41 267.007C195.41 264.621 194.018 263.05 191.95 263.05C189.882 263.05 188.49 264.621 188.49 267.007C188.49 269.374 189.882 270.945 191.95 270.945ZM191.95 269.891C190.379 269.891 189.663 268.538 189.663 267.007C189.663 265.476 190.379 264.104 191.95 264.104C193.521 264.104 194.237 265.476 194.237 267.007C194.237 268.538 193.521 269.891 191.95 269.891ZM202.61 264.86C202.242 263.776 201.417 263.05 199.906 263.05C198.295 263.05 197.102 263.965 197.102 265.257C197.102 266.311 197.728 267.017 199.13 267.345L200.403 267.644C201.174 267.823 201.536 268.19 201.536 268.717C201.536 269.374 200.84 269.911 199.747 269.911C198.787 269.911 198.186 269.498 197.977 268.678L196.863 268.956C197.137 270.254 198.206 270.945 199.767 270.945C201.541 270.945 202.75 269.975 202.75 268.658C202.75 267.594 202.083 266.923 200.721 266.59L199.588 266.311C198.683 266.087 198.275 265.784 198.275 265.198C198.275 264.541 198.971 264.064 199.906 264.064C200.93 264.064 201.353 264.631 201.556 265.158L202.61 264.86ZM207.717 270.945C209.269 270.945 210.402 270.169 210.76 269.016L209.626 268.698C209.328 269.493 208.637 269.891 207.717 269.891C206.34 269.891 205.391 269.001 205.336 267.365H210.879V266.868C210.879 264.024 209.189 263.05 207.598 263.05C205.53 263.05 204.158 264.681 204.158 267.027C204.158 269.374 205.51 270.945 207.717 270.945ZM205.336 266.351C205.416 265.163 206.256 264.104 207.598 264.104C208.871 264.104 209.686 265.058 209.686 266.351H205.336ZM219.485 270.945C220.957 270.945 221.454 270.03 221.712 269.612H221.852V270.786H222.985V260.604H221.812V264.362H221.712C221.454 263.965 220.997 263.05 219.505 263.05C217.576 263.05 216.244 264.581 216.244 266.987C216.244 269.413 217.576 270.945 219.485 270.945ZM219.644 269.891C218.173 269.891 217.417 268.598 217.417 266.967C217.417 265.357 218.153 264.104 219.644 264.104C221.076 264.104 221.832 265.257 221.832 266.967C221.832 268.698 221.056 269.891 219.644 269.891ZM228.499 270.945C230.05 270.945 231.183 270.169 231.541 269.016L230.408 268.698C230.109 269.493 229.418 269.891 228.499 269.891C227.122 269.891 226.172 269.001 226.117 267.365H231.661V266.868C231.661 264.024 229.97 263.05 228.379 263.05C226.311 263.05 224.939 264.681 224.939 267.027C224.939 269.374 226.291 270.945 228.499 270.945ZM226.117 266.351C226.197 265.163 227.037 264.104 228.379 264.104C229.652 264.104 230.467 265.058 230.467 266.351H226.117ZM235.693 270.965C237.025 270.965 237.721 270.249 237.96 269.752H238.019V270.786H239.193V265.754C239.193 263.328 237.343 263.05 236.369 263.05C235.215 263.05 233.903 263.448 233.306 264.84L234.42 265.237C234.678 264.681 235.29 264.084 236.408 264.084C237.487 264.084 238.019 264.656 238.019 265.635V265.675C238.019 266.242 237.443 266.192 236.05 266.371C234.634 266.555 233.087 266.868 233.087 268.618C233.087 270.11 234.241 270.965 235.693 270.965ZM235.872 269.911C234.937 269.911 234.261 269.493 234.261 268.678C234.261 267.783 235.076 267.504 235.991 267.385C236.488 267.325 237.82 267.186 238.019 266.948V268.021C238.019 268.976 237.264 269.911 235.872 269.911ZM244.655 263.149H243.024V261.32H241.851V263.149H240.698V264.144H241.851V268.916C241.851 270.249 242.925 270.885 243.919 270.885C244.357 270.885 244.635 270.806 244.794 270.746L244.556 269.692C244.456 269.712 244.297 269.752 244.039 269.752C243.522 269.752 243.024 269.592 243.024 268.598V264.144H244.655V263.149ZM247.757 266.192C247.757 264.86 248.607 264.104 249.766 264.104C250.87 264.104 251.536 264.8 251.536 266.013V270.786H252.709V265.933C252.709 263.97 251.665 263.05 250.104 263.05C248.901 263.05 248.215 263.552 247.857 264.342H247.757V260.604H246.584V270.786H247.757V266.192ZM260.265 264.86C259.897 263.776 259.071 263.05 257.56 263.05C255.949 263.05 254.756 263.965 254.756 265.257C254.756 266.311 255.383 267.017 256.785 267.345L258.057 267.644C258.828 267.823 259.191 268.19 259.191 268.717C259.191 269.374 258.495 269.911 257.401 269.911C256.441 269.911 255.84 269.498 255.631 268.678L254.517 268.956C254.791 270.254 255.86 270.945 257.421 270.945C259.196 270.945 260.404 269.975 260.404 268.658C260.404 267.594 259.738 266.923 258.375 266.59L257.242 266.311C256.337 266.087 255.929 265.784 255.929 265.198C255.929 264.541 256.625 264.064 257.56 264.064C258.584 264.064 259.007 264.631 259.211 265.158L260.265 264.86ZM266.107 270.786H267.281V263.149H266.107V270.786ZM266.704 261.877C267.161 261.877 267.539 261.519 267.539 261.081C267.539 260.644 267.161 260.286 266.704 260.286C266.247 260.286 265.869 260.644 265.869 261.081C265.869 261.519 266.247 261.877 266.704 261.877ZM270.603 266.192C270.603 264.86 271.428 264.104 272.552 264.104C273.641 264.104 274.302 264.815 274.302 266.013V270.786H275.475V265.933C275.475 263.985 274.436 263.05 272.89 263.05C271.737 263.05 271.021 263.567 270.663 264.342H270.563V263.149H269.43V270.786H270.603V266.192ZM283.59 263.149H282.317L280.209 269.235H280.13L278.022 263.149H276.749L279.573 270.786H280.766L283.59 263.149ZM287.968 270.945C290.036 270.945 291.428 269.374 291.428 267.007C291.428 264.621 290.036 263.05 287.968 263.05C285.899 263.05 284.507 264.621 284.507 267.007C284.507 269.374 285.899 270.945 287.968 270.945ZM287.968 269.891C286.397 269.891 285.681 268.538 285.681 267.007C285.681 265.476 286.397 264.104 287.968 264.104C289.539 264.104 290.255 265.476 290.255 267.007C290.255 268.538 289.539 269.891 287.968 269.891ZM294.392 260.604H293.219V270.786H294.392V260.604ZM302.785 263.149H301.513L299.405 269.235H299.325L297.217 263.149H295.944L298.768 270.786H299.962L302.785 263.149ZM304.334 270.786H305.507V263.149H304.334V270.786ZM304.931 261.877C305.388 261.877 305.766 261.519 305.766 261.081C305.766 260.644 305.388 260.286 304.931 260.286C304.473 260.286 304.095 260.644 304.095 261.081C304.095 261.519 304.473 261.877 304.931 261.877ZM308.83 266.192C308.83 264.86 309.655 264.104 310.778 264.104C311.867 264.104 312.528 264.815 312.528 266.013V270.786H313.702V265.933C313.702 263.985 312.663 263.05 311.117 263.05C309.963 263.05 309.247 263.567 308.889 264.342H308.79V263.149H307.656V270.786H308.83V266.192ZM318.928 273.808C320.758 273.808 322.229 272.973 322.229 271.004V263.149H321.096V264.362H320.976C320.718 263.965 320.241 263.05 318.749 263.05C316.82 263.05 315.488 264.581 315.488 266.928C315.488 269.314 316.88 270.666 318.729 270.666C320.221 270.666 320.698 269.791 320.957 269.374H321.056V270.925C321.056 272.198 320.161 272.774 318.928 272.774C317.541 272.774 317.054 272.043 316.741 271.621L315.806 272.277C316.283 273.078 317.223 273.808 318.928 273.808ZM318.888 269.612C317.417 269.612 316.661 268.499 316.661 266.908C316.661 265.357 317.397 264.104 318.888 264.104C320.32 264.104 321.076 265.257 321.076 266.908C321.076 268.598 320.3 269.612 318.888 269.612ZM329.488 266.192C329.488 264.86 330.338 264.104 331.496 264.104C332.6 264.104 333.266 264.8 333.266 266.013V270.786H334.44V265.933C334.44 263.97 333.395 263.05 331.834 263.05C330.631 263.05 329.945 263.552 329.587 264.342H329.488V260.604H328.315V270.786H329.488V266.192ZM339.788 270.945C341.339 270.945 342.472 270.169 342.83 269.016L341.697 268.698C341.399 269.493 340.707 269.891 339.788 269.891C338.411 269.891 337.461 269.001 337.406 267.365H342.95V266.868C342.95 264.024 341.259 263.05 339.668 263.05C337.6 263.05 336.228 264.681 336.228 267.027C336.228 269.374 337.58 270.945 339.788 270.945ZM337.406 266.351C337.486 265.163 338.326 264.104 339.668 264.104C340.941 264.104 341.756 265.058 341.756 266.351H337.406ZM344.734 270.786H345.908V265.953C345.908 264.919 346.723 264.163 347.837 264.163C348.15 264.163 348.473 264.223 348.553 264.243V263.05C348.418 263.04 348.11 263.03 347.936 263.03C347.021 263.03 346.226 263.547 345.948 264.303H345.868V263.149H344.734V270.786ZM352.813 270.945C354.881 270.945 356.274 269.374 356.274 267.007C356.274 264.621 354.881 263.05 352.813 263.05C350.745 263.05 349.353 264.621 349.353 267.007C349.353 269.374 350.745 270.945 352.813 270.945ZM352.813 269.891C351.242 269.891 350.526 268.538 350.526 267.007C350.526 265.476 351.242 264.104 352.813 264.104C354.384 264.104 355.1 265.476 355.1 267.007C355.1 268.538 354.384 269.891 352.813 269.891ZM358.065 270.786H359.238V263.149H358.065V270.786ZM358.661 261.877C359.119 261.877 359.496 261.519 359.496 261.081C359.496 260.644 359.119 260.286 358.661 260.286C358.204 260.286 357.826 260.644 357.826 261.081C357.826 261.519 358.204 261.877 358.661 261.877ZM362.56 266.192C362.56 264.86 363.385 264.104 364.509 264.104C365.598 264.104 366.259 264.815 366.259 266.013V270.786H367.432V265.933C367.432 263.985 366.393 263.05 364.847 263.05C363.694 263.05 362.978 263.567 362.62 264.342H362.52V263.149H361.387V270.786H362.56V266.192Z" fill="#A1A1AA"/>
<rect y="236.929" width="432" height="1" fill="#E1E1EB"/>
<path d="M48 178.506L64.5 176.514L80 180L96.5 176.514L112 170.538H128.5L144.5 158.088L160.5 155.598L176.5 164.064L192 141.653L208.5 144.143L224.5 133.187H240L256.5 125.219L272.5 109.781L288 96.3347L304 98.3267L320.5 90.3586L336.5 87.3705H352.5L368.5 68.4462L384 55" stroke="#7860FF" stroke-width="3"/>
<path d="M357.722 23.8182H356.201V31.2955H356.107L350.926 23.8182H349.504V34H351.041V26.5327H351.135L356.31 34H357.722V23.8182ZM363.135 34.1541C364.801 34.1541 365.979 33.3338 366.317 32.0909L364.91 31.8374C364.642 32.5582 363.995 32.9261 363.15 32.9261C361.877 32.9261 361.022 32.1009 360.983 30.6293H366.411V30.1023C366.411 27.343 364.761 26.2642 363.031 26.2642C360.903 26.2642 359.501 27.8849 359.501 30.2315C359.501 32.603 360.883 34.1541 363.135 34.1541ZM360.987 29.5156C361.047 28.4318 361.833 27.4922 363.041 27.4922C364.194 27.4922 364.95 28.3473 364.955 29.5156H360.987ZM370.283 34.169C371.546 34.169 372.257 33.5277 372.54 32.956H372.6V34H374.052V28.929C374.052 26.7067 372.302 26.2642 371.089 26.2642C369.706 26.2642 368.434 26.821 367.937 28.2131L369.334 28.5312C369.552 27.9893 370.109 27.4673 371.108 27.4673C372.068 27.4673 372.56 27.9695 372.56 28.8345V28.8693C372.56 29.4112 372.003 29.4013 370.631 29.5604C369.184 29.7294 367.703 30.1072 367.703 31.8423C367.703 33.3438 368.831 34.169 370.283 34.169ZM370.606 32.9759C369.766 32.9759 369.16 32.598 369.16 31.8622C369.16 31.0668 369.866 30.7834 370.726 30.669C371.208 30.6044 372.351 30.4751 372.565 30.2614V31.2457C372.565 32.1506 371.844 32.9759 370.606 32.9759ZM376.032 34H377.518V29.3366C377.518 28.3374 378.289 27.6165 379.343 27.6165C379.651 27.6165 379.999 27.6712 380.118 27.706V26.2841C379.969 26.2642 379.676 26.2493 379.487 26.2493C378.592 26.2493 377.826 26.7564 377.548 27.5767H377.468V26.3636H376.032V34ZM382.891 23.8182H381.405V34H382.891V23.8182ZM385.831 36.8438C387.059 36.8438 387.839 36.2024 388.277 35.0192L391.434 26.3786L389.828 26.3636L387.894 32.2898H387.814L385.88 26.3636H384.289L387.083 34.0994L386.899 34.6065C386.522 35.5959 385.99 35.6854 385.174 35.4616L384.816 36.6797C384.995 36.7642 385.383 36.8438 385.831 36.8438ZM400.382 23.8182H398.886L396.345 25.4787V26.9503L398.782 25.3594H398.841V34H400.382V23.8182ZM402.923 32.0114H407.75V34H409.217V32.0114H410.564V30.7088H409.217V23.8182H407.323L402.923 30.7685V32.0114ZM407.76 30.7088H404.534V30.6293L407.681 25.6477H407.76V30.7088ZM412.436 34H413.972V30.8331L415.175 29.451L418.467 34H420.316L416.195 28.402L420.301 23.8182H418.367L414.097 28.6804H413.972V23.8182H412.436V34Z" fill="#7860FF"/>
<path d="M371.081 13H376.587V12.0625H372.53V11.9943L374.49 9.89773C375.99 8.29119 376.433 7.54119 376.433 6.57386C376.433 5.22727 375.343 4.15341 373.808 4.15341C372.279 4.15341 371.115 5.19318 371.115 6.72727H372.121C372.121 5.73438 372.764 5.07386 373.774 5.07386C374.72 5.07386 375.445 5.65341 375.445 6.57386C375.445 7.37926 374.972 7.97585 373.962 9.07955L371.081 12.233V13ZM381.193 13.1193C383.119 13.1193 384.227 11.4872 384.227 8.63636C384.227 5.80682 383.102 4.15341 381.193 4.15341C379.284 4.15341 378.159 5.80682 378.159 8.63636C378.159 11.4872 379.267 13.1193 381.193 13.1193ZM381.193 12.1818C379.923 12.1818 379.182 10.9077 379.182 8.63636C379.182 6.36932 379.932 5.07386 381.193 5.07386C382.455 5.07386 383.205 6.36932 383.205 8.63636C383.205 10.9077 382.463 12.1818 381.193 12.1818ZM388.915 4.27273H387.858L385.676 5.72159V6.79545L387.807 5.38068H387.858V13H388.915V4.27273ZM394.152 13.1193C395.814 13.1193 397.033 11.892 397.033 10.2216C397.033 8.52983 395.857 7.28977 394.254 7.28977C393.666 7.28977 393.095 7.49858 392.737 7.78409H392.686L392.993 5.21023H396.641V4.27273H392.107L391.578 8.56818L392.567 8.6875C392.929 8.42756 393.547 8.24006 394.084 8.24432C395.196 8.25284 396.01 9.09659 396.01 10.2386C396.01 11.3594 395.226 12.1818 394.152 12.1818C393.257 12.1818 392.546 11.6065 392.465 10.8182H391.442C391.506 12.1477 392.652 13.1193 394.152 13.1193Z" fill="#A1A1AA"/>
</svg>
