<svg id="Layer_1_copy" data-name="Layer 1 copy" xmlns="http://www.w3.org/2000/svg" viewBox="0 0 690.69 440.62"><defs><style>.cls-1{fill:#002d5d;}</style></defs><g id="BYU_Brigham_Youn_University_Navy" data-name="BYU Brigham Youn University – Navy"><path class="cls-1" d="M93,233.35c7.18,0,11.22,3.53,11.22,9.25v1.74c0,4.57-2.37,6.83-6.3,7.92v.18c4.22,1.1,6.65,3.7,6.65,8v2c0,6-4.16,9.43-11.11,9.43H75.87V233.35ZM83.91,249.6h7.58c3,0,4.68-1.44,4.68-4.1v-1.85c0-2.38-1.62-3.76-4.51-3.76H83.91Zm0,15.74h7.93c3,0,4.51-1.45,4.51-4v-1.91c0-2.61-1.62-4.11-4.8-4.11H83.91Z"/><path class="cls-1" d="M127.88,271.87h-8.27V233.35h16.77c8.1,0,12.38,4.16,12.38,10.76v2.95a10,10,0,0,1-6.94,9.89L150,271.87h-9l-7.58-14.05h-5.61Zm0-20.47h6.71c4.11,0,5.9-1.74,5.9-4.63v-2.2c0-2.95-1.68-4.63-5.78-4.63h-6.83Z"/><path class="cls-1" d="M172.31,233.35v38.52H164V233.35Z"/><path class="cls-1" d="M218.3,245.15v1.56h-8.15v-.81c0-3.93-2.09-6.42-6.48-6.42-4.92,0-7.64,3.47-7.64,8.91V257c0,5.43,2.89,8.91,7.46,8.91,4.28,0,7.18-2.78,7.18-7V257.3h-6.95v-5.73h15v20.3h-3.82L213.62,266c-1.91,3.47-5.27,6.65-11.52,6.65-8.56,0-14.46-5.95-14.46-15.61v-8.68c0-9.49,6.13-15.85,16-15.85C213.15,232.54,218.3,237.45,218.3,245.15Z"/><path class="cls-1" d="M242.72,233.35v15.33h13.65V233.35h8.33v38.52h-8.33V256H242.72v15.9h-8.33V233.35Z"/><path class="cls-1" d="M302.48,264.59H288.71l-2.26,7.28H278.3l12.78-38.75h9.43l12.79,38.75h-8.57Zm-11.8-6.37h9.83l-4.86-15.73h-.11Z"/><path class="cls-1" d="M338.64,233.35,347.43,260h.12l8.56-26.61h11.8v38.52H360.1v-29H360l-9.6,29H344l-9.66-29h-.12v29h-7.35V233.35Z"/><path class="cls-1" d="M409,233.35l7.93,16.43,7.92-16.43h8.79l-12.78,23.83v14.69h-8.33V257.18l-12.67-23.83Z"/><path class="cls-1" d="M474.3,248.85v7.52c0,10.76-6.3,16.37-16.19,16.37s-16.26-5.61-16.26-16.37v-7.52c0-10.76,6.31-16.37,16.26-16.37S474.3,238.09,474.3,248.85Zm-24.06-.23v8c0,6.25,2.83,9,7.87,9s7.81-2.78,7.81-9v-8c0-6.25-2.84-9-7.81-9S450.24,242.37,450.24,248.62Z"/><path class="cls-1" d="M497.33,233.35v24.76c0,4.8,2.43,7.4,6.83,7.4s6.82-2.6,6.82-7.4V233.35h7.92v24.41c0,9.49-5,15-15,15s-14.92-5.38-14.92-15V233.35Z"/><path class="cls-1" d="M543.15,233.35,558,258.05h.11l-.05-24.7h7.46v38.52h-8.16l-15-25h-.11l.11,25h-7.46V233.35Z"/><path class="cls-1" d="M611.24,245.15v1.56h-8.16v-.81c0-3.93-2.08-6.42-6.47-6.42-4.92,0-7.64,3.47-7.64,8.91V257c0,5.43,2.89,8.91,7.46,8.91,4.28,0,7.17-2.78,7.17-7V257.3h-6.94v-5.73h15v20.3h-3.82L606.55,266c-1.91,3.47-5.26,6.65-11.51,6.65-8.56,0-14.46-5.95-14.46-15.61v-8.68c0-9.49,6.13-15.85,16-15.85C606.09,232.54,611.24,237.45,611.24,245.15Z"/><path class="cls-1" d="M187.53,313.05v19.81c0,3.84,1.94,5.92,5.46,5.92s5.46-2.08,5.46-5.92V313.05h6.34v19.53c0,7.59-4,12-12,12s-11.94-4.3-11.94-12V313.05Z"/><path class="cls-1" d="M226,313.05l11.85,19.76H238l0-19.76h6v30.82h-6.53l-12-20h-.1l.1,20h-6V313.05Z"/><path class="cls-1" d="M265.7,313.05v30.82H259V313.05Z"/><path class="cls-1" d="M285.79,313.05,292.4,335h.1l6.61-21.93H306L295.6,344.1H289l-10.41-31.05Z"/><path class="cls-1" d="M339.75,313.05v5.69H325.17v6.8h11.29v5.37H325.17v7.27H339.8v5.69H318.69V313.05Z"/><path class="cls-1" d="M360,343.87H353.4V313.05h13.43c6.47,0,9.9,3.33,9.9,8.61V324a8,8,0,0,1-5.55,7.91l6.57,11.94h-7.18l-6.06-11.25H360Zm0-16.38h5.37c3.29,0,4.72-1.39,4.72-3.7V322c0-2.36-1.34-3.71-4.63-3.71H360Z"/><path class="cls-1" d="M413,321.8v1h-6.57v-.88c0-2.26-1.52-4.07-5.23-4.07-3,0-4.67,1.34-4.67,3.29,0,2.36,1.57,3,6.76,4.72,7.72,2.17,10.08,4.44,10.08,9.44,0,5.83-4.81,9.12-11.89,9.12-8.24,0-12-3.75-12-9.45V333.6H396v.92c0,2.87,1.9,4.54,5.65,4.54,3.24,0,5-1.25,5-3.38,0-2.45-1.2-3.06-6.94-4.91-7.27-1.94-9.9-4.21-9.9-9.34,0-5.28,4.3-8.94,11.52-8.94C409.31,312.49,413,316.29,413,321.8Z"/><path class="cls-1" d="M433.66,313.05v30.82H427V313.05Z"/><path class="cls-1" d="M471.05,313.05v5.83h-8.79v25h-6.62v-25H446.8v-5.83Z"/><path class="cls-1" d="M488.6,313.05l6.34,13.14,6.34-13.14h7l-10.23,19.07v11.75h-6.66V332.12l-10.14-19.07Z"/><path class="cls-1" d="M210.85,107.45V90.88a14.09,14.09,0,0,0-.18-2.27,17,17,0,0,0,2.28.18h12.49c9.5,0,15.08,1.48,15.08,10.12,0,5.61-3.46,10.62-14.69,10.62H213a20.45,20.45,0,0,0-2.24.14A19.62,19.62,0,0,0,210.85,107.45Zm0,38V126.31a15.91,15.91,0,0,0-.15-2.24,19.34,19.34,0,0,0,2.24.15H223.5c8.43,0,18.74,0,18.74,11.67,0,8.64-7.38,11.66-17.32,11.66h-12a16.17,16.17,0,0,0-2.21.17S210.85,146.57,210.85,145.47Zm-30.28-67v79.78c0,2.59.15,3.51-1.68,4.65s-3.64,1.3-6.59,1.8h0c-.3.07-.25,1.19,0,1.19h64.54c27.22,0,38.67-10.81,38.67-27.66,0-12.45-5.8-20.07-17.28-22.93a.19.19,0,0,1,0-.37c7.31-2.28,14-7.58,14-20.55,0-17.59-11.88-23.55-37.8-23.55H172.31c-.29,0-.35,1.11-.06,1.19h.06c2.95.5,4.79.68,6.58,1.8S180.57,75.9,180.57,78.49Z"/><path class="cls-1" d="M505.78,78.49c0-2.59-.16-3.49,1.68-4.63s3.63-1.3,6.58-1.8h.06c.29-.08.24-1.19-.06-1.19h-47.6c-.3,0-.36,1.11-.06,1.19h.05c3,.38,4.4.68,6.2,1.8s1.68,2,1.68,4.64v47.94c0,10.94-6.26,19.34-18.7,19.34s-18.69-8.4-18.69-19.34V78.51c0-2.59-.16-3.51,1.68-4.65s3.29-1.39,6.19-1.8h.06c.29-.07.24-1.19-.06-1.19H399.87c-.34,0-.27,1.11,0,1.18h.05c1.64.1,2.77.19,3.78,1,1.5,1.28,1.74,2.8,1.74,5.38v47.13c0,22.73,12.43,42,50.16,42s50.17-19.29,50.17-42Z"/><path class="cls-1" d="M361.51,165.92c.3,0,.36-1.11.06-1.19h-.05c-3-.5-4.79-.68-6.59-1.8s-1.68-2-1.68-4.64V128l32.92-48.88a23.65,23.65,0,0,1,4.44-5.33c.25-.21.86-.61,1.23-.85a6.6,6.6,0,0,1,3.55-.89h.06c.3,0,.39-1.18.05-1.18H351.1c-.37,0-.29,1.16,0,1.19h.05c2.15,0,4.81,0,4.38,3.11-.25,3-13.05,21.51-17.6,28.54a8.51,8.51,0,0,0-1.39,3.31,8.42,8.42,0,0,0-1.47-3.3c-6.35-9.46-17.22-24.79-17.53-28.55-.27-3.21,2.22-3.12,4.37-3.12H322c.31,0,.42-1.18.06-1.18H275.42c-.28,0-.25,1.07,0,1.18h.06c2,.21,3.07.07,5.4,1.2a8.91,8.91,0,0,1,1.18.78,21.68,21.68,0,0,1,4.2,5.08l32.87,48.68v30.48c0,2.59.16,3.52-1.68,4.65s-3.63,1.3-6.58,1.8h-.06c-.29.07-.24,1.19.06,1.19Z"/></g></svg>