<?xml version="1.0" encoding="utf-8"?>
<!-- Generator: Adobe Illustrator 24.2.1, SVG Export Plug-In . SVG Version: 6.00 Build 0)  -->
<svg version="1.1" id="Layer_1" xmlns="http://www.w3.org/2000/svg" xmlns:xlink="http://www.w3.org/1999/xlink" x="0px" y="0px" viewBox="0 0 400 102" style="enable-background:new 0 0 400 102;" xml:space="preserve">
  <style type="text/css">
	.st0{fill:#CEB77C;}
	.st1{fill:#221F20;}
	.st2{fill:#FFFFFF;}
	.st3{fill:#231F20;}
	.st4{fill:#CFB87C;}
	.st5{fill:none;stroke:#231F20;stroke-width:0.7308;stroke-miterlimit:10;}
	.st6{fill:none;stroke:#231F20;stroke-width:0.6408;stroke-miterlimit:10;}
	.st7{fill:none;stroke:#231F20;stroke-width:0.8458;stroke-miterlimit:10;}
	.st8{fill:none;stroke:#231F20;stroke-width:0.7204;stroke-miterlimit:10;}
	.st9{fill:none;stroke:#231F20;stroke-width:0.7149;stroke-miterlimit:10;}
	.st10{clip-path:url(#SVGID_2_);}
	.st11{opacity:0.1;clip-path:url(#SVGID_4_);}
	.st12{clip-path:url(#SVGID_6_);fill:#231F20;}
	.st13{clip-path:url(#SVGID_8_);}
	.st14{opacity:0.1;clip-path:url(#SVGID_10_);}
	.st15{clip-path:url(#SVGID_12_);fill:#231F20;}
	.st16{fill:none;stroke:#808184;stroke-width:0.8458;stroke-miterlimit:10;}
	.st17{fill:none;stroke:#808184;stroke-width:0.8458;stroke-miterlimit:10;stroke-dasharray:3.4342,3.4342;}
	.st18{fill:#808184;}
	.st19{clip-path:url(#SVGID_14_);}
	.st20{opacity:0.1;clip-path:url(#SVGID_16_);}
	.st21{clip-path:url(#SVGID_18_);fill:#231F20;}
	.st22{fill:#E6E7E8;}
	.st23{fill:none;stroke:#808285;stroke-width:0.8762;stroke-miterlimit:10;}
	.st24{fill:none;stroke:#808285;stroke-width:0.8762;stroke-miterlimit:10;stroke-dasharray:11.9411,11.9411;}
	.st25{fill:#808285;}
	.st26{fill:none;stroke:#808285;stroke-width:0.8762;stroke-miterlimit:10;stroke-dasharray:11.8198,11.8198;}
	.st27{clip-path:url(#SVGID_26_);fill:#231F20;}
	.st28{fill:none;stroke:#231F20;stroke-width:0.6612;stroke-miterlimit:10;}
	.st29{clip-path:url(#SVGID_28_);fill:#231F20;}
	.st30{clip-path:url(#SVGID_30_);fill:#231F20;}
	.st31{fill:none;stroke:#231F20;stroke-width:0.7659;stroke-linecap:round;stroke-linejoin:round;stroke-dasharray:0,2.2868;}
	.st32{fill:none;stroke:#231F20;stroke-width:0.7659;stroke-linecap:round;stroke-linejoin:round;}
	.st33{fill:none;stroke:#231F20;stroke-width:0.7659;stroke-linecap:round;stroke-linejoin:round;stroke-dasharray:0,2.2923;}
	.st34{clip-path:url(#SVGID_32_);fill:#231F20;}
	.st35{clip-path:url(#SVGID_34_);fill:#231F20;}
	.st36{clip-path:url(#SVGID_36_);fill:#231F20;}
	.st37{clip-path:url(#SVGID_38_);fill:#231F20;}
	.st38{clip-path:url(#SVGID_40_);fill:#231F20;}
	.st39{clip-path:url(#SVGID_42_);fill:#231F20;}
	.st40{clip-path:url(#SVGID_44_);}
	.st41{opacity:0.1;clip-path:url(#SVGID_46_);}
	.st42{clip-path:url(#SVGID_48_);fill:#808184;}
	.st43{fill:none;stroke:#231F20;stroke-width:0.4938;stroke-miterlimit:10;}
	.st44{fill:none;stroke:#231F20;stroke-width:0.5815;stroke-miterlimit:10;}
	.st45{fill:none;stroke:#231F20;stroke-width:0.7;stroke-miterlimit:10;}
	.st46{clip-path:url(#SVGID_50_);}
	.st47{opacity:0.1;clip-path:url(#SVGID_52_);}
	.st48{clip-path:url(#SVGID_54_);fill:#231F20;}
	.st49{clip-path:url(#SVGID_56_);}
	.st50{opacity:0.1;clip-path:url(#SVGID_58_);}
	.st51{clip-path:url(#SVGID_60_);fill:#808184;}
	.st52{clip-path:url(#SVGID_62_);}
	.st53{opacity:0.1;clip-path:url(#SVGID_64_);}
	.st54{clip-path:url(#SVGID_66_);fill:#231F20;}
	.st55{clip-path:url(#SVGID_68_);}
	.st56{opacity:0.1;clip-path:url(#SVGID_70_);}
	.st57{clip-path:url(#SVGID_72_);fill:#808184;}
	.st58{fill:none;stroke:#231F20;stroke-width:0.8102;stroke-miterlimit:10;}
	.st59{fill:none;stroke:#808184;stroke-width:0.6686;stroke-miterlimit:10;}
	.st60{fill:none;stroke:#231F20;stroke-width:0.6901;stroke-miterlimit:10;}
	.st61{fill:none;stroke:#808184;stroke-width:0.9573;stroke-miterlimit:10;}
	.st62{fill:none;stroke:#231F20;stroke-width:0.8277;stroke-miterlimit:10;}
	.st63{clip-path:url(#SVGID_74_);}
	.st64{opacity:0.1;clip-path:url(#SVGID_76_);}
	.st65{clip-path:url(#SVGID_78_);fill:#231F20;}
	.st66{clip-path:url(#SVGID_80_);}
	.st67{opacity:0.1;clip-path:url(#SVGID_82_);}
	.st68{clip-path:url(#SVGID_84_);fill:#231F20;}
	.st69{fill:none;stroke:#808184;stroke-width:0.7278;stroke-miterlimit:10;}
	.st70{fill:none;stroke:#808184;stroke-width:0.7278;stroke-miterlimit:10;stroke-dasharray:2.9361,2.9361;}
	.st71{fill:none;stroke:#231F20;stroke-width:0.6288;stroke-miterlimit:10;}
	.st72{fill:#FFFFFF;stroke:#231F20;stroke-width:0.2355;stroke-miterlimit:10;}
	.st73{fill:none;stroke:#C6B784;stroke-width:1.1112;}
	.st74{clip-path:url(#SVGID_86_);fill:none;stroke:#C6B784;stroke-width:1.1112;}
	.st75{clip-path:url(#SVGID_88_);fill:#231F20;}
	.st76{clip-path:url(#SVGID_88_);fill:#CFB87C;}
	.st77{clip-path:url(#SVGID_90_);fill:#231F20;}
	.st78{clip-path:url(#SVGID_90_);fill:#CFB87C;}
	.st79{clip-path:url(#SVGID_92_);fill:#231F20;}
	.st80{clip-path:url(#SVGID_94_);fill:#231F20;}
	.st81{fill:none;stroke:#231F20;stroke-width:1.0824;}
	.st82{clip-path:url(#SVGID_96_);fill:#231F20;}
	.st83{clip-path:url(#SVGID_98_);fill:#231F20;}
	.st84{clip-path:url(#SVGID_100_);fill:#231F20;}
	.st85{clip-path:url(#SVGID_102_);fill:#231F20;}
	.st86{clip-path:url(#SVGID_104_);fill:#231F20;}
	.st87{clip-path:url(#SVGID_106_);fill:#231F20;}
	.st88{clip-path:url(#SVGID_108_);fill:#231F20;}
	.st89{clip-path:url(#SVGID_110_);fill:#231F20;}
	.st90{clip-path:url(#SVGID_112_);fill:#231F20;}
	.st91{clip-path:url(#SVGID_114_);fill:#231F20;}
	.st92{clip-path:url(#SVGID_116_);fill:#231F20;}
	.st93{clip-path:url(#SVGID_118_);fill:#231F20;}
	.st94{clip-path:url(#SVGID_120_);fill:#231F20;}
	.st95{clip-path:url(#SVGID_122_);fill:#231F20;}
	.st96{clip-path:url(#SVGID_124_);fill:#231F20;}
	.st97{clip-path:url(#SVGID_126_);fill:#231F20;}
	.st98{clip-path:url(#SVGID_128_);fill:#231F20;}
	.st99{clip-path:url(#SVGID_130_);fill:#231F20;}
	.st100{clip-path:url(#SVGID_132_);fill:#231F20;}
	.st101{clip-path:url(#SVGID_134_);fill:#231F20;}
	.st102{clip-path:url(#SVGID_136_);fill:#231F20;}
	.st103{clip-path:url(#SVGID_138_);fill:#231F20;}
	.st104{clip-path:url(#SVGID_140_);fill:#231F20;}
	.st105{clip-path:url(#SVGID_142_);fill:#231F20;}
	.st106{clip-path:url(#SVGID_144_);fill:#231F20;}
	.st107{clip-path:url(#SVGID_146_);fill:#231F20;}
	.st108{fill:none;stroke:#C6B784;stroke-width:2.2223;}
</style>
  <g>
    <g>
      <polygon class="st4" points="56.8,37.5 56.8,31.2 49.2,23.6 22.9,23.6 15.3,31.2 15.3,57.4 22.9,65 31.2,65 31.2,71.4 38.9,79 
			61.1,79 68.8,71.4 68.8,51.1 72.7,51.1 72.7,37.5 		" />
      <polygon class="st3" points="48.9,24.4 56,31.5 56,38.3 71.9,38.3 71.9,50.3 68,50.3 68,71.1 60.8,78.2 39.2,78.2 32,71.1 
			32,64.2 23.2,64.2 16.1,57.1 16.1,31.5 23.2,24.4 		" />
      <polyline class="st2" points="24,62.2 34,62.2 34,70.2 40,76.2 60,76.2 66,70.2 66,48.3 69.9,48.3 69.9,40.3 57.9,40.3 57.9,68.2 
			42,68.2 42,62.2 48,62.2 54,56.3 54,48.3 46,48.3 46,54.3 42,54.3 42,40.3 30,40.3 30,48.3 34,48.3 34,54.3 26,54.3 26,34.3 
			46,34.3 46,40.3 54,40.3 54,32.3 48,26.3 24,26.3 18,32.3 18,56.3 24,62.2 		" />
      <polygon class="st4" points="41,61.3 47.6,61.3 53,55.9 53,49.3 47,49.3 47,55.2 41,55.2 41,41.3 31,41.3 31,47.3 35,47.3 
			35,55.2 25.1,55.2 25.1,33.3 47,33.3 47,39.3 53,39.3 53,32.7 47.6,27.3 24.4,27.3 19,32.7 19,55.9 24.4,61.3 35,61.3 35,69.8 
			40.5,75.3 59.6,75.3 65,69.8 65,47.3 69,47.3 69,41.3 58.9,41.3 58.9,69.2 41,69.2 		" />
    </g>
    <g>
      <path class="st3" d="M87.3,37.8h1.6v10.2c0,3.8,1.8,5.3,4.8,5.3c3,0,4.9-1.5,4.9-5.3V37.8h1.6v10.6c0,3.4-1.8,6.3-6.4,6.3
			c-4.6,0-6.4-2.9-6.4-6.3V37.8z" />
      <path class="st3" d="M102.9,42.4h1.5v2.1h0c0.5-1.4,2.1-2.4,3.8-2.4c3.3,0,4.4,1.8,4.4,4.6v7.7h-1.5v-7.4c0-2.1-0.7-3.6-3-3.6
			c-2.3,0-3.7,1.8-3.7,4.1v7h-1.5V42.4z" />
      <path class="st3" d="M115.2,37.8h1.5v2.3h-1.5V37.8z M115.2,42.4h1.5v11.9h-1.5V42.4z" />
      <path class="st3" d="M118,42.4h1.6l3.7,10.5h0l3.7-10.5h1.5l-4.5,11.9h-1.5L118,42.4z" />
      <path class="st3" d="M130.4,48.8c0,2.1,1.1,4.7,3.9,4.7c2.1,0,3.3-1.2,3.7-3h1.5c-0.6,2.7-2.2,4.3-5.2,4.3c-3.8,0-5.4-2.9-5.4-6.3
			c0-3.1,1.6-6.3,5.4-6.3c3.8,0,5.4,3.3,5.2,6.7H130.4z M138.1,47.5c-0.1-2.2-1.4-4.3-3.8-4.3c-2.4,0-3.7,2.1-3.9,4.3H138.1z" />
      <path class="st3" d="M141.5,42.4h1.3v2.8h0c0.7-1.9,2.4-3,4.5-3v1.5c-2.6-0.1-4.4,1.8-4.4,4.3v6.4h-1.5V42.4z" />
      <path class="st3" d="M155.8,45.9c-0.1-1.8-1.5-2.6-3.1-2.6c-1.3,0-2.8,0.5-2.8,2.1c0,1.3,1.5,1.8,2.5,2l1.9,0.4
			c1.7,0.3,3.4,1.2,3.4,3.3c0,2.6-2.6,3.6-4.8,3.6c-2.8,0-4.7-1.3-4.9-4.2h1.5c0.1,2,1.6,3,3.5,3c1.4,0,3.3-0.6,3.3-2.3
			c0-1.4-1.3-1.8-2.6-2.2l-1.9-0.4c-1.9-0.5-3.3-1.2-3.3-3.2c0-2.4,2.4-3.3,4.5-3.3c2.4,0,4.3,1.2,4.4,3.8H155.8z" />
      <path class="st3" d="M159.6,37.8h1.5v2.3h-1.5V37.8z M159.6,42.4h1.5v11.9h-1.5V42.4z" />
      <path class="st3" d="M166,42.4h2.4v1.2H166v8c0,0.9,0.1,1.5,1.2,1.6c0.4,0,0.8,0,1.2-0.1v1.2c-0.4,0-0.9,0-1.3,0
			c-1.9,0-2.6-0.6-2.6-2.7v-8.2h-2.1v-1.2h2.1v-3.6h1.5V42.4z" />
      <path class="st3" d="M169.5,42.4h1.5l3.9,10.2l3.7-10.2h1.5l-5.2,13.7c-0.8,2-1.3,2.6-3.1,2.6c-0.6,0-0.9,0-1.1-0.1v-1.2
			c0.3,0.1,0.7,0.1,1,0.1c1.3,0,1.6-0.8,2.1-1.9l0.5-1.4L169.5,42.4z" />
      <path class="st3" d="M198.6,48.4c0,3.4-2,6.3-5.6,6.3c-3.6,0-5.6-2.9-5.6-6.3c0-3.4,2-6.3,5.6-6.3C196.6,42.1,198.6,45,198.6,48.4
			z M188.8,48.4c0,2.5,1.4,5.1,4.2,5.1c2.8,0,4.2-2.5,4.2-5.1s-1.4-5.1-4.2-5.1C190.2,43.3,188.8,45.8,188.8,48.4z" />
      <path class="st3" d="M204.9,43.6h-2.4v10.7h-1.5V43.6h-2v-1.2h2v-1.1c0-2.1,0.6-3.5,2.9-3.5c0.4,0,0.8,0,1.2,0.1v1.2
			c-0.4-0.1-0.7-0.1-1.1-0.1c-1.6,0-1.6,1-1.6,2.3v1h2.4V43.6z" />
      <path class="st3" d="M225,42.8c-0.6-2.5-2.7-4-5.1-4c-4.4,0-6.2,3.6-6.2,7.3c0,3.6,1.8,7.3,6.2,7.3c3,0,5-2.4,5.3-5.3h1.6
			c-0.4,4-3,6.6-6.9,6.6c-5.2,0-7.8-4.1-7.8-8.6c0-4.5,2.6-8.6,7.8-8.6c3.1,0,6.2,1.9,6.6,5.3H225z" />
      <path class="st3" d="M239.5,48.4c0,3.4-2,6.3-5.6,6.3c-3.6,0-5.6-2.9-5.6-6.3c0-3.4,2-6.3,5.6-6.3C237.6,42.1,239.5,45,239.5,48.4
			z M229.7,48.4c0,2.5,1.4,5.1,4.2,5.1s4.2-2.5,4.2-5.1s-1.4-5.1-4.2-5.1S229.7,45.8,229.7,48.4z" />
      <path class="st3" d="M241.6,37.8h1.5v16.5h-1.5V37.8z" />
      <path class="st3" d="M256.3,48.4c0,3.4-2,6.3-5.6,6.3c-3.6,0-5.6-2.9-5.6-6.3c0-3.4,2-6.3,5.6-6.3C254.3,42.1,256.3,45,256.3,48.4
			z M246.5,48.4c0,2.5,1.4,5.1,4.2,5.1c2.8,0,4.2-2.5,4.2-5.1s-1.4-5.1-4.2-5.1C247.9,43.3,246.5,45.8,246.5,48.4z" />
      <path class="st3" d="M258.3,42.4h1.3v2.8h0c0.7-1.9,2.4-3,4.5-3v1.5c-2.6-0.1-4.4,1.8-4.4,4.3v6.4h-1.5V42.4z" />
      <path class="st3" d="M265.2,46.1c0.1-2.8,2.1-4,4.8-4c2.1,0,4.4,0.6,4.4,3.8v6.3c0,0.6,0.3,0.9,0.9,0.9c0.2,0,0.3,0,0.5-0.1v1.2
			c-0.3,0.1-0.6,0.1-0.9,0.1c-1.5,0-1.7-0.8-1.7-2.1h0c-1,1.5-2.1,2.4-4.3,2.4c-2.2,0-4-1.1-4-3.5c0-3.3,3.3-3.5,6.4-3.8
			c1.2-0.1,1.9-0.3,1.9-1.6c0-2-1.4-2.4-3.1-2.4c-1.8,0-3.1,0.8-3.2,2.8H265.2z M273,47.8L273,47.8c-0.2,0.3-0.9,0.5-1.3,0.5
			c-2.5,0.4-5.5,0.4-5.5,2.7c0,1.5,1.3,2.4,2.7,2.4c2.2,0,4.2-1.4,4.2-3.7V47.8z" />
      <path class="st3" d="M287.5,54.3h-1.3v-2.3h0c-0.6,1.5-2.5,2.6-4.2,2.6c-3.6,0-5.4-2.9-5.4-6.3c0-3.4,1.7-6.3,5.4-6.3
			c1.8,0,3.5,0.9,4.1,2.6h0v-6.8h1.5V54.3z M281.9,53.5c3.1,0,4.2-2.6,4.2-5.1c0-2.5-1.1-5.1-4.2-5.1c-2.8,0-3.9,2.6-3.9,5.1
			C278,50.8,279.1,53.5,281.9,53.5z" />
      <path class="st3" d="M300.8,48.4c0,3.4-2,6.3-5.6,6.3c-3.6,0-5.6-2.9-5.6-6.3c0-3.4,2-6.3,5.6-6.3C298.8,42.1,300.8,45,300.8,48.4
			z M291,48.4c0,2.5,1.4,5.1,4.2,5.1c2.8,0,4.2-2.5,4.2-5.1s-1.4-5.1-4.2-5.1C292.4,43.3,291,45.8,291,48.4z" />
      <path class="st3" d="M309.6,37.8h7.1c4.3,0,7.5,2.7,7.5,8.2c0,4.8-2.4,8.3-7.5,8.3h-7.1V37.8z M313.3,51.3h3.2
			c2.1,0,4.1-1.3,4.1-4.9c0-3.3-1.2-5.5-4.8-5.5h-2.6V51.3z" />
      <path class="st3" d="M329.1,49.2c0.1,2.1,1.1,3,2.9,3c1.3,0,2.4-0.8,2.6-1.5h2.9c-0.9,2.8-2.9,4-5.6,4c-3.8,0-6.1-2.6-6.1-6.3
			c0-3.6,2.5-6.3,6.1-6.3c4.1,0,6,3.4,5.8,7.1H329.1z M334.5,47.1c-0.3-1.7-1-2.5-2.6-2.5c-2.1,0-2.7,1.6-2.7,2.5H334.5z" />
      <path class="st3" d="M339.7,42.4h3.1v1.7h0.1c0.8-1.3,2.3-2,3.6-2c3.5,0,4.4,2,4.4,4.9v7.3h-3.3v-6.7c0-2-0.6-2.9-2.1-2.9
			c-1.8,0-2.5,1-2.5,3.4v6.3h-3.3V42.4z" />
      <path class="st3" d="M359.6,54.3H356l-4.1-11.9h3.4l2.5,8.2h0l2.5-8.2h3.3L359.6,54.3z" />
      <path class="st3" d="M367.4,49.2c0.1,2.1,1.1,3,2.9,3c1.3,0,2.4-0.8,2.6-1.5h2.9c-0.9,2.8-2.9,4-5.6,4c-3.8,0-6.1-2.6-6.1-6.3
			c0-3.6,2.5-6.3,6.1-6.3c4.1,0,6,3.4,5.8,7.1H367.4z M372.7,47.1c-0.3-1.7-1-2.5-2.6-2.5c-2.1,0-2.7,1.6-2.7,2.5H372.7z" />
      <path class="st3" d="M378,42.4h3.1v2.2h0c0.6-1.5,2.2-2.5,3.8-2.5c0.2,0,0.5,0,0.7,0.1v3c-0.3-0.1-0.8-0.1-1.2-0.1
			c-2.4,0-3.2,1.7-3.2,3.8v5.4H378V42.4z" />
    </g>
  </g>
</svg>