<svg width="50" height="50" viewBox="0 0 50 50" fill="none" xmlns="http://www.w3.org/2000/svg">
<circle cx="25" cy="25" r="25" fill="#F0F0F7"/>
<path d="M33.4975 18.8138V34.9694C33.4037 35.202 33.2638 35.4132 33.0863 35.5903C32.9087 35.7674 32.6972 35.9068 32.4643 36H18.0306C17.7983 35.9065 17.5872 35.767 17.4101 35.5899C17.233 35.4128 17.0935 35.2017 17 34.9694V18.8138C17.3343 18.0338 17.9243 17.7097 18.7726 17.7756C19.2056 17.811 19.6436 17.7756 20.1248 17.7756V16.0536H22.4418C22.8216 15.5472 23.09 15.0407 23.4901 14.6761C23.8168 14.3722 24.308 14.2228 24.7309 14H25.7615C26.8073 14.3393 27.6024 14.9445 27.9164 16.0739H30.4006V17.7806C30.8715 17.7806 31.2995 17.8085 31.7224 17.7806C32.5732 17.7097 33.1632 18.0212 33.4975 18.8138ZM32.0921 34.6073V19.1911H30.3854V20.8471H20.0716V19.1809H18.3978V34.6073H32.0921ZM26.6225 17.4286C26.6225 17.1957 26.6225 17.026 26.6225 16.8538C26.6225 15.9878 26.0325 15.3699 25.2348 15.3775C24.4372 15.3851 23.8826 15.9954 23.8725 16.8361C23.8725 17.0285 23.8725 17.2235 23.8725 17.4616H21.4896V19.4747H28.9977V17.4286H26.6225Z" fill="#4E4E56" stroke="#4E4E56" stroke-width="0.3"/>
<path d="M29.8942 24.4251L23.9333 31.1228L20.6743 28.2715L21.5707 27.2359L23.8168 29.1857L28.8559 23.5186L29.8942 24.4251Z" fill="#4E4E56" stroke="#4E4E56" stroke-width="0.3"/>
<path d="M25.931 16.7551C25.93 16.8914 25.8883 17.0244 25.8114 17.1369C25.7344 17.2495 25.6257 17.3366 25.499 17.3871C25.3724 17.4376 25.2335 17.4493 25.1002 17.4205C24.9669 17.3918 24.8452 17.324 24.7506 17.2258C24.656 17.1276 24.5928 17.0035 24.5691 16.8692C24.5453 16.7349 24.5621 16.5966 24.6173 16.4719C24.6725 16.3472 24.7636 16.2418 24.879 16.1691C24.9944 16.0964 25.1288 16.0598 25.2651 16.0638C25.444 16.0703 25.6134 16.1461 25.7376 16.275C25.8618 16.4039 25.9312 16.576 25.931 16.7551Z" fill="#4E4E56" stroke="#4E4E56" stroke-width="0.3"/>
</svg>
