<svg width="50" height="50" viewBox="0 0 50 50" fill="none" xmlns="http://www.w3.org/2000/svg">
<circle cx="25" cy="25" r="25" fill="#F0F0F7"/>
<path d="M17.4957 32.0996H23.9198C25.3365 32.0996 26.4933 33.2219 26.5549 34.6229H27.4155V36H25.872H15.5439H14.0004V34.6229H14.8611C14.923 33.2219 16.0798 32.0996 17.4957 32.0996ZM25.1782 34.6229C25.1191 33.9813 24.5771 33.4767 23.9198 33.4767H17.4957C16.8392 33.4767 16.2973 33.9813 16.2381 34.6229H25.1782Z" fill="#4E4E56" stroke="#4E4E56" stroke-width="0.4"/>
<path d="M23.2772 28.5755L24.0075 29.3054L23.0338 30.2791L17.5312 24.7772L17.191 24.437C17.191 24.437 17.191 24.437 17.191 24.4362L15.9743 23.2195L16.948 22.2458L17.6782 22.9761L24.9504 15.7039L24.2201 14.9737L25.1938 14L26.4105 15.2167C26.4105 15.2167 26.4105 15.2167 26.4113 15.2167L31.0367 19.842C31.0375 19.8429 31.0383 19.8445 31.0399 19.8461L32.2533 21.0595L31.2797 22.0332L30.5494 21.303L28.3789 23.4731L34.8479 28.7748L34.8985 28.8206C36.0298 29.9526 36.0298 31.7942 34.8994 32.9255C34.351 33.4743 33.6219 33.7768 32.8467 33.7768C32.0715 33.7768 31.342 33.4747 30.7941 32.9255L25.4469 26.4054L23.2772 28.5755ZM25.9241 16.678L18.6519 23.9502L19.0063 24.3054L22.3036 27.6019L29.5757 20.3293L25.9241 16.678ZM31.79 31.9737C32.3692 32.5306 33.3562 32.5221 33.9257 31.9514C34.5126 31.3645 34.5199 30.4127 33.9463 29.8165L27.4004 24.4516L26.4251 25.4269L31.79 31.9737Z" fill="#4E4E56" stroke="#4E4E56" stroke-width="0.4"/>
</svg>
