<svg width="50" height="50" viewBox="0 0 50 50" fill="none" xmlns="http://www.w3.org/2000/svg">
<circle cx="25" cy="25" r="25" fill="#F0F0F7"/>
<path d="M30.9442 15.0006C30.798 15.0144 30.6622 15.0824 30.5635 15.1913C30.4649 15.3001 30.4105 15.442 30.4111 15.5889V19.7064H24.529C24.373 19.7064 24.2234 19.7684 24.1131 19.8787C24.0028 19.989 23.9408 20.1386 23.9408 20.2946V24.7062H18.0586C17.9026 24.7062 17.753 24.7682 17.6427 24.8785C17.5324 24.9888 17.4704 25.1384 17.4704 25.2944V28.8237H11.5882C11.4322 28.8237 11.2826 28.8857 11.1723 28.996C11.062 29.1063 11 29.2559 11 29.4119V34.4118C11 34.5678 11.062 34.7174 11.1723 34.8277C11.2826 34.938 11.4322 35 11.5882 35H37.4697C37.6257 35 37.7753 34.938 37.8856 34.8277C37.996 34.7174 38.0579 34.5678 38.0579 34.4118V15.5889C38.0579 15.4329 37.996 15.2833 37.8856 15.1729C37.7753 15.0626 37.6257 15.0007 37.4697 15.0006H30.9994C30.981 14.9998 30.9626 14.9998 30.9442 15.0006ZM31.5876 16.1771H36.8815V33.8236H31.5876V16.1771ZM25.1172 20.8828H30.4111V33.8236H25.1172V20.8828ZM18.6468 25.8826H23.9408V33.8236H18.6468V25.8826ZM12.1764 30.0002H17.4704V33.8236H12.1764V30.0002Z" fill="#4E4E56" stroke="#4E4E56" stroke-width="0.5"/>
</svg>
